<svg xmlns="http://www.w3.org/2000/svg" xmlns:xlink="http://www.w3.org/1999/xlink" width="337" height="352.156" viewBox="0 0 337 352.156"><defs><clipPath id="a"><rect width="47.108" height="48.435" fill="none"/></clipPath><clipPath id="b"><rect width="37.358" height="38.202" fill="none"/></clipPath><clipPath id="c"><rect width="40.507" height="40.507" fill="none"/></clipPath><clipPath id="d"><rect width="42.437" height="35.211" fill="none"/></clipPath></defs><g transform="translate(-600 -1660)"><path d="M13.84,14.656H9.73L8.949,17H6.457L10.691,5.625h2.172L17.121,17H14.629Zm-3.477-1.9h2.844L11.777,8.5Zm9.375-4.211.07.977a2.951,2.951,0,0,1,2.43-1.133,2.453,2.453,0,0,1,2,.789,3.682,3.682,0,0,1,.672,2.359V17H22.652V11.594a1.465,1.465,0,0,0-.312-1.043,1.4,1.4,0,0,0-1.039-.324,1.553,1.553,0,0,0-1.43.813V17H17.613V8.547ZM31.52,17a2.507,2.507,0,0,1-.227-.758,2.732,2.732,0,0,1-2.133.914,3,3,0,0,1-2.059-.719,2.312,2.312,0,0,1-.816-1.812,2.389,2.389,0,0,1,1-2.062,4.915,4.915,0,0,1,2.879-.727H31.2v-.484a1.393,1.393,0,0,0-.3-.937,1.183,1.183,0,0,0-.949-.352,1.345,1.345,0,0,0-.895.273.929.929,0,0,0-.324.75H26.473a2.268,2.268,0,0,1,.453-1.359,3,3,0,0,1,1.281-.98,4.669,4.669,0,0,1,1.859-.355,3.689,3.689,0,0,1,2.48.785,2.747,2.747,0,0,1,.918,2.207v3.664a4.041,4.041,0,0,0,.336,1.82V17Zm-1.867-1.57a1.945,1.945,0,0,0,.922-.223,1.462,1.462,0,0,0,.625-.6V13.156h-.844q-1.7,0-1.8,1.172l-.008.133a.9.9,0,0,0,.3.7A1.153,1.153,0,0,0,29.652,15.43ZM30.512,5h2.461L30.809,7.422H28.973Zm7.07,12H35.316V5h2.266Zm4.242,0H39.559V8.547h2.266Zm-2.4-10.641a1.112,1.112,0,0,1,.34-.836,1.465,1.465,0,0,1,1.848,0,1.105,1.105,0,0,1,.344.836,1.108,1.108,0,0,1-.348.844,1.448,1.448,0,0,1-1.836,0A1.108,1.108,0,0,1,39.426,6.359Zm8.836,8.3a.727.727,0,0,0-.41-.652,4.659,4.659,0,0,0-1.316-.426q-3.016-.633-3.016-2.562a2.323,2.323,0,0,1,.934-1.879,3.766,3.766,0,0,1,2.441-.754,4.053,4.053,0,0,1,2.574.758,2.388,2.388,0,0,1,.965,1.969H48.176a1.092,1.092,0,0,0-.312-.8A1.322,1.322,0,0,0,46.887,10a1.351,1.351,0,0,0-.883.258.814.814,0,0,0-.312.656.7.7,0,0,0,.355.605,3.657,3.657,0,0,0,1.2.4,9.8,9.8,0,0,1,1.422.379,2.336,2.336,0,0,1,1.789,2.273,2.2,2.2,0,0,1-.992,1.871,4.28,4.28,0,0,1-2.562.715,4.47,4.47,0,0,1-1.887-.379,3.166,3.166,0,0,1-1.293-1.039,2.414,2.414,0,0,1-.469-1.426h2.141a1.179,1.179,0,0,0,.445.922,1.766,1.766,0,0,0,1.109.32,1.635,1.635,0,0,0,.98-.246A.766.766,0,0,0,48.262,14.664ZM54.293,17H52.027V8.547h2.266Zm-2.4-10.641a1.112,1.112,0,0,1,.34-.836,1.465,1.465,0,0,1,1.848,0,1.105,1.105,0,0,1,.344.836,1.108,1.108,0,0,1-.348.844,1.448,1.448,0,0,1-1.836,0A1.108,1.108,0,0,1,51.895,6.359Zm8.836,8.3a.727.727,0,0,0-.41-.652A4.659,4.659,0,0,0,59,13.586q-3.016-.633-3.016-2.562a2.323,2.323,0,0,1,.934-1.879,3.766,3.766,0,0,1,2.441-.754,4.053,4.053,0,0,1,2.574.758,2.388,2.388,0,0,1,.965,1.969H60.645a1.092,1.092,0,0,0-.312-.8A1.322,1.322,0,0,0,59.355,10a1.351,1.351,0,0,0-.883.258.814.814,0,0,0-.312.656.7.7,0,0,0,.355.605,3.657,3.657,0,0,0,1.2.4,9.8,9.8,0,0,1,1.422.379,2.336,2.336,0,0,1,1.789,2.273,2.2,2.2,0,0,1-.992,1.871,4.28,4.28,0,0,1-2.562.715,4.47,4.47,0,0,1-1.887-.379,3.166,3.166,0,0,1-1.293-1.039,2.414,2.414,0,0,1-.469-1.426h2.141a1.179,1.179,0,0,0,.445.922,1.766,1.766,0,0,0,1.109.32,1.635,1.635,0,0,0,.98-.246A.766.766,0,0,0,60.73,14.664ZM70.746,17H68.48V8.547h2.266Zm-2.4-10.641a1.112,1.112,0,0,1,.34-.836,1.465,1.465,0,0,1,1.848,0,1.105,1.105,0,0,1,.344.836,1.108,1.108,0,0,1-.348.844,1.448,1.448,0,0,1-1.836,0A1.108,1.108,0,0,1,68.348,6.359Zm6.336,2.188.07.977a2.951,2.951,0,0,1,2.43-1.133,2.453,2.453,0,0,1,2,.789,3.682,3.682,0,0,1,.672,2.359V17H77.6V11.594a1.465,1.465,0,0,0-.312-1.043,1.4,1.4,0,0,0-1.039-.324,1.553,1.553,0,0,0-1.43.813V17H72.559V8.547ZM84.27,6.469V8.547h1.445V10.2H84.27v4.219a1.007,1.007,0,0,0,.18.672.9.9,0,0,0,.688.2,3.6,3.6,0,0,0,.664-.055v1.711a4.648,4.648,0,0,1-1.367.2,2.156,2.156,0,0,1-2.422-2.4V10.2H80.777V8.547h1.234V6.469Zm6.594,10.688a4.15,4.15,0,0,1-3.027-1.141,4.054,4.054,0,0,1-1.168-3.039v-.219a5.106,5.106,0,0,1,.492-2.277,3.612,3.612,0,0,1,1.395-1.547,3.914,3.914,0,0,1,2.059-.543,3.508,3.508,0,0,1,2.73,1.094,4.444,4.444,0,0,1,1,3.1v.922H88.957a2.1,2.1,0,0,0,.66,1.328,2,2,0,0,0,1.395.5,2.437,2.437,0,0,0,2.039-.945l1.109,1.242a3.389,3.389,0,0,1-1.375,1.121A4.511,4.511,0,0,1,90.863,17.156Zm-.258-6.945a1.411,1.411,0,0,0-1.09.455,2.357,2.357,0,0,0-.535,1.3h3.141v-.181a1.681,1.681,0,0,0-.406-1.165A1.456,1.456,0,0,0,90.605,10.211Zm9.766.453a6.134,6.134,0,0,0-.812-.062,1.654,1.654,0,0,0-1.68.867V17H95.621V8.547h2.133l.063,1.008A2.092,2.092,0,0,1,99.7,8.391a2.366,2.366,0,0,1,.7.1Zm3.164-2.117.07.977a2.951,2.951,0,0,1,2.43-1.133,2.453,2.453,0,0,1,2,.789,3.682,3.682,0,0,1,.672,2.359V17h-2.258V11.594a1.465,1.465,0,0,0-.312-1.043,1.4,1.4,0,0,0-1.039-.324,1.553,1.553,0,0,0-1.43.813V17H101.41V8.547Zm6.531,4.148a5.013,5.013,0,0,1,.484-2.242,3.546,3.546,0,0,1,1.395-1.523,4.069,4.069,0,0,1,2.113-.539,3.849,3.849,0,0,1,2.793,1.047,4.2,4.2,0,0,1,1.207,2.844l.016.578a4.418,4.418,0,0,1-1.086,3.121,4.209,4.209,0,0,1-5.832,0,4.5,4.5,0,0,1-1.09-3.187Zm2.258.16a3.16,3.16,0,0,0,.453,1.843,1.628,1.628,0,0,0,2.578.008,3.457,3.457,0,0,0,.461-2.015,3.128,3.128,0,0,0-.461-1.831,1.5,1.5,0,0,0-1.3-.649,1.474,1.474,0,0,0-1.281.646A3.516,3.516,0,0,0,112.324,12.856Z" transform="translate(707 1655)" fill="#126783"/><ellipse cx="75.5" cy="75" rx="75.5" ry="75" transform="translate(625 1684)" fill="#25e0ac"/><ellipse cx="75.5" cy="75" rx="75.5" ry="75" transform="translate(763 1684)" fill="#e8e8e8"/><circle cx="75.5" cy="75.5" r="75.5" transform="translate(763 1830)" fill="#b1dbea"/><circle cx="75.5" cy="75.5" r="75.5" transform="translate(624 1830)" fill="#126783"/><path d="M3.383,17V5.625h3.5A5.315,5.315,0,0,1,9.566,6.3a4.712,4.712,0,0,1,1.848,1.922,5.928,5.928,0,0,1,.664,2.832v.523a5.945,5.945,0,0,1-.652,2.82,4.672,4.672,0,0,1-1.84,1.914A5.355,5.355,0,0,1,6.906,17ZM5.727,7.523v7.594H6.859a2.545,2.545,0,0,0,2.1-.9,4.06,4.06,0,0,0,.742-2.57v-.6a4.124,4.124,0,0,0-.719-2.629,2.537,2.537,0,0,0-2.1-.895Zm11.8,9.633A4.15,4.15,0,0,1,14.5,16.016a4.054,4.054,0,0,1-1.168-3.039v-.219a5.106,5.106,0,0,1,.492-2.277,3.612,3.612,0,0,1,1.395-1.547,3.914,3.914,0,0,1,2.059-.543A3.508,3.508,0,0,1,20,9.484a4.444,4.444,0,0,1,1,3.1v.922H15.617a2.1,2.1,0,0,0,.66,1.328,2,2,0,0,0,1.395.5,2.437,2.437,0,0,0,2.039-.945l1.109,1.242a3.389,3.389,0,0,1-1.375,1.121A4.511,4.511,0,0,1,17.523,17.156Zm-.258-6.945a1.411,1.411,0,0,0-1.09.455,2.357,2.357,0,0,0-.535,1.3h3.141v-.181a1.681,1.681,0,0,0-.406-1.165A1.456,1.456,0,0,0,17.266,10.211ZM29.9,12.852a5.119,5.119,0,0,1-.867,3.168,2.872,2.872,0,0,1-2.422,1.137,2.639,2.639,0,0,1-2.2-1.055l-.1.9H22.281V5h2.258V9.3a2.571,2.571,0,0,1,2.055-.914A2.9,2.9,0,0,1,29.02,9.527a5.126,5.126,0,0,1,.879,3.2Zm-2.258-.164a3.363,3.363,0,0,0-.406-1.871,1.374,1.374,0,0,0-1.211-.59,1.489,1.489,0,0,0-1.484.883v3.336a1.509,1.509,0,0,0,1.5.891,1.394,1.394,0,0,0,1.438-1.078A5.562,5.562,0,0,0,27.641,12.688ZM33.672,17H31.406V8.547h2.266Zm-2.4-10.641a1.112,1.112,0,0,1,.34-.836,1.465,1.465,0,0,1,1.848,0,1.105,1.105,0,0,1,.344.836,1.108,1.108,0,0,1-.348.844,1.448,1.448,0,0,1-1.836,0A1.108,1.108,0,0,1,31.273,6.359ZM37.914,17H35.648V5h2.266Zm4.242,0H39.891V8.547h2.266Zm-2.4-10.641a1.112,1.112,0,0,1,.34-.836,1.465,1.465,0,0,1,1.848,0,1.105,1.105,0,0,1,.344.836,1.108,1.108,0,0,1-.348.844,1.448,1.448,0,0,1-1.836,0A1.108,1.108,0,0,1,39.758,6.359Zm3.906,6.352a5.094,5.094,0,0,1,.887-3.148,2.877,2.877,0,0,1,2.426-1.172,2.589,2.589,0,0,1,2.039.922V5h2.266V17H49.242l-.109-.9a2.657,2.657,0,0,1-2.172,1.055,2.869,2.869,0,0,1-2.395-1.176A5.258,5.258,0,0,1,43.664,12.711Zm2.258.168a3.337,3.337,0,0,0,.414,1.823,1.349,1.349,0,0,0,1.2.634,1.511,1.511,0,0,0,1.477-.884V11.111a1.489,1.489,0,0,0-1.461-.884Q45.922,10.227,45.922,12.879ZM57.93,17a2.507,2.507,0,0,1-.227-.758,2.732,2.732,0,0,1-2.133.914,3,3,0,0,1-2.059-.719,2.312,2.312,0,0,1-.816-1.812,2.389,2.389,0,0,1,1-2.062,4.915,4.915,0,0,1,2.879-.727h1.039v-.484a1.393,1.393,0,0,0-.3-.937,1.183,1.183,0,0,0-.949-.352,1.345,1.345,0,0,0-.895.273.929.929,0,0,0-.324.75H52.883a2.268,2.268,0,0,1,.453-1.359,3,3,0,0,1,1.281-.98,4.669,4.669,0,0,1,1.859-.355,3.689,3.689,0,0,1,2.48.785,2.747,2.747,0,0,1,.918,2.207v3.664a4.041,4.041,0,0,0,.336,1.82V17Zm-1.867-1.57a1.945,1.945,0,0,0,.922-.223,1.462,1.462,0,0,0,.625-.6V13.156h-.844q-1.7,0-1.8,1.172l-.008.133a.9.9,0,0,0,.3.7A1.153,1.153,0,0,0,56.063,15.43Zm5.2-2.719a5.094,5.094,0,0,1,.887-3.148A2.877,2.877,0,0,1,64.57,8.391a2.589,2.589,0,0,1,2.039.922V5h2.266V17H66.836l-.109-.9a2.657,2.657,0,0,1-2.172,1.055A2.869,2.869,0,0,1,62.16,15.98,5.258,5.258,0,0,1,61.258,12.711Zm2.258.168A3.337,3.337,0,0,0,63.93,14.7a1.349,1.349,0,0,0,1.2.634,1.511,1.511,0,0,0,1.477-.884V11.111a1.489,1.489,0,0,0-1.461-.884Q63.516,10.227,63.516,12.879Zm11,4.277a4.15,4.15,0,0,1-3.027-1.141,4.054,4.054,0,0,1-1.168-3.039v-.219a5.106,5.106,0,0,1,.492-2.277,3.612,3.612,0,0,1,1.395-1.547,3.914,3.914,0,0,1,2.059-.543A3.508,3.508,0,0,1,77,9.484a4.444,4.444,0,0,1,1,3.1v.922H72.609a2.1,2.1,0,0,0,.66,1.328,2,2,0,0,0,1.395.5,2.437,2.437,0,0,0,2.039-.945l1.109,1.242a3.389,3.389,0,0,1-1.375,1.121A4.511,4.511,0,0,1,74.516,17.156Zm-.258-6.945a1.411,1.411,0,0,0-1.09.455,2.357,2.357,0,0,0-.535,1.3h3.141v-.181a1.681,1.681,0,0,0-.406-1.165A1.456,1.456,0,0,0,74.258,10.211Zm9.594,4.453a.727.727,0,0,0-.41-.652,4.659,4.659,0,0,0-1.316-.426q-3.016-.633-3.016-2.562a2.323,2.323,0,0,1,.934-1.879,3.766,3.766,0,0,1,2.441-.754,4.053,4.053,0,0,1,2.574.758,2.388,2.388,0,0,1,.965,1.969H83.766a1.092,1.092,0,0,0-.312-.8A1.322,1.322,0,0,0,82.477,10a1.351,1.351,0,0,0-.883.258.814.814,0,0,0-.312.656.7.7,0,0,0,.355.605,3.657,3.657,0,0,0,1.2.4,9.8,9.8,0,0,1,1.422.379,2.336,2.336,0,0,1,1.789,2.273,2.2,2.2,0,0,1-.992,1.871,4.28,4.28,0,0,1-2.562.715,4.47,4.47,0,0,1-1.887-.379,3.166,3.166,0,0,1-1.293-1.039,2.414,2.414,0,0,1-.469-1.426h2.141a1.179,1.179,0,0,0,.445.922,1.766,1.766,0,0,0,1.109.32,1.635,1.635,0,0,0,.98-.246A.766.766,0,0,0,83.852,14.664Z" transform="translate(794 1767)" fill="#12263f"/><path d="M14.063,14.656H9.953L9.172,17H6.68L10.914,5.625h2.172L17.344,17H14.852Zm-3.477-1.9H13.43L12,8.5Zm9.789-4.211.07.945a2.971,2.971,0,0,1,2.43-1.1A2.255,2.255,0,0,1,25.117,9.68a2.9,2.9,0,0,1,2.539-1.289,2.521,2.521,0,0,1,2.047.8,3.681,3.681,0,0,1,.672,2.41V17H28.109V11.609a1.61,1.61,0,0,0-.281-1.051,1.246,1.246,0,0,0-.992-.332,1.409,1.409,0,0,0-1.406.969l.008,5.8H23.18V11.617a1.59,1.59,0,0,0-.289-1.062,1.259,1.259,0,0,0-.984-.328,1.463,1.463,0,0,0-1.391.8V17H18.258V8.547ZM36,17.156a4.15,4.15,0,0,1-3.027-1.141A4.054,4.054,0,0,1,31.8,12.977v-.219A5.106,5.106,0,0,1,32.3,10.48a3.612,3.612,0,0,1,1.395-1.547,3.914,3.914,0,0,1,2.059-.543,3.508,3.508,0,0,1,2.73,1.094,4.444,4.444,0,0,1,1,3.1v.922H34.094a2.1,2.1,0,0,0,.66,1.328,2,2,0,0,0,1.395.5,2.437,2.437,0,0,0,2.039-.945L39.3,15.633a3.389,3.389,0,0,1-1.375,1.121A4.511,4.511,0,0,1,36,17.156Zm-.258-6.945a1.411,1.411,0,0,0-1.09.455,2.357,2.357,0,0,0-.535,1.3h3.141v-.181a1.681,1.681,0,0,0-.406-1.165A1.456,1.456,0,0,0,35.742,10.211Zm7.094-1.664.07.977a2.951,2.951,0,0,1,2.43-1.133,2.453,2.453,0,0,1,2,.789,3.682,3.682,0,0,1,.672,2.359V17H45.75V11.594a1.465,1.465,0,0,0-.312-1.043,1.4,1.4,0,0,0-1.039-.324,1.553,1.553,0,0,0-1.43.813V17H40.711V8.547ZM54.617,17a2.507,2.507,0,0,1-.227-.758,2.732,2.732,0,0,1-2.133.914,3,3,0,0,1-2.059-.719,2.312,2.312,0,0,1-.816-1.812,2.389,2.389,0,0,1,1-2.062,4.915,4.915,0,0,1,2.879-.727H54.3v-.484a1.393,1.393,0,0,0-.3-.937,1.183,1.183,0,0,0-.949-.352,1.345,1.345,0,0,0-.895.273.929.929,0,0,0-.324.75H49.57a2.268,2.268,0,0,1,.453-1.359,3,3,0,0,1,1.281-.98,4.669,4.669,0,0,1,1.859-.355,3.689,3.689,0,0,1,2.48.785,2.747,2.747,0,0,1,.918,2.207v3.664a4.041,4.041,0,0,0,.336,1.82V17ZM52.75,15.43a1.945,1.945,0,0,0,.922-.223,1.462,1.462,0,0,0,.625-.6V13.156h-.844q-1.7,0-1.8,1.172l-.008.133a.9.9,0,0,0,.3.7A1.153,1.153,0,0,0,52.75,15.43Zm8.141-.25h4.133V17H58.008V15.625l3.977-5.258H58.125V8.547H64.9v1.33ZM71.336,17a2.507,2.507,0,0,1-.227-.758,2.732,2.732,0,0,1-2.133.914,3,3,0,0,1-2.059-.719,2.312,2.312,0,0,1-.816-1.812,2.389,2.389,0,0,1,1-2.062,4.915,4.915,0,0,1,2.879-.727h1.039v-.484a1.393,1.393,0,0,0-.3-.937,1.183,1.183,0,0,0-.949-.352,1.345,1.345,0,0,0-.895.273.929.929,0,0,0-.324.75H66.289a2.268,2.268,0,0,1,.453-1.359,3,3,0,0,1,1.281-.98,4.669,4.669,0,0,1,1.859-.355,3.689,3.689,0,0,1,2.48.785,2.747,2.747,0,0,1,.918,2.207v3.664a4.041,4.041,0,0,0,.336,1.82V17Zm-1.867-1.57a1.945,1.945,0,0,0,.922-.223,1.462,1.462,0,0,0,.625-.6V13.156h-.844q-1.7,0-1.8,1.172l-.008.133a.9.9,0,0,0,.3.7A1.153,1.153,0,0,0,69.469,15.43Zm10.125-.766a.727.727,0,0,0-.41-.652,4.659,4.659,0,0,0-1.316-.426q-3.016-.633-3.016-2.562a2.323,2.323,0,0,1,.934-1.879,3.766,3.766,0,0,1,2.441-.754,4.053,4.053,0,0,1,2.574.758,2.388,2.388,0,0,1,.965,1.969H79.508a1.092,1.092,0,0,0-.312-.8A1.322,1.322,0,0,0,78.219,10a1.351,1.351,0,0,0-.883.258.814.814,0,0,0-.312.656.7.7,0,0,0,.355.605,3.657,3.657,0,0,0,1.2.4A9.8,9.8,0,0,1,80,12.3a2.336,2.336,0,0,1,1.789,2.273,2.2,2.2,0,0,1-.992,1.871,4.28,4.28,0,0,1-2.562.715,4.47,4.47,0,0,1-1.887-.379,3.166,3.166,0,0,1-1.293-1.039,2.414,2.414,0,0,1-.469-1.426h2.141a1.179,1.179,0,0,0,.445.922,1.766,1.766,0,0,0,1.109.32,1.635,1.635,0,0,0,.98-.246A.766.766,0,0,0,79.594,14.664Z" transform="translate(794 1931)" fill="#12263f"/><path d="M14.512,12.352h-4.5V17H7.668V5.625h7.406v1.9H10.012v2.938h4.5Zm1.258.344a5.013,5.013,0,0,1,.484-2.242A3.546,3.546,0,0,1,17.648,8.93a4.069,4.069,0,0,1,2.113-.539,3.849,3.849,0,0,1,2.793,1.047,4.2,4.2,0,0,1,1.207,2.844l.016.578a4.418,4.418,0,0,1-1.086,3.121,3.775,3.775,0,0,1-2.914,1.176,3.793,3.793,0,0,1-2.918-1.172A4.5,4.5,0,0,1,15.77,12.8Zm2.258.16A3.16,3.16,0,0,0,18.48,14.7a1.628,1.628,0,0,0,2.578.008,3.457,3.457,0,0,0,.461-2.015,3.128,3.128,0,0,0-.461-1.831,1.5,1.5,0,0,0-1.3-.649,1.474,1.474,0,0,0-1.281.646A3.516,3.516,0,0,0,18.027,12.856Zm11.891-2.192a6.134,6.134,0,0,0-.812-.062,1.654,1.654,0,0,0-1.68.867V17H25.168V8.547H27.3l.063,1.008a2.092,2.092,0,0,1,1.883-1.164,2.366,2.366,0,0,1,.7.1Zm4.18-4.2V8.547h1.445V10.2H34.1v4.219a1.007,1.007,0,0,0,.18.672.9.9,0,0,0,.688.2,3.6,3.6,0,0,0,.664-.055v1.711a4.648,4.648,0,0,1-1.367.2,2.156,2.156,0,0,1-2.422-2.4V10.2H30.605V8.547H31.84V6.469ZM41.7,17a2.507,2.507,0,0,1-.227-.758,2.732,2.732,0,0,1-2.133.914,3,3,0,0,1-2.059-.719,2.312,2.312,0,0,1-.816-1.812,2.389,2.389,0,0,1,1-2.062,4.915,4.915,0,0,1,2.879-.727h1.039v-.484a1.393,1.393,0,0,0-.3-.937,1.183,1.183,0,0,0-.949-.352,1.345,1.345,0,0,0-.895.273.929.929,0,0,0-.324.75H36.652a2.268,2.268,0,0,1,.453-1.359,3,3,0,0,1,1.281-.98,4.669,4.669,0,0,1,1.859-.355,3.689,3.689,0,0,1,2.48.785,2.747,2.747,0,0,1,.918,2.207v3.664a4.041,4.041,0,0,0,.336,1.82V17Zm-1.867-1.57a1.945,1.945,0,0,0,.922-.223,1.462,1.462,0,0,0,.625-.6V13.156h-.844q-1.7,0-1.8,1.172l-.008.133a.9.9,0,0,0,.3.7A1.153,1.153,0,0,0,39.832,15.43ZM47.762,17H45.5V5h2.266Zm5.75.156a4.15,4.15,0,0,1-3.027-1.141,4.054,4.054,0,0,1-1.168-3.039v-.219a5.106,5.106,0,0,1,.492-2.277A3.612,3.612,0,0,1,51.2,8.934a3.914,3.914,0,0,1,2.059-.543,3.508,3.508,0,0,1,2.73,1.094,4.444,4.444,0,0,1,1,3.1v.922H51.605a2.1,2.1,0,0,0,.66,1.328,2,2,0,0,0,1.395.5,2.437,2.437,0,0,0,2.039-.945l1.109,1.242a3.389,3.389,0,0,1-1.375,1.121A4.511,4.511,0,0,1,53.512,17.156Zm-.258-6.945a1.411,1.411,0,0,0-1.09.455,2.357,2.357,0,0,0-.535,1.3H54.77v-.181a1.681,1.681,0,0,0-.406-1.165A1.456,1.456,0,0,0,53.254,10.211Zm7.609,4.969H65V17H57.98V15.625l3.977-5.258H58.1V8.547h6.773v1.33ZM71.309,17a2.507,2.507,0,0,1-.227-.758,2.732,2.732,0,0,1-2.133.914,3,3,0,0,1-2.059-.719,2.312,2.312,0,0,1-.816-1.812,2.389,2.389,0,0,1,1-2.062,4.915,4.915,0,0,1,2.879-.727h1.039v-.484a1.393,1.393,0,0,0-.3-.937,1.183,1.183,0,0,0-.949-.352,1.345,1.345,0,0,0-.895.273.929.929,0,0,0-.324.75H66.262a2.268,2.268,0,0,1,.453-1.359A3,3,0,0,1,68,8.746a4.669,4.669,0,0,1,1.859-.355,3.689,3.689,0,0,1,2.48.785,2.747,2.747,0,0,1,.918,2.207v3.664a4.041,4.041,0,0,0,.336,1.82V17Zm-1.867-1.57a1.945,1.945,0,0,0,.922-.223,1.462,1.462,0,0,0,.625-.6V13.156h-.844q-1.7,0-1.8,1.172l-.008.133a.9.9,0,0,0,.3.7A1.153,1.153,0,0,0,69.441,15.43Zm10.125-.766a.727.727,0,0,0-.41-.652,4.659,4.659,0,0,0-1.316-.426q-3.016-.633-3.016-2.562a2.323,2.323,0,0,1,.934-1.879A3.766,3.766,0,0,1,78.2,8.391a4.053,4.053,0,0,1,2.574.758,2.388,2.388,0,0,1,.965,1.969H79.48a1.092,1.092,0,0,0-.312-.8A1.322,1.322,0,0,0,78.191,10a1.351,1.351,0,0,0-.883.258.814.814,0,0,0-.312.656.7.7,0,0,0,.355.605,3.657,3.657,0,0,0,1.2.4,9.8,9.8,0,0,1,1.422.379,2.336,2.336,0,0,1,1.789,2.273,2.2,2.2,0,0,1-.992,1.871,4.28,4.28,0,0,1-2.562.715,4.47,4.47,0,0,1-1.887-.379,3.166,3.166,0,0,1-1.293-1.039,2.414,2.414,0,0,1-.469-1.426H76.7a1.179,1.179,0,0,0,.445.922,1.766,1.766,0,0,0,1.109.32,1.635,1.635,0,0,0,.98-.246A.766.766,0,0,0,79.566,14.664Z" transform="translate(656 1767)" fill="#12263f"/><path d="M12.172,11.57a6.867,6.867,0,0,1-.594,2.945,4.472,4.472,0,0,1-1.7,1.953,4.7,4.7,0,0,1-2.535.688,4.732,4.732,0,0,1-2.523-.68A4.515,4.515,0,0,1,3.1,14.535a6.67,6.67,0,0,1-.617-2.9V11.07A6.831,6.831,0,0,1,3.09,8.113,4.508,4.508,0,0,1,4.8,6.152a4.706,4.706,0,0,1,2.527-.684,4.706,4.706,0,0,1,2.527.684,4.508,4.508,0,0,1,1.711,1.961,6.811,6.811,0,0,1,.605,2.949ZM9.8,11.055a4.787,4.787,0,0,0-.641-2.719,2.088,2.088,0,0,0-1.828-.93,2.088,2.088,0,0,0-1.82.918,4.732,4.732,0,0,0-.648,2.691v.555a4.847,4.847,0,0,0,.641,2.7,2.082,2.082,0,0,0,1.844.961,2.064,2.064,0,0,0,1.813-.926,4.819,4.819,0,0,0,.641-2.7Zm11.539,1.8a5.07,5.07,0,0,1-.887,3.129,2.843,2.843,0,0,1-2.395,1.176,2.633,2.633,0,0,1-2.07-.891V20.25H13.727V8.547H15.82l.078.828a2.654,2.654,0,0,1,2.141-.984,2.862,2.862,0,0,1,2.43,1.156,5.207,5.207,0,0,1,.867,3.188Zm-2.258-.164a3.327,3.327,0,0,0-.418-1.82,1.361,1.361,0,0,0-1.215-.641,1.478,1.478,0,0,0-1.461.813V14.5a1.5,1.5,0,0,0,1.477.836Q19.078,15.336,19.078,12.688Zm3.3.008a5.013,5.013,0,0,1,.484-2.242A3.546,3.546,0,0,1,24.262,8.93a4.069,4.069,0,0,1,2.113-.539,3.849,3.849,0,0,1,2.793,1.047,4.2,4.2,0,0,1,1.207,2.844l.016.578A4.418,4.418,0,0,1,29.3,15.98a3.775,3.775,0,0,1-2.914,1.176,3.793,3.793,0,0,1-2.918-1.172,4.5,4.5,0,0,1-1.09-3.187Zm2.258.16a3.16,3.16,0,0,0,.453,1.843,1.628,1.628,0,0,0,2.578.008,3.457,3.457,0,0,0,.461-2.015,3.128,3.128,0,0,0-.461-1.831,1.5,1.5,0,0,0-1.3-.649,1.474,1.474,0,0,0-1.281.646A3.516,3.516,0,0,0,24.641,12.856Zm11.891-2.192a6.134,6.134,0,0,0-.812-.062,1.654,1.654,0,0,0-1.68.867V17H31.781V8.547h2.133l.063,1.008a2.092,2.092,0,0,1,1.883-1.164,2.366,2.366,0,0,1,.7.1Zm4.18-4.2V8.547h1.445V10.2H40.711v4.219a1.007,1.007,0,0,0,.18.672.9.9,0,0,0,.688.2,3.6,3.6,0,0,0,.664-.055v1.711a4.648,4.648,0,0,1-1.367.2,2.156,2.156,0,0,1-2.422-2.4V10.2H37.219V8.547h1.234V6.469Zm7.766,9.672a2.831,2.831,0,0,1-2.312,1.016,2.67,2.67,0,0,1-2.074-.781,3.335,3.335,0,0,1-.73-2.289V8.547h2.258v5.467q0,1.322,1.2,1.322a1.63,1.63,0,0,0,1.578-.8V8.547h2.266V17H48.539Zm5.969-7.594.07.977a2.951,2.951,0,0,1,2.43-1.133,2.453,2.453,0,0,1,2,.789,3.682,3.682,0,0,1,.672,2.359V17H57.359V11.594a1.465,1.465,0,0,0-.312-1.043,1.4,1.4,0,0,0-1.039-.324,1.553,1.553,0,0,0-1.43.813V17H52.32V8.547ZM63.711,17H61.445V8.547h2.266Zm-2.4-10.641a1.112,1.112,0,0,1,.34-.836,1.465,1.465,0,0,1,1.848,0,1.105,1.105,0,0,1,.344.836A1.108,1.108,0,0,1,63.5,7.2a1.448,1.448,0,0,1-1.836,0A1.108,1.108,0,0,1,61.313,6.359Zm3.906,6.352a5.094,5.094,0,0,1,.887-3.148,2.877,2.877,0,0,1,2.426-1.172,2.589,2.589,0,0,1,2.039.922V5h2.266V17H70.8l-.109-.9a2.657,2.657,0,0,1-2.172,1.055,2.869,2.869,0,0,1-2.395-1.176A5.258,5.258,0,0,1,65.219,12.711Zm2.258.168a3.337,3.337,0,0,0,.414,1.823,1.349,1.349,0,0,0,1.2.634,1.511,1.511,0,0,0,1.477-.884V11.111a1.489,1.489,0,0,0-1.461-.884Q67.477,10.227,67.477,12.879ZM79.484,17a2.507,2.507,0,0,1-.227-.758,2.732,2.732,0,0,1-2.133.914,3,3,0,0,1-2.059-.719,2.312,2.312,0,0,1-.816-1.812,2.389,2.389,0,0,1,1-2.062,4.915,4.915,0,0,1,2.879-.727h1.039v-.484a1.393,1.393,0,0,0-.3-.937,1.183,1.183,0,0,0-.949-.352,1.345,1.345,0,0,0-.895.273.929.929,0,0,0-.324.75H74.438a2.268,2.268,0,0,1,.453-1.359,3,3,0,0,1,1.281-.98,4.669,4.669,0,0,1,1.859-.355,3.689,3.689,0,0,1,2.48.785,2.747,2.747,0,0,1,.918,2.207v3.664a4.041,4.041,0,0,0,.336,1.82V17Zm-1.867-1.57a1.945,1.945,0,0,0,.922-.223,1.462,1.462,0,0,0,.625-.6V13.156H78.32q-1.7,0-1.8,1.172l-.008.133a.9.9,0,0,0,.3.7A1.153,1.153,0,0,0,77.617,15.43Zm5.2-2.719A5.094,5.094,0,0,1,83.7,9.563a2.877,2.877,0,0,1,2.426-1.172,2.589,2.589,0,0,1,2.039.922V5H90.43V17H88.391l-.109-.9a2.657,2.657,0,0,1-2.172,1.055,2.869,2.869,0,0,1-2.395-1.176A5.258,5.258,0,0,1,82.813,12.711Zm2.258.168a3.337,3.337,0,0,0,.414,1.823,1.349,1.349,0,0,0,1.2.634,1.511,1.511,0,0,0,1.477-.884V11.111a1.489,1.489,0,0,0-1.461-.884Q85.07,10.227,85.07,12.879Zm11,4.277a4.15,4.15,0,0,1-3.027-1.141,4.054,4.054,0,0,1-1.168-3.039v-.219a5.106,5.106,0,0,1,.492-2.277,3.612,3.612,0,0,1,1.395-1.547,3.914,3.914,0,0,1,2.059-.543,3.508,3.508,0,0,1,2.73,1.094,4.444,4.444,0,0,1,1,3.1v.922H94.164a2.1,2.1,0,0,0,.66,1.328,2,2,0,0,0,1.395.5,2.437,2.437,0,0,0,2.039-.945l1.109,1.242a3.389,3.389,0,0,1-1.375,1.121A4.511,4.511,0,0,1,96.07,17.156Zm-.258-6.945a1.411,1.411,0,0,0-1.09.455,2.357,2.357,0,0,0-.535,1.3h3.141v-.181a1.681,1.681,0,0,0-.406-1.165A1.456,1.456,0,0,0,95.813,10.211Zm9.594,4.453a.727.727,0,0,0-.41-.652,4.659,4.659,0,0,0-1.316-.426q-3.016-.633-3.016-2.562a2.323,2.323,0,0,1,.934-1.879,3.766,3.766,0,0,1,2.441-.754,4.053,4.053,0,0,1,2.574.758,2.388,2.388,0,0,1,.965,1.969H105.32a1.092,1.092,0,0,0-.312-.8,1.322,1.322,0,0,0-.977-.316,1.351,1.351,0,0,0-.883.258.814.814,0,0,0-.312.656.7.7,0,0,0,.355.605,3.657,3.657,0,0,0,1.2.4,9.8,9.8,0,0,1,1.422.379A2.336,2.336,0,0,1,107.6,14.57a2.2,2.2,0,0,1-.992,1.871,4.28,4.28,0,0,1-2.562.715,4.47,4.47,0,0,1-1.887-.379,3.166,3.166,0,0,1-1.293-1.039,2.414,2.414,0,0,1-.469-1.426h2.141a1.179,1.179,0,0,0,.445.922,1.766,1.766,0,0,0,1.109.32,1.635,1.635,0,0,0,.98-.246A.766.766,0,0,0,105.406,14.664Z" transform="translate(645 1931)" fill="#fff"/><path d="M12.047,14.656H7.938L7.156,17H4.664L8.9,5.625H11.07L15.328,17H12.836Zm-3.477-1.9h2.844L9.984,8.5Zm9.375-4.211.07.977a2.951,2.951,0,0,1,2.43-1.133,2.453,2.453,0,0,1,2,.789,3.682,3.682,0,0,1,.672,2.359V17H20.859V11.594a1.465,1.465,0,0,0-.312-1.043,1.4,1.4,0,0,0-1.039-.324,1.553,1.553,0,0,0-1.43.813V17H15.82V8.547ZM29.727,17a2.507,2.507,0,0,1-.227-.758,2.732,2.732,0,0,1-2.133.914,3,3,0,0,1-2.059-.719,2.312,2.312,0,0,1-.816-1.812,2.389,2.389,0,0,1,1-2.062,4.915,4.915,0,0,1,2.879-.727h1.039v-.484a1.393,1.393,0,0,0-.3-.937,1.183,1.183,0,0,0-.949-.352,1.345,1.345,0,0,0-.895.273.929.929,0,0,0-.324.75H24.68a2.268,2.268,0,0,1,.453-1.359,3,3,0,0,1,1.281-.98,4.669,4.669,0,0,1,1.859-.355,3.689,3.689,0,0,1,2.48.785,2.747,2.747,0,0,1,.918,2.207v3.664a4.041,4.041,0,0,0,.336,1.82V17Zm-1.867-1.57a1.945,1.945,0,0,0,.922-.223,1.462,1.462,0,0,0,.625-.6V13.156h-.844q-1.7,0-1.8,1.172l-.008.133a.9.9,0,0,0,.3.7A1.153,1.153,0,0,0,27.859,15.43ZM28.719,5H31.18L29.016,7.422H27.18Zm7.07,12H33.523V5h2.266Zm4.242,0H37.766V8.547h2.266Zm-2.4-10.641a1.112,1.112,0,0,1,.34-.836,1.465,1.465,0,0,1,1.848,0,1.105,1.105,0,0,1,.344.836,1.108,1.108,0,0,1-.348.844,1.448,1.448,0,0,1-1.836,0A1.108,1.108,0,0,1,37.633,6.359Zm8.836,8.3a.727.727,0,0,0-.41-.652,4.659,4.659,0,0,0-1.316-.426q-3.016-.633-3.016-2.562a2.323,2.323,0,0,1,.934-1.879A3.766,3.766,0,0,1,45.1,8.391a4.053,4.053,0,0,1,2.574.758,2.388,2.388,0,0,1,.965,1.969H46.383a1.092,1.092,0,0,0-.312-.8A1.322,1.322,0,0,0,45.094,10a1.351,1.351,0,0,0-.883.258.814.814,0,0,0-.312.656.7.7,0,0,0,.355.605,3.657,3.657,0,0,0,1.2.4,9.8,9.8,0,0,1,1.422.379,2.336,2.336,0,0,1,1.789,2.273,2.2,2.2,0,0,1-.992,1.871,4.28,4.28,0,0,1-2.562.715,4.47,4.47,0,0,1-1.887-.379,3.166,3.166,0,0,1-1.293-1.039,2.414,2.414,0,0,1-.469-1.426H43.6a1.179,1.179,0,0,0,.445.922,1.766,1.766,0,0,0,1.109.32,1.635,1.635,0,0,0,.98-.246A.766.766,0,0,0,46.469,14.664ZM52.5,17H50.234V8.547H52.5ZM50.1,6.359a1.112,1.112,0,0,1,.34-.836,1.465,1.465,0,0,1,1.848,0,1.105,1.105,0,0,1,.344.836,1.108,1.108,0,0,1-.348.844,1.448,1.448,0,0,1-1.836,0A1.108,1.108,0,0,1,50.1,6.359Zm8.836,8.3a.727.727,0,0,0-.41-.652,4.659,4.659,0,0,0-1.316-.426Q54.2,12.953,54.2,11.023a2.323,2.323,0,0,1,.934-1.879,3.766,3.766,0,0,1,2.441-.754,4.053,4.053,0,0,1,2.574.758,2.388,2.388,0,0,1,.965,1.969H58.852a1.092,1.092,0,0,0-.312-.8A1.322,1.322,0,0,0,57.563,10a1.351,1.351,0,0,0-.883.258.814.814,0,0,0-.312.656.7.7,0,0,0,.355.605,3.657,3.657,0,0,0,1.2.4,9.8,9.8,0,0,1,1.422.379,2.336,2.336,0,0,1,1.789,2.273,2.2,2.2,0,0,1-.992,1.871,4.28,4.28,0,0,1-2.562.715,4.47,4.47,0,0,1-1.887-.379A3.166,3.166,0,0,1,54.4,15.738a2.414,2.414,0,0,1-.469-1.426H56.07a1.179,1.179,0,0,0,.445.922,1.766,1.766,0,0,0,1.109.32,1.635,1.635,0,0,0,.98-.246A.766.766,0,0,0,58.938,14.664Zm11.523,2.492a4.15,4.15,0,0,1-3.027-1.141,4.054,4.054,0,0,1-1.168-3.039v-.219a5.106,5.106,0,0,1,.492-2.277,3.612,3.612,0,0,1,1.395-1.547,3.914,3.914,0,0,1,2.059-.543,3.508,3.508,0,0,1,2.73,1.094,4.444,4.444,0,0,1,1,3.1v.922H68.555a2.1,2.1,0,0,0,.66,1.328,2,2,0,0,0,1.395.5,2.437,2.437,0,0,0,2.039-.945l1.109,1.242a3.389,3.389,0,0,1-1.375,1.121A4.511,4.511,0,0,1,70.461,17.156ZM70.2,10.211a1.411,1.411,0,0,0-1.09.455,2.357,2.357,0,0,0-.535,1.3h3.141v-.181a1.681,1.681,0,0,0-.406-1.165A1.456,1.456,0,0,0,70.2,10.211Zm8.234.859,1.422-2.523h2.414l-2.406,4.141L82.375,17H79.953l-1.508-2.656L76.945,17h-2.43l2.508-4.312-2.4-4.141h2.422Zm7.625-4.6V8.547h1.445V10.2H86.063v4.219a1.007,1.007,0,0,0,.18.672.9.9,0,0,0,.688.2,3.6,3.6,0,0,0,.664-.055v1.711a4.648,4.648,0,0,1-1.367.2,2.156,2.156,0,0,1-2.422-2.4V10.2H82.57V8.547H83.8V6.469Zm6.594,10.688a4.15,4.15,0,0,1-3.027-1.141,4.054,4.054,0,0,1-1.168-3.039v-.219a5.106,5.106,0,0,1,.492-2.277,3.612,3.612,0,0,1,1.395-1.547,3.914,3.914,0,0,1,2.059-.543,3.508,3.508,0,0,1,2.73,1.094,4.444,4.444,0,0,1,1,3.1v.922H90.75a2.1,2.1,0,0,0,.66,1.328,2,2,0,0,0,1.395.5,2.437,2.437,0,0,0,2.039-.945l1.109,1.242a3.389,3.389,0,0,1-1.375,1.121A4.511,4.511,0,0,1,92.656,17.156ZM92.4,10.211a1.411,1.411,0,0,0-1.09.455,2.357,2.357,0,0,0-.535,1.3h3.141v-.181a1.681,1.681,0,0,0-.406-1.165A1.456,1.456,0,0,0,92.4,10.211Zm9.766.453a6.134,6.134,0,0,0-.812-.062,1.654,1.654,0,0,0-1.68.867V17H97.414V8.547h2.133l.063,1.008a2.092,2.092,0,0,1,1.883-1.164,2.366,2.366,0,0,1,.7.1Zm3.164-2.117.07.977a2.951,2.951,0,0,1,2.43-1.133,2.453,2.453,0,0,1,2,.789,3.682,3.682,0,0,1,.672,2.359V17h-2.258V11.594a1.465,1.465,0,0,0-.312-1.043,1.4,1.4,0,0,0-1.039-.324,1.553,1.553,0,0,0-1.43.813V17H103.2V8.547Zm6.531,4.148a5.013,5.013,0,0,1,.484-2.242,3.546,3.546,0,0,1,1.395-1.523,4.069,4.069,0,0,1,2.113-.539,3.849,3.849,0,0,1,2.793,1.047,4.2,4.2,0,0,1,1.207,2.844l.016.578a4.418,4.418,0,0,1-1.086,3.121,4.209,4.209,0,0,1-5.832,0,4.5,4.5,0,0,1-1.09-3.187Zm2.258.16a3.16,3.16,0,0,0,.453,1.843,1.628,1.628,0,0,0,2.578.008,3.457,3.457,0,0,0,.461-2.015,3.128,3.128,0,0,0-.461-1.831,1.5,1.5,0,0,0-1.3-.649,1.474,1.474,0,0,0-1.281.646A3.516,3.516,0,0,0,114.117,12.856Z" transform="translate(707 1995)" fill="#126783"/><g transform="translate(-228 103)"><circle cx="22.5" cy="22.5" r="22.5" transform="translate(828 1786)" fill="#fed166" opacity="0.156"/><circle cx="19.5" cy="19.5" r="19.5" transform="translate(831 1789)" fill="#fed166" opacity="0.482"/><circle cx="14.5" cy="14.5" r="14.5" transform="translate(836 1794)" fill="#fed166"/><text transform="translate(846 1797)" fill="#12263f" font-size="16" font-family="Roboto-Bold, Roboto" font-weight="700"><tspan x="-4.367" y="17">+</tspan></text></g><rect width="139" height="74" rx="37" transform="translate(698 1796)" fill="#20bdfc"/><path d="M1.289,25V7.938h5.5a8.085,8.085,0,0,1,4.066,1.025,7.208,7.208,0,0,1,2.818,2.895A8.739,8.739,0,0,1,14.7,16.047v.785a8.79,8.79,0,0,1-.99,4.2,7.239,7.239,0,0,1-2.789,2.906A7.907,7.907,0,0,1,6.9,25ZM5.4,11.113V21.836h1.43a3.2,3.2,0,0,0,2.719-1.26,6.173,6.173,0,0,0,.949-3.744v-.738a6.123,6.123,0,0,0-.949-3.727,3.256,3.256,0,0,0-2.766-1.254ZM31.254,16.82a10.062,10.062,0,0,1-.926,4.418A6.842,6.842,0,0,1,27.7,24.2a7.326,7.326,0,0,1-3.885,1.037,7.429,7.429,0,0,1-3.867-1,6.831,6.831,0,0,1-2.631-2.865,9.772,9.772,0,0,1-.99-4.277v-.961a10.106,10.106,0,0,1,.92-4.424,6.825,6.825,0,0,1,2.637-2.959A7.377,7.377,0,0,1,23.789,7.7a7.3,7.3,0,0,1,3.867,1.031A6.948,6.948,0,0,1,30.3,11.67a9.816,9.816,0,0,1,.955,4.365Zm-4.184-.715a7.175,7.175,0,0,0-.85-3.861,2.725,2.725,0,0,0-2.432-1.318q-3.094,0-3.27,4.641l-.012,1.254a7.379,7.379,0,0,0,.832,3.855,2.721,2.721,0,0,0,2.473,1.348,2.688,2.688,0,0,0,2.4-1.324,7.178,7.178,0,0,0,.855-3.809Zm17.051,2.1H37.488V25H33.375V7.938H44.789v3.176h-7.3v3.926h6.633Zm9.82,3.609H48.3L47.32,25H42.926L49.184,7.938h3.867L59.355,25H54.938Zm-4.652-3.176h3.668l-1.84-5.918Z" transform="translate(737 1819)" fill="#fff"/><g transform="translate(-228 -45)"><circle cx="22.5" cy="22.5" r="22.5" transform="translate(828 1786)" fill="#fed166" opacity="0.156"/><circle cx="19.5" cy="19.5" r="19.5" transform="translate(831 1789)" fill="#fed166" opacity="0.482"/><circle cx="14.5" cy="14.5" r="14.5" transform="translate(836 1794)" fill="#fed166"/><text transform="translate(847 1797)" fill="#12263f" font-size="16" font-family="Roboto-Bold, Roboto" font-weight="700"><tspan x="-4.367" y="17">+</tspan></text></g><g transform="translate(64 -45)"><circle cx="22.5" cy="22.5" r="22.5" transform="translate(828 1786)" fill="#fed166" opacity="0.156"/><circle cx="19.5" cy="19.5" r="19.5" transform="translate(831 1789)" fill="#fed166" opacity="0.482"/><circle cx="14.5" cy="14.5" r="14.5" transform="translate(836 1794)" fill="#fed166"/><text transform="translate(847 1797)" fill="#12263f" font-size="16" font-family="Roboto-Bold, Roboto" font-weight="700"><tspan x="-4.367" y="17">+</tspan></text></g><circle cx="27" cy="27" r="27" transform="translate(673 1870)" fill="#d3f9ee"/><g transform="translate(676 1873)"><g clip-path="url(#a)"><path d="M34.571,36.307a.778.778,0,0,1-.256-1.107A14.1,14.1,0,1,1,56.972,51.433a14.937,14.937,0,0,0-1.514,1.81,4.67,4.67,0,0,0-.849,2.746c.024,1.371,0,2.742.016,4.112A3.642,3.642,0,0,1,53.05,63.26c-.312.224-.225.49-.223.751a3.534,3.534,0,0,1-2.077,3.421,7.221,7.221,0,0,1-.963.329H44.206c-.057-.152-.212-.117-.32-.153a3.5,3.5,0,0,1-2.512-3.439,1.262,1.262,0,0,0-.516-1.141,3.441,3.441,0,0,1-1.3-2.767c-.017-1.339-.06-2.678-.045-4.017a4.96,4.96,0,0,0-1.126-3.178c-.648-.837-1.439-1.544-2.11-2.358a14.28,14.28,0,0,1-3.136-11.919.742.742,0,0,1,.674-.681c.644-.049.963.289.845,1a15.126,15.126,0,0,0-.159,2.824,12.332,12.332,0,0,0,3.135,7.96c.616.716,1.32,1.35,1.9,2.1a7.323,7.323,0,0,1,1.3,2.394.581.581,0,0,0,.655.464c3.732.007,7.464,0,11.2,0a.568.568,0,0,0,.362-.074.542.542,0,0,0,.162-.283,8.532,8.532,0,0,1,2.323-3.78,12.957,12.957,0,0,0,3.238-5.159A12.6,12.6,0,0,0,56.34,33.108,12.057,12.057,0,0,0,48,28.8a12.916,12.916,0,0,0-4.211.366,12.478,12.478,0,0,0-4.776,2.479A13.1,13.1,0,0,0,35.7,35.833c-.332.638-.635.761-1.13.474" transform="translate(-23.395 -19.327)"/><path d="M79.95,0a1.173,1.173,0,0,1,.44,1.063c-.018,1.371,0,2.743-.008,4.114a2.17,2.17,0,0,1-.044.515.649.649,0,0,1-.7.521.64.64,0,0,1-.648-.521,2.376,2.376,0,0,1-.044-.515c0-1.371.009-2.743-.008-4.114A1.169,1.169,0,0,1,79.382,0Z" transform="translate(-56.112)" fill="#020201"/><path d="M55.43,59.549c-.138.116-.3.06-.453.06-3.812,0-7.624-.007-11.437.008-.365,0-.517-.1-.605-.452a7.349,7.349,0,0,0-2.03-3.3,15.636,15.636,0,0,1-3.127-4.232,13.007,13.007,0,0,1-1.037-7.782c.12-.724-.046-1-.708-1.105.169-.051.216-.191.264-.339.159-.489.327-.975.491-1.463.622.115.77.026,1.092-.6a12.62,12.62,0,0,1,7.8-6.574,2.262,2.262,0,0,1,.274-.05c-.034.29-.3.353-.491.458a13.606,13.606,0,0,0-5.612,5.656A12.612,12.612,0,0,0,38.4,44.64a13.58,13.58,0,0,0,2.407,9.267,27.537,27.537,0,0,0,2.2,2.533,7.963,7.963,0,0,1,1.666,2.613c.128.363.389.354.679.354q4.659,0,9.317,0c.257,0,.541-.084.763.139" transform="translate(-25.613 -23.965)" fill="#f7a32f"/><path d="M3.144,80.426c-.757,0-1.513.006-2.27,0C.314,80.418,0,80.157,0,79.713S.3,79,.866,79q2.246-.008,4.492,0c.536,0,.873.3.859.726-.013.413-.336.689-.85.7-.741.01-1.482,0-2.222,0" transform="translate(0 -56.151)" fill="#010101"/><path d="M144.485,79c.757,0,1.513-.005,2.27,0,.556.005.866.275.855.723-.01.428-.312.7-.838.7q-2.27.013-4.539,0a.746.746,0,0,1-.84-.707c-.006-.428.329-.711.87-.716.741-.007,1.482,0,2.222,0" transform="translate(-100.502 -56.151)" fill="#010101"/><path d="M27.951,27.272a.714.714,0,0,1-1.247.445l-1.471-1.471c-.6-.6-1.206-1.2-1.8-1.807a.716.716,0,1,1,1.007-1c1.074,1.065,2.14,2.138,3.213,3.205a.874.874,0,0,1,.3.623" transform="translate(-16.451 -16.457)"/><path d="M123.819,27.967a.713.713,0,0,1-.632-.427.674.674,0,0,1,.145-.785c.474-.484.956-.961,1.435-1.44.613-.613,1.223-1.228,1.839-1.838.387-.383.81-.421,1.117-.112s.269.731-.115,1.118c-1.056,1.062-2.118,2.117-3.173,3.178a.9.9,0,0,1-.616.307" transform="translate(-87.514 -16.461)"/><path d="M27.949,123.841a.836.836,0,0,1-.267.575c-1.093,1.09-2.181,2.186-3.278,3.272a.712.712,0,1,1-1.015-.989c1.1-1.108,2.2-2.207,3.308-3.31a.716.716,0,0,1,1.253.452" transform="translate(-16.448 -87.531)"/><path d="M127.922,127.185a.656.656,0,0,1-.382.672.707.707,0,0,1-.861-.166q-.984-.988-1.971-1.973c-.435-.435-.874-.864-1.3-1.3a.711.711,0,0,1-.063-1.083.7.7,0,0,1,1.049.064c1.1,1.086,2.186,2.181,3.278,3.273a.7.7,0,0,1,.252.516" transform="translate(-87.514 -87.518)"/><path d="M60.734,58.383c-3.37-.005-6.74-.021-10.111-.005-.456,0-.663-.093-.818-.563a6.491,6.491,0,0,0-1.514-2.363,17.759,17.759,0,0,1-3.456-4.615,14.746,14.746,0,0,1-1.257-4.6,12.96,12.96,0,0,1,1.307-7.351,13.528,13.528,0,0,1,5.611-5.87c.259-.144.507-.309.76-.464a11.289,11.289,0,0,1,5.97-.141,12.91,12.91,0,0,1,6.538,21.185c-.125.142-.25.284-.382.419a9.08,9.08,0,0,0-2.649,4.37" transform="translate(-30.917 -22.8)" fill="#f8d031"/><path d="M65.97,128.187q5.124-.008,10.248-.022c.269,0,.355.086.349.352-.014.566-.009,1.134.007,1.7.007.249-.083.332-.328.324-.44-.014-.882-.012-1.322,0-.475.012-.731.251-.745.673a.7.7,0,0,0,.738.742,9.55,9.55,0,0,0,1.227,0c.435-.038.466.166.394.5a2.318,2.318,0,0,1-2.211,1.862c-2.408.017-4.817,0-7.226-.006-.733-.263-.92-.931-1.117-1.567a.829.829,0,0,1-.011-.766c1.788-.006,3.577-.016,5.366-.016a.861.861,0,0,0,.816-.362c.268-.424.056-.858-.515-1.07-1.382-.071-2.765-.012-4.148-.03-.425-.006-.849,0-1.274,0-.176,0-.341-.041-.351-.23a4.459,4.459,0,0,1,.1-2.084" transform="translate(-46.767 -91.1)" fill="#51758b"/><path d="M76.99,156.645a2.04,2.04,0,0,1-1.956,1.6c-1.508.018-3.017.008-4.526,0A1.664,1.664,0,0,1,69.5,157.9a3.367,3.367,0,0,1-.378-.539.559.559,0,0,1,.485-.851,2.612,2.612,0,0,1,.377-.017q3.166,0,6.332,0a.869.869,0,0,1,.672.147" transform="translate(-49.085 -111.237)" fill="#51748b"/><path d="M75.55,155.121c-2.361,0-4.723.017-7.084-.008-.75-.008-.939.2-.535.927.06.109.161.2.13.34a1.964,1.964,0,0,1-1.028-1.642c-.025-.27.04-.389.353-.387,2.63.013,5.26.007,7.89.008.422,0,.476.156.273.762" transform="translate(-47.644 -109.713)" fill="#2d5a7d"/><path d="M62.423,128.2c0,.581.024,1.163-.009,1.743-.023.406.088.543.517.535,1.554-.027,3.109-.012,4.664-.008.167,0,.348-.056.5.073q-3.473.005-6.947.013c-.229,0-.349-.051-.342-.313q.021-.874,0-1.748c-.006-.262.115-.32.343-.312.425.014.85.012,1.275.017" transform="translate(-43.22 -91.11)" fill="#2d5a7d"/><path d="M62.443,141.276a3.123,3.123,0,0,0,1.128,2.333,2.388,2.388,0,0,1-2.705-1.82c-.083-.348-.068-.583.4-.538.39.037.785.019,1.178.025" transform="translate(-43.235 -100.397)" fill="#2d597d"/><path d="M66.264,67.951c.361.5.364.7,0,1.175-.867,1.121-1.733,2.242-2.608,3.356a2.275,2.275,0,0,1-3.664.132c-1.463-1.608-2.934-3.208-4.367-4.842a2.252,2.252,0,0,1,1.328-3.746,2.21,2.21,0,0,1,2.115.782c.773.851,1.552,1.7,2.307,2.564.225.258.331.215.519-.029q2.145-2.789,4.313-5.561a2.191,2.191,0,0,1,2.432-.833,2.233,2.233,0,0,1,1.655,1.969,2.2,2.2,0,0,1-.482,1.633c-.422.55-.856,1.09-1.27,1.645a.8.8,0,0,1-1.1.313.7.7,0,0,1-.216-1.109c.327-.482.7-.928,1.065-1.386a2.291,2.291,0,0,0,.4-.638.655.655,0,0,0-.228-.8.637.637,0,0,0-.865.019,7.711,7.711,0,0,0-1.059,1.266q-1.957,2.519-3.91,5.042a3,3,0,0,1-.3.361.818.818,0,0,1-1.255.02c-.547-.5-1-1.091-1.5-1.632-.559-.6-1.07-1.24-1.665-1.8-.4-.379-.756-.409-1.077-.1a.746.746,0,0,0,.041,1.095c1.321,1.521,2.716,2.976,4.031,4.5.062.072.13.137.2.2a.815.815,0,0,0,1.4-.075c.865-1.083,1.707-2.185,2.555-3.282a.943.943,0,0,1,.834-.443c.161.01.319.025.392.2" transform="translate(-39.115 -43.259)"/><path d="M69.785,71.449c-.572-.211-.764-.162-1.136.316Q67.37,73.4,66.1,75.047c-.506.649-1.021.677-1.568.074q-2.112-2.328-4.214-4.666a.866.866,0,0,1-.039-1.329.85.85,0,0,1,1.284.176c.977,1.07,1.944,2.151,2.92,3.222.566.621.946.606,1.451-.045l4.694-6.047c.087-.112.171-.227.267-.331a.846.846,0,0,1,1.326,1.052c-.408.56-.846,1.1-1.268,1.647-.387.5-.383.709.005,1.207l-1.17,1.442" transform="translate(-42.636 -46.757)" fill="#f7a32f"/></g></g><circle cx="27" cy="27" r="27" transform="translate(673 1709)" fill="#d3f9ee"/><g transform="translate(681 1717)"><g clip-path="url(#b)"><path d="M31.283,33.819c-.14-.3-.237-.625-.355-.938a2.017,2.017,0,0,0-2.041-1.426c-.522,0-1.045-.013-1.566,0a.382.382,0,0,1-.43-.3c-.271-.692-.564-1.375-.865-2.054-.1-.234-.1-.352.167-.474.776-.358,1.536-.75,2.3-1.138a1.875,1.875,0,0,0,.993-2.547Q28.377,21.974,27.269,19c-.415-1.114-.821-2.232-1.255-3.339a1.9,1.9,0,0,0-2.45-1.085c-.795.373-1.6.712-2.409,1.064-.062.027-.125.088-.2.044a1.236,1.236,0,0,1-.16-1.007q.662-.782,1.328-1.562a7.165,7.165,0,0,0,1.667-3.517,1.155,1.155,0,0,1,.267-.562c.549-.659,1.093-1.321,1.624-1.994a3.24,3.24,0,0,0,.29-3.726,3.194,3.194,0,0,0-3.374-1.6c-.191.029-.275,0-.318-.185A1.957,1.957,0,0,0,20.79,0h-.671c-.016.017-.029.044-.049.051L12.445,2.785q-2.781,1-5.559,2A1.825,1.825,0,0,0,5.65,7.176a3.966,3.966,0,0,0,.226.628c.088.186.046.264-.134.369a3.407,3.407,0,0,0-1.7,3.592,3.479,3.479,0,0,0,3.027,2.82c.678.085,1.358.157,2.038.221a2.918,2.918,0,0,1,1.461.464,6.808,6.808,0,0,0,2.178.927,10.332,10.332,0,0,0,2.582.312c.64,0,.817.346.968.826a.226.226,0,0,1-.1.3,1.846,1.846,0,0,0-.711,1.183c-.119.583-.257,1.163-.357,1.75a.481.481,0,0,1-.35.413Q7.738,23.834.7,26.7c-.229.093-.539.13-.662.3-.137.189.132.439.163.679,0,.025.009.049.013.073.085.474.164.518.617.348.07-.026.138-.055.208-.083Q4.83,26.5,8.62,24.986c.384-.153.387-.152.519.242.593,1.767,1.178,3.537,1.769,5.3.14.421.14.426-.282.6C7.314,32.522,3.992,33.883.677,35.264a1.106,1.106,0,0,0-.494.315c-.164.035-.238.1-.139.28a2.4,2.4,0,0,1,.224.509c.1.348.251.4.6.253q8.553-3.568,17.117-7.109a.733.733,0,0,1,.39-.092c.9.116,1.8.229,2.7.33a.33.33,0,0,1,.33.27q.463,1.471.962,2.931a.332.332,0,0,1-.109.414c-.385.352-.754.722-1.132,1.082a1.866,1.866,0,0,0-.533,2.408,7.794,7.794,0,0,1,.5,1.348h.149c.02-.077.092-.07.147-.091q1.78-.7,3.561-1.4c2.041-.8,4.08-1.6,6.127-2.388.293-.113.336-.234.211-.5M23.037,2.963a1.881,1.881,0,0,1,1.788.857A1.9,1.9,0,0,1,24.946,5.9a12.783,12.783,0,0,1-.962,1.287,20.291,20.291,0,0,0-1.118-4.017c-.069-.216.047-.2.171-.2M6.815,13.279A2.032,2.032,0,0,1,5.3,11.448a2.065,2.065,0,0,1,.925-2.022c.171-.123.247-.122.34.1A24.572,24.572,0,0,0,7.8,12.346c.222.385.472.753.722,1.149a12.259,12.259,0,0,1-1.711-.217" transform="translate(0)"/><path d="M143.944,73.565c0,.576,0,.576-.555.68a3.069,3.069,0,0,0-2.537,3.131c-.01.534-.01.534-.529.535-.693,0-.693,0-.71-.675a3.044,3.044,0,0,0-2.828-3.014c-.2-.016-.3-.068-.272-.28a.567.567,0,0,0,0-.075,1.957,1.957,0,0,1,.028-.808c.123-.237.487-.123.742-.186a3.1,3.1,0,0,0,2.331-3.007c.011-.625.011-.625.616-.625s.606,0,.623.589a3.037,3.037,0,0,0,2.881,3.114c.192.019.225.087.213.248-.01.124,0,.248,0,.373" transform="translate(-106.59 -54.076)"/><path d="M132.638,16.926a.421.421,0,0,0,0,.074c.073.4-.05.542-.5.6a3.023,3.023,0,0,0-2.6,2.988,3.631,3.631,0,0,0,0,.447c.014.182-.061.239-.237.232-.3-.012-.651.094-.881-.033-.269-.149-.088-.538-.119-.819a3.052,3.052,0,0,0-2.844-2.849c-.181-.016-.271-.048-.26-.253a2.752,2.752,0,0,1,.029-.885c.128-.29.522-.142.793-.216a3.109,3.109,0,0,0,2.283-2.9,2.7,2.7,0,0,0,0-.447c-.026-.235.065-.3.293-.288.284.021.63-.09.841.036.246.148.075.525.1.8a3.051,3.051,0,0,0,2.86,2.873c.2.018.26.078.241.265a3.649,3.649,0,0,0,0,.373" transform="translate(-97.755 -9.805)"/><path d="M.869,116.065c.1.391.3.383.646.243,2.632-1.071,5.274-2.118,7.909-3.178.216-.087.313-.077.394.172q.945,2.883,1.923,5.755c.086.253-.012.321-.209.4q-3.752,1.546-7.5,3.1-1.6.663-3.2,1.332c.007-.82.016-1.64.019-2.459q.009-2.684.012-5.368" transform="translate(-0.654 -88.313)" fill="#4a4a56"/><path d="M4.578,69.241c.577,0,.577,0,.587.582a3.064,3.064,0,0,0,2.88,3.123c.175.018.253.06.228.239a.863.863,0,0,0,0,.112,2.01,2.01,0,0,1-.03.809c-.125.25-.49.117-.745.182a3.11,3.11,0,0,0-2.331,3.081c-.007.543-.007.543-.545.543-.656,0-.656,0-.685-.633a3.037,3.037,0,0,0-2.863-3.056c-.2-.018-.251-.083-.243-.269a2.569,2.569,0,0,1,.03-.884c.118-.256.5-.131.764-.2a3.107,3.107,0,0,0,2.313-3.022c.022-.606.022-.606.642-.606" transform="translate(-0.628 -54.076)"/><path d="M47.2,12.6a6.822,6.822,0,0,1-1.656,4.514c-.572.671-1.144,1.344-1.729,2a.378.378,0,0,0-.086.46c.14.331.244.677.387,1.006.081.186.034.257-.143.327-.6.239-1.2.482-1.783.748-.2.091-.257.011-.318-.15-.131-.348-.284-.688-.4-1.04a.422.422,0,0,0-.432-.313,25.022,25.022,0,0,1-3.147-.331,6.626,6.626,0,0,1-4.968-4.179c-.527-1.3-1.03-2.606-1.54-3.911-.22-.563-.1-.829.466-1.033q6.352-2.287,12.7-4.572c.561-.2.814-.09,1,.468.5,1.533,1.074,3.039,1.488,4.6a6.928,6.928,0,0,1,.167,1.4" transform="translate(-24.429 -4.713)" fill="#f1a235"/><path d="M81.288,84.149c-1.332-.154-2.664-.312-4-.459-.23-.025-.225-.209-.271-.347-.628-1.868-1.189-3.761-1.9-5.6a5.333,5.333,0,0,1,.032-2.724,1.322,1.322,0,0,1,.953-1.174c2.086-.857,4.152-1.763,6.225-2.651.643-.275.915-.173,1.143.468.122.344.458.746.309,1.013-.13.232-.635.257-.976.37-.576.191-1.151.389-1.732.565-.191.058-.223.138-.174.32.254.953.251.956,1.174.661.638-.2,1.277-.4,1.909-.625.2-.068.282-.049.354.16.172.5.365,1,.565,1.5.081.2.029.265-.172.329-.8.257-1.6.544-2.4.8-.213.069-.269.151-.182.363.118.285.126.708.33.837s.565-.133.856-.226c.626-.2,1.252-.4,1.871-.621.179-.064.237-.02.294.138.185.513.369,1.027.576,1.531.09.22-.008.278-.186.335-.756.24-1.508.493-2.266.726-.23.071-.316.137-.225.409.292.879.277.884,1.151.587.6-.2,1.2-.4,1.793-.618.2-.073.278-.022.355.167.4.989.381,1.058-.575,1.529q-2.119,1.043-4.235,2.092a1.007,1.007,0,0,1-.6.143" transform="translate(-58.53 -55.491)" fill="#edcbbf"/><path d="M54.025,107.572c.008.109-.087.127-.164.16q-2.3.967-4.6,1.935c-.187.079-.249.032-.311-.156q-.959-2.915-1.942-5.823c-.074-.217,0-.286.176-.35a7.481,7.481,0,0,0,.865-.339c.247-.125.327-.056.405.189.436,1.357.895,2.708,1.331,4.065.083.259.163.353.458.25.835-.291.84-.276.558-1.12-.412-1.235-.817-2.472-1.241-3.7-.08-.231-.035-.324.187-.408.649-.246,1.293-.509,1.934-.775.18-.075.277-.077.349.141.641,1.93,1.293,3.857,1.941,5.784.016.047.03.094.048.151" transform="translate(-36.694 -79.23)" fill="#676b7d"/><path d="M98.671,152.485a.732.732,0,0,1,.246-.5q.938-.88,1.871-1.767a.881.881,0,0,1,.355-.193c.744-.238,1.488-.478,2.228-.73a3.162,3.162,0,0,1,1-.067c.522-.01,1.044,0,1.566,0a.7.7,0,0,1,.621.274c.237.325.193.471-.174.619l-7.115,2.857c-.4.161-.6.021-.595-.489" transform="translate(-77.06 -116.539)" fill="#e5812d"/><path d="M106.709,136.173c.03.107-.072.115-.15.141-.621.209-1.245.41-1.863.629-.154.055-.2-.006-.241-.125-.224-.656-.449-1.311-.67-1.967-.026-.076-.074-.192.076-.184a3.348,3.348,0,0,0,1.586-.573c.263-.124.353-.071.453.18.234.586.5,1.16.746,1.739.02.046.036.092.062.16" transform="translate(-81.032 -104.675)" fill="#f1a235"/><path d="M148.308,82.3a4.606,4.606,0,0,0,1.474,1.474,4.589,4.589,0,0,0-1.469,1.486,4.5,4.5,0,0,0-1.486-1.481,4.58,4.58,0,0,0,1.48-1.48" transform="translate(-114.67 -64.276)" fill="#f2bf6d"/><path d="M135.559,27.263a4.7,4.7,0,0,0,1.469-1.471,4.759,4.759,0,0,0,1.478,1.467,4.53,4.53,0,0,0-1.375,1.336c-.09.141-.14.089-.207-.013a4.454,4.454,0,0,0-1.366-1.319" transform="translate(-105.869 -20.143)" fill="#f2bf6d"/><path d="M14.133,83.771a4.906,4.906,0,0,0-.828.663c-.223.246-.429.508-.663.789a4.609,4.609,0,0,0-1.459-1.439A4.656,4.656,0,0,0,12.65,82.3a4.6,4.6,0,0,0,1.483,1.47" transform="translate(-8.734 -64.275)" fill="#f2bf6d"/><path d="M84.778,19.215A8.3,8.3,0,0,0,83.617,15.3c-.108-.193-.127-.288.087-.395.286-.142.541-.5.818-.452.254.048.323.48.451.749a7.694,7.694,0,0,1,.69,6.106,5.124,5.124,0,0,1-1.05,1.7c-.122.137-.2.142-.32.006-.2-.221-.511-.392-.6-.646-.1-.293.282-.465.429-.706a4.408,4.408,0,0,0,.656-2.445" transform="translate(-65.242 -11.283)"/></g></g><circle cx="27" cy="27" r="27" transform="translate(812 1709)" fill="#d3f9ee"/><g transform="translate(819 1716)"><g clip-path="url(#c)"><path d="M21.771,68.08a1.133,1.133,0,0,0-1.6.012c-.241.224-.463.469-.7.7a1.714,1.714,0,0,1-1.475.51,1.961,1.961,0,0,0-2.613-2.613,1.7,1.7,0,0,1,.474-1.444c.225-.24.468-.464.7-.7a1.142,1.142,0,0,0,.023-1.663c-.325-.346-.66-.682-1.008-1a1.139,1.139,0,0,0-1.634,0c-.29.268-.568.551-.836.841a5.4,5.4,0,0,0-.717,6.5.3.3,0,0,1-.07.454c-.429.41-.851.827-1.257,1.259a.323.323,0,0,1-.486.064,5.418,5.418,0,0,0-6.443.7c-.394.36-.422.555-.149,1.03a.762.762,0,0,0,.988-.167,4.052,4.052,0,0,1,3.988-.937c.342.051.775.133.9.4.1.21-.365.411-.537.65a.6.6,0,0,1-.806.226,3.158,3.158,0,0,0-.739-.105,3.081,3.081,0,0,0-2.131.981c-.707.727-1.436,1.433-2.148,2.155a2.907,2.907,0,0,0,0,4.262c.342.348.685.693,1.034,1.034a2.9,2.9,0,0,0,4.2,0c.705-.691,1.384-1.41,2.1-2.09a3.21,3.21,0,0,0,1.065-2.3,5.469,5.469,0,0,1-.071-.547c-.007-.209-.233-.426-.1-.6a8.087,8.087,0,0,1,.856-.873c.117-.11.155.031.19.1a2.314,2.314,0,0,1,.294.808,3.937,3.937,0,0,1-.868,3.9,37.247,37.247,0,0,1-2.82,2.822,4.2,4.2,0,0,1-5.56-.052c-.528-.475-1.03-.983-1.51-1.507a4.241,4.241,0,0,1,0-5.686c.186-.2.385-.4.578-.6.368-.378.39-.557.121-1a.662.662,0,0,0-.947.134c-.177.195-.377.368-.554.564A5.263,5.263,0,0,0,.161,79.268c.528,2.22,2.173,3.56,3.943,4.771a4.09,4.09,0,0,0,1.17.46,1.727,1.727,0,0,1,.589.165H7.285c.03-.021.058-.056.089-.06a5.388,5.388,0,0,0,3.207-1.634c.707-.71,1.419-1.415,2.125-2.126a5.425,5.425,0,0,0,.933-6.8.246.246,0,0,1,.045-.362c.446-.43.89-.863,1.312-1.316.171-.183.287-.169.487-.052a5.381,5.381,0,0,0,3.688.663,6.228,6.228,0,0,0,3.722-2.353,1.111,1.111,0,0,0-.061-1.484c-.339-.368-.694-.723-1.061-1.063m-7.937-4.4c.224-.274.495-.508.738-.767.113-.121.194-.183.338-.018.232.267.65.483.7.77.053.31-.412.516-.646.771a3.086,3.086,0,0,0-.81,1.961c.023.209.058.417.067.626s.231.429.1.6a7.809,7.809,0,0,1-.856.874c-.115.108-.155-.031-.191-.1a2.3,2.3,0,0,1-.294-.808,4.076,4.076,0,0,1,.854-3.9M10.669,77.069a1.815,1.815,0,0,1-.52,1.039c-.755.753-1.5,1.514-2.264,2.259a1.708,1.708,0,0,1-2.529,0C5,80.015,4.643,79.662,4.3,79.3a1.7,1.7,0,0,1-.007-2.5c.754-.772,1.523-1.53,2.288-2.291a1.784,1.784,0,0,1,1.2-.528c.28-.016.357.045.282.346a1.9,1.9,0,0,0,1.927,2.349,2.182,2.182,0,0,0,.25-.023c.464-.083.506-.047.437.414m-.209-1.85a.717.717,0,1,1-1.006-1.01q3.112-3.122,6.231-6.236a.733.733,0,0,1,.861-.2.691.691,0,0,1,.412.727.721.721,0,0,1-.263.487Q13.577,72.1,10.46,75.219m10.8-4.622a4.107,4.107,0,0,1-4.161,1.093c-.343-.049-.775-.132-.894-.4-.1-.216.364-.411.535-.65a.587.587,0,0,1,.805-.22,2.392,2.392,0,0,0,.819.1,3.274,3.274,0,0,0,2.32-1.264c.233-.274.386-.259.6.007.188.234.6.458.58.649-.028.249-.375.473-.6.688" transform="translate(0 -44.157)"/><path d="M84.59,5.816a5.256,5.256,0,0,0-1.466-2.993c-.419-.437-.846-.868-1.285-1.285a5.442,5.442,0,0,0-7.593.01q-1.225,1.177-2.4,2.4a5.4,5.4,0,0,0-.825,6.643.283.283,0,0,1-.065.423c-.438.418-.873.842-1.283,1.287-.175.19-.3.158-.488.044a5.053,5.053,0,0,0-2.311-.716c-.515-.03-.639.062-.8.556.115.479.252.594.747.633a2.13,2.13,0,0,1,.758.16c.344.047.778.128.9.4.1.218-.364.412-.536.652a.585.585,0,0,1-.806.22,2.309,2.309,0,0,0-.819-.1A3.213,3.213,0,0,0,64,15.409c-.222.259-.377.288-.6.005-.184-.236-.573-.428-.585-.654-.014-.266.38-.457.6-.682a3.862,3.862,0,0,1,.966-.736.614.614,0,1,0-.619-1.021,7.615,7.615,0,0,0-1.962,1.7,1.116,1.116,0,0,0,.054,1.514c.331.357.678.7,1.033,1.036a1.139,1.139,0,0,0,1.634,0c.25-.233.483-.486.731-.723a1.75,1.75,0,0,1,1.212-.494c.264-.006.313.058.252.328a1.889,1.889,0,0,0,1.6,2.332,2.857,2.857,0,0,0,.974-.1,1.718,1.718,0,0,1-.48,1.537c-.215.232-.447.447-.667.675a1.146,1.146,0,0,0-.023,1.691q.476.5.98.977a1.145,1.145,0,0,0,1.664,0c.271-.25.531-.513.78-.785a5.405,5.405,0,0,0,.747-6.565.283.283,0,0,1,.068-.421c.427-.412.851-.827,1.256-1.26a.341.341,0,0,1,.518-.069,5.351,5.351,0,0,0,4.073.575A6.458,6.458,0,0,0,81.36,12.2a.683.683,0,0,0,.132-.95c-.433-.265-.624-.248-.976.094-.284.275-.549.573-.851.826a4.07,4.07,0,0,1-3.939.888c-.341-.054-.775-.131-.894-.4-.094-.212.365-.41.536-.649a.6.6,0,0,1,.8-.225,3.164,3.164,0,0,0,.738.106,3.132,3.132,0,0,0,2.16-1.009c.694-.721,1.417-1.415,2.12-2.128a2.909,2.909,0,0,0,0-4.263c-.36-.366-.72-.733-1.092-1.088a2.882,2.882,0,0,0-4.089,0c-.805.778-1.588,1.579-2.377,2.373a3.005,3.005,0,0,0-.846,2.068c.023.169.059.338.065.508.008.222.24.454.106.633a7.4,7.4,0,0,1-.854.874c-.118.112-.154-.03-.19-.1a2.345,2.345,0,0,1-.3-.807,3.955,3.955,0,0,1,.89-3.93c.86-.959,1.788-1.863,2.734-2.739a4.22,4.22,0,0,1,5.651.018c.456.418.891.859,1.32,1.306a4.228,4.228,0,0,1,.266,5.74.758.758,0,0,0-.1.936c.456.247.672.241.945-.073a5.133,5.133,0,0,0,1.276-2.827.408.408,0,0,1,.069-.407V5.939c-.061-.019-.065-.07-.072-.123M70.837,20.991c-.224.274-.5.5-.735.769-.144.163-.236.132-.367-.011-.229-.252-.625-.463-.674-.74-.053-.3.393-.5.617-.743a3.147,3.147,0,0,0,.84-1.908,3.163,3.163,0,0,0-.17-1.086.257.257,0,0,1,.069-.316c.248-.236.491-.479.728-.726.125-.131.193-.086.256.054a2.465,2.465,0,0,1,.29.81,4.071,4.071,0,0,1-.854,3.9M74.458,6.637c.8-.822,1.6-1.639,2.431-2.429a1.655,1.655,0,0,1,2.293-.023c.449.4.878.836,1.286,1.283a1.668,1.668,0,0,1-.019,2.326c-.791.828-1.608,1.631-2.43,2.43a1.578,1.578,0,0,1-1.4.427,1.939,1.939,0,0,0-2.6-2.6,1.587,1.587,0,0,1,.439-1.413M74.28,9.378a1.357,1.357,0,0,1,.268-.231.709.709,0,0,1,.967.979,1.648,1.648,0,0,1-.26.3q-3.018,3.021-6.037,6.041a.947.947,0,0,1-.705.362.7.7,0,0,1-.581-.372.664.664,0,0,1,.02-.713,1.7,1.7,0,0,1,.233-.267q3.046-3.049,6.095-6.1" transform="translate(-44.156 0)"/><path d="M143.247,25.086a.388.388,0,0,1,.069-.012v-.4c-.095.123.006.28-.069.407" transform="translate(-102.81 -17.712)" fill="#525252"/><path d="M143.191,25.086c.076-.127-.025-.284.069-.407a.408.408,0,0,0-.069.407" transform="translate(-102.753 -17.712)" fill="#525252"/><path d="M107.735,12.847a2.972,2.972,0,0,1,.24-.362,4.105,4.105,0,0,0-.46-5.617,11.278,11.278,0,0,0-1.732-1.608,4.111,4.111,0,0,0-5.123.537c-.766.761-1.52,1.533-2.292,2.287a4.082,4.082,0,0,0-1.184,4.095l1.012-.957c0-.035,0-.069,0-.1a3.034,3.034,0,0,1,.942-2.191c.753-.738,1.492-1.491,2.239-2.235a2.908,2.908,0,0,1,3.949-.33,8.2,8.2,0,0,1,1.922,1.974,2.955,2.955,0,0,1-.33,3.615q-1.24,1.276-2.517,2.515a2.832,2.832,0,0,1-1.963.811h-.13a9.394,9.394,0,0,0-1.017,1.008,4.07,4.07,0,0,0,4.067-1.158,7.09,7.09,0,0,1,.68-.655.624.624,0,0,1,.955.078c.248-.365.645-.6.88-.972a.517.517,0,0,1-.134-.732" transform="translate(-69.653 -3.305)" fill="#b9aeb8"/><path d="M116.647,39.09a7.129,7.129,0,0,0-.68.655A4.069,4.069,0,0,1,111.9,40.9l-.065.073a4.07,4.07,0,0,0,3.939-.888c.3-.253.567-.551.851-.826.353-.341.543-.358.976-.094a.624.624,0,0,0-.955-.078" transform="translate(-80.265 -27.923)" fill="#b9aeb8"/><path d="M107.666,12.382a4.228,4.228,0,0,0-.266-5.74c-.428-.447-.864-.888-1.32-1.306a4.221,4.221,0,0,0-5.651-.018c-.946.876-1.874,1.78-2.734,2.739a3.955,3.955,0,0,0-.89,3.93l.072-.068a4.082,4.082,0,0,1,1.184-4.095c.772-.754,1.526-1.527,2.292-2.287A4.111,4.111,0,0,1,105.475,5a11.264,11.264,0,0,1,1.732,1.608,4.105,4.105,0,0,1,.46,5.617,2.974,2.974,0,0,0-.24.362.517.517,0,0,0,.134.732.758.758,0,0,1,.1-.936" transform="translate(-69.346 -3.044)" fill="#b9aeb8"/><path d="M105.345,18.164a2.831,2.831,0,0,0,1.963-.811q1.28-1.235,2.517-2.515a2.955,2.955,0,0,0,.33-3.615,8.194,8.194,0,0,0-1.922-1.973,2.908,2.908,0,0,0-3.949.33c-.747.744-1.486,1.5-2.239,2.235A3.034,3.034,0,0,0,101.1,14c0,.035,0,.07,0,.1l.085-.08a3.006,3.006,0,0,1,.846-2.068c.789-.794,1.572-1.6,2.378-2.373a2.882,2.882,0,0,1,4.089,0c.371.355.731.722,1.091,1.088a2.909,2.909,0,0,1,0,4.263c-.7.713-1.425,1.407-2.12,2.128a3.132,3.132,0,0,1-2.16,1.009c-.035.028-.068.059-.1.088h.13" transform="translate(-72.563 -6.191)" fill="#b9aeb8"/><path d="M6.477,99.915a3.966,3.966,0,0,1-.682.765,3.962,3.962,0,0,0-1.1,2.149,3.842,3.842,0,0,0,.826,3.263,9.837,9.837,0,0,0,2.419,2.25,4.1,4.1,0,0,0,4.772-.558c.917-.89,1.841-1.777,2.705-2.717a3.926,3.926,0,0,0,.977-3.337,4.147,4.147,0,0,0-.088-.442l-1.017.961c0,.034,0,.068,0,.1a3.035,3.035,0,0,1-.941,2.191c-.762.747-1.509,1.51-2.267,2.262a3.01,3.01,0,0,1-4.236.066q-.633-.6-1.23-1.23a3.009,3.009,0,0,1,.062-4.236c.78-.786,1.56-1.572,2.35-2.347a2.9,2.9,0,0,1,2.021-.864h.129a9.127,9.127,0,0,0,1.02-1.011,4.146,4.146,0,0,0-3.9.98c-.414.367-.705.369-1.013.053l-.971.885a.554.554,0,0,1,.158.814" transform="translate(-3.321 -69.655)" fill="#b9aeb8"/><path d="M5.943,105.315c-.193.2-.392.391-.578.6a4.242,4.242,0,0,0,0,5.686c.48.524.982,1.031,1.51,1.506a4.2,4.2,0,0,0,5.56.052,37.25,37.25,0,0,0,2.82-2.822,3.937,3.937,0,0,0,.868-3.9l-.068.064a4.161,4.161,0,0,1,.089.442,3.926,3.926,0,0,1-.978,3.337c-.865.94-1.789,1.826-2.705,2.717a4.1,4.1,0,0,1-4.772.558A9.84,9.84,0,0,1,5.268,111.3a3.843,3.843,0,0,1-.826-3.263,3.962,3.962,0,0,1,1.1-2.149,3.949,3.949,0,0,0,.682-.765.553.553,0,0,0-.158-.814c.269.447.247.626-.121,1" transform="translate(-3.065 -74.865)" fill="#b9aeb8"/><path d="M15.072,97.865a4.146,4.146,0,0,1,3.9-.98l.064-.072a4.053,4.053,0,0,0-3.988.937.762.762,0,0,1-.988.168c.308.316.6.314,1.013-.053" transform="translate(-10.09 -69.357)" fill="#b9aeb8"/><path d="M13.985,101.1a2.9,2.9,0,0,0-2.021.864c-.79.775-1.57,1.562-2.349,2.347a3.009,3.009,0,0,0-.062,4.237q.6.633,1.23,1.23a3.011,3.011,0,0,0,4.236-.066c.757-.752,1.5-1.515,2.267-2.262a3.034,3.034,0,0,0,.941-2.191c0-.034,0-.069,0-.1l-.085.081a3.211,3.211,0,0,1-1.065,2.3c-.716.679-1.4,1.4-2.1,2.09a2.9,2.9,0,0,1-4.2,0c-.349-.34-.692-.686-1.034-1.033a2.907,2.907,0,0,1,0-4.262c.712-.722,1.441-1.427,2.148-2.155a3.078,3.078,0,0,1,2.13-.981c.035-.028.067-.058.1-.087h-.13" transform="translate(-6.252 -72.56)" fill="#b9aeb8"/><path d="M13.693,43.894q2.025-.192,4.05-.386a1.17,1.17,0,0,0,1.118-.9,1.14,1.14,0,0,0-.584-1.269c-1.192-.746-2.39-1.483-3.587-2.222a1.087,1.087,0,0,0-.611-.207,1.163,1.163,0,0,0-1.1.65,5.38,5.38,0,0,0-.645,3.237,1.162,1.162,0,0,0,1.365,1.094m.213-3.538c.069-.143.124-.246.315-.126,1.086.682,2.178,1.354,3.365,2.09-1.353.127-2.6.238-3.837.366-.207.021-.244-.048-.254-.227a4.192,4.192,0,0,1,.41-2.1" transform="translate(-8.824 -27.927)"/><path d="M89.531,108.521a1.169,1.169,0,0,0-1.317-.637,1.2,1.2,0,0,0-.892,1.206c-.115,1.285-.234,2.57-.368,3.853a1.2,1.2,0,0,0,1.255,1.485c.144.008.29,0,.434,0a5.1,5.1,0,0,0,2.5-.591,1.182,1.182,0,0,0,.522-1.862q-1.063-1.731-2.137-3.455m.605,4.465a4.085,4.085,0,0,1-1.74.257c-.124-.008-.272.027-.25-.2.126-1.262.244-2.525.375-3.887.663,1.071,1.276,2.058,1.887,3.047.338.546.338.548-.272.778" transform="translate(-62.398 -77.404)"/><path d="M41.269,17.656a1.148,1.148,0,0,0,2.112-.7c0-.7,0-1.4,0-2.094s.006-1.422,0-2.133a1.132,1.132,0,0,0-1.252-1.2,5.25,5.25,0,0,0-3.091,1.138,1.133,1.133,0,0,0-.245,1.724q1.228,1.644,2.477,3.273m-1.392-4.138a4.262,4.262,0,0,1,2.107-.8c.2-.023.209.076.208.226,0,1.274,0,2.548,0,3.951-.838-1.106-1.6-2.119-2.375-3.128-.1-.126-.033-.177.061-.246" transform="translate(-27.632 -8.268)"/><path d="M113.86,87.716c-1.449-.011-2.9-.008-4.346,0a1.108,1.108,0,0,0-1.087.762,1.093,1.093,0,0,0,.377,1.273c1.146.885,2.3,1.763,3.462,2.62a1.086,1.086,0,0,0,1.55-.221,5.315,5.315,0,0,0,1.212-3.1,1.153,1.153,0,0,0-1.168-1.333m-.031,1.437a4.315,4.315,0,0,1-.779,2.035c-.068.092-.113.209-.269.089-1.007-.771-2.02-1.536-3.124-2.373,1.389,0,2.65,0,3.911,0,.184,0,.292.014.261.251" transform="translate(-77.769 -62.949)"/><path d="M68.183,44.377a7.112,7.112,0,0,0-1.325,1.113c-.2.194-.188.326.008.514.639.612.5.613,1.108,0a3.039,3.039,0,0,1,2.062-.953h.138a5.666,5.666,0,0,0,1.06-1.015h0c-.3-.092-.618-.1-.924-.162-.425-.087-.588-.327-.511-.7l-1.329.312c.223.319.144.651-.283.894" transform="translate(-47.88 -30.984)" fill="#b9aeb8"/><path d="M78.1,43.873c.306.062.622.07.924.162h0l.067-.073a2.129,2.129,0,0,0-.759-.16c-.5-.038-.632-.154-.747-.633-.077.376.087.616.511.7" transform="translate(-55.672 -30.984)" fill="#b9aeb8"/><path d="M67.653,45.118a3.85,3.85,0,0,0-.966.736c-.215.225-.609.416-.6.682.012.226.4.418.585.654.221.283.377.254.6-.005a3.215,3.215,0,0,1,2.316-1.257c.048-.026.093-.055.138-.084h-.138a3.041,3.041,0,0,0-2.062.953c-.607.613-.469.612-1.108,0-.2-.188-.212-.32-.008-.514a7.112,7.112,0,0,1,1.325-1.113c.428-.244.507-.575.284-.894a.642.642,0,0,1-.368.843" transform="translate(-47.434 -31.777)" fill="#b9aeb8"/><path d="M118.292,73.753c.617-.251,1.226-.525,1.834-.8a.551.551,0,0,0,.346-.527.572.572,0,0,0-.807-.559c-.619.247-1.23.515-1.835.793a.563.563,0,0,0-.324.775.579.579,0,0,0,.786.316" transform="translate(-84.296 -51.547)" fill="#010101"/><path d="M17.69,64.572c-.619.247-1.23.515-1.836.793a.561.561,0,0,0-.329.772.579.579,0,0,0,.818.3c.593-.242,1.178-.5,1.764-.76a.586.586,0,0,0,.386-.584.573.573,0,0,0-.8-.525" transform="translate(-11.104 -46.311)" fill="#010101"/><path d="M65.069,18.318c.33.14.634,0,.813-.405.247-.552.484-1.108.722-1.663a2.672,2.672,0,0,0,.089-.286.6.6,0,0,0-.456-.6.571.571,0,0,0-.709.355q-.376.846-.736,1.7c-.181.429-.079.744.276.894" transform="translate(-46.44 -11.015)" fill="#010101"/><path d="M73.6,117.354a.516.516,0,0,0-.724.2c-.322.656-.62,1.327-.879,2.01a.586.586,0,0,0,.593.759.562.562,0,0,0,.485-.312c.29-.644.575-1.29.839-1.944a.53.53,0,0,0-.314-.714" transform="translate(-51.648 -84.178)" fill="#010101"/><path d="M113.161,112.176a.523.523,0,0,0-.773.107.541.541,0,0,0,.021.784c.4.394.832.762,1.264,1.125a.549.549,0,0,0,.631.04.583.583,0,0,0,.156-.909c-.429-.387-.849-.786-1.3-1.147" transform="translate(-80.549 -80.419)"/><path d="M24.747,25.055a.517.517,0,0,0,.627.027.545.545,0,0,0,.24-.745A8.553,8.553,0,0,0,24.336,22.9a.511.511,0,0,0-.717.063.521.521,0,0,0-.1.715,9.57,9.57,0,0,0,1.229,1.378" transform="translate(-16.807 -16.349)"/><path d="M40.3,84.22a.691.691,0,0,0-.412-.727.733.733,0,0,0-.861.2q-3.113,3.12-6.231,6.236a.717.717,0,1,0,1.006,1.01q3.121-3.113,6.235-6.232a.723.723,0,0,0,.263-.487" transform="translate(-23.344 -59.878)" fill="#d6cfd5"/><path d="M46.7,69.61a3.086,3.086,0,0,1,.81-1.961c.234-.254.7-.461.646-.771-.049-.287-.467-.5-.7-.77-.143-.165-.224-.1-.338.018-.243.259-.514.493-.738.767a4.076,4.076,0,0,0-.854,3.9A9.126,9.126,0,0,0,46.7,69.61" transform="translate(-32.55 -47.375)" fill="#b9aeb8"/><path d="M64.74,88.4c-.214-.266-.367-.281-.6-.007a3.273,3.273,0,0,1-2.32,1.264,5.37,5.37,0,0,0-1.265,1.172,4.107,4.107,0,0,0,4.161-1.093c.228-.216.575-.439.6-.689.021-.191-.391-.414-.579-.648" transform="translate(-43.461 -63.299)" fill="#b9aeb8"/><path d="M58.846,93.348a.9.9,0,0,1,.667-.409,2.392,2.392,0,0,1-.819-.1.587.587,0,0,0-.805.22c-.171.239-.63.434-.535.65.119.269.551.351.894.4.035-.381.4-.51.6-.763" transform="translate(-41.155 -66.579)" fill="#a99da8"/><path d="M61.819,93.38a.9.9,0,0,0-.667.409c-.2.253-.562.382-.6.763a5.369,5.369,0,0,1,1.264-1.172" transform="translate(-43.461 -67.02)" fill="#a99da8"/><path d="M45.983,79.951a2.3,2.3,0,0,0,.294.808c.036.074.076.213.191.1a7.858,7.858,0,0,0,.856-.874c.131-.17-.09-.39-.1-.6s-.044-.418-.067-.626a2.376,2.376,0,0,1-1.173,1.185" transform="translate(-33.002 -56.531)" fill="#a99da8"/><path d="M45.983,79.951a2.376,2.376,0,0,0,1.173-1.185,9.126,9.126,0,0,1-1.173,1.185" transform="translate(-33.002 -56.531)" fill="#a99da8"/><path d="M28.189,98.574a1.927,1.927,0,0,1,.626.112.439.439,0,0,0,.556-.142,2.631,2.631,0,0,1,.193-.2c.479-.48.475-.5-.176-.719a1.83,1.83,0,0,0-.2-.051.158.158,0,0,1-.049.092,5.01,5.01,0,0,1-.952.9" transform="translate(-20.232 -70.033)" fill="#a99da8"/><path d="M28.69,97.354a1.825,1.825,0,0,1,.2.051c.651.22.656.239.176.719a2.682,2.682,0,0,0-.193.2.439.439,0,0,1-.556.142,1.932,1.932,0,0,0-.626-.111,1.237,1.237,0,0,1-.2.086,3.142,3.142,0,0,1,.739.105.6.6,0,0,0,.806-.226c.171-.239.632-.44.537-.65-.121-.266-.554-.347-.9-.4a.144.144,0,0,1,.013.088" transform="translate(-19.731 -69.809)" fill="#a99da8"/><path d="M28.9,97.628a.158.158,0,0,0,.049-.092l-.069-.015-.008,0a9.152,9.152,0,0,1-1.02,1.012h.1a5.011,5.011,0,0,0,.952-.9" transform="translate(-19.99 -69.99)" fill="#a99da8"/><path d="M27.593,101.1c-.034.029-.067.059-.1.087a1.24,1.24,0,0,0,.2-.086h-.1" transform="translate(-19.731 -72.563)" fill="#a99da8"/><path d="M31.472,97.339l.069.015a.144.144,0,0,0-.013-.088l-.064.072h.008" transform="translate(-22.582 -69.809)" fill="#a99da8"/><path d="M43.028,110a2.969,2.969,0,0,0-.217-.627c-.068-.168-.172-.184-.3-.06q-.284.275-.558.558a.371.371,0,0,0-.057.4,2.709,2.709,0,0,1,.121.678A2.714,2.714,0,0,1,43.028,110" transform="translate(-30.046 -78.4)" fill="#a99da8"/><path d="M41.531,109.724a.371.371,0,0,1,.057-.4q.275-.283.558-.558c.128-.124.232-.108.3.06a2.958,2.958,0,0,1,.217.627c.025-.012.048-.025.074-.036a2.3,2.3,0,0,0-.294-.808c-.036-.073-.073-.213-.19-.1a8.089,8.089,0,0,0-.856.873c-.133.171.092.388.1.6a5.369,5.369,0,0,0,.071.547l.085-.116a2.72,2.72,0,0,0-.121-.678" transform="translate(-29.681 -77.843)" fill="#a99da8"/><path d="M43.42,111.958a2.714,2.714,0,0,0-1.011.954c0,.012,0,.024,0,.036l1.017-.961c0-.008,0-.015-.005-.023v-.006" transform="translate(-30.437 -80.353)" fill="#a99da8"/><path d="M45.989,111.873l.005.023.067-.064c-.026.01-.049.024-.074.036v.006" transform="translate(-33.006 -80.263)" fill="#a99da8"/><path d="M42.194,115.338l-.085.116.085-.08c0-.012,0-.024,0-.036" transform="translate(-30.222 -82.779)" fill="#a99da8"/><path d="M84.01,38.712a.664.664,0,0,0-.02.713.7.7,0,0,0,.581.372.947.947,0,0,0,.705-.362q3.017-3.022,6.037-6.041a1.67,1.67,0,0,0,.26-.3.709.709,0,0,0-.967-.979,1.368,1.368,0,0,0-.268.231q-3.049,3.046-6.095,6.1a1.668,1.668,0,0,0-.233.267" transform="translate(-60.213 -22.972)" fill="#d6cfd5"/><path d="M89.671,61.811a3.144,3.144,0,0,1-.84,1.908c-.224.245-.67.443-.617.743.049.277.445.488.674.74.131.144.223.174.367.011.235-.265.511-.5.735-.769a4.071,4.071,0,0,0,.853-3.9,5.32,5.32,0,0,0-1.173,1.264" transform="translate(-63.309 -43.455)" fill="#b9aeb8"/><path d="M94.059,58.152a2.452,2.452,0,0,0-.29-.81c-.063-.139-.13-.184-.255-.054q-.356.371-.728.726a.256.256,0,0,0-.07.316,3.156,3.156,0,0,1,.171,1.086,2.109,2.109,0,0,1,1.173-1.264" transform="translate(-66.524 -41.061)" fill="#a99da8"/><path d="M94.56,60.547a2.109,2.109,0,0,0-1.173,1.264,5.32,5.32,0,0,1,1.173-1.264" transform="translate(-67.025 -43.455)" fill="#a99da8"/><path d="M79.918,46.954a1.181,1.181,0,0,1-.368.33,2.305,2.305,0,0,1,.515.074c.157.043.328.153.484.023a3.8,3.8,0,0,0,.681-.7c.07-.1-.037-.161-.119-.2a2.192,2.192,0,0,0-.614-.2c-.077.317-.4.446-.58.679" transform="translate(-57.094 -33.212)" fill="#a99da8"/><path d="M80.349,46.268c.082.044.189.106.119.2a3.8,3.8,0,0,1-.681.7c-.156.131-.327.021-.484-.023a2.306,2.306,0,0,0-.515-.074.7.7,0,0,1-.3.079,2.316,2.316,0,0,1,.82.1.585.585,0,0,0,.806-.22c.171-.24.632-.434.536-.652-.119-.268-.553-.349-.9-.4a.587.587,0,0,1-.017.084,2.186,2.186,0,0,1,.614.2" transform="translate(-56.332 -33)" fill="#a99da8"/><path d="M79.507,46.928c.184-.233.5-.363.58-.679l-.049-.01a5.657,5.657,0,0,1-1.06,1.015c.054,0,.108,0,.162.005a1.181,1.181,0,0,0,.368-.33" transform="translate(-56.683 -33.185)" fill="#a99da8"/><path d="M78.626,49.833c-.045.029-.09.058-.138.084a.7.7,0,0,0,.3-.079c-.054,0-.108,0-.162-.005" transform="translate(-56.332 -35.766)" fill="#a99da8"/><path d="M82.781,46.063a.577.577,0,0,0,.017-.084l-.067.073.049.01" transform="translate(-59.378 -33)" fill="#a99da8"/><path d="M110.052,42.854a5.4,5.4,0,0,1,.9-.84,1.933,1.933,0,0,1-.621-.111.444.444,0,0,0-.557.142c-.092.11-.2.2-.3.307-.335.34-.327.378.108.532.126.044.254.082.382.118a.267.267,0,0,1,.1-.147" transform="translate(-78.396 -30.044)" fill="#a99da8"/><path d="M109.521,42.731c-.128-.036-.257-.074-.382-.119-.435-.154-.442-.192-.108-.531.1-.1.211-.2.3-.307a.443.443,0,0,1,.557-.142,1.924,1.924,0,0,0,.62.111,1.093,1.093,0,0,1,.2-.086,3.149,3.149,0,0,1-.738-.106.6.6,0,0,0-.8.225c-.171.239-.629.437-.536.649.119.27.553.347.894.4a.164.164,0,0,1-.009-.1" transform="translate(-77.961 -29.773)" fill="#a99da8"/><path d="M111.9,43.246a.267.267,0,0,0-.1.147l.068.021h.006a9.42,9.42,0,0,1,1.017-1.008h-.1a5.4,5.4,0,0,0-.9.84" transform="translate(-80.242 -30.435)" fill="#a99da8"/><path d="M111.863,45.924l-.068-.021a.163.163,0,0,0,.009.1l.065-.073h-.006" transform="translate(-80.234 -32.945)" fill="#a99da8"/><path d="M115.414,42.189c.034-.029.067-.059.1-.088a1.094,1.094,0,0,0-.2.086h.1" transform="translate(-82.762 -30.216)" fill="#a99da8"/><path d="M97.555,29.126q.082.295.189.582c.07.19.167.263.338.094l.526-.525a.358.358,0,0,0,.082-.4,2.758,2.758,0,0,1-.129-.707,2.726,2.726,0,0,1-1,.952" transform="translate(-70.016 -20.221)" fill="#a99da8"/><path d="M98.487,28.586a.358.358,0,0,1-.082.4l-.526.525c-.17.169-.267.1-.337-.094s-.134-.386-.189-.582c-.027.012-.052.027-.08.038a2.351,2.351,0,0,0,.3.807c.036.072.071.214.19.1a7.4,7.4,0,0,0,.854-.874c.134-.179-.1-.412-.106-.633-.006-.17-.042-.338-.065-.508l-.084.116a2.76,2.76,0,0,0,.129.707" transform="translate(-69.814 -19.926)" fill="#a99da8"/><path d="M97.536,29.035a2.726,2.726,0,0,0,1-.952c0-.012,0-.024,0-.036l-1.012.957c0,.006,0,.011,0,.017l0,.013" transform="translate(-69.997 -20.13)" fill="#a99da8"/><path d="M97.349,31.456c0-.006,0-.011,0-.017l-.072.068c.028-.011.053-.026.08-.038l0-.013" transform="translate(-69.814 -22.564)" fill="#a99da8"/><path d="M101.114,27.88l.084-.116-.085.08c0,.012,0,.023,0,.035" transform="translate(-72.57 -19.927)" fill="#a99da8"/><path d="M16.784,45.9c1.241-.128,2.484-.239,3.837-.366-1.186-.735-2.279-1.407-3.365-2.089-.191-.12-.246-.017-.316.126a4.2,4.2,0,0,0-.41,2.1c.01.179.047.248.254.227" transform="translate(-11.858 -31.146)" fill="#fde87c"/><path d="M91.58,112.5c-.13,1.362-.248,2.625-.375,3.887-.022.222.125.186.249.195a4.082,4.082,0,0,0,1.74-.257c.609-.23.609-.232.272-.779-.611-.988-1.224-1.976-1.887-3.046" transform="translate(-65.457 -80.741)" fill="#fde87c"/><path d="M45.417,19.928c0-1.4,0-2.677,0-3.951,0-.15-.009-.249-.208-.226a4.26,4.26,0,0,0-2.107.8c-.093.069-.156.121-.06.246.771,1.009,1.536,2.022,2.375,3.128" transform="translate(-30.858 -11.303)" fill="#fde87c"/><path d="M116.873,91.934c-1.261,0-2.522,0-3.911,0,1.1.837,2.116,1.6,3.123,2.373.156.119.2,0,.269-.089a4.315,4.315,0,0,0,.779-2.035c.032-.237-.077-.252-.261-.251" transform="translate(-81.074 -65.982)" fill="#fde87c"/></g></g><circle cx="27" cy="27" r="27" transform="translate(812 1870)" fill="#d3f9ee"/><g transform="translate(818 1879)"><g transform="translate(0 0)" clip-path="url(#d)"><path d="M.218,34.25a.955.955,0,0,0,.692.461c.7.071,1.41.014,2.114.031.138,0,.277,0,.415,0a.93.93,0,0,1,.4.054l.435,0q17.7.01,35.4.015c.954,0,1.319-.627,1.186-1.2a1.842,1.842,0,0,0-.195-.453q-8.245-14.95-16.493-29.9c-.041-.075-.078-.152-.113-.231-.016-.009-.031-.021-.047-.03a2.246,2.246,0,0,1-.534-.779A3.276,3.276,0,0,0,19.2.571a2.985,2.985,0,0,0-1.55,1.321c-1.026,1.754-1.98,3.548-2.965,5.325q-2.14,3.863-4.269,7.732-2.044,3.7-4.09,7.4c-1.547,2.793-3.079,5.594-4.636,8.382-.465.832-.9,1.681-1.388,2.5-.071.12-.093.306-.3.291v.581c.125-.035.171.066.218.142m2.587-1.707Q10.953,17.788,19.1,3.032a1.491,1.491,0,0,1,1.8-.812,1.279,1.279,0,0,1,.865.768q2.5,4.511,4.993,9.023,5.6,10.139,11.191,20.281c.092.167.182.336.279.512-.112.095-.226.057-.326.057q-16.35,0-32.7,0c-.069,0-.138-.007-.207-.01H2.685c-.018-.137.069-.217.12-.309" transform="translate(0 -0.221)"/><path d="M.871,111.582c.988-.033,1.976-.012,2.964-.005a.935.935,0,0,0-.4-.054c-.138,0-.277,0-.415,0-.7-.018-1.41.04-2.114-.031a.955.955,0,0,1-.692-.461c-.046-.076-.092-.176-.218-.142a1.123,1.123,0,0,0,.871.695" transform="translate(0 -76.999)"/><path d="M.3,33.016c.486-.821.923-1.669,1.388-2.5,1.557-2.787,3.089-5.588,4.636-8.381q2.049-3.7,4.09-7.4Q12.549,10.862,14.684,7c.985-1.777,1.939-3.572,2.965-5.325A2.983,2.983,0,0,1,19.2.35a3.276,3.276,0,0,1,4.272,1.656A2.24,2.24,0,0,0,24,2.786c.016.009.031.021.047.03-.021-.046-.042-.093-.064-.139-.166-.285-.337-.568-.5-.856A3.26,3.26,0,0,0,20.5,0a3.3,3.3,0,0,0-3.074,1.827q-7.739,14-15.472,28c-.644,1.165-1.3,2.32-1.957,3.48.207.015.229-.171.3-.291" transform="translate(0 0)"/><path d="M9.428,113.331c.318.006.635.009.952.013,0,0,0-.008,0-.012H9.428" transform="translate(-6.547 -78.701)"/><path d="M38.423,19.341q2.791,5.072,5.59,10.141c1.67,3.029,3.333,6.062,5.019,9.082.182.326.348.661.535.985A1.124,1.124,0,0,1,48.543,41.3c-2.92-.034-5.84-.012-8.76-.012-8.76,0-17.52.015-26.28-.016-.277,0-.553-.008-.83-.011a.816.816,0,0,1-.027.405c.107.091.237.049.355.049q18.782,0,37.563,0c.506,0,.517-.008.263-.47q-1.421-2.58-2.844-5.161-2-3.638-4-7.273-1.868-3.4-3.746-6.8-1.981-3.6-3.956-7.2c-.783-1.432-1.58-2.856-2.363-4.289a2.8,2.8,0,0,0-.941-1,8.8,8.8,0,0,1,.7,1.239q2.383,4.278,4.738,8.573" transform="translate(-8.783 -6.617)" fill="#e46976"/><path d="M3.291,113.222c.523,0,1.046,0,1.569,0q-1.005-.021-2.01-.047c.138.1.295.044.442.045" transform="translate(-1.978 -78.594)" fill="#e46976"/><path d="M33.425,9.994c.782,1.432,1.579,2.857,2.363,4.289q1.971,3.6,3.956,7.2,1.871,3.4,3.746,6.8,2,3.636,4,7.273,1.417,2.583,2.844,5.161c.254.461.243.47-.263.47q-18.782,0-37.563,0c-.119,0-.248.042-.355-.049a.816.816,0,0,0,.027-.405h-.058c.012.23-.2.352-.188.568H50.72c.013-.165-.093-.269-.157-.386Q45.08,30.936,39.593,20.965,36.546,15.424,33.5,9.884a2.331,2.331,0,0,0-1.226-1.123A2.069,2.069,0,0,1,32.484,9a2.8,2.8,0,0,1,.941,1" transform="translate(-8.285 -6.084)" fill="#e46976"/><path d="M12.6,41.043c.277,0,.554.01.83.011,8.76.031,17.52.017,26.28.016,2.92,0,5.84-.022,8.76.013A1.124,1.124,0,0,0,49.5,39.331c-.188-.324-.353-.658-.535-.985-1.687-3.02-3.35-6.053-5.019-9.082q-2.8-5.071-5.59-10.141-2.361-4.291-4.738-8.573a8.737,8.737,0,0,0-.7-1.239c-.049-.032-.1-.066-.148-.1.036.078.072.156.113.231q8.246,14.95,16.493,29.9a1.831,1.831,0,0,1,.195.453c.133.568-.233,1.2-1.187,1.2q-17.7-.025-35.4-.015l-.435,0a.133.133,0,0,1,.057.066" transform="translate(-8.713 -6.4)" fill="#e46976"/><path d="M5.813,113.132c-.988-.007-1.976-.028-2.964.005q1.005.025,2.011.047h.953s0,.008,0,.012H5.87a.133.133,0,0,0-.057-.066" transform="translate(-1.978 -78.554)" fill="#e46976"/><path d="M78.567,8.9c.051.03.1.063.148.1a2.044,2.044,0,0,0-.212-.235c.022.046.043.093.064.139" transform="translate(-54.515 -6.084)" fill="#e46976"/><path d="M31.958,10.534q-7.494,13.651-15,27.3c-.2.364-.4.725-.6,1.087h0c.069,0,.138.01.207.01q16.35,0,32.7,0c.1,0,.215.038.326-.056-.1-.177-.186-.345-.279-.513Q43.716,28.218,38.12,18.078q-2.492-4.514-4.993-9.023a3.888,3.888,0,0,0-1.168,1.479m-.086,24.55a1.7,1.7,0,0,1-1.737-1.724,1.723,1.723,0,0,1,1.72-1.709,1.741,1.741,0,0,1,1.74,1.736,1.7,1.7,0,0,1-1.723,1.7m1.661-11.951a14.719,14.719,0,0,1-.1,3.14c-.081,1.115-.2,2.228-.31,3.341a2.48,2.48,0,0,1-.246.872,1.1,1.1,0,0,1-1.106.65,1.077,1.077,0,0,1-1.022-.71,3.821,3.821,0,0,1-.266-1.251c-.127-1.791-.235-3.584-.35-5.375a4.364,4.364,0,0,1,.05-.743,1.7,1.7,0,0,1,1.844-1.479c.875.03,1.368.556,1.509,1.556" transform="translate(-11.359 -6.288)" fill="#e46a77"/><path d="M32.191,9.858c-1.108,1.947-2.167,3.922-3.248,5.884q-1.511,2.744-3.019,5.488-1.482,2.688-2.955,5.382L19.951,32.1c-1.173,2.133-2.348,4.264-3.508,6.4-.069.126-.193.246-.128.417.2-.362.405-.724.6-1.087q7.5-13.649,15-27.3a3.884,3.884,0,0,1,1.168-1.479,1.366,1.366,0,0,0-.893.8" transform="translate(-11.317 -6.288)" fill="#fefefe"/><path d="M61.482,51.509a4.364,4.364,0,0,0-.05.743c.115,1.792.222,3.585.35,5.376a3.819,3.819,0,0,0,.266,1.251,1.075,1.075,0,0,0,1.022.71,1.1,1.1,0,0,0,1.106-.65,2.478,2.478,0,0,0,.246-.872c.108-1.113.229-2.226.31-3.341a14.718,14.718,0,0,0,.1-3.14c-.141-1-.634-1.526-1.509-1.556a1.7,1.7,0,0,0-1.844,1.479" transform="translate(-42.661 -34.741)"/><path d="M63.167,83a1.723,1.723,0,0,0-1.72,1.709,1.73,1.73,0,0,0,3.46.026A1.741,1.741,0,0,0,63.167,83" transform="translate(-42.671 -57.641)"/></g></g><g transform="translate(64 103)"><circle cx="22.5" cy="22.5" r="22.5" transform="translate(828 1786)" fill="#fed166" opacity="0.156"/><circle cx="19.5" cy="19.5" r="19.5" transform="translate(831 1789)" fill="#fed166" opacity="0.482"/><circle cx="14.5" cy="14.5" r="14.5" transform="translate(836 1794)" fill="#fed166"/><text transform="translate(847 1797)" fill="#12263f" font-size="16" font-family="Roboto-Bold, Roboto" font-weight="700"><tspan x="-4.367" y="17">+</tspan></text></g></g></svg>