<svg xmlns="http://www.w3.org/2000/svg" xmlns:xlink="http://www.w3.org/1999/xlink" width="295" height="352" viewBox="0 0 295 352"><defs><clipPath id="a"><rect width="295" height="352" rx="12" transform="translate(180 4231)" fill="#126783"/></clipPath><filter id="b" x="-50.072" y="-25.5" width="118.712" height="103.54" filterUnits="userSpaceOnUse"><feOffset dy="3" input="SourceAlpha"/><feGaussianBlur stdDeviation="8.5" result="c"/><feFlood flood-opacity="0.373"/><feComposite operator="in" in2="c"/><feComposite in="SourceGraphic"/></filter><filter id="d" x="-2.803" y="-19.5" width="70.968" height="68.173" filterUnits="userSpaceOnUse"><feOffset dy="3" input="SourceAlpha"/><feGaussianBlur stdDeviation="8.5" result="e"/><feFlood flood-opacity="0.373"/><feComposite operator="in" in2="e"/><feComposite in="SourceGraphic"/></filter></defs><g transform="translate(8411 7215)"><rect width="295" height="352" rx="12" transform="translate(-8411 -7215)" fill="#126783"/><g transform="translate(-8591 -11446)" clip-path="url(#a)"><g transform="translate(5.479 -5.877)"><g transform="matrix(1, 0, 0, 1, 174.52, 4236.88)" filter="url(#b)"><path d="M9.941,64.735A10.937,10.937,0,0,0,20.55,54.515L23.284,9.552A9.307,9.307,0,0,0,13.348.006,10.937,10.937,0,0,0,2.739,10.226L.006,55.189A9.307,9.307,0,0,0,9.941,64.735Z" transform="translate(-24.57 17.17) rotate(-60)" fill="#20bdfc"/></g><path d="M25.856,99.673c.3,0,.6,0,.893-.015C41,99.191,52.968,87.691,53.434,74.021l0-.05L57.4,6.647A22.388,22.388,0,0,0,51.137-9.81a23.184,23.184,0,0,0-7.748-5.277,25.239,25.239,0,0,0-9.828-1.94c-.3,0-.6,0-.895.015C18.419-16.545,6.449-5.044,5.983,8.625l0,.05L2.013,76A22.387,22.387,0,0,0,8.279,92.455a23.186,23.186,0,0,0,7.748,5.277,25.243,25.243,0,0,0,9.829,1.941h0m0,2C11.014,101.672-.476,90.32.015,75.907L3.984,8.557C4.486-6.167,17.3-18.51,32.6-19.011S59.9-7.984,59.4,6.739L55.433,74.09c-.5,14.724-13.314,27.066-28.617,27.568C26.493,101.668,26.174,101.673,25.855,101.673Z" transform="translate(403.119 4576.592) rotate(-60)" fill="#25e0ac"/><g transform="matrix(1, 0, 0, 1, 174.52, 4236.88)" filter="url(#d)"><path d="M4.592,17.409a5.052,5.052,0,0,0,4.9-4.721l.282-8.275A4.3,4.3,0,0,0,5.185,0a5.052,5.052,0,0,0-4.9,4.721L0,13A4.3,4.3,0,0,0,4.592,17.409Z" transform="translate(22.7 11.47) rotate(-60)" fill="#25e0ac"/></g></g></g></g></svg>