<svg xmlns="http://www.w3.org/2000/svg" xmlns:xlink="http://www.w3.org/1999/xlink" width="530.5" height="281.5" viewBox="0 0 530.5 281.5"><defs><filter id="a" x="0" y="185.894" width="132.19" height="95.605" filterUnits="userSpaceOnUse"><feOffset dy="3" input="SourceAlpha"/><feGaussianBlur stdDeviation="8.5" result="b"/><feFlood flood-opacity="0.2"/><feComposite operator="in" in2="b"/><feComposite in="SourceGraphic"/></filter></defs><g transform="translate(-889.5 -404)"><rect width="487" height="217" rx="21" transform="translate(933 440)" fill="#f6f6f6"/><g transform="matrix(1, 0, 0, 1, 889.5, 404)" filter="url(#a)"><path d="M21.139,0A21.841,21.841,0,0,1,42.764,21.345l.442,38.246A20.662,20.662,0,0,1,22.069,80.447,21.841,21.841,0,0,1,.444,59.1L0,20.857A20.662,20.662,0,0,1,21.139,0Z" transform="translate(105.94 208.39) rotate(89)" fill="#20bdfc"/></g><g transform="translate(572.831 212.867)"><g transform="translate(698.906 328.763)"><g transform="translate(13.591)"><path d="M2313.2,1059.423s-10.388-21.363,13.052-44.573C2328.226,1020.706,2336.089,1059,2313.2,1059.423Z" transform="translate(-2306.411 -1014.85)" fill="#32256b"/><path d="M2284.409,1184.169a.4.4,0,0,1-.052,0,.4.4,0,0,1-.344-.447c.672-5.169,1.483-10.388,2.41-15.512s1.993-10.279,3.17-15.334,2.5-10.139,3.919-15.111,2.992-9.97,4.658-14.843a.4.4,0,1,1,.756.259c-1.662,4.86-3.225,9.84-4.646,14.8s-2.735,10.03-3.909,15.072-2.238,10.188-3.162,15.295-1.733,10.317-2.4,15.473A.4.4,0,0,1,2284.409,1184.169Z" transform="translate(-2284.009 -1104.637)" fill="#3e8cf7"/></g><path d="M2213.988,1206.328s10.887-5.619-8.426-29.318C2203.86,1180.729,2196.762,1200.347,2213.988,1206.328Z" transform="translate(-2202.668 -1149.916)" fill="#32256b"/><path d="M2247.564,1287.817a.4.4,0,0,1-.4-.35,205.039,205.039,0,0,0-9.069-39.852.4.4,0,1,1,.757-.255,205.823,205.823,0,0,1,9.1,40.007.4.4,0,0,1-.4.449Z" transform="translate(-2232.162 -1208.285)" fill="#3e8cf7"/><path d="M2232.212,1483.092h-17.639l-4.393-60.591H2236.6Z" transform="translate(-2208.925 -1354.388)" fill="#3e8cf7"/></g><g transform="translate(573.807 355.97)"><path d="M1501.891,1256.125a48.055,48.055,0,0,1-37.129-78.444l20.319,16.591a21.817,21.817,0,1,0,33.8,27.6l20.319,16.591a47.735,47.735,0,0,1-32.39,17.416A48.959,48.959,0,0,1,1501.891,1256.125Z" transform="translate(-1453.951 -1177.681)" fill="#d99527"/></g><path d="M2318.087,889.462a4.938,4.938,0,0,1-3.227-1.144,12.765,12.765,0,0,1-2.106-2.394,12.024,12.024,0,0,0-1.967-2.249,4.323,4.323,0,0,0-1.2-.7,4.518,4.518,0,0,0-3.046,0,4.325,4.325,0,0,0-1.2.7,12.007,12.007,0,0,0-1.966,2.249,12.791,12.791,0,0,1-2.106,2.394,5.065,5.065,0,0,1-6.453,0,12.781,12.781,0,0,1-2.106-2.394,12.006,12.006,0,0,0-1.966-2.249,4.318,4.318,0,0,0-1.2-.7,4.516,4.516,0,0,0-3.046,0,4.321,4.321,0,0,0-1.2.7,12.007,12.007,0,0,0-1.966,2.249,12.789,12.789,0,0,1-2.106,2.394,5.065,5.065,0,0,1-6.454,0,12.77,12.77,0,0,1-2.105-2.394,12.016,12.016,0,0,0-1.967-2.249,4.326,4.326,0,0,0-1.2-.7,4.24,4.24,0,0,0-1.523-.265.4.4,0,0,1,0-.8,4.937,4.937,0,0,1,3.228,1.144,12.764,12.764,0,0,1,2.105,2.394,12.023,12.023,0,0,0,1.966,2.249,4.327,4.327,0,0,0,1.2.7,4.518,4.518,0,0,0,3.046,0,4.333,4.333,0,0,0,1.2-.7,12.016,12.016,0,0,0,1.967-2.249,12.778,12.778,0,0,1,2.1-2.394,5.066,5.066,0,0,1,6.454,0,12.793,12.793,0,0,1,2.106,2.394,12.013,12.013,0,0,0,1.966,2.249,4.322,4.322,0,0,0,1.2.7,4.518,4.518,0,0,0,3.046,0,4.328,4.328,0,0,0,1.2-.7,11.989,11.989,0,0,0,1.967-2.249,12.79,12.79,0,0,1,2.106-2.394,5.067,5.067,0,0,1,6.454,0,12.78,12.78,0,0,1,2.105,2.394,12.02,12.02,0,0,0,1.967,2.249,4.321,4.321,0,0,0,1.2.7,4.244,4.244,0,0,0,1.523.264.4.4,0,1,1,0,.8Z" transform="translate(-1557.819 -575.359)" fill="#3e8cf7"/><g transform="translate(405.138 208.663)"><path d="M1633.6,394.988H1562.48s.911-4.353,4.1-5.542c3.622-1.353,8.613,2.69,11.365,3.1,3.337.5,5.706-1.622,7.368-2.9,2.81-2.152,4.055-3.251,7.993-6.287,6.622-5.106,10.6-8.219,13.192-2.033,4.16,9.928,4.384,10.7,10.616,10.306,5.529-.353,10.112-2.977,12.907-2.164S1633.6,394.988,1633.6,394.988Z" transform="translate(-1375.677 -364.228)" fill="#126783"/><path d="M517.863,637.633h-73.4a13.465,13.465,0,0,1,8-5.666c3.37-.832,5.118,2.722,7.958,3.148,3.444.515,9.774-4.434,11.6-5.594,4.984-3.161,10.937-8.314,16.4-1.594,7.008,8.622,6,6.658,12.428,6.247,5.706-.364,10.436-3.073,13.322-2.232S517.863,637.633,517.863,637.633Z" transform="translate(-444.46 -569.736)" fill="#126783"/><path d="M-1.991,25.625a.4.4,0,0,1-.4-.4V-1.991a.4.4,0,0,1,.4-.4.4.4,0,0,1,.4.4V25.225A.4.4,0,0,1-1.991,25.625Z" transform="translate(230.328 2.391)" fill="#126783"/><path d="M-1.991,111.106a.4.4,0,0,1-.4-.4V-1.991a.4.4,0,0,1,.4-.4.4.4,0,0,1,.4.4v112.7A.4.4,0,0,1-1.991,111.106Z" transform="translate(230.328 91.391)" fill="#126783"/><path d="M67.257-1.592H-1.991a.4.4,0,0,1-.4-.4.4.4,0,0,1,.4-.4H67.257a.4.4,0,0,1,.4.4A.4.4,0,0,1,67.257-1.592Z" transform="translate(245.705 204.089)" fill="#126783"/><path d="M70.313-1.592h-72.3a.4.4,0,0,1-.4-.4.4.4,0,0,1,.4-.4h72.3a.4.4,0,0,1,.4.4A.4.4,0,0,1,70.313-1.592Z" transform="translate(173.401 204.089)" fill="#126783"/><path d="M583.6,411.555a.4.4,0,0,1-.4-.4V298.12a2.073,2.073,0,0,1,2.07-2.07H658.1a.4.4,0,0,1,0,.8H585.27A1.273,1.273,0,0,0,584,298.12V411.155A.4.4,0,0,1,583.6,411.555Z" transform="translate(-560.018 -296.049)" fill="#126783"/><path d="M1543.624,378.472a.4.4,0,0,1-.4-.4V298.12a1.273,1.273,0,0,0-1.271-1.271H1371.3a.4.4,0,0,1,0-.8h170.654a2.073,2.073,0,0,1,2.07,2.07v79.953A.4.4,0,0,1,1543.624,378.472Z" transform="translate(-1216.107 -296.049)" fill="#126783"/></g><g transform="translate(481.336 192.578)"><path d="M1486.991,991.471a15.752,15.752,0,0,1-.972,3.22c-.426.6-2.582,3.208-3.385,4.047-.453-.289-.675-.992-.032-2.256a25.493,25.493,0,0,0,1.895-3.83,41.536,41.536,0,0,0-.214-4.565l1.043,1.385s-.476,1.076-.518,1.093a7.935,7.935,0,0,1-1.317.446c-.575.119-6.1.232-6.1.232s-.3-.842.855-1.145c.685-.179,4.124-1.029,4.406-1.233s.724-1.414.52-1.435-5.94,2.682-5.94,2.682a1.161,1.161,0,0,1,.473-1.412c.207-.162,5.27-3.741,5.27-3.741Z" transform="translate(-1380.8 -853.769)" fill="#e88f79"/><path d="M1450.79,914.878s1.766,6.137,2.262,7.6c.916,2.693,1.342,2.967,3.088,5.529s2.7,4.667,4,6.8c1.638,2.705,2.234.824,1.76-1.038-1.158-4.535-1.437-4.88-1.831-6.2-.374-1.251,3.014,2.518,3.616,3.771a56.106,56.106,0,0,1,1.863,6.865c.341,1.5,1.141,1.728,1.878,1.728a51.761,51.761,0,0,0-3.168-15.679c-.57-1.367-5.858-7.014-6.007-7.871a18.808,18.808,0,0,0-1.407-3.194Z" transform="translate(-1358.847 -793.991)" fill="#f7b797"/><path d="M1297.294,1670.839h-16.058s-1.917-5.084-3.265-8.127c-3-6.771-4.318,8.127-4.318,8.127h-2.423s1.708-18.922,2.063-22.929l13.556,2.023c-.879,8.88,10.954,14.832,22.834,19.011a.931.931,0,0,1-.306,1.808Z" transform="translate(-1209.288 -1405.951)" fill="#25e0ac"/><path d="M910.672,1668.332h9.467a3.441,3.441,0,0,0,3.358-2.7c.389-1.76.919-4,1.4-5.534,2.214-7.091.861,8.232.861,8.232h2.154s1.312-15.326,1.711-19.333l-13.977-4.1c-.869,9.348-5.278,17.388-14.3,21.358-1.317.58-.9,1.971.03,1.971Z" transform="translate(-900.508 -1403.444)" fill="#25e0ac"/><path d="M1133.782,210.206c2.237-1.794,5.307-2,8.161-2.281s5.968-.852,7.794-3.064c2.057-2.493,3.527-3.841,5.415-4.7,2.914-1.33,8.981.937,12.715,6.053,3.171,4.346,6.259,9.594,7.159,16.419,1.086,8.232-6.725,8.951-6.725,8.951s18.244,10.738,16.576,20.351c-2.015,11.617-14.772,9.7-17.641,10.874,0,0-.82-5.957-4.951-7.858a61.86,61.86,0,0,1-14.337-9.7c-7.257-6.272-13.977-13.8-16.48-23.059C1130.347,218.024,1130.421,212.9,1133.782,210.206Z" transform="translate(-1092.339 -199.784)" fill="#32256b"/><path d="M1378.981,537.958c-4-11.479-12.887-59.45-13.5-65.2-1.684-15.926-13.415-15.926-13.415-15.926s-3,27.95,1.213,37.92,13.587,46.473,13.587,46.473Z" transform="translate(-1275.759 -413.882)" fill="#24bc9f"/><path d="M1010.895,831.11c-3.51,8.568-12.058,43.5-16.541,71.627-2.438,15.3-6.87,41.168-12.033,65.119l15.442,3.325c12.062-36.464,22.862-66.539,32.306-103.794a.229.229,0,0,1,.451.053c.317,31.7-.234,51.743,2.139,100.143l16.785,3.851c2.109-13.118,6.727-71.5,8.269-109.52.4-9.843-1.684-17.063-3.125-25.589Z" transform="translate(-968.65 -725.625)" fill="#32256b"/><path d="M1174.688,496.812c-1.4-7.442-3.032-16.742-3.23-25.505-.094-4.165,2.932-25.845,1.765-31.779-.844-4.289-1.044-8.632-5.215-9.94-10.2-3.2-28.336-6.134-37.841-6.1a3.677,3.677,0,0,0-3.539,3.562,89.379,89.379,0,0,0,.618,15.784c.765,6.7,3.161,12.67,4.222,19.332,1.46,9.18,2.75,16.638-.469,29.428Z" transform="translate(-1088.752 -386.111)" fill="#24bc9f"/><path d="M1064.973,496.219s-1.98-30.867,2.974-46.936V423.317s-4.413-.374-7.385.911c-3.31,1.43-5.7,5.449-7.171,9.906-3.913,11.843-4.518,47.049.194,66.81Z" transform="translate(-1025.232 -385.926)" fill="#24bc9f"/><path d="M1221.257,430.419a13.43,13.43,0,0,1-13.293,4.83,17.058,17.058,0,0,1-11.6-9.109A175,175,0,0,1,1221.257,430.419Z" transform="translate(-1146.928 -388.319)" fill="#f7b797"/><path d="M1097.927,862.094a12.375,12.375,0,0,1-1.8-.744,5.862,5.862,0,0,1-.921-1.46l-8.657,3.592s1.556,5.3,3.928,8.354a11.245,11.245,0,0,0,3.86,2.78Z" transform="translate(-1055.465 -749.597)" fill="#f7b797"/><path d="M1128.621,884.975a.317.317,0,0,1-.308-.389c.632-2.687,1.416-5.415,2.173-8.053s1.536-5.352,2.165-8.023a.317.317,0,0,1,.617.145c-.632,2.687-1.415,5.415-2.173,8.053s-1.536,5.352-2.165,8.024A.317.317,0,0,1,1128.621,884.975Z" transform="translate(-1090.243 -756.572)" fill="#24bc9f"/><path d="M1371.712,587.314a.317.317,0,0,1-.17-.584,7.388,7.388,0,0,0,2.974-4.462,22.708,22.708,0,0,0,.511-5.609.317.317,0,0,1,.316-.314h0a.316.316,0,0,1,.314.319c-.007.893-.015,1.905-.085,2.887a15.583,15.583,0,0,1-.447,2.879,9.516,9.516,0,0,1-1.173,2.723,6.819,6.819,0,0,1-2.075,2.112A.315.315,0,0,1,1371.712,587.314Z" transform="translate(-1292.717 -513.427)" fill="#32256b"/><g transform="translate(55.317 4.98)"><rect width="5.741" height="18.423" transform="matrix(-1, 0.01, -0.01, -1, 11.581, 39.987)" fill="#f7b797"/><path d="M1265.01,376.03c1.186,1.8,5.223,2.936,5.851,2.438l.045,4.555A8.921,8.921,0,0,1,1265.01,376.03Z" transform="translate(-1259.424 -351.562)" fill="#d65a50"/><path d="M1259.926,242c.082,8.2-3.3,15.236-6.762,15.271-3.2.032-6.976-5.937-7.068-15.133-.107-10.63,2.971-12.513,6.788-12.551S1259.823,231.626,1259.926,242Z" transform="translate(-1243.669 -229.587)" fill="#f7b797"/><g transform="translate(4.959 10.326)"><g transform="translate(7.333)"><path d="M1305.15,292.269l3.512.115S1305.245,290.217,1305.15,292.269Z" transform="translate(-1305.15 -291.386)" fill="#32256b"/><path d="M1310.11,304.423c0,.381.205.688.451.685s.441-.314.438-.693-.205-.688-.451-.685S1310.107,304.042,1310.11,304.423Z" transform="translate(-1309.281 -301.667)" fill="#32256b"/></g><g transform="translate(0 0.056)"><path d="M1264.769,292.586l-3.509.185S1264.632,290.536,1264.769,292.586Z" transform="translate(-1261.26 -291.72)" fill="#32256b"/><path d="M1273.1,304.785c0,.381-.192.692-.438.693s-.448-.3-.451-.685.192-.692.438-.693S1273.094,304.4,1273.1,304.785Z" transform="translate(-1270.38 -302.032)" fill="#32256b"/></g></g><path d="M1288.961,301.9a.317.317,0,0,1,0-.633.623.623,0,0,0,.413-.146.375.375,0,0,0,.093-.282,1.885,1.885,0,0,0-.125-.573,6.486,6.486,0,0,1,0-4.266.317.317,0,0,1,.6.206,5.857,5.857,0,0,0,0,3.852,2.451,2.451,0,0,1,.159.77,1,1,0,0,1-.272.734,1.243,1.243,0,0,1-.86.338Z" transform="translate(-1279.11 -284.724)" fill="#d65a50"/><path d="M1276.7,341.258a2.8,2.8,0,0,1-.552-.056,3.374,3.374,0,0,1-1.138-.466A4,4,0,0,1,1273.5,339a.317.317,0,0,1,.583-.247,3.341,3.341,0,0,0,1.266,1.443,2.744,2.744,0,0,0,.924.381,2.059,2.059,0,0,0,.977-.033.317.317,0,0,1,.174.609A2.636,2.636,0,0,1,1276.7,341.258Z" transform="translate(-1266.474 -320.356)" fill="#d65a50"/><g transform="translate(0 9.803)"><path d="M1234.859,290.917a4.057,4.057,0,0,0-.913-2,1.408,1.408,0,0,0-1.465-.6,1.5,1.5,0,0,0-.779,1.044,3.454,3.454,0,0,0,.6,3.034,2.8,2.8,0,0,0,2.682,1.011Z" transform="translate(-1231.579 -288.258)" fill="#f7b797"/><path d="M1239.254,294.7a.317.317,0,0,1-.313-.365,2.73,2.73,0,0,0-.231-1.743,1.531,1.531,0,0,0-.469-.527.317.317,0,1,1,.363-.519,2.167,2.167,0,0,1,.664.746,3.347,3.347,0,0,1,.3,2.14A.317.317,0,0,1,1239.254,294.7Z" transform="translate(-1237.014 -290.945)" fill="#d65a50"/></g><path d="M1266.011,316.158a1.191,1.191,0,1,1-1.2-1.178A1.192,1.192,0,0,1,1266.011,316.158Z" transform="translate(-1258.274 -300.712)" fill="#d65a50"/><path d="M1310.821,316.338a1.191,1.191,0,1,1-1.2-1.178A1.192,1.192,0,0,1,1310.821,316.338Z" transform="translate(-1295.597 -300.862)" fill="#d65a50"/></g><path d="M1258.8,230.3c-2.6,3.719-6.57-16.518-14.389-13.407-.757,2.777-1.48,3.835-2.531,6.717-.9-2.459-2.012-7.277-.546-10.241a8.5,8.5,0,0,1,8.043-4.74,10.215,10.215,0,0,1,6.107,3.108C1259.265,215.458,1259.99,225.131,1258.8,230.3Z" transform="translate(-1183.793 -207.13)" fill="#32256b"/></g><g transform="translate(457.109 196.022)"><g transform="translate(6.729)"><path d="M811.83,275.231c-7.432-2.5-9.4-4.257-13.609-10.869-6.832-10.723,2.575-34.379,5.524-38.042,6.177-7.669,17.669-6.516,23.206-4.17,0,0,5.763,5.161-.176,27.562a15.832,15.832,0,0,1,5.039,16.307c-1.061,3.6-4.486,6.655-7.885,8.241S814.092,275.991,811.83,275.231Z" transform="translate(-795.786 -220.391)" fill="#32256b"/><rect width="25.504" height="5.656" transform="translate(23.596 18.803) rotate(82.571)" fill="#e88f79"/><path d="M909.63,360.38a17.931,17.931,0,0,0,6.606,10.994l-.585-4.483C913.491,365.952,911.353,363.745,909.63,360.38Z" transform="translate(-890.609 -336.99)" fill="#d65a50"/><g transform="translate(15.92 1.758)"><path d="M902.977,258.185c-1.445,1.94-2.817.906-3.642.393-3.606-2.234-6.528-7.387-7.612-13.93a44.085,44.085,0,0,1-.593-10.157c2.951-3.026,8.911-4.471,12.954-3C905.769,239.706,906.3,253.724,902.977,258.185Z" transform="translate(-891.069 -230.913)" fill="#f7b797"/><g transform="translate(5.018 9.629)"><path d="M925.279,289.354l-4.179.294S924.184,287.374,925.279,289.354Z" transform="translate(-921.1 -288.544)" fill="#32256b"/><path d="M936.764,300.869a.63.63,0,1,1-.708-.66A.69.69,0,0,1,936.764,300.869Z" transform="translate(-933.117 -298.256)" fill="#32256b"/></g><g transform="translate(11.576 9.476)"><path d="M960.35,288.518l3.213.06S961.042,286.483,960.35,288.518Z" transform="translate(-960.35 -287.628)" fill="#32256b"/><path d="M965.006,299.7a.674.674,0,0,0,.54.765c.316.013.583-.309.6-.72a.673.673,0,0,0-.541-.765C965.292,298.965,965.023,299.287,965.006,299.7Z" transform="translate(-964.227 -297.081)" fill="#32256b"/></g><path d="M954.491,301.017a.288.288,0,0,1-.109-.554.689.689,0,0,0,.424-.363,1.5,1.5,0,0,0-.185-1.078,10.531,10.531,0,0,1-.888-4.7.287.287,0,0,1,.287-.285h0a.288.288,0,0,1,.285.291,9.987,9.987,0,0,0,.836,4.452,1.959,1.959,0,0,1,.2,1.53,1.237,1.237,0,0,1-.742.684A.287.287,0,0,1,954.491,301.017Z" transform="translate(-943.263 -283.491)" fill="#d65a50"/><path d="M931.377,312.2a1.216,1.216,0,0,1,1.3,1.181,1.341,1.341,0,0,1-1.013,1.526,1.216,1.216,0,0,1-1.3-1.181A1.339,1.339,0,0,1,931.377,312.2Z" transform="translate(-923.791 -298.613)" fill="#d65a50"/><path d="M940.708,338.8l-.036,0a2.427,2.427,0,0,1-1.582-1,3.726,3.726,0,0,1-.742-1.958.288.288,0,0,1,.574-.044,3.144,3.144,0,0,0,.625,1.652,1.863,1.863,0,0,0,1.2.781.288.288,0,0,1-.035.573Z" transform="translate(-930.449 -318.049)" fill="#d65a50"/><path d="M966.974,312.162a1.341,1.341,0,0,1,1.013-1.525,1.008,1.008,0,0,1,.637.119c.012.834.008,1.659-.012,2.471a1.047,1.047,0,0,1-.334.117A1.215,1.215,0,0,1,966.974,312.162Z" transform="translate(-954.284 -297.307)" fill="#d65a50"/></g><path d="M854.772,246.318c6.423-3.29,16.058-9.158,17.582-16.212,5.906,19.355,3.026,1.129,2.441-2.035-6.14-1.48-10.964-.069-15.754,4.047C856.493,234.93,852.645,240.87,854.772,246.318Z" transform="translate(-844.402 -226.312)" fill="#32256b"/><g transform="translate(14.136 11.91)"><path d="M883.249,293c-.657-1.367-1.694-1.474-2.179-1.221a1.471,1.471,0,0,0-.64,1.106,3.4,3.4,0,0,0,.927,2.889,2.341,2.341,0,0,0,2.5.63A6.174,6.174,0,0,0,883.249,293Z" transform="translate(-880.39 -291.673)" fill="#f7b797"/><path d="M887.609,297.911H887.6a.288.288,0,0,1-.276-.3,2.7,2.7,0,0,0-.426-1.685,1.528,1.528,0,0,0-.526-.468.288.288,0,0,1,.274-.506,2.1,2.1,0,0,1,.724.645,3.255,3.255,0,0,1,.529,2.037A.288.288,0,0,1,887.609,297.911Z" transform="translate(-885.245 -294.376)" fill="#d65a50"/></g></g><g transform="translate(44.78 41.179)"><path d="M1062.767,569.6c1.85,7.111,3.838,12.725,4.85,20-4.206-.608-7.108.072-11.315-.536-1.99-7.49-2.991-13.861-4.982-21.352Z" transform="translate(-1046.675 -550.858)" fill="#e88f79"/><path d="M1023.747,466.85c7.086,1.492,9.953,3.744,11.851,7.621a79.188,79.188,0,0,1,4.013,11.119c-.4-.04-16.092.072-16.092.072Z" transform="translate(-1023.52 -466.85)" fill="#32256b"/></g><path d="M825.109,850.805c3.753,14.909,38.916,128.077,43.163,137.641l-13.054,4.892c-21.7-32.884-44.857-93.789-50.595-108.96,0,0-.55,57.335,5.885,104.068l-13.225,4.01c-9.455-31.413-19.806-91.816-21.42-111.42-.637-7.726.9-23.073,4.625-33.706Z" transform="translate(-772.346 -742.579)" fill="#3e8cf7"/><path d="M792.712,507.706c1.606-4.842,4.189-18.683,3.758-23.768-.936-11.054-6.734-26.9-6.01-37.016.343-4.78,6.082-7.621,10.865-7.327A147.871,147.871,0,0,1,832.961,445c1.046.961,2.287,5.348,3.288,9.515a45.668,45.668,0,0,1,1.5,10.565c.012,3.409-5.452,27.276-.414,46.1Z" transform="translate(-784.568 -402.953)" fill="#32256b"/><path d="M917.982,1707.5v-.637a3.194,3.194,0,0,0-.411-1.566c-3.713-4.625-7.051-9.2-7.539-13.373l-10.341,2.007a4.359,4.359,0,0,0-3.5,3.766l-.982,8.252v1.551Z" transform="translate(-871.868 -1446.051)" fill="#32256b"/><path d="M1253.822,1693.247l9.883-1.327c6.052,5.164,14.12,9.485,25.487,13.6a1.04,1.04,0,0,1-.458,1.973H1250.48l.172-10.683A3.656,3.656,0,0,1,1253.822,1693.247Z" transform="translate(-1167.778 -1446.051)" fill="#32256b"/><path d="M887.85,442.2c5.283,2.159,11.3,19.567,11.3,19.567s.673-16.349,5.31-16.959A115.662,115.662,0,0,0,887.85,442.2Z" transform="translate(-865.738 -405.139)" fill="#f7b797"/><g transform="translate(1.921 30.342)"><path d="M777,557.354c.226-6.094-.02-19.975-.254-26.2a100.92,100.92,0,0,0-9.724,5.1,172.958,172.958,0,0,0,1.848,23.736Z" transform="translate(-767.018 -509.569)" fill="#e88f79"/><path d="M781.844,439.181c-13.43-.84-14.834,3.066-14.834,20.384h11.759Z" transform="translate(-767.01 -432.878)" fill="#32256b"/><g transform="translate(1.691)"><path d="M799.709,421.474a25.725,25.725,0,0,1,4.394.144,24.876,24.876,0,0,1,4.037,5.652,1.246,1.246,0,0,1-1.006.117,10.13,10.13,0,0,1-2.944-2.333l-4.03-2.876a30.6,30.6,0,0,1,3.293.249c1.848,1.2,3.527,3.858,4.416,6.15a1.817,1.817,0,0,1-1.4-.185c-.931-.583-1.885-2.4-2.508-3a6.484,6.484,0,0,0-3.442.084c-.247.608-.7,4.466-1.246,6.11a10.784,10.784,0,0,1-3.1,4.566s-6.6,42.829-15.738,37.465c-4.311-2.531-3.49-9.014-2.563-11.783,2.378-7.1,13.517-29.173,13.517-29.173.185-2.725,1.7-7.382,2.633-9.955Z" transform="translate(-777.129 -418.191)" fill="#f7b797"/><path d="M878.19,406.506c1.773-1.447,3.913-3.069,5.686-4.516l6.518,0a3.662,3.662,0,0,1-2.459,1.529,11.83,11.83,0,0,1-3.084.212c-.279.272-1.043,1.561-1.405,1.713Z" transform="translate(-861.304 -401.99)" fill="#f7b797"/></g></g><g transform="translate(0 72.65)"><g transform="translate(0 9.249)"><path d="M796.093,728.87a15.865,15.865,0,0,0-3.368,1.455c-1.038.655-2.339,1.584-2.334,2.81a25.894,25.894,0,0,0,1.258,7.555,1.289,1.289,0,0,0,.912-.678,3.061,3.061,0,0,0,.312-1.13,10.215,10.215,0,0,0-.332-4.077l1.083-2.976Z" transform="translate(-784.562 -725.81)" fill="#f7b797"/><path d="M789.234,718.26a10.02,10.02,0,0,0-5.178,4.085,33.735,33.735,0,0,0,.829,8.54,3.764,3.764,0,0,0,1.156-4.409l6.814-5.8Z" transform="translate(-779.271 -716.972)" fill="#f7b797"/><path d="M759.2,712.93a9.429,9.429,0,0,1,3.5-.652,50.611,50.611,0,0,1,12.471,2.064,51.378,51.378,0,0,0,5.442-.832c.426,1.759,1.3,4.56,1.718,5.985-2.53.53-3.687,1.216-6.693,1.88l0,0a25.9,25.9,0,0,1-5.711.048,21.341,21.341,0,0,1-4.775-1.559,4.564,4.564,0,0,0-.538.513c1.427,1.965,2.185,3.4,1.439,4.376a12.749,12.749,0,0,1-4.114-5.2,18.454,18.454,0,0,1,1.537-2.456,5.831,5.831,0,0,1,2.129-1.788l1.322-.269c-2.134.008-4.232-.289-6.359-.112a26.894,26.894,0,0,1-2.86,3.357c-1.053.8-1.626.946-2.2.807A19.774,19.774,0,0,1,759.2,712.93Z" transform="translate(-755.51 -711.987)" fill="#f7b797"/><path d="M763.286,714.735a.288.288,0,0,1-.247-.435c.222-.371.434-.7.649-1.019a6.333,6.333,0,0,1,2.144-1.962,6.034,6.034,0,0,1,2.8-.765h0c.089,0,.205,0,.315,0a34.032,34.032,0,0,1,4.043.3.288.288,0,0,1-.073.571,33.469,33.469,0,0,0-3.98-.292h-.014c-.094-.005-.2,0-.282,0a5.458,5.458,0,0,0-2.531.692,5.756,5.756,0,0,0-1.948,1.783c-.209.305-.415.629-.631.99A.288.288,0,0,1,763.286,714.735Z" transform="translate(-761.747 -710.553)" fill="#d65a50"/></g><path d="M900.93,666.117c7.136-1.83,26.687-10.917,31.238-10.917,5.686-.022,13.526,6.892,8.782,10.685a5.638,5.638,0,0,1-2.371,1.078c-12.82,2.677-23.173,3.723-35.119,5Z" transform="translate(-876.633 -655.2)" fill="#f7b797"/><path d="M816.17,749.51a6.332,6.332,0,0,0-2.85,1.372,21.184,21.184,0,0,0,4.76,1.557,26.006,26.006,0,0,0,5.711-.049h0l.013,0A13.531,13.531,0,0,0,816.17,749.51Z" transform="translate(-803.661 -733.752)" fill="#e88f79"/></g><path d="M805.616,885.86a.288.288,0,0,1-.157-.529,20.281,20.281,0,0,0,3.072-2.448,21.061,21.061,0,0,0,4.51-6.4,20.293,20.293,0,0,0,1.273-3.716.288.288,0,0,1,.56.132,20.87,20.87,0,0,1-1.309,3.821,21.635,21.635,0,0,1-4.634,6.574,20.863,20.863,0,0,1-3.159,2.517A.287.287,0,0,1,805.616,885.86Z" transform="translate(-797.005 -763.583)" fill="#32256b"/></g><g transform="translate(553.415 311.984)"><path d="M1378.164,1077.01h-44.789a1.475,1.475,0,0,0-1.475,1.475v.06h46.264Z" transform="translate(-1331.9 -1049.845)" fill="#3e8cf7"/><path d="M1473.421,914.43h-35.31a3.32,3.32,0,0,0-3.14,2.239l-9.111,26.459h35.31a3.32,3.32,0,0,0,3.14-2.239Z" transform="translate(-1410.161 -914.43)" fill="#3e8cf7"/></g><g transform="translate(593.799 191.133)"><path d="M2192.024,1516.15l-5.654,12.232,4.941,31.35a1.069,1.069,0,0,0,2.077.149l12.279-39.758Z" transform="translate(-2083.986 -1294.761)" fill="#24bc9f"/><path d="M1995.17,1705.38v-.764a2.532,2.532,0,0,1,.409-1.382l7.521-12.336,12.366-1.519,2.3,14.206a2.55,2.55,0,0,1,.031.4v1.39Z" transform="translate(-1924.732 -1439.047)" fill="#24bc9f"/><path d="M1997.25,839.47c-1.863,28.119-6.033,96.74-3.237,145.96l20.461-2c2.22-23.606,9.5-112.493,10.9-138.872Z" transform="translate(-1922.988 -731.143)" fill="#32256b"/><path d="M1810.446,829.87,1839.167,832c-6.209,20.556-13.671,55.781-19.265,73.863,15.094,12.606,31.281,25.079,47.983,39.253L1855.01,962.69c-16.307-11.165-39.385-29.47-53.059-41.288-8.6-7.429-8.157-13.357-7.073-20.371C1799.181,873.218,1803.32,856.082,1810.446,829.87Z" transform="translate(-1757.427 -723.147)" fill="#32256b"/><path d="M1940.277,496.754c2.681-23.238,6.653-48.88,7.316-59.126.259-4.015-.733-7.933-3.719-8.906a136.469,136.469,0,0,0-36.008-6.809c-4.526-.244-8.324,1.6-8.926,6.094-2.7,20.15-6.306,38.855-8.03,62.05Z" transform="translate(-1837.893 -383.336)" fill="#faf5ed"/><path d="M1850.884,678.792c-3.3-.314-5.8-.777-8.21-1.224-1.755-.326-3.414-.633-5.25-.856a47.216,47.216,0,0,0-6.269-.335l0-.316a47.524,47.524,0,0,1,6.31.338c1.847.224,3.509.532,5.27.859,2.406.446,4.894.908,8.183,1.22Z" transform="translate(-1788.119 -595.035)" fill="#ffa929"/><path d="M1835.887,469.959l-11.977-2.528c1.347-6.683,10.052-29.9,13.778-37.522,4.792-9.8,14.062-8.289,22.255-7.38,0,0-7.026,37.948-9.522,50.546-1.32,6.662-4.782,23.141-6.5,31.273a4.1,4.1,0,0,1-5.474,2.984l-9.749-2.007,5.85-29.539Z" transform="translate(-1782.087 -383.309)" fill="#3e8cf7"/><g transform="translate(79.01)"><path d="M2049.5,227.888s-2.909,13.646-3.024,22.286c-.037,2.75,1.712,3.419,4.479,3.631,3.168.244,6.384-1.985,7.422-6.109,2.6-10.342,4-16.743,1.2-18.74C2054.955,225.659,2049.5,227.888,2049.5,227.888Z" transform="translate(-2046.477 -221.133)" fill="#f7b797"/><path d="M2084.891,278.716l-2.4,28.424L2075.85,306l2.478-27.855Z" transform="translate(-2070.943 -263.611)" fill="#f7b797"/><path d="M2086.15,280.824l2.73.874a1.085,1.085,0,0,0-.333-.914C2087.955,280.159,2086.72,279.6,2086.15,280.824Z" transform="translate(-2079.521 -265.234)" fill="#32256b"/><path d="M2062.522,278.03l-2.3.129a1.113,1.113,0,0,1,.435-.794C2061.241,276.917,2062.312,276.7,2062.522,278.03Z" transform="translate(-2057.924 -262.671)" fill="#32256b"/><path d="M2066.295,293.541a.315.315,0,0,1-.134-.03,2.485,2.485,0,0,1-.924-.672,1.035,1.035,0,0,1-.219-.9,2.372,2.372,0,0,1,.585-.94c.129-.152.263-.31.4-.5a3.466,3.466,0,0,0,.605-1.563,2.83,2.83,0,0,0-.2-1.577.316.316,0,0,1,.571-.274,3.466,3.466,0,0,1,.254,1.935,4.1,4.1,0,0,1-.721,1.852c-.15.205-.3.379-.428.533a1.955,1.955,0,0,0-.452.68c-.032.13-.017.472.8.851a.316.316,0,0,1-.134.6Z" transform="translate(-2061.897 -270.904)" fill="#d65a50"/><path d="M2086.221,293.806a.546.546,0,1,0,.618-.463A.544.544,0,0,0,2086.221,293.806Z" transform="translate(-2079.576 -276.261)" fill="#32256b"/><path d="M2062.5,290.8a.519.519,0,1,0,.588-.439A.519.519,0,0,0,2062.5,290.8Z" transform="translate(-2059.822 -273.78)" fill="#32256b"/><path d="M2065.681,342.781a3.443,3.443,0,0,1-.62-.058,4.95,4.95,0,0,1-1.118-.358.316.316,0,1,1,.256-.579,3.313,3.313,0,0,0,1.819.339,3.412,3.412,0,0,0,1.63-.772.316.316,0,1,1,.388.5,4.009,4.009,0,0,1-1.933.9A3.106,3.106,0,0,1,2065.681,342.781Z" transform="translate(-2060.869 -316.198)" fill="#d65a50"/><path d="M2117.482,248.759c-.309,2.967.782,4.64.433,7.736,1.238-2.316,2.643-2.939,3.4-5.452.885-2.941,2.481-6.618-.039-7.743C2118.771,243.8,2117.646,247.183,2117.482,248.759Z" transform="translate(-2105.571 -234.584)" fill="#32256b"/><path d="M2054.8,195.781c-.726-2.109.118-5.644,3.078-4.383,3.826,1.629,4.479,4.82,4.309,5.063s-.322-2.814,2.326-1.679c1.569.672,3.429,3.484,2.958,4.762-.428,1.161-3.242,2.416-4.247,2.59-2.439.421-8.445-1.5-9.255-.837-.446.366-.688,1.731-.862,2.725a39.149,39.149,0,0,1-.867-6.109C2051.963,194.319,2053.387,194.586,2054.8,195.781Z" transform="translate(-2051.244 -191.133)" fill="#32256b"/><path d="M2085.335,358.23a35.366,35.366,0,0,1-1.192,4.964,3.9,3.9,0,0,1-2.038,2.234,6.4,6.4,0,0,1-2.725.635l.277-3.119A7.387,7.387,0,0,0,2085.335,358.23Z" transform="translate(-2073.883 -330.311)" fill="#d65a50"/><path d="M2064.541,429.835c-8.083,6.1-13.8,1.723-15.091-2.715A124.239,124.239,0,0,1,2064.541,429.835Z" transform="translate(-2048.954 -387.69)" fill="#f7b797"/><path d="M2121.585,299.43c2.012-.755,2.63,1.617,2,3.295a3.242,3.242,0,0,1-4.259,1.93S2119,300.4,2121.585,299.43Z" transform="translate(-2107.145 -281.215)" fill="#f7b797"/><path d="M2124.453,307.881l-.035,0a.316.316,0,0,1-.28-.349,3.564,3.564,0,0,1,.528-1.5,2.021,2.021,0,0,1,1.254-.949.316.316,0,1,1,.13.619c-.689.145-1.193,1.078-1.283,1.9A.317.317,0,0,1,2124.453,307.881Z" transform="translate(-2111.16 -286.038)" fill="#d65a50"/></g><path d="M2070.547,535.541a4.676,4.676,0,0,1-4.189-5.108c1.013-10.354,3.484-35.185,4.839-44.817a219.809,219.809,0,0,1,9.962-38.4,116.882,116.882,0,0,1,13.063,4.14c4.623,2.1,7.1,7.223,5.763,16.859-1,7.216-4.416,25.676-5.871,30.291l-2.86-1.155-3.576,40.015Z" transform="translate(-1984.007 -404.432)" fill="#3e8cf7"/><path d="M2256.663,1537.077a.319.319,0,0,1-.044,0,6.674,6.674,0,0,1-5.312-8.891.316.316,0,0,1,.594.219,6.043,6.043,0,0,0,4.806,8.045.317.317,0,0,1-.043.63Z" transform="translate(-2137.737 -1304.611)" fill="#32256b"/><g transform="translate(0 53.401)"><path d="M1728.613,595.786c2.187,3.258-1.251,13.8-8.56,9.524-5.387-3.148-25.484-17.709-25.484-17.709l5.1-6.13s5.455,2.76,12.531,5.835C1715.537,588.753,1726.959,593.32,1728.613,595.786Z" transform="translate(-1674.358 -569.652)" fill="#f7b797"/><path d="M1593.812,528.687s-.854-.364-3.5-1.551-5.723-5.576-5.723-5.576a38.825,38.825,0,0,0-5.55.947c-1.021.256-1.918.012-1.781-.56.077-.317,2.782-1.526,5.113-2.528a.025.025,0,0,0-.008-.047,40.5,40.5,0,0,0-6.384.122c-1.519.087-1.895-.5-1.938-.755.083-.421,4.349-1.853,8.139-1.97a.024.024,0,0,0,.007-.047c-2.344-.55-6-.762-7.262-.962-1.143-.182-1.37-.74-1.312-1.139.14-.338,5.171-.9,10.1-.247a.024.024,0,0,0,.015-.045c-1.8-1.058-5.31-1.786-6.369-2.2-1.136-.446-.835-1.226-.613-1.383A42.109,42.109,0,0,1,1585,511.8c1.564.3,6.48,2.5,8.257,4.276a47.229,47.229,0,0,1,4.084,5.654l1.57.83Z" transform="translate(-1573.6 -510.738)" fill="#f7b797"/><path d="M1655.944,552.187a.315.315,0,0,1-.227-.1,12.108,12.108,0,0,1-2.371-3.668,32.23,32.23,0,0,1-1.3-3.81l-.059-.2a20.455,20.455,0,0,1-2.649-1.413,3.842,3.842,0,0,1-1.622-1.753,1.755,1.755,0,0,1,.109-1.415.317.317,0,0,1,.456-.123,12.182,12.182,0,0,0,2,1.011c.428.166.874.3,1.347.432a12.524,12.524,0,0,1,3.813,1.65.316.316,0,1,1-.351.527,10.268,10.268,0,0,0-1.925-1.009c-.6-.239-1.167-.4-1.713-.56-.487-.14-.946-.273-1.4-.45a12.916,12.916,0,0,1-1.782-.864,1.077,1.077,0,0,0,.041.592,2.022,2.022,0,0,0,.471.707,5.509,5.509,0,0,0,.9.729,20.631,20.631,0,0,0,2.693,1.425.316.316,0,0,1,.172.2l.1.339a31.2,31.2,0,0,0,1.274,3.736,11.491,11.491,0,0,0,2.246,3.48.316.316,0,0,1-.227.536Z" transform="translate(-1635.247 -534.825)" fill="#d65a50"/></g><g transform="translate(22.765 58.711)"><path d="M2046.316,664.68c2.085,3.512,1.746,13.146-7.619,10.388-5.985-1.763-28.977-12.262-28.977-12.262l3.477-7.445c7.044,1.48,18.53,3.348,26.373,5.571C2043.247,661.975,2045.254,662.892,2046.316,664.68Z" transform="translate(-1959.617 -636.506)" fill="#f7b797"/><path d="M1944.041,596.548s-2.558-2.733-3.24-3.535c-1.358-1.6-5.295-3.863-5.295-3.863a2.293,2.293,0,0,0-.018,2.206,33.936,33.936,0,0,0,2.792,2.538l2.229,5.285Z" transform="translate(-1897.542 -581.359)" fill="#e88f79"/><path d="M1717.821,563.051h34.944a1.826,1.826,0,0,0,1.716-2.451l-6.144-16.879a1.825,1.825,0,0,0-1.716-1.2h-34.944a1.826,1.826,0,0,0-1.716,2.451l6.144,16.879A1.824,1.824,0,0,0,1717.821,563.051Z" transform="translate(-1709.849 -542.52)" fill="#32256b"/><path d="M1906.092,617.966s-2.946-1.225-4.057-1.626a30.513,30.513,0,0,1-7.853-1.766c-.986-.368-7.322-5.019-7.266-5.816s1.625-.125,1.625-.125-2.67-1.509-2.91-2.012c-.546-1.14,2.429-.192,2.429-.192s-2.354-.956-2.725-1.721c-.257-.533,1.1-.839,3.584.09s5.636,2.481,5.636,2.481-1.687-1.335-3.546-2.583c-1.2-.805-2.564-1.556-3.263-1.983-1.325-.81-.677-1.631,1.439-.909,1.8.615,8.325,3.5,9.851,3.748,1,.164,1.711.252,2.13.3a1.282,1.282,0,0,1,.769.367c.8.8,3.561,2.57,4.528,3.268a12.02,12.02,0,0,0,3.106,1.038Z" transform="translate(-1855.988 -591.667)" fill="#f7b797"/></g></g><path d="M33.372-1.592H-1.991a.4.4,0,0,1-.4-.4.4.4,0,0,1,.4-.4H33.372a.4.4,0,0,1,.4.4A.4.4,0,0,1,33.372-1.592Z" transform="translate(719.731 443.882)" fill="#32256b"/><path d="M475.307,1490.562a4.935,4.935,0,0,1-3.227-1.144,12.777,12.777,0,0,1-2.106-2.394,12,12,0,0,0-1.967-2.249,4.319,4.319,0,0,0-1.2-.7,4.52,4.52,0,0,0-3.046,0,4.323,4.323,0,0,0-1.2.7,12.009,12.009,0,0,0-1.966,2.249,12.782,12.782,0,0,1-2.106,2.394,5.065,5.065,0,0,1-6.454,0,12.78,12.78,0,0,1-2.105-2.394,12.014,12.014,0,0,0-1.967-2.249,4.32,4.32,0,0,0-1.2-.7,4.521,4.521,0,0,0-3.046,0,4.323,4.323,0,0,0-1.2.7,12.006,12.006,0,0,0-1.966,2.249,12.784,12.784,0,0,1-2.106,2.394,5.065,5.065,0,0,1-6.454,0,12.782,12.782,0,0,1-2.105-2.394,12.015,12.015,0,0,0-1.967-2.249,4.322,4.322,0,0,0-1.2-.7,4.243,4.243,0,0,0-1.523-.264.4.4,0,0,1,0-.8,4.938,4.938,0,0,1,3.227,1.144,12.792,12.792,0,0,1,2.106,2.394,12,12,0,0,0,1.966,2.249,4.32,4.32,0,0,0,1.2.7,4.516,4.516,0,0,0,3.046,0,4.325,4.325,0,0,0,1.2-.7,12.007,12.007,0,0,0,1.967-2.249,12.777,12.777,0,0,1,2.105-2.394,5.067,5.067,0,0,1,6.454,0,12.794,12.794,0,0,1,2.106,2.394,12.006,12.006,0,0,0,1.966,2.249,4.32,4.32,0,0,0,1.2.7,4.516,4.516,0,0,0,3.046,0,4.325,4.325,0,0,0,1.2-.7,12.009,12.009,0,0,0,1.967-2.249,12.772,12.772,0,0,1,2.105-2.394,5.067,5.067,0,0,1,6.453,0,12.784,12.784,0,0,1,2.106,2.394,12,12,0,0,0,1.967,2.249,4.316,4.316,0,0,0,1.2.7,4.516,4.516,0,0,0,3.047,0,4.317,4.317,0,0,0,1.2-.7,12,12,0,0,0,1.967-2.249,12.788,12.788,0,0,1,2.106-2.394,4.939,4.939,0,0,1,3.227-1.144.4.4,0,0,1,0,.8,4.242,4.242,0,0,0-1.523.264,4.319,4.319,0,0,0-1.2.7,12,12,0,0,0-1.967,2.249,12.777,12.777,0,0,1-2.106,2.394,4.936,4.936,0,0,1-3.227,1.144Z" transform="translate(-22.939 -1076.024)" fill="#3e8cf7"/><g transform="translate(414.957 340.683)"><path d="M-1.991,101.462a.4.4,0,0,1-.068-.006A.4.4,0,0,1-2.385,101L15.259-2.059a.4.4,0,0,1,.461-.326.4.4,0,0,1,.326.461L-1.6,101.13A.4.4,0,0,1-1.991,101.462Z" transform="translate(22.265 15.721)" fill="#32256b"/><rect width="336.653" height="5.146" fill="#faf5ed"/><path d="M63.294-1.592H-1.991a.4.4,0,0,1-.4-.4.4.4,0,0,1,.4-.4H63.294a.4.4,0,0,1,.4.4A.4.4,0,0,1,63.294-1.592Z" transform="translate(28.873 7.137)" fill="#32256b"/><path d="M46.522-1.592H-1.991a.4.4,0,0,1-.4-.4.4.4,0,0,1,.4-.4H46.522a.4.4,0,0,1,.4.4A.4.4,0,0,1,46.522-1.592Z" transform="translate(275.372 7.137)" fill="#32256b"/></g><g transform="translate(397.249 457.067)"><path d="M171.776-1.592H-1.991a.4.4,0,0,1-.4-.4.4.4,0,0,1,.4-.4H171.776a.4.4,0,0,1,.4.4A.4.4,0,0,1,171.776-1.592Z" transform="translate(65.458 2.391)" fill="#32256b"/><path d="M61.076-1.592H-1.991a.4.4,0,0,1-.4-.4.4.4,0,0,1,.4-.4H61.076a.4.4,0,0,1,.4.4A.4.4,0,0,1,61.076-1.592Z" transform="translate(2.391 2.391)" fill="#c7c2ff"/><path d="M117.738-1.592H-1.991a.4.4,0,0,1-.4-.4.4.4,0,0,1,.4-.4H117.738a.4.4,0,0,1,.4.4A.4.4,0,0,1,117.738-1.592Z" transform="translate(246.783 2.391)" fill="#32256b"/></g></g></g></svg>