<svg xmlns="http://www.w3.org/2000/svg" xmlns:xlink="http://www.w3.org/1999/xlink" width="425.5" height="166.088" viewBox="0 0 425.5 166.088"><defs><filter id="a" x="0" y="84.35" width="106.949" height="81.738" filterUnits="userSpaceOnUse"><feOffset dy="3" input="SourceAlpha"/><feGaussianBlur stdDeviation="8.5" result="b"/><feFlood flood-opacity="0.2"/><feComposite operator="in" in2="b"/><feComposite in="SourceGraphic"/></filter></defs><g transform="translate(-154.5 -2083)"><g transform="translate(-735 1674.925)"><rect width="388" height="116" rx="21" transform="translate(927 429.075)" fill="#f6f6f6"/><g transform="matrix(1, 0, 0, 1, 889.5, 408.08)" filter="url(#a)"><path d="M14.567,0a15.051,15.051,0,0,1,14.9,14.708l.3,26.355A14.239,14.239,0,0,1,15.208,55.436,15.051,15.051,0,0,1,.306,40.728L0,14.373A14.239,14.239,0,0,1,14.567,0Z" transform="translate(80.93 106.85) rotate(89)" fill="#20bdfc"/></g></g><g transform="translate(8732.752 11730.271)"><path d="M610.576,25.8l6.65,14.089-3.534-15.3a152.237,152.237,0,0,1,20.914-5.6s2.27,5.462,4.415,12.29L629.007,37.04l10.773-3.261c2.5,8.514,4.4,18.29,1.57,22.253-4.3,6.017-29.243,4.431-29.243,4.431s-14.932-20.046-12.231-26.929c1.158-2.952,5.48-5.565,10.7-7.734" transform="translate(-8915.556 -9663.763)" fill="#d3f9ee"/><path d="M389.9,124.091a.227.227,0,0,1-.109-.427c14.233-7.763,33.66-19.5,45.387-31.3,21.48-21.626,35.049-54.492,35.183-54.822a.227.227,0,0,1,.421.172c-.135.33-13.739,33.281-35.282,54.97-11.766,11.846-31.233,23.6-45.492,31.381a.226.226,0,0,1-.109.028" transform="translate(-8753.389 -9677.988)" fill="#126783"/><path d="M669.94,164.781a.227.227,0,0,1,0-.455,69.188,69.188,0,0,0,22-4.084.227.227,0,0,1,.154.428,69.67,69.67,0,0,1-22.144,4.11Z" transform="translate(-8969.771 -9772.897)" fill="#126783"/><path d="M691.94,119.534a.227.227,0,0,1-.041-.451,60.765,60.765,0,0,0,18.489-6.647.227.227,0,1,1,.221.4,61.2,61.2,0,0,1-18.627,6.7.217.217,0,0,1-.042,0" transform="translate(-8986.77 -9735.946)" fill="#126783"/><path d="M657.682,129.861a.227.227,0,0,1-.179-.087,69.543,69.543,0,0,1-6.356-9.682.227.227,0,0,1,.4-.217,69.045,69.045,0,0,0,6.314,9.619.227.227,0,0,1-.179.368" transform="translate(-8955.403 -9741.624)" fill="#126783"/><path d="M693.1,58.583a.227.227,0,0,1-.211-.143,53.767,53.767,0,0,1-2.633-8.651,55.8,55.8,0,0,1-1.15-8.6.227.227,0,0,1,.214-.24.224.224,0,0,1,.24.214,55.372,55.372,0,0,0,1.141,8.533,53.3,53.3,0,0,0,2.611,8.578.227.227,0,0,1-.211.312" transform="translate(-8984.758 -9680.729)" fill="#126783"/><path d="M723.353,49.88a.227.227,0,0,1-.223-.184,34.386,34.386,0,0,1-.6-5.667c-.026-1-.013-2.025.038-3.06a.219.219,0,0,1,.238-.216.227.227,0,0,1,.216.238c-.051,1.023-.063,2.041-.038,3.025a33.949,33.949,0,0,0,.595,5.592.227.227,0,0,1-.18.267.236.236,0,0,1-.044,0" transform="translate(-9010.568 -9680.58)" fill="#126783"/><path d="M528.789,74.213l6.2,6.182-4.78-7.414a85.5,85.5,0,0,1,9.989-6.942s2.24,2.455,4.673,5.656l-4.2,4.951,5.074-3.774c2.94,4.026,5.807,8.831,5.065,11.464-1.126,4-14.615,7.908-14.615,7.908S524.487,84.49,524.6,80.337c.051-1.781,1.837-3.985,4.184-6.125" transform="translate(-8857.646 -9700.118)" fill="#126783"/><path d="M476.386,138.251a.227.227,0,0,1-.17-.378c6.042-6.807,14.072-16.7,18.018-25.161,7.23-15.5,8.147-35.438,8.155-35.638a.227.227,0,0,1,.454.019c-.008.2-.929,20.228-8.2,35.811-3.97,8.512-12.029,18.44-18.09,25.27a.226.226,0,0,1-.17.076" transform="translate(-8820.213 -9708.477)" fill="#fed166"/><path d="M579.017,144.377a.227.227,0,0,1-.081-.44,38.689,38.689,0,0,0,5.806-2.8,39.148,39.148,0,0,0,5.018-3.525.227.227,0,1,1,.29.35,39.242,39.242,0,0,1-10.951,6.4.228.228,0,0,1-.081.015" transform="translate(-8899.515 -9755.378)" fill="#fed166"/><path d="M583.7,118.544a.227.227,0,0,1-.115-.424,33.967,33.967,0,0,0,4.634-3.249,34.324,34.324,0,0,0,3.85-3.763.227.227,0,1,1,.342.3,34.493,34.493,0,0,1-8.6,7.105.227.227,0,0,1-.114.031" transform="translate(-8903.134 -9734.882)" fill="#fed166"/><path d="M548.733,127.39a.227.227,0,0,1-.12-.035,39.217,39.217,0,0,1-9.508-8.4.227.227,0,1,1,.352-.288,38.791,38.791,0,0,0,9.4,8.3.227.227,0,0,1-.121.42" transform="translate(-8868.811 -9740.721)" fill="#fed166"/><path d="M568.4,98.11a.227.227,0,0,1-.17-.076,30.29,30.29,0,0,1-3.048-4.085,31.443,31.443,0,0,1-2.253-4.342.227.227,0,1,1,.418-.178,31.061,31.061,0,0,0,2.22,4.28,29.863,29.863,0,0,0,3,4.023.227.227,0,0,1-.17.378" transform="translate(-8887.245 -9718.084)" fill="#fed166"/><path d="M582.825,87.72a.227.227,0,0,1-.2-.111,19.4,19.4,0,0,1-1.4-2.9c-.2-.525-.395-1.074-.564-1.632a.227.227,0,1,1,.435-.132c.166.546.352,1.084.553,1.6a19.007,19.007,0,0,0,1.371,2.828.227.227,0,0,1-.195.344" transform="translate(-8900.952 -9713.06)" fill="#fed166"/><rect width="113.626" height="107.65" transform="translate(-8423.321 -9604.059)" fill="#d3f9ee"/><g transform="translate(-8488.752 -9647.271)"><path d="M411.666,88.006c8.568.729,11.92,3.971,13.327,6.493,2.734,4.9,1.158,8.268,3.759,14.694a23.674,23.674,0,0,0,8.885,10.479,25.919,25.919,0,0,1-20.731,7.176,69.445,69.445,0,0,0-5.24-38.843" transform="translate(-322.32 -69.82)" fill="#363e44"/><path d="M278.426,398.68a75.069,75.069,0,0,1,11.391,16.858c7.05,14.316,7.888,37.548,7.746,45.2H257.7c-.147-3.265-.293-16.418-.44-19.684-3,1.586-14.513,17.912-16.177,19.662H193.678C203.084,448,219.49,429.351,231.04,420.01c-.835-4.556-1.67-7.889-2.506-12.445l49.892-8.885" transform="translate(-153.883 -309.874)" fill="#fed166"/><path d="M65.423,257.553c-12.447,2.313-48.779,6.79-46.731,22.022,1.694,12.6,36.884,6.679,49.393,5.183l-2.662-27.205" transform="translate(-18.608 -200.827)" fill="#e2a18d"/><path d="M222.658,238.511l-4.1,30.527,73.813-17.77-13.669-20.5,14.125-.911q-.228-14.808-.456-29.616L201.7,213l1.367,31.439Z" transform="translate(-160.081 -156.541)" fill="#20bdfc"/><path d="M528.98,220.81c4.179.149,32.62-1.031,36.265,6.259,3.828,7.657-17.034,40.283-24.148,49.322a11.543,11.543,0,0,1-3.759,5.354c-2.444,1.852-3.952,1.181-6.835,2.734-4.866,2.621-5.3,7.249-7.148,6.609-1.27-.439-1.135-3.147-.37-5.584.786-2.5,2.347-3.79,2.05-4.1-.326-.341-1.743,1.173-3.678,2.893-.9.8-2.016,4.513-3.84,4.17-1.454-.274-1.259-4.427.794-7.416,1.452-2.115,3.857-2.758,3.649-3.178-.156-.315-1.58.1-2.7.83-1.848,1.2-3.032,4.987-4.7,4.637-1.639-.342-1.4-3.966.309-6.835,1.445-2.419,4.162-3.008,3.905-3.531-.18-.368-1.451-.357-3.987.456-2.116.678-5.794,3.361-6.835,1.253-.875-1.773,2.921-4.683,6.916-6.718,2.647-1.348,5.483-2.4,7.1-3.078a20.69,20.69,0,0,0-3.645-1.822c-2.888-1.1-4.068-1.122-4.286-2.5-.225-1.423,2.178-1.992,4.982-1.91,3.344.1,5.693,1.5,7.164,2.021l8.771-15.947c-1.595.114-4,.2-5.6.317-.075-7.591-.371-15.426-.368-24.232" transform="translate(-396.619 -172.436)" fill="#e2a18d"/><path d="M626.539,285.562a.227.227,0,0,1-.2-.333l6.068-11.537a.227.227,0,1,1,.4.212l-6.068,11.537a.228.228,0,0,1-.2.121" transform="translate(-488.175 -213.204)" fill="#363e44"/><path d="M299.911,327.959a.215.215,0,0,1-.04,0,.227.227,0,0,1-.184-.264l1.3-7.291a.227.227,0,0,1,.448.08l-1.3,7.291a.227.227,0,0,1-.223.187" transform="translate(-235.792 -249.244)" fill="#fff"/><path d="M288.783,325.935a.215.215,0,0,1-.04,0,.227.227,0,0,1-.184-.264l1.3-7.292a.227.227,0,1,1,.448.08l-1.3,7.292a.227.227,0,0,1-.223.187" transform="translate(-227.193 -247.679)" fill="#fff"/><path d="M269.4,337.093a3.936,3.936,0,0,1-3.869-4.667l4.065-21.5a1.834,1.834,0,0,1,2.143-1.462l4.129.781a1.834,1.834,0,0,1,1.462,2.143l-4.064,21.5a3.943,3.943,0,0,1-3.865,3.205m2-27.2a1.381,1.381,0,0,0-1.353,1.124l-4.065,21.5a3.481,3.481,0,0,0,6.841,1.293l4.065-21.5a1.38,1.38,0,0,0-1.1-1.612l-4.129-.781a1.414,1.414,0,0,0-.259-.024" transform="translate(-209.348 -240.915)" fill="#fff"/><path d="M296.277,227.6l-4.582-.866,4.711-24.914,4.582.866Zm-4.051-1.228,3.689.7,4.542-24.02-3.689-.7Z" transform="translate(-229.62 -157.766)" fill="#fff"/><path d="M38.778,308.117c10.418,2.188,35.207,6.127,37.611,6.608,4.495.9,14.127,2.548,14.159,5.693a3.238,3.238,0,0,1-1.775,2.692,3.273,3.273,0,0,1,.653,3.561,3.424,3.424,0,0,1-2.472,1.852,2.746,2.746,0,0,1,1.053,2.58,2.876,2.876,0,0,1-3.162,2.143,3.214,3.214,0,0,1,.035,2.326,3.374,3.374,0,0,1-3.126,2c-3.994-.8-10.423-1.017-18.1-1.752-18.021-1.725-25.984-3.251-34.539-5.66a14.358,14.358,0,0,1-10.265-11.745c6.688-3.474,13.236-6.822,19.924-10.3" transform="translate(-18.798 -239.898)" fill="#e2a18d"/><path d="M126.092,309.524a.227.227,0,0,1-.046,0c-2.127-.437-6.838-1.363-11.393-2.259s-9.268-1.822-11.4-2.259a.227.227,0,1,1,.091-.445c2.127.437,6.838,1.363,11.393,2.259s9.268,1.822,11.4,2.26a.227.227,0,0,1-.045.45" transform="translate(-83.874 -237.142)" fill="#363e44"/><path d="M304.336,355.729a.23.23,0,0,1-.059-.008.227.227,0,0,1-.16-.279l.524-1.948a.227.227,0,0,1,.439.118l-.524,1.948a.227.227,0,0,1-.219.168" transform="translate(-239.211 -274.831)" fill="#363e44"/><path d="M298.514,377.48a.231.231,0,0,1-.059-.008.227.227,0,0,1-.16-.279l.524-1.948a.227.227,0,0,1,.439.118l-.524,1.948a.227.227,0,0,1-.219.168" transform="translate(-234.712 -291.637)" fill="#363e44"/><path d="M292.829,399.693a.232.232,0,0,1-.059-.008.227.227,0,0,1-.16-.279l.524-1.948a.227.227,0,0,1,.439.118l-.524,1.948a.228.228,0,0,1-.219.168" transform="translate(-230.32 -308.801)" fill="#363e44"/><path d="M287.259,419.733a.23.23,0,0,1-.059-.008.227.227,0,0,1-.16-.279l.524-1.948a.227.227,0,0,1,.439.118l-.524,1.948a.227.227,0,0,1-.219.168" transform="translate(-226.016 -324.287)" fill="#363e44"/><path d="M382.916,18.488A10.488,10.488,0,1,1,372.428,8a10.488,10.488,0,0,1,10.488,10.488" transform="translate(-283.897 -8)" fill="#363e44"/><path d="M370.037,97.541c.575-.056,6.093-.507,9.416,3.265,2.473,2.807,2.77,6.411,2.354,12.53-.49,7.206-1.789,11.445-3.863,12.868-3.278,2.247-13.1-2.779-16.792-9.071a14.509,14.509,0,0,1,.456-14.884c2.81-4.481,8.062-4.673,8.429-4.708" transform="translate(-281.868 -77.153)" fill="#e2a18d"/><path d="M385.3,210.949h0a5.3,5.3,0,0,1-5.295-5.295v-4.992a5.295,5.295,0,0,1,10.59,0v4.992a5.3,5.3,0,0,1-5.295,5.295" transform="translate(-297.857 -152.777)" fill="#e2a18d"/><path d="M381.556,194a9.021,9.021,0,0,1-1.954-.24c-4.28-.959-10.346-4.743-13.088-9.415a.227.227,0,1,1,.392-.23c2.68,4.565,8.61,8.264,12.8,9.2,1.67.374,2.963.292,3.739-.238a.228.228,0,1,1,.257.376,3.765,3.765,0,0,1-2.141.545" transform="translate(-287.408 -143.995)" fill="#363e44"/><path d="M381.1,93.5c2.21,4.982-5.581,10.151-12.436,8.2-4.009-1.139-7.752-5.3-6.93-7.828,1.415-4.351,17.1-5.49,19.365-.375" transform="translate(-283.649 -71.452)" fill="#363e44"/><path d="M463.063,137.819a9.547,9.547,0,0,1-2.175,3.575c-.333.332-2.371-2.973-1.9-3.138a9.568,9.568,0,0,1,4.077-.437" transform="translate(-358.83 -108.266)" fill="#fff"/><path d="M438.557,145.1a8.977,8.977,0,0,0,5.467-1.108,6.724,6.724,0,0,0,1.132-.917,3.753,3.753,0,0,0-1.9-3.137,6.756,6.756,0,0,0-1.39.671,8.976,8.976,0,0,0-3.308,4.491" transform="translate(-343.098 -109.948)" fill="#363e44"/><path d="M273.415,75.964a23.835,23.835,0,1,1-23.835-23.835,23.836,23.836,0,0,1,23.835,23.835" transform="translate(-178.66 -42.098)" fill="#e2a18d"/><path d="M248.806,99.255a24.063,24.063,0,1,1,24.063-24.063,23.965,23.965,0,0,1-24.063,24.063m0-47.671A23.635,23.635,0,0,0,225.2,75.193,23.608,23.608,0,0,0,248.806,98.8a23.608,23.608,0,1,0,0-47.216" transform="translate(-177.887 -41.326)" fill="#fff"/><path d="M287.481,229.678a20.02,20.02,0,0,1-12.6-4.4.227.227,0,1,1,.283-.356,19.8,19.8,0,0,0,21.057,2.27.227.227,0,0,1,.2.408,20.031,20.031,0,0,1-8.942,2.078" transform="translate(-216.562 -175.576)" fill="#fff"/><path d="M395.555,101.458a.227.227,0,0,1-.219-.168,19.759,19.759,0,0,0-5.587-9.245.227.227,0,0,1,.311-.332,20.211,20.211,0,0,1,5.715,9.457.227.227,0,0,1-.219.287" transform="translate(-305.329 -72.637)" fill="#fff"/><path d="M311.84,71.535a.227.227,0,0,1-.122-.035,19.814,19.814,0,0,0-18.956-1.236.227.227,0,1,1-.192-.412,20.268,20.268,0,0,1,19.392,1.264.227.227,0,0,1-.122.419" transform="translate(-230.194 -54.335)" fill="#fff"/><path d="M251.379,193.159a.226.226,0,0,1-.163-.069,20.376,20.376,0,0,1-4.575-7.343.227.227,0,1,1,.428-.152,19.923,19.923,0,0,0,4.472,7.178.227.227,0,0,1-.163.386" transform="translate(-194.797 -145.109)" fill="#fff"/><path d="M363.053,142.62a37.153,37.153,0,0,1-15.8,3.853c-1.838,0,1.629-14.706,3.374-13.873a37.241,37.241,0,0,1,12.429,10.02" transform="translate(-272.143 -104.251)" fill="#fff"/><path d="M271.677,123.983A26.362,26.362,0,0,0,266,122c-10.923-2.413-21.461,3.255-21.461,3.255s7.17,9.58,18.093,11.993a26.211,26.211,0,0,0,5.653.6,14.62,14.62,0,0,0,3.393-13.865" transform="translate(-193.182 -95.627)" fill="#363e44"/></g><rect width="34.276" height="41.155" transform="translate(-8345.686 -9536.392)" fill="#32256b"/><rect width="34.276" height="62.941" transform="translate(-8298.158 -9558.178)" fill="#32256b"/><path d="M283.4,628.379a.227.227,0,0,1-.227-.227v-36.3a.227.227,0,1,1,.455,0v36.3a.227.227,0,0,1-.227.227" transform="translate(-8600.31 -10125.767)" fill="#776e42"/><rect width="34.276" height="89.053" transform="translate(-8250.633 -9584.29)" fill="#32256b"/><path d="M701.565,465.56a.227.227,0,0,1-.227-.227V381.138a.227.227,0,0,1,.455,0v84.194a.227.227,0,0,1-.227.227" transform="translate(-8923.424 -9962.947)" fill="#776e42"/><path d="M491.7,553.9a.227.227,0,0,1-.227-.227V495.468a.227.227,0,0,1,.455,0v58.206a.227.227,0,0,1-.227.227" transform="translate(-8761.261 -10051.289)" fill="#776e42"/><path d="M175.259,488.7A91.125,91.125,0,0,1,106.2,457.118a.227.227,0,1,1,.344-.3,90.833,90.833,0,0,0,159.53-57.92.227.227,0,0,1,.227-.224h0a.227.227,0,0,1,.224.23A91.277,91.277,0,0,1,175.259,488.7" transform="translate(-8532.742 -9976.675)" fill="#363e44"/><path d="M801.824,394.759a.228.228,0,0,1-.209-.138l-2.371-5.555-2.933,5.223a.227.227,0,0,1-.4-.223l3.386-6.028,2.733,6.4a.228.228,0,0,1-.12.3.225.225,0,0,1-.089.018" transform="translate(-9065.698 -9968.454)" fill="#363e44"/></g></g></svg>