<svg xmlns="http://www.w3.org/2000/svg" xmlns:xlink="http://www.w3.org/1999/xlink" width="530.5" height="417.638" viewBox="0 0 530.5 417.638"><defs><filter id="a" x="0" y="322.033" width="132.19" height="95.605" filterUnits="userSpaceOnUse"><feOffset dy="3" input="SourceAlpha"/><feGaussianBlur stdDeviation="8.5" result="b"/><feFlood flood-opacity="0.2"/><feComposite operator="in" in2="b"/><feComposite in="SourceGraphic"/></filter><clipPath id="c"><rect width="108.449" height="112.212"/></clipPath></defs><g transform="translate(-889.5 -2319.129)"><g transform="translate(0 1936.768)"><rect width="487" height="331.5" rx="21" transform="translate(933 440)" fill="#f6f6f6"/><g transform="matrix(1, 0, 0, 1, 889.5, 382.36)" filter="url(#a)"><path d="M21.139,0A21.841,21.841,0,0,1,42.764,21.345l.442,38.246A20.662,20.662,0,0,1,22.069,80.447,21.841,21.841,0,0,1,.444,59.1L0,20.857A20.662,20.662,0,0,1,21.139,0Z" transform="translate(105.94 344.53) rotate(89)" fill="#20bdfc"/></g><g transform="translate(950.993 404)"><path d="M2373.981,897.818a10.4,10.4,0,0,1-6.8-2.41,26.9,26.9,0,0,1-4.436-5.043,25.324,25.324,0,0,0-4.143-4.737,9.1,9.1,0,0,0-2.532-1.479,9.514,9.514,0,0,0-6.416,0,9.109,9.109,0,0,0-2.531,1.478,25.29,25.29,0,0,0-4.141,4.737,26.95,26.95,0,0,1-4.437,5.044,10.669,10.669,0,0,1-13.594,0,26.944,26.944,0,0,1-4.435-5.042,25.29,25.29,0,0,0-4.142-4.738,9.1,9.1,0,0,0-2.532-1.479,9.512,9.512,0,0,0-6.416,0,9.093,9.093,0,0,0-2.531,1.478,25.283,25.283,0,0,0-4.142,4.737,26.917,26.917,0,0,1-4.436,5.044,10.669,10.669,0,0,1-13.594,0,26.9,26.9,0,0,1-4.435-5.042,25.311,25.311,0,0,0-4.143-4.738,9.105,9.105,0,0,0-2.532-1.479,8.928,8.928,0,0,0-3.209-.557.841.841,0,0,1,0-1.683,10.4,10.4,0,0,1,6.8,2.41,26.911,26.911,0,0,1,4.435,5.044,25.321,25.321,0,0,0,4.142,4.737,9.112,9.112,0,0,0,2.531,1.478,9.516,9.516,0,0,0,6.417,0,9.122,9.122,0,0,0,2.531-1.479,25.311,25.311,0,0,0,4.143-4.738,26.9,26.9,0,0,1,4.434-5.042,10.671,10.671,0,0,1,13.594,0,26.969,26.969,0,0,1,4.436,5.044,25.3,25.3,0,0,0,4.141,4.737,9.109,9.109,0,0,0,2.53,1.478,9.516,9.516,0,0,0,6.417,0,9.11,9.11,0,0,0,2.531-1.479,25.25,25.25,0,0,0,4.143-4.738,26.92,26.92,0,0,1,4.436-5.042,10.672,10.672,0,0,1,13.594,0,26.9,26.9,0,0,1,4.435,5.043,25.317,25.317,0,0,0,4.144,4.737,9.092,9.092,0,0,0,2.531,1.479,8.94,8.94,0,0,0,3.208.557.841.841,0,1,1,0,1.683Z" transform="translate(-1940.749 -719.328)" fill="#3e8cf7"/><path d="M477.657,1490.913a5.165,5.165,0,0,1-3.377-1.2,13.378,13.378,0,0,1-2.2-2.505,12.561,12.561,0,0,0-2.058-2.354,4.52,4.52,0,0,0-1.258-.735,4.73,4.73,0,0,0-3.188,0,4.524,4.524,0,0,0-1.257.735,12.567,12.567,0,0,0-2.058,2.353,13.378,13.378,0,0,1-2.2,2.506,5.3,5.3,0,0,1-6.754,0,13.377,13.377,0,0,1-2.2-2.505,12.571,12.571,0,0,0-2.058-2.354,4.521,4.521,0,0,0-1.258-.735,4.73,4.73,0,0,0-3.188,0,4.524,4.524,0,0,0-1.257.735,12.562,12.562,0,0,0-2.058,2.353,13.38,13.38,0,0,1-2.2,2.506,5.3,5.3,0,0,1-6.754,0,13.378,13.378,0,0,1-2.2-2.505,12.573,12.573,0,0,0-2.058-2.354,4.523,4.523,0,0,0-1.258-.735,4.439,4.439,0,0,0-1.594-.277.418.418,0,0,1,0-.836,5.167,5.167,0,0,1,3.378,1.2,13.385,13.385,0,0,1,2.2,2.506,12.562,12.562,0,0,0,2.058,2.354,4.521,4.521,0,0,0,1.257.734,4.725,4.725,0,0,0,3.188,0,4.525,4.525,0,0,0,1.258-.735,12.564,12.564,0,0,0,2.058-2.354,13.37,13.37,0,0,1,2.2-2.505,5.3,5.3,0,0,1,6.754,0,13.388,13.388,0,0,1,2.2,2.506,12.563,12.563,0,0,0,2.057,2.354,4.521,4.521,0,0,0,1.257.734,4.725,4.725,0,0,0,3.188,0,4.527,4.527,0,0,0,1.258-.735,12.567,12.567,0,0,0,2.058-2.354,13.365,13.365,0,0,1,2.2-2.505,5.3,5.3,0,0,1,6.754,0,13.377,13.377,0,0,1,2.2,2.505,12.561,12.561,0,0,0,2.058,2.353,4.517,4.517,0,0,0,1.258.735,4.726,4.726,0,0,0,3.188,0,4.518,4.518,0,0,0,1.258-.735,12.559,12.559,0,0,0,2.058-2.353,13.38,13.38,0,0,1,2.2-2.505,5.168,5.168,0,0,1,3.377-1.2.418.418,0,0,1,0,.836,4.439,4.439,0,0,0-1.594.277,4.521,4.521,0,0,0-1.258.735,12.563,12.563,0,0,0-2.058,2.354,13.377,13.377,0,0,1-2.2,2.505,5.165,5.165,0,0,1-3.377,1.2Z" transform="translate(-420.188 -1144.855)" fill="#3e8cf7"/></g></g><g transform="translate(915 2319.129)"><g transform="translate(0 26.359)"><path d="M542.783,340.392a.573.573,0,0,0,.467-.9,67.235,67.235,0,0,0-5-6.258,72.02,72.02,0,0,0-5.627-5.577c-1.924-1.71-4-3.375-6.172-4.949-2.085-1.511-4.317-2.983-6.636-4.374a137.123,137.123,0,0,0-29.626-12.807c-10.3-3.238-21.007-5.674-31.362-8.03-6.286-1.43-12.785-2.909-19.116-4.55-7.092-1.838-13.223-3.692-18.743-5.667a161.751,161.751,0,0,1-23.648-10.692,165.741,165.741,0,0,1-40.833-31.812,161.792,161.792,0,0,1-16.153-20.316c-4.345-6.481-8.3-13.4-12.127-20.089-3.164-5.534-6.436-11.256-9.912-16.7-1.873-2.935-3.655-5.557-5.446-8.017-2.012-2.763-3.985-5.253-6.031-7.611a115.274,115.274,0,0,0-10.856-10.909,130.9,130.9,0,0,0-12.115-9.432c-4.094-2.826-8.52-5.554-13.154-8.108-4.378-2.414-9.08-4.748-13.975-6.939-4.584-2.052-9.489-4.045-14.579-5.925-4.706-1.738-9.741-3.442-14.967-5.065-4.8-1.491-9.753-2.917-15.139-4.359-4.7-1.259-9.641-2.5-15.094-3.805a.573.573,0,1,0-.266,1.114c5.443,1.3,10.37,2.541,15.064,3.8,5.371,1.438,10.309,2.86,15.1,4.346,5.207,1.617,10.223,3.315,14.91,5.046,5.067,1.871,9.948,3.855,14.508,5.9,4.866,2.178,9.54,4.5,13.89,6.9,4.6,2.536,8.994,5.244,13.057,8.048a129.74,129.74,0,0,1,12.009,9.349,114.115,114.115,0,0,1,10.748,10.8c2.025,2.333,3.978,4.8,5.97,7.534,1.777,2.441,3.545,5.044,5.406,7.96,3.461,5.422,6.726,11.132,9.883,16.654,3.835,6.708,7.8,13.644,12.17,20.159a162.928,162.928,0,0,0,16.268,20.46,166.884,166.884,0,0,0,41.115,32.032,162.906,162.906,0,0,0,23.816,10.768c5.553,1.987,11.716,3.85,18.842,5.7,6.348,1.645,12.856,3.126,19.149,4.558,10.332,2.351,21.016,4.781,31.272,8.006a136,136,0,0,1,29.38,12.7c2.291,1.374,4.5,2.827,6.553,4.319,2.14,1.552,4.187,3.193,6.083,4.878A70.876,70.876,0,0,1,537.4,334a66.064,66.064,0,0,1,4.917,6.151A.572.572,0,0,0,542.783,340.392Z" transform="translate(-104.468 -104.263)" fill="#126783"/><path d="M957.88,995.115a.573.573,0,0,0,.459-.914c-2.193-2.955-4.536-5.821-6.965-8.517-2.395-2.658-4.94-5.227-7.565-7.635-2.587-2.373-5.325-4.657-8.137-6.789-2.77-2.1-5.691-4.111-8.682-5.979-2.943-1.838-6.039-3.589-9.2-5.2-3.108-1.588-6.368-3.091-9.69-4.467-3.263-1.351-6.679-2.618-10.154-3.766-3.409-1.126-6.972-2.17-10.59-3.1a174.687,174.687,0,0,0-21.858-4.133,203.006,203.006,0,0,0-22.2-1.506c-7.189-.1-14.691.151-22.3.753-7.157.565-14.61,1.455-22.154,2.644-2.792.44-5.655.923-8.423,1.39-9.595,1.619-19.516,3.293-29.159,3.652a82.935,82.935,0,0,1-14.259-.6,62.769,62.769,0,0,1-6.949-1.33,55.755,55.755,0,0,1-6.794-2.18,69.2,69.2,0,0,1-10.227-5.162c-3.295-1.98-6.554-4.189-9.706-6.327-2.7-1.833-5.5-3.729-8.316-5.479a123.272,123.272,0,0,0-41.94-16.623A115.167,115.167,0,0,0,641.4,911.79a118.46,118.46,0,0,0-23.343,2.343.573.573,0,1,0,.225,1.123,115.294,115.294,0,0,1,44.57-.286,122.131,122.131,0,0,1,41.551,16.471c2.8,1.738,5.583,3.627,8.278,5.454,3.165,2.146,6.437,4.364,9.759,6.36a70.3,70.3,0,0,0,10.4,5.246c18.228,7.189,38.331,3.8,57.772.518,2.765-.467,5.625-.949,8.411-1.388,7.515-1.185,14.938-2.071,22.066-2.634,7.572-.6,15.039-.851,22.192-.749a201.838,201.838,0,0,1,22.074,1.5,173.558,173.558,0,0,1,21.714,4.105c3.593.926,7.132,1.963,10.517,3.081,3.448,1.139,6.838,2.4,10.075,3.737,3.294,1.364,6.527,2.854,9.607,4.429,3.132,1.6,6.2,3.336,9.115,5.156,2.963,1.85,5.855,3.841,8.6,5.92,2.785,2.111,5.495,4.372,8.055,6.72,2.6,2.384,5.118,4.926,7.488,7.558,2.4,2.669,4.725,5.506,6.9,8.433A.572.572,0,0,0,957.88,995.115Z" transform="translate(-580.763 -630.96)" fill="#126783"/><path d="M668.119,722.635a.438.438,0,0,0,.338-.169.658.658,0,0,0,0-.81,100.4,100.4,0,0,0-16.249-15.5,105.175,105.175,0,0,0-8.994-6.122c-3.015-1.833-6.2-3.559-9.454-5.132-3.148-1.52-6.454-2.937-9.826-4.213-3.252-1.23-6.653-2.362-10.109-3.365a157.818,157.818,0,0,0-20.715-4.464c-4.964-.736-10.041-1.282-15.521-1.67-4.88-.345-9.971-.555-15.563-.642q-3.033-.047-6.086-.046c-8.4,0-16.865.239-25.1.472-8.215.232-16.705.473-25.052.473h-.544c-8.05-.009-15.255-.264-22.024-.778-3.773-.286-7.468-.661-10.984-1.113-3.733-.48-7.4-1.065-10.892-1.738-3.679-.709-7.294-1.54-10.744-2.469-3.61-.973-7.157-2.085-10.542-3.307-3.525-1.272-6.985-2.7-10.285-4.25-3.423-1.606-6.779-3.389-9.973-5.3-2.581-1.543-5.2-3.253-7.779-5.083-2.46-1.744-4.969-3.655-7.457-5.679-4.593-3.737-9.217-7.925-14.134-12.8-4.1-4.068-8.481-8.7-13.395-14.164-4.383-4.873-8.773-9.938-13.018-14.837-4.359-5.03-8.867-10.231-13.361-15.217-6.175-6.849-11.79-12.639-17.164-17.7-3.074-2.895-6.134-5.609-9.1-8.067-3.177-2.636-6.359-5.076-9.458-7.252a115.978,115.978,0,0,0-9.835-6.217,92.542,92.542,0,0,0-10.225-4.961,76.808,76.808,0,0,0-10.628-3.482,67.853,67.853,0,0,0-11.043-1.781.516.516,0,0,0-.5.535.546.546,0,0,0,.445.608,67.047,67.047,0,0,1,10.912,1.76,75.977,75.977,0,0,1,10.513,3.445,91.654,91.654,0,0,1,10.129,4.914,115.106,115.106,0,0,1,9.757,6.168c3.079,2.162,6.241,4.586,9.4,7.206,2.947,2.445,5.991,5.145,9.05,8.026,5.354,5.042,10.949,10.812,17.105,17.64,4.487,4.978,8.991,10.175,13.347,15.2,4.248,4.9,8.641,9.971,13.031,14.851,4.927,5.478,9.322,10.124,13.435,14.206,4.941,4.9,9.588,9.112,14.206,12.869,2.5,2.037,5.03,3.961,7.507,5.717,2.6,1.843,5.237,3.567,7.838,5.122,3.22,1.926,6.6,3.722,10.051,5.341,3.323,1.559,6.808,3,10.357,4.28,3.406,1.229,6.975,2.349,10.607,3.327,3.469.935,7.1,1.77,10.8,2.483,3.51.676,7.191,1.264,10.941,1.746,3.529.454,7.239.83,11.025,1.117,6.789.516,14.013.771,22.083.78,8.534.011,17.22-.235,25.62-.473,8.23-.233,16.686-.472,25.08-.472q3.044,0,6.073.045c5.577.087,10.654.3,15.52.64,5.46.386,10.517.93,15.46,1.663a157,157,0,0,1,20.608,4.441c3.435,1,6.815,2.121,10.046,3.344,3.349,1.267,6.631,2.675,9.757,4.183,3.233,1.561,6.389,3.274,9.379,5.092a104.24,104.24,0,0,1,8.914,6.068,99.391,99.391,0,0,1,16.087,15.34A.436.436,0,0,0,668.119,722.635Z" transform="translate(-255.471 -387.912)" fill="#126783"/><path d="M473.031,442.409a.511.511,0,0,0,.475-.428l69.023-308.013a.652.652,0,0,0-.071-.47.485.485,0,0,0-.352-.244l-443.621-55a.507.507,0,0,0-.534.459L56.63,323.638a.638.638,0,0,0,.128.508l81.887,99.116a.443.443,0,0,0,.694.015.642.642,0,0,0,.013-.81l-81.71-98.9L98.827,79.448l442.607,54.875L472.556,441.692a.587.587,0,0,0,.351.7A.427.427,0,0,0,473.031,442.409Z" transform="translate(-56.621 -78.251)" fill="#126783"/></g><g transform="translate(14.154 104.614)"><path d="M798.354,485.427l264.891-6.988L1048.424,312.22H793.62Z" transform="translate(-759.013 -311.647)" fill="#b1dbea"/><path d="M1379.2,653.621a.573.573,0,0,0,.369-1.01c-10.067-8.488-19.815-17.829-29.242-26.863-5.253-5.034-10.685-10.239-16.1-15.228-4.885-4.5-9.39-8.466-13.775-12.125-5.032-4.2-9.781-7.9-14.519-11.3-5.167-3.712-10.316-7.054-15.3-9.934a140.245,140.245,0,0,0-16.13-8.027.572.572,0,1,0-.44,1.057,139.1,139.1,0,0,1,16,7.962c4.955,2.861,10.072,6.183,15.208,9.873,4.715,3.387,9.443,7.067,14.453,11.249,4.37,3.647,8.862,7.6,13.733,12.088,5.408,4.981,10.836,10.182,16.085,15.213,9.44,9.046,19.2,18.4,29.3,26.911A.57.57,0,0,0,1379.2,653.621Z" transform="translate(-1237.293 -481.975)" fill="#ffbc4a"/><path d="M-1.127-.554H121.644a.573.573,0,0,0,.573-.573.573.573,0,0,0-.573-.573H-1.127a.573.573,0,0,0-.573.573A.573.573,0,0,0-1.127-.554Z" transform="translate(1.699 30.273)" fill="#126783"/><g transform="translate(49.085 11.869)"><path d="M-1.127-.554H11.521a.573.573,0,0,0,.573-.573.573.573,0,0,0-.573-.573H-1.127a.573.573,0,0,0-.573.573A.573.573,0,0,0-1.127-.554Z" transform="translate(21.284 8.778)" fill="#fff"/><g transform="translate(0 0)"><path d="M-1.127,7.215a.571.571,0,0,0,.4-.168L7.047-.722a.573.573,0,0,0,0-.81.573.573,0,0,0-.81,0L-1.532,6.238a.573.573,0,0,0,0,.81A.571.571,0,0,0-1.127,7.215Z" transform="translate(1.699 1.699)" fill="#fff"/><path d="M6.642,7.215a.573.573,0,0,0,.4-.977L-.722-1.532a.573.573,0,0,0-.81,0,.573.573,0,0,0,0,.81L6.238,7.047A.571.571,0,0,0,6.642,7.215Z" transform="translate(1.699 1.699)" fill="#fff"/></g></g><path d="M836,664.941,765.97,785.259h-4.36L818.9,596.17Z" transform="translate(-520.987 -499.931)" fill="#126783"/><path d="M1212.578,389.732a90.168,90.168,0,0,0,16.717-1.56,88.848,88.848,0,0,0,30.042-11.628,89.226,89.226,0,0,0,42-65.382.572.572,0,0,0-1.137-.137,87.911,87.911,0,0,1-18.146,43.745,88.411,88.411,0,0,1-37.489,27.844,87.848,87.848,0,0,1-15.48,4.433,89.188,89.188,0,0,1-32.573.081,87.7,87.7,0,0,1-28.995-10.9,88.769,88.769,0,0,1-12.408-8.918.573.573,0,0,0-.746.869A89.366,89.366,0,0,0,1181,383.994a89.021,89.021,0,0,0,15.3,4.26A90.2,90.2,0,0,0,1212.578,389.732Z" transform="translate(-1118.576 -310.521)" fill="#ffbc4a"/></g><g transform="translate(187.583 277.726)"><g transform="translate(0)"><g clip-path="url(#c)"><path d="M-1.126,95.139a.573.573,0,0,0,.559-.454l20.3-95.693a.573.573,0,0,0-.441-.679.573.573,0,0,0-.679.441l-20.3,95.693a.573.573,0,0,0,.441.679A.574.574,0,0,0-1.126,95.139Z" transform="translate(58.581 28.815)" fill="#126783"/><ellipse cx="7.627" cy="7.627" rx="7.627" ry="7.627" transform="matrix(-0.995, -0.099, 0.099, -0.995, 84.613, 36.03)" fill="#ffbc4a"/><path d="M805.982,980.061c-8.45,24.318-35.066,37.165-35.066,37.165s-12.914-26.583-4.464-50.9,35.066-37.165,35.066-37.165S814.435,955.742,805.982,980.061Z" transform="translate(-706.134 -893.845)" fill="#126783"/><path d="M902.447,916.311c3.918,36.973-22.954,70.129-22.954,70.129s-33.223-26.788-37.141-63.761,22.954-70.128,22.954-70.128S898.529,879.338,902.447,916.311Z" transform="translate(-826.527 -843.046)" fill="#d99527"/><ellipse cx="13.931" cy="13.931" rx="13.931" ry="13.931" transform="matrix(-0.973, -0.23, 0.23, -0.973, 27.597, 96.072)" fill="#126783"/><path d="M12.578,128.787a.573.573,0,0,0,.57-.633L-.558-1.187a.573.573,0,0,0-.63-.509.573.573,0,0,0-.509.63L12.009,128.274A.573.573,0,0,0,12.578,128.787Z" transform="translate(40.387 15.176)" fill="#126783"/><path d="M-1.126,16.291A.57.57,0,0,0-.817,16.2L25.374-.645a.573.573,0,0,0,.172-.791.573.573,0,0,0-.791-.172L-1.437,15.237a.573.573,0,0,0-.172.791A.572.572,0,0,0-1.126,16.291Z" transform="translate(48.601 75.841)" fill="#126783"/><path d="M21.382,11.238a.573.573,0,0,0,.266-1.08L-.861-1.634a.573.573,0,0,0-.773.241.573.573,0,0,0,.241.773L21.116,11.172A.57.57,0,0,0,21.382,11.238Z" transform="translate(22.609 48.029)" fill="#126783"/><path d="M23.367,49.686a.573.573,0,0,0,.514-.824L-.612-1.378a.573.573,0,0,0-.766-.264.573.573,0,0,0-.264.766l24.494,50.24A.573.573,0,0,0,23.367,49.686Z" transform="translate(18.367 80.473)" fill="#126783"/></g></g></g><ellipse cx="8.47" cy="8.47" rx="8.47" ry="8.47" transform="translate(451.178 207.773) rotate(-112.5)" fill="#ffbc4a"/><ellipse cx="6.499" cy="6.499" rx="6.499" ry="6.499" transform="translate(56.712 341.746) rotate(-112.5)" fill="#ffbc4a"/><g transform="translate(432.753 114.675)"><ellipse cx="28.776" cy="28.776" rx="28.776" ry="28.776" transform="matrix(-0.987, -0.16, 0.16, -0.987, 56.809, 66.029)" fill="#32256b"/><rect width="15.596" height="15.596" transform="translate(25.218 25.214)" fill="#126783"/></g><g transform="translate(112.913 120.278)"><path d="M-18.367-9.035H172.5a9.332,9.332,0,0,0,9.332-9.332A9.332,9.332,0,0,0,172.5-27.7H-18.367A9.332,9.332,0,0,0-27.7-18.367,9.332,9.332,0,0,0-18.367-9.035Z" transform="translate(27.7 85.21)" fill="#20bdfc"/><ellipse cx="15.498" cy="15.498" rx="15.498" ry="15.498" transform="translate(97.611 87.087) rotate(-112.5)" fill="#fff"/><path d="M-18.367-9.035H170.57a9.332,9.332,0,0,0,9.332-9.332A9.332,9.332,0,0,0,170.57-27.7H-18.367A9.332,9.332,0,0,0-27.7-18.367,9.332,9.332,0,0,0-18.367-9.035Z" transform="translate(29.63 37.031)" fill="#20bdfc"/><ellipse cx="15.497" cy="15.497" rx="15.497" ry="15.497" transform="matrix(-0.973, -0.23, 0.23, -0.973, 178.469, 37.288)" fill="#126783"/></g><g transform="translate(73.148 223.564)"><path d="M1047.36,746.171h127.518l15.892-77.5-138.859-5.087Z" transform="translate(-1047.36 -663.58)" fill="#32256b"/><g transform="translate(17.3 25.723)"><path d="M-1.228-.6H97.754a.624.624,0,0,0,.624-.624.624.624,0,0,0-.624-.624H-1.228a.624.624,0,0,0-.624.624A.624.624,0,0,0-1.228-.6Z" transform="translate(1.852 1.852)" fill="#ffbc4a"/><path d="M-1.228-.6H42.129a.624.624,0,0,0,.624-.624.624.624,0,0,0-.624-.624H-1.228a.624.624,0,0,0-.624.624A.624.624,0,0,0-1.228-.6Z" transform="translate(57.477 11.818)" fill="#ffbc4a"/><path d="M-1.228-.6H73.924a.624.624,0,0,0,.624-.624.624.624,0,0,0-.624-.624H-1.228a.624.624,0,0,0-.624.624A.624.624,0,0,0-1.228-.6Z" transform="translate(25.682 21.784)" fill="#ffbc4a"/><path d="M-1.228-.6H30.233a.624.624,0,0,0,.624-.624.624.624,0,0,0-.624-.624H-1.228a.624.624,0,0,0-.624.624A.624.624,0,0,0-1.228-.6Z" transform="translate(69.373 31.75)" fill="#ffbc4a"/></g></g><g transform="translate(169.093 0)"><rect width="60.586" height="60.586" transform="translate(59.406 71.305) rotate(-168.673)" fill="#d99527"/><path d="M988.249,143.355l-41.909-8.393,48.859-26.3Z" transform="translate(-928.85 -72.055)" fill="#32256b"/></g><g transform="translate(123.44 47.877)"><rect width="30.292" height="30.292" transform="translate(36.611 29.429) rotate(166.285)" fill="#20bdfc"/><ellipse cx="6.25" cy="6.25" rx="6.25" ry="6.25" transform="translate(12.06 12.056)" fill="#126783"/></g><path d="M1569.142,448.133v-.364a18.09,18.09,0,0,1-18.089-18.089h-.364a18.09,18.09,0,0,1-18.089,18.089v.364a18.09,18.09,0,0,1,18.089,18.089h.364A18.09,18.09,0,0,1,1569.142,448.133Z" transform="translate(-1499.728 -284.92)" fill="#ffbc4a"/><g transform="translate(227.767 8.26)"><path d="M551.37,157.058c8.46-3.288,13.507-5.044,20.009-13.864,10.545-14.305-.327-48.185-4.09-53.569-7.884-11.28-24.019-10.764-31.963-8.019,0,0-8.527,6.651-2.375,38.448a22.126,22.126,0,0,0-8.574,22.26c1.169,5.242,5.845,9.6,10.485,12.3S546.02,157.539,551.37,157.058Z" transform="translate(-452.423 -61.28)" fill="#32256b"/><rect width="35.645" height="7.904" transform="translate(99.586 46.361) rotate(101.327)" fill="#fcc5a0"/><path d="M610.316,177.81a25.061,25.061,0,0,1-10.256,14.7l1.24-6.2C604.4,185.212,607.593,182.338,610.316,177.81Z" transform="translate(-512.535 -126.168)" fill="#d66050"/><g transform="translate(82.549 20.838)"><path d="M584.741,124.212c1.829,2.844,3.841,1.53,5.044.9,5.239-2.773,9.8-9.68,11.94-18.7A61.551,61.551,0,0,0,603.517,92.3c-3.827-4.5-12-7.079-17.779-5.407C582.6,98.179,580.529,117.676,584.741,124.212Z" transform="translate(-582.325 -86.381)" fill="#fcc5a0"/><g transform="translate(7.793 13.52)"><path d="M605.17,127.373l5.717,1.267S607.09,124.859,605.17,127.373Z" transform="translate(-605.17 -126.51)" fill="#126783"/><path d="M615.344,135.674a.881.881,0,1,0,1.051-.852A.964.964,0,0,0,615.344,135.674Z" transform="translate(-614.771 -132.012)" fill="#126783"/></g><g transform="translate(0 12.933)"><path d="M636.438,126.109l-4.488-.2S635.653,123.208,636.438,126.109Z" transform="translate(-631.95 -124.767)" fill="#126783"/><path d="M637.262,133.631a.825.825,0,1,1-.768-1.061A.948.948,0,0,1,637.262,133.631Z" transform="translate(-634.028 -129.941)" fill="#126783"/></g><path d="M628.661,139.416a.442.442,0,0,0,.2-.839.934.934,0,0,1-.538-.526,2.07,2.07,0,0,1,.357-1.453,14.743,14.743,0,0,0,1.69-6.482.442.442,0,1,0-.883-.051,13.909,13.909,0,0,1-1.584,6.111,2.779,2.779,0,0,0-.423,2.144,1.773,1.773,0,0,0,.99,1.052A.441.441,0,0,0,628.661,139.416Z" transform="translate(-624.346 -115.07)" fill="#d66050"/><path d="M614.454,143.2a1.7,1.7,0,0,0-1.93,1.523,1.876,1.876,0,0,0,1.267,2.224,1.7,1.7,0,0,0,1.93-1.523A1.876,1.876,0,0,0,614.454,143.2Z" transform="translate(-604.71 -124.033)" fill="#d66050"/><path d="M615.984,162.7a4.971,4.971,0,0,0,2.72-.829,5.235,5.235,0,0,0,2.177-2.8.442.442,0,0,0-.85-.245,4.391,4.391,0,0,1-1.81,2.3,4.219,4.219,0,0,1-1.529.622,3.859,3.859,0,0,1-1.764-.082.442.442,0,1,0-.239.852A4.792,4.792,0,0,0,615.984,162.7Z" transform="translate(-610.487 -134.207)" fill="#d66050"/><path d="M640.114,142.622a1.874,1.874,0,0,0-1.267-2.224,1.417,1.417,0,0,0-.9.1c-.1,1.159-.169,2.311-.219,3.447a1.475,1.475,0,0,0,.455.2A1.7,1.7,0,0,0,640.114,142.622Z" transform="translate(-637.608 -122.178)" fill="#d66050"/></g><path d="M588.526,111.6C579.88,106.4,567,97.3,565.548,87.32c-10.074,26.427-4.326,1.287-3.211-3.069,8.7-1.479,15.3.947,21.586,7.139C587.208,95.555,592.013,104.2,588.526,111.6Z" transform="translate(-478.36 -63.851)" fill="#32256b"/><g transform="translate(100.387 35.984)"><path d="M578.24,133.031c1.044-1.843,2.5-1.893,3.154-1.5a2.074,2.074,0,0,1,.788,1.6,4.744,4.744,0,0,1-1.567,3.938,3.267,3.267,0,0,1-3.544.64A8.591,8.591,0,0,1,578.24,133.031Z" transform="translate(-577.056 -131.335)" fill="#fcc5a0"/><path d="M581.18,137.58a.442.442,0,0,0,.442-.43,3.723,3.723,0,0,1,.748-2.286,2.124,2.124,0,0,1,.764-.593.442.442,0,1,0-.371-.8,3.012,3.012,0,0,0-1.083.842,4.581,4.581,0,0,0-.943,2.815.442.442,0,0,0,.43.454Z" transform="translate(-579.487 -132.722)" fill="#d66050"/></g><path d="M450.487,504.2c4.9,11.964,17.947,55.432,24.211,94.716,3.406,21.36,18.119,67.349,25.326,100.794l-18.705,6c-17.1-51.7-43.886-104.086-57.093-156.863-.573,45.062,2.082,89.12-1.29,157.961l-18.038-7.1c-2.945-18.315-16.782-95.619-18.935-148.71-.556-13.746,2.759-39.156,5.943-51.019Z" transform="translate(-330.089 -339.795)" fill="#32256b"/><path d="M384.755,1114.572v-.89a4.457,4.457,0,0,0-.576-2.19c-5.188-6.466-9.855-12.857-10.539-18.692l-14.454,2.807a6.1,6.1,0,0,0-4.892,5.263L352.92,1112.4v2.166h31.835Z" transform="translate(-203.709 -732.886)" fill="#ffbc4a"/><path d="M662.241,1094.475l-12.355-1.658a.123.123,0,0,0-.1.044c-5.889,4.754-25.11,15.259-34.965,18.992a1.411,1.411,0,0,0,.5,2.729H668.2a.112.112,0,0,0,.111-.111l-.216-13.416A6.755,6.755,0,0,0,662.241,1094.475Z" transform="translate(-575.195 -732.897)" fill="#ffbc4a"/><path d="M584.985,326.5c-2.244-6.893-5.29-24.342-4.69-30.932,1.307-14.329,9.41-33.513,8.4-47.107-.478-6.425-8.237-10.589-14.922-11.661-16.229-2.6-29.183-4.323-44.847-4.808-1.462.95-2.83,7.331-4.225,12.537-1.338,4.98-3.026,14.3-3.039,18.577-.017,4.5,3.8,19.453,4.744,59.179Z" transform="translate(-464.587 -162.094)" fill="#7463e5"/><path d="M579.766,233.56c-.707,5.647,13.109,18.247,29.776,3.558A270.79,270.79,0,0,0,579.766,233.56Z" transform="translate(-504.916 -163.135)" fill="#fcc5a0"/><g transform="translate(0)"><path d="M758.678,242.543c-15.656-2.544-28.405-5.162-40.6-8.116l6.213-15.357s12.409,1.59,22.654,2.534Z" transform="translate(-700.66 -153.527)" fill="#ed9f78"/><path d="M821.774,120.542s10.8,20.612,13.658,32.384c2.611,10.737-8.487,21.751-12.466,11.024s-10.444-44.55-10.444-44.55Z" transform="translate(-809.627 -87.437)" fill="#fcc5a0"/><path d="M697.907,228.888,669.97,226.58l.623,24.376,16.431,4.137Z" transform="translate(-623.68 -158.507)" fill="#7463e5"/><g transform="translate(0)"><path d="M869.815,42.309a22.025,22.025,0,0,0,.391-4.158c.037-1.617.239-6.391-3.356-13.621a2.113,2.113,0,0,0-1.058,2.193,24.333,24.333,0,0,0,.7,3.248,28.005,28.005,0,0,1,.748,3.844,40.055,40.055,0,0,1-.62,4.508c-.158.96-.3,1.941-.526,2.887Z" transform="translate(-861.966 -24.53)" fill="#fcc5a0"/><path d="M872.594,45.227a40.118,40.118,0,0,0,.04-4.932,28.734,28.734,0,0,0-.664-4.1,31.412,31.412,0,0,1-.866-3.228c-.044-.475-.088-1.607.822-1.924A24.552,24.552,0,0,1,875.771,44.6Z" transform="translate(-869.304 -28.847)" fill="#fcc5a0"/><path d="M845.679,70.892a30.783,30.783,0,0,0,2.429-2.278A6.194,6.194,0,0,1,849.3,65.7a2.837,2.837,0,0,1,2.945-1.3A50.592,50.592,0,0,1,845.2,79.612l-4.926,1.4C840.15,79.3,840.234,72.26,845.679,70.892Z" transform="translate(-835.384 -50.913)" fill="#fcc5a0"/><path d="M865.763,86.4s-1.553-3.763-1.6-4.272,1.078-6.883,1.139-8.345a34.767,34.767,0,0,0-.482-4.754s-6.95-2.517-8.793,0a14.7,14.7,0,0,0-1.462,3.733,20.794,20.794,0,0,0,.374,9.09,19.758,19.758,0,0,0,1.577,3.4l1.563,5.559Z" transform="translate(-853.615 -53.297)" fill="#fcc5a0"/><path d="M852.741,41.154c.35-2.284,2.2-6.971,2.268-9.265a12.678,12.678,0,0,1,.472-3.527,2.191,2.191,0,0,1,1.742-1.671c.792,6.388-.714,13.541-1.243,15.653Z" transform="translate(-844.798 -25.962)" fill="#fcc5a0"/><path d="M878.2,56.812a8.021,8.021,0,0,0-.869-5.023,19.231,19.231,0,0,1-.967-2.23,2.131,2.131,0,0,1,.377-2c.718,1.078,1.476,2.23,1.476,2.23a29.135,29.135,0,0,1,2.776,5.441Z" transform="translate(-876.27 -39.801)" fill="#fcc5a0"/></g><path d="M858.86,91.188a.442.442,0,0,0,.44-.4,11.721,11.721,0,0,1,1.235-4.384,5.844,5.844,0,0,1,3.79-3.016.442.442,0,1,0-.216-.858,6.7,6.7,0,0,0-4.349,3.449,12.609,12.609,0,0,0-1.34,4.724.442.442,0,0,0,.4.483Z" transform="translate(-853.922 -62.981)" fill="#d66050"/></g><g transform="translate(110.418 74.933)"><g transform="translate(11.826 26.074)"><g transform="translate(33.728 69.842)"><path d="M355.3,568.074,347.09,564.4c.081-.034-6.091,1.324-6.091,1.324l-2.389,2.52a20.756,20.756,0,0,0,4.811,2.537c3.352,1.583,8.8,7.658,10.5,9.093a1.088,1.088,0,0,0,1.186-.007c.391.748.664,1.257.772,1.408,1.331,1.887,2.584.893,2.584.893l-1.557-3.753a37.006,37.006,0,0,0,2.055,3.3c1.7,1.836,2.908.677,2.908.677Z" transform="translate(-331.976 -553.358)" fill="#ed9f78"/><path d="M357.9,547.327c-2-2.6-11.4-8.639-13.918-10.616-2.369-3.571-2.7-5.081-2.7-5.081L331.97,535.7c3.154,5.977,5.445,10.111,6.634,10.808,1.371.805,8.817,2.978,9.838,4.306,1.371,1.782,3.44,4.461,4.585,4.875a1.572,1.572,0,0,0,1.792-.32,51.213,51.213,0,0,0-6.213-10.1c1.779,1.344,4.622,3.5,5.6,4.319,1.311,1.095,6.014,7.015,7.267,8.3,1.523,1.563,2.628.354,2.628.354S359.9,549.931,357.9,547.327Z" transform="translate(-331.97 -531.63)" fill="#fcc5a0"/></g><path d="M414.058,324.33c9.157,22.479,26.9,71.934,26.9,71.934l-8.615,4.909c-2.241-4.413-21.4-42.1-35.332-68.565Z" transform="translate(-397.01 -324.33)" fill="#fcc5a0"/></g><path d="M500.684,279.3c-1.61-3.949-5.852-13.851-6.691-15.707-5.4-11.91-12.008-13.867-24.743-16.654l.856,18.652c2.153,4.606,7.581,14.4,11.094,21.074Z" transform="translate(-469.25 -246.94)" fill="#7463e5"/></g><path d="M540.209,341.382a.446.446,0,0,0,.085-.008,8.831,8.831,0,0,0,3.946-1.93,12.156,12.156,0,0,0,2.807-3.409,18.135,18.135,0,0,0,1.611-4.025,40.411,40.411,0,0,0,.889-4.218.442.442,0,1,0-.873-.144,39.552,39.552,0,0,1-.868,4.124,17.269,17.269,0,0,1-1.531,3.831,11.263,11.263,0,0,1-2.6,3.16,7.957,7.957,0,0,1-3.552,1.743.442.442,0,0,0,.084.876Z" transform="translate(-431.459 -225.278)" fill="#126783"/></g><path d="M-1.206-.554H502.807a.537.537,0,0,0,.494-.573.537.537,0,0,0-.494-.573H-1.206a.537.537,0,0,0-.494.573A.537.537,0,0,0-1.206-.554Z" transform="translate(1.699 391.072)" fill="#126783"/></g></g></svg>