<svg xmlns="http://www.w3.org/2000/svg" xmlns:xlink="http://www.w3.org/1999/xlink" width="1334" height="508.5" viewBox="0 0 1334 508.5"><defs><clipPath id="a"><rect width="250" height="284" transform="translate(130 1209)" fill="#fff" stroke="#707070" stroke-width="1"/></clipPath></defs><g transform="translate(-130 -1140)"><rect width="1334" height="350.957" transform="translate(130 1297.543)" fill="#e2e8ea"/><g transform="translate(4 -69)" clip-path="url(#a)"><path d="M35.835,2A33.8,33.8,0,0,0,2,35.835V172.326A33.844,33.844,0,0,0,67.011,185.5a33.621,33.621,0,0,0,2.658-13.169V35.835A33.8,33.8,0,0,0,35.835,2m0-2A35.835,35.835,0,0,1,71.67,35.835V172.326a35.835,35.835,0,1,1-71.67,0V35.835A35.835,35.835,0,0,1,35.835,0Z" transform="matrix(0.616, 0.788, -0.788, 0.616, 195.954, 1291.684)" fill="#126783"/></g></g></svg>