<svg xmlns="http://www.w3.org/2000/svg" xmlns:xlink="http://www.w3.org/1999/xlink" width="243.558" height="49.449" viewBox="0 0 243.558 49.449"><defs><filter id="a" x="208.921" y="18.633" width="30.468" height="30.468" filterUnits="userSpaceOnUse"><feOffset input="SourceAlpha"/><feGaussianBlur stdDeviation="2" result="b"/><feFlood flood-opacity="0.192"/><feComposite operator="in" in2="b"/><feComposite in="SourceGraphic"/></filter></defs><g transform="translate(-705 -3640.18)"><rect width="230.614" height="37" rx="18" transform="translate(705 3646.404)" fill="#126783"/><text transform="translate(724 3651.404)" fill="#fff" font-size="20" font-family="Roboto-Black, Roboto" font-weight="800"><tspan x="0" y="21">Factores Abióticos</tspan></text><g transform="translate(893.562 3640.18)"><path d="M12.82,48.788A13.246,13.246,0,0,0,25.935,35.844L26.2,12.649A12.531,12.531,0,0,0,13.384,0,13.246,13.246,0,0,0,.269,12.945L0,36.14A12.531,12.531,0,0,0,12.82,48.788Z" transform="matrix(0.574, 0.819, -0.819, 0.574, 39.966, 0)" fill="#25e0ac"/><g transform="matrix(1, 0, 0, 1, -188.56, 0)" filter="url(#a)"><circle cx="9.234" cy="9.234" r="9.234" transform="translate(214.92 24.63)" fill="#d3f9ee"/></g></g></g></svg>