<svg xmlns="http://www.w3.org/2000/svg" xmlns:xlink="http://www.w3.org/1999/xlink" width="324" height="207" viewBox="0 0 324 207"><defs><clipPath id="a"><rect width="33.59" height="38.727" fill="#126783"/></clipPath><clipPath id="b"><rect width="34.534" height="33.498" fill="none"/></clipPath></defs><g transform="translate(-901 -3874.68)"><g transform="translate(0 -27.5)"><g transform="translate(220 983.18)"><path d="M1.5,87h-3V0h3Z" transform="translate(848.5 2948.5)" fill="#126783"/><path d="M-4062.725-8655.8h-3v-6.923h-194.765v6.923h-3v-9.923h200.765Z" transform="translate(5006 11700)" fill="#126783"/><rect width="150" height="33" rx="16.5" transform="translate(685 2976)" fill="#126783"/><path d="M10.844,11.977H6.07V17H4.57V5.625h7.047V6.852H6.07v3.9h4.773ZM18.141,17a3.036,3.036,0,0,1-.2-.891,3.225,3.225,0,0,1-2.406,1.047,2.984,2.984,0,0,1-2.051-.707,2.287,2.287,0,0,1-.8-1.793,2.39,2.39,0,0,1,1-2.051,4.733,4.733,0,0,1,2.824-.73h1.406v-.664A1.623,1.623,0,0,0,17.461,10a1.821,1.821,0,0,0-1.336-.449,2.107,2.107,0,0,0-1.3.391,1.151,1.151,0,0,0-.523.945H12.852A2,2,0,0,1,13.3,9.668a3.066,3.066,0,0,1,1.219-.934,4.1,4.1,0,0,1,1.691-.344,3.342,3.342,0,0,1,2.289.73,2.635,2.635,0,0,1,.859,2.012v3.891a4.757,4.757,0,0,0,.3,1.852V17Zm-2.4-1.1a2.54,2.54,0,0,0,1.289-.352,2.127,2.127,0,0,0,.883-.914V12.9H16.781q-2.656,0-2.656,1.555a1.316,1.316,0,0,0,.453,1.063A1.742,1.742,0,0,0,15.742,15.9Zm9.273.078a2.082,2.082,0,0,0,1.352-.469,1.649,1.649,0,0,0,.641-1.172h1.367a2.621,2.621,0,0,1-.5,1.383,3.293,3.293,0,0,1-1.23,1.047,3.55,3.55,0,0,1-1.629.391A3.482,3.482,0,0,1,22.27,16a4.59,4.59,0,0,1-1.02-3.152v-.242a5.089,5.089,0,0,1,.453-2.2A3.451,3.451,0,0,1,23,8.922a3.7,3.7,0,0,1,2-.531,3.39,3.39,0,0,1,2.363.852,3.043,3.043,0,0,1,1,2.211H27.008a1.992,1.992,0,0,0-.621-1.348,1.932,1.932,0,0,0-1.379-.527,2.023,2.023,0,0,0-1.707.793,3.724,3.724,0,0,0-.605,2.293v.273a3.65,3.65,0,0,0,.6,2.25A2.033,2.033,0,0,0,25.016,15.977ZM31.961,6.5V8.547h1.578V9.664H31.961v5.249a1.173,1.173,0,0,0,.211.763.888.888,0,0,0,.719.254,3.5,3.5,0,0,0,.688-.094V17a4.215,4.215,0,0,1-1.109.155,1.8,1.8,0,0,1-1.461-.586,2.517,2.517,0,0,1-.492-1.664V9.664H28.977V8.547h1.539V6.5Zm2.727,6.2a4.993,4.993,0,0,1,.488-2.234A3.643,3.643,0,0,1,36.535,8.93a3.7,3.7,0,0,1,1.988-.539,3.565,3.565,0,0,1,2.793,1.2,4.6,4.6,0,0,1,1.066,3.18v.1a5.036,5.036,0,0,1-.473,2.215,3.589,3.589,0,0,1-1.352,1.527,3.743,3.743,0,0,1-2.02.547,3.556,3.556,0,0,1-2.785-1.2A4.575,4.575,0,0,1,34.688,12.8Zm1.453.172a3.616,3.616,0,0,0,.652,2.258,2.211,2.211,0,0,0,3.5-.012,3.955,3.955,0,0,0,.648-2.418,3.61,3.61,0,0,0-.66-2.254,2.1,2.1,0,0,0-1.754-.863,2.075,2.075,0,0,0-1.727.852A3.925,3.925,0,0,0,36.141,12.867ZM48.281,9.844a4.331,4.331,0,0,0-.711-.055A1.9,1.9,0,0,0,45.641,11v6H44.2V8.547H45.6l.023.977a2.251,2.251,0,0,1,2.016-1.133,1.477,1.477,0,0,1,.641.109Zm4.836,7.313a3.693,3.693,0,0,1-2.8-1.129,4.19,4.19,0,0,1-1.078-3.02v-.266a5.073,5.073,0,0,1,.48-2.246,3.748,3.748,0,0,1,1.344-1.547,3.378,3.378,0,0,1,1.871-.559A3.166,3.166,0,0,1,55.5,9.477a4.7,4.7,0,0,1,.914,3.109v.6H50.688a3,3,0,0,0,.73,2.02,2.3,2.3,0,0,0,1.777.77,2.517,2.517,0,0,0,1.3-.312,3.259,3.259,0,0,0,.93-.828l.883.688A3.55,3.55,0,0,1,53.117,17.156Zm-.18-7.578a1.928,1.928,0,0,0-1.469.637A3.1,3.1,0,0,0,50.734,12h4.234v-.109a2.753,2.753,0,0,0-.594-1.707A1.815,1.815,0,0,0,52.938,9.578Zm10.07,5.18a1.064,1.064,0,0,0-.441-.91,4.249,4.249,0,0,0-1.539-.559,7.277,7.277,0,0,1-1.742-.562,2.479,2.479,0,0,1-.953-.781,1.869,1.869,0,0,1-.309-1.078A2.193,2.193,0,0,1,58.9,9.109a3.432,3.432,0,0,1,2.246-.719,3.532,3.532,0,0,1,2.332.742,2.357,2.357,0,0,1,.895,1.9H62.922a1.3,1.3,0,0,0-.5-1.023,1.888,1.888,0,0,0-1.27-.43,1.976,1.976,0,0,0-1.234.344,1.082,1.082,0,0,0-.445.9.877.877,0,0,0,.414.789,5.1,5.1,0,0,0,1.5.508,7.8,7.8,0,0,1,1.754.578,2.558,2.558,0,0,1,1,.809,1.988,1.988,0,0,1,.324,1.152,2.163,2.163,0,0,1-.906,1.816,3.8,3.8,0,0,1-2.352.684,4.257,4.257,0,0,1-1.8-.359,2.922,2.922,0,0,1-1.223-1,2.42,2.42,0,0,1-.441-1.395H59.18a1.5,1.5,0,0,0,.582,1.152,2.258,2.258,0,0,0,1.434.426,2.331,2.331,0,0,0,1.316-.332A1.02,1.02,0,0,0,63.008,14.758ZM75.516,17a3.036,3.036,0,0,1-.2-.891,3.225,3.225,0,0,1-2.406,1.047,2.984,2.984,0,0,1-2.051-.707,2.288,2.288,0,0,1-.8-1.793,2.39,2.39,0,0,1,1-2.051,4.733,4.733,0,0,1,2.824-.73h1.406v-.664A1.623,1.623,0,0,0,74.836,10,1.821,1.821,0,0,0,73.5,9.555a2.108,2.108,0,0,0-1.3.391,1.151,1.151,0,0,0-.523.945H70.227a2,2,0,0,1,.449-1.223,3.066,3.066,0,0,1,1.219-.934,4.1,4.1,0,0,1,1.691-.344,3.342,3.342,0,0,1,2.289.73,2.635,2.635,0,0,1,.859,2.012v3.891a4.757,4.757,0,0,0,.3,1.852V17Zm-2.4-1.1a2.54,2.54,0,0,0,1.289-.352,2.127,2.127,0,0,0,.883-.914V12.9H74.156q-2.656,0-2.656,1.555a1.316,1.316,0,0,0,.453,1.063A1.742,1.742,0,0,0,73.117,15.9Zm13.039-3.031a5.026,5.026,0,0,1-.891,3.113,2.846,2.846,0,0,1-2.391,1.176A2.947,2.947,0,0,1,80.4,16.023l-.07.977H79V5h1.445V9.477a2.93,2.93,0,0,1,2.414-1.086,2.863,2.863,0,0,1,2.418,1.164,5.177,5.177,0,0,1,.879,3.188ZM84.711,12.7a3.906,3.906,0,0,0-.57-2.281,1.888,1.888,0,0,0-1.641-.8,2.122,2.122,0,0,0-2.055,1.328V14.6a2.181,2.181,0,0,0,2.07,1.328,1.878,1.878,0,0,0,1.617-.8A4.153,4.153,0,0,0,84.711,12.7ZM89.547,17H88.1V8.547h1.445ZM87.984,6.3a.863.863,0,0,1,.215-.594.807.807,0,0,1,.637-.242.819.819,0,0,1,.641.242A.854.854,0,0,1,89.7,6.3a.826.826,0,0,1-.219.586.834.834,0,0,1-.641.234.821.821,0,0,1-.637-.234A.834.834,0,0,1,87.984,6.3ZM91.477,12.7a4.993,4.993,0,0,1,.488-2.234A3.643,3.643,0,0,1,93.324,8.93a3.7,3.7,0,0,1,1.988-.539,3.565,3.565,0,0,1,2.793,1.2,4.6,4.6,0,0,1,1.066,3.18v.1a5.036,5.036,0,0,1-.473,2.215,3.589,3.589,0,0,1-1.352,1.527,3.743,3.743,0,0,1-2.02.547,3.556,3.556,0,0,1-2.785-1.2A4.575,4.575,0,0,1,91.477,12.8Zm1.453.172a3.616,3.616,0,0,0,.652,2.258,2.211,2.211,0,0,0,3.5-.012,3.955,3.955,0,0,0,.648-2.418,3.61,3.61,0,0,0-.66-2.254,2.1,2.1,0,0,0-1.754-.863,2.075,2.075,0,0,0-1.727.852A3.925,3.925,0,0,0,92.93,12.867ZM95.969,5h1.75L95.625,7.3l-1.164,0Zm6.977,1.5V8.547h1.578V9.664h-1.578v5.249a1.173,1.173,0,0,0,.211.763.888.888,0,0,0,.719.254,3.5,3.5,0,0,0,.688-.094V17a4.215,4.215,0,0,1-1.109.155,1.8,1.8,0,0,1-1.461-.586,2.517,2.517,0,0,1-.492-1.664V9.664H99.961V8.547H101.5V6.5ZM107.781,17h-1.445V8.547h1.445ZM106.219,6.3a.863.863,0,0,1,.215-.594.807.807,0,0,1,.637-.242.819.819,0,0,1,.641.242.854.854,0,0,1,.219.594.826.826,0,0,1-.219.586.834.834,0,0,1-.641.234.821.821,0,0,1-.637-.234A.834.834,0,0,1,106.219,6.3Zm7.266,9.672a2.082,2.082,0,0,0,1.352-.469,1.649,1.649,0,0,0,.641-1.172h1.367a2.621,2.621,0,0,1-.5,1.383,3.293,3.293,0,0,1-1.23,1.047,3.55,3.55,0,0,1-1.629.391A3.482,3.482,0,0,1,110.738,16a4.59,4.59,0,0,1-1.02-3.152v-.242a5.089,5.089,0,0,1,.453-2.2,3.451,3.451,0,0,1,1.3-1.492,3.7,3.7,0,0,1,2-.531,3.39,3.39,0,0,1,2.363.852,3.043,3.043,0,0,1,1,2.211h-1.367a1.992,1.992,0,0,0-.621-1.348,1.932,1.932,0,0,0-1.379-.527,2.023,2.023,0,0,0-1.707.793,3.724,3.724,0,0,0-.605,2.293v.273a3.65,3.65,0,0,0,.6,2.25A2.033,2.033,0,0,0,113.484,15.977Zm4.6-3.281a4.993,4.993,0,0,1,.488-2.234,3.643,3.643,0,0,1,1.359-1.531,3.7,3.7,0,0,1,1.988-.539,3.565,3.565,0,0,1,2.793,1.2,4.6,4.6,0,0,1,1.066,3.18v.1a5.036,5.036,0,0,1-.473,2.215,3.589,3.589,0,0,1-1.352,1.527,3.743,3.743,0,0,1-2.02.547,3.556,3.556,0,0,1-2.785-1.2,4.575,4.575,0,0,1-1.066-3.164Zm1.453.172a3.616,3.616,0,0,0,.652,2.258,2.211,2.211,0,0,0,3.5-.012,3.955,3.955,0,0,0,.648-2.418,3.61,3.61,0,0,0-.66-2.254,2.1,2.1,0,0,0-1.754-.863,2.075,2.075,0,0,0-1.727.852A3.925,3.925,0,0,0,119.539,12.867Zm12.977,1.891a1.064,1.064,0,0,0-.441-.91,4.249,4.249,0,0,0-1.539-.559,7.277,7.277,0,0,1-1.742-.562,2.479,2.479,0,0,1-.953-.781,1.869,1.869,0,0,1-.309-1.078,2.193,2.193,0,0,1,.879-1.758,3.432,3.432,0,0,1,2.246-.719,3.532,3.532,0,0,1,2.332.742,2.357,2.357,0,0,1,.895,1.9H132.43a1.3,1.3,0,0,0-.5-1.023,1.888,1.888,0,0,0-1.27-.43,1.976,1.976,0,0,0-1.234.344,1.082,1.082,0,0,0-.445.9.877.877,0,0,0,.414.789,5.1,5.1,0,0,0,1.5.508,7.8,7.8,0,0,1,1.754.578,2.558,2.558,0,0,1,1,.809,1.988,1.988,0,0,1,.324,1.152,2.163,2.163,0,0,1-.906,1.816,3.8,3.8,0,0,1-2.352.684,4.257,4.257,0,0,1-1.8-.359,2.923,2.923,0,0,1-1.223-1,2.42,2.42,0,0,1-.441-1.395h1.445a1.5,1.5,0,0,0,.582,1.152,2.258,2.258,0,0,0,1.434.426,2.331,2.331,0,0,0,1.316-.332A1.02,1.02,0,0,0,132.516,14.758Z" transform="translate(691 2982)" fill="#fff"/><rect width="224" height="29" rx="14.5" transform="translate(736 2919)" fill="#20bdfc"/><path d="M11.621,13.211A4.025,4.025,0,0,1,10.266,16.1a4.76,4.76,0,0,1-3.223,1.055A4.28,4.28,0,0,1,3.6,15.684a6.038,6.038,0,0,1-1.254-4.043v-.7a6.819,6.819,0,0,1,.578-2.891A4.332,4.332,0,0,1,4.578,6.137a4.629,4.629,0,0,1,2.5-.668,4.637,4.637,0,0,1,3.172,1.055,4.326,4.326,0,0,1,1.391,2.961H9.293a2.376,2.376,0,0,0-.613-1.6,2.271,2.271,0,0,0-1.605-.5,1.991,1.991,0,0,0-1.754.84,4.707,4.707,0,0,0-.6,2.605V11.7a5.038,5.038,0,0,0,.559,2.7,1.954,1.954,0,0,0,1.762.852,2.314,2.314,0,0,0,1.621-.5,2.241,2.241,0,0,0,.613-1.535ZM12.66,12.7a5.013,5.013,0,0,1,.484-2.242A3.546,3.546,0,0,1,14.539,8.93a4.069,4.069,0,0,1,2.113-.539,3.849,3.849,0,0,1,2.793,1.047,4.2,4.2,0,0,1,1.207,2.844l.016.578a4.418,4.418,0,0,1-1.086,3.121,3.775,3.775,0,0,1-2.914,1.176,3.793,3.793,0,0,1-2.918-1.172A4.5,4.5,0,0,1,12.66,12.8Zm2.258.16a3.16,3.16,0,0,0,.453,1.843,1.628,1.628,0,0,0,2.578.008,3.457,3.457,0,0,0,.461-2.015,3.128,3.128,0,0,0-.461-1.831,1.5,1.5,0,0,0-1.3-.649,1.474,1.474,0,0,0-1.281.646A3.516,3.516,0,0,0,14.918,12.856Zm9.258-4.309.07.945a2.971,2.971,0,0,1,2.43-1.1A2.255,2.255,0,0,1,28.918,9.68a2.9,2.9,0,0,1,2.539-1.289,2.521,2.521,0,0,1,2.047.8,3.681,3.681,0,0,1,.672,2.41V17H31.91V11.609a1.61,1.61,0,0,0-.281-1.051,1.246,1.246,0,0,0-.992-.332,1.409,1.409,0,0,0-1.406.969l.008,5.8H26.98V11.617a1.59,1.59,0,0,0-.289-1.062,1.259,1.259,0,0,0-.984-.328,1.463,1.463,0,0,0-1.391.8V17H22.059V8.547Zm19.344,4.3a5.07,5.07,0,0,1-.887,3.129,2.843,2.843,0,0,1-2.395,1.176,2.633,2.633,0,0,1-2.07-.891V20.25H35.91V8.547H38l.078.828a2.654,2.654,0,0,1,2.141-.984,2.862,2.862,0,0,1,2.43,1.156,5.207,5.207,0,0,1,.867,3.188Zm-2.258-.164a3.327,3.327,0,0,0-.418-1.82,1.361,1.361,0,0,0-1.215-.641,1.479,1.479,0,0,0-1.461.813V14.5a1.5,1.5,0,0,0,1.477.836Q41.262,15.336,41.262,12.688Zm3.3.008a5.013,5.013,0,0,1,.484-2.242A3.546,3.546,0,0,1,46.445,8.93a4.069,4.069,0,0,1,2.113-.539,3.849,3.849,0,0,1,2.793,1.047,4.2,4.2,0,0,1,1.207,2.844l.016.578a4.418,4.418,0,0,1-1.086,3.121,4.209,4.209,0,0,1-5.832,0,4.5,4.5,0,0,1-1.09-3.187Zm2.258.16a3.16,3.16,0,0,0,.453,1.843,1.628,1.628,0,0,0,2.578.008,3.457,3.457,0,0,0,.461-2.015,3.128,3.128,0,0,0-.461-1.831,1.5,1.5,0,0,0-1.3-.649,1.474,1.474,0,0,0-1.281.646A3.516,3.516,0,0,0,46.824,12.856Zm9.219-4.309.07.977a2.951,2.951,0,0,1,2.43-1.133,2.453,2.453,0,0,1,2,.789,3.682,3.682,0,0,1,.672,2.359V17H58.957V11.594a1.465,1.465,0,0,0-.312-1.043,1.4,1.4,0,0,0-1.039-.324,1.553,1.553,0,0,0-1.43.813V17H53.918V8.547Zm10.773,8.609a4.15,4.15,0,0,1-3.027-1.141,4.054,4.054,0,0,1-1.168-3.039v-.219a5.106,5.106,0,0,1,.492-2.277,3.612,3.612,0,0,1,1.395-1.547,3.914,3.914,0,0,1,2.059-.543A3.508,3.508,0,0,1,69.3,9.484a4.444,4.444,0,0,1,1,3.1v.922H64.91a2.1,2.1,0,0,0,.66,1.328,2,2,0,0,0,1.395.5A2.437,2.437,0,0,0,69,14.391l1.109,1.242a3.389,3.389,0,0,1-1.375,1.121A4.511,4.511,0,0,1,66.816,17.156Zm-.258-6.945a1.411,1.411,0,0,0-1.09.455,2.357,2.357,0,0,0-.535,1.3h3.141v-.181a1.681,1.681,0,0,0-.406-1.165A1.456,1.456,0,0,0,66.559,10.211Zm7.094-1.664.07.977a2.951,2.951,0,0,1,2.43-1.133,2.453,2.453,0,0,1,2,.789,3.682,3.682,0,0,1,.672,2.359V17H76.566V11.594a1.465,1.465,0,0,0-.312-1.043,1.4,1.4,0,0,0-1.039-.324,1.553,1.553,0,0,0-1.43.813V17H71.527V8.547Zm9.586-2.078V8.547h1.445V10.2H83.238v4.219a1.007,1.007,0,0,0,.18.672.9.9,0,0,0,.688.2,3.6,3.6,0,0,0,.664-.055v1.711a4.648,4.648,0,0,1-1.367.2,2.156,2.156,0,0,1-2.422-2.4V10.2H79.746V8.547H80.98V6.469Zm6.594,10.688A4.15,4.15,0,0,1,86.8,16.016a4.054,4.054,0,0,1-1.168-3.039v-.219a5.106,5.106,0,0,1,.492-2.277,3.612,3.612,0,0,1,1.395-1.547,3.914,3.914,0,0,1,2.059-.543,3.508,3.508,0,0,1,2.73,1.094,4.444,4.444,0,0,1,1,3.1v.922H87.926a2.1,2.1,0,0,0,.66,1.328,2,2,0,0,0,1.395.5,2.437,2.437,0,0,0,2.039-.945l1.109,1.242a3.389,3.389,0,0,1-1.375,1.121A4.511,4.511,0,0,1,89.832,17.156Zm-.258-6.945a1.411,1.411,0,0,0-1.09.455,2.357,2.357,0,0,0-.535,1.3H91.09v-.181a1.681,1.681,0,0,0-.406-1.165A1.456,1.456,0,0,0,89.574,10.211Zm9.594,4.453a.727.727,0,0,0-.41-.652,4.659,4.659,0,0,0-1.316-.426q-3.016-.633-3.016-2.562a2.323,2.323,0,0,1,.934-1.879A3.766,3.766,0,0,1,97.8,8.391a4.053,4.053,0,0,1,2.574.758,2.388,2.388,0,0,1,.965,1.969H99.082a1.092,1.092,0,0,0-.312-.8A1.322,1.322,0,0,0,97.793,10a1.351,1.351,0,0,0-.883.258.814.814,0,0,0-.312.656.7.7,0,0,0,.355.605,3.657,3.657,0,0,0,1.2.4,9.8,9.8,0,0,1,1.422.379,2.336,2.336,0,0,1,1.789,2.273,2.2,2.2,0,0,1-.992,1.871,4.28,4.28,0,0,1-2.562.715,4.47,4.47,0,0,1-1.887-.379,3.166,3.166,0,0,1-1.293-1.039,2.414,2.414,0,0,1-.469-1.426H96.3a1.179,1.179,0,0,0,.445.922,1.766,1.766,0,0,0,1.109.32,1.635,1.635,0,0,0,.98-.246A.766.766,0,0,0,99.168,14.664ZM111.7,17a2.507,2.507,0,0,1-.227-.758,2.732,2.732,0,0,1-2.133.914,3,3,0,0,1-2.059-.719,2.312,2.312,0,0,1-.816-1.812,2.389,2.389,0,0,1,1-2.062,4.915,4.915,0,0,1,2.879-.727h1.039v-.484a1.393,1.393,0,0,0-.3-.937,1.183,1.183,0,0,0-.949-.352,1.345,1.345,0,0,0-.895.273.929.929,0,0,0-.324.75h-2.258a2.268,2.268,0,0,1,.453-1.359,3,3,0,0,1,1.281-.98,4.669,4.669,0,0,1,1.859-.355,3.689,3.689,0,0,1,2.48.785,2.747,2.747,0,0,1,.918,2.207v3.664a4.041,4.041,0,0,0,.336,1.82V17Zm-1.867-1.57a1.945,1.945,0,0,0,.922-.223,1.462,1.462,0,0,0,.625-.6V13.156h-.844q-1.7,0-1.8,1.172l-.008.133a.9.9,0,0,0,.3.7A1.153,1.153,0,0,0,109.832,15.43ZM117.5,8.547l.07.945a2.971,2.971,0,0,1,2.43-1.1,2.255,2.255,0,0,1,2.242,1.289,2.9,2.9,0,0,1,2.539-1.289,2.521,2.521,0,0,1,2.047.8,3.681,3.681,0,0,1,.672,2.41V17H125.23V11.609a1.61,1.61,0,0,0-.281-1.051,1.246,1.246,0,0,0-.992-.332,1.409,1.409,0,0,0-1.406.969l.008,5.8H120.3V11.617a1.59,1.59,0,0,0-.289-1.062,1.259,1.259,0,0,0-.984-.328,1.463,1.463,0,0,0-1.391.8V17h-2.258V8.547Zm19.352,4.3a5.119,5.119,0,0,1-.867,3.168,2.872,2.872,0,0,1-2.422,1.137,2.639,2.639,0,0,1-2.2-1.055l-.1.9H129.23V5h2.258V9.3a2.571,2.571,0,0,1,2.055-.914,2.9,2.9,0,0,1,2.426,1.137,5.126,5.126,0,0,1,.879,3.2Zm-2.258-.164a3.363,3.363,0,0,0-.406-1.871,1.374,1.374,0,0,0-1.211-.59,1.489,1.489,0,0,0-1.484.883v3.336a1.509,1.509,0,0,0,1.5.891,1.394,1.394,0,0,0,1.438-1.078A5.562,5.562,0,0,0,134.59,12.688ZM140.621,17h-2.266V8.547h2.266Zm-2.4-10.641a1.112,1.112,0,0,1,.34-.836,1.465,1.465,0,0,1,1.848,0,1.105,1.105,0,0,1,.344.836,1.109,1.109,0,0,1-.348.844,1.448,1.448,0,0,1-1.836,0A1.109,1.109,0,0,1,138.223,6.359Zm8.148,10.8a4.15,4.15,0,0,1-3.027-1.141,4.054,4.054,0,0,1-1.168-3.039v-.219a5.106,5.106,0,0,1,.492-2.277,3.612,3.612,0,0,1,1.395-1.547,3.914,3.914,0,0,1,2.059-.543,3.508,3.508,0,0,1,2.73,1.094,4.444,4.444,0,0,1,1,3.1v.922h-5.383a2.1,2.1,0,0,0,.66,1.328,2,2,0,0,0,1.395.5,2.437,2.437,0,0,0,2.039-.945l1.109,1.242a3.389,3.389,0,0,1-1.375,1.121A4.511,4.511,0,0,1,146.371,17.156Zm-.258-6.945a1.411,1.411,0,0,0-1.09.455,2.357,2.357,0,0,0-.535,1.3h3.141v-.181a1.681,1.681,0,0,0-.406-1.165A1.456,1.456,0,0,0,146.113,10.211Zm7.094-1.664.07.977a2.951,2.951,0,0,1,2.43-1.133,2.453,2.453,0,0,1,2,.789,3.682,3.682,0,0,1,.672,2.359V17h-2.258V11.594a1.465,1.465,0,0,0-.312-1.043,1.4,1.4,0,0,0-1.039-.324,1.553,1.553,0,0,0-1.43.813V17h-2.258V8.547Zm9.586-2.078V8.547h1.445V10.2h-1.445v4.219a1.007,1.007,0,0,0,.18.672.9.9,0,0,0,.688.2,3.6,3.6,0,0,0,.664-.055v1.711a4.648,4.648,0,0,1-1.367.2,2.156,2.156,0,0,1-2.422-2.4V10.2H159.3V8.547h1.234V6.469ZM170.395,17a2.507,2.507,0,0,1-.227-.758,2.732,2.732,0,0,1-2.133.914,3,3,0,0,1-2.059-.719,2.312,2.312,0,0,1-.816-1.812,2.389,2.389,0,0,1,1-2.062,4.915,4.915,0,0,1,2.879-.727h1.039v-.484a1.393,1.393,0,0,0-.3-.937,1.183,1.183,0,0,0-.949-.352,1.345,1.345,0,0,0-.895.273.929.929,0,0,0-.324.75h-2.258a2.268,2.268,0,0,1,.453-1.359,3,3,0,0,1,1.281-.98,4.669,4.669,0,0,1,1.859-.355,3.689,3.689,0,0,1,2.48.785,2.747,2.747,0,0,1,.918,2.207v3.664a4.041,4.041,0,0,0,.336,1.82V17Zm-1.867-1.57a1.945,1.945,0,0,0,.922-.223,1.462,1.462,0,0,0,.625-.6V13.156h-.844q-1.7,0-1.8,1.172l-.008.133a.9.9,0,0,0,.3.7A1.153,1.153,0,0,0,168.527,15.43Zm7.93,1.57h-2.266V5h2.266Zm5.75.156a4.15,4.15,0,0,1-3.027-1.141,4.054,4.054,0,0,1-1.168-3.039v-.219a5.106,5.106,0,0,1,.492-2.277A3.612,3.612,0,0,1,179.9,8.934a3.914,3.914,0,0,1,2.059-.543,3.508,3.508,0,0,1,2.73,1.094,4.444,4.444,0,0,1,1,3.1v.922H180.3a2.1,2.1,0,0,0,.66,1.328,2,2,0,0,0,1.395.5,2.437,2.437,0,0,0,2.039-.945l1.109,1.242a3.389,3.389,0,0,1-1.375,1.121A4.511,4.511,0,0,1,182.207,17.156Zm-.258-6.945a1.411,1.411,0,0,0-1.09.455,2.357,2.357,0,0,0-.535,1.3h3.141v-.181a1.681,1.681,0,0,0-.406-1.165A1.456,1.456,0,0,0,181.949,10.211Zm9.594,4.453a.727.727,0,0,0-.41-.652,4.659,4.659,0,0,0-1.316-.426q-3.016-.633-3.016-2.562a2.323,2.323,0,0,1,.934-1.879,3.766,3.766,0,0,1,2.441-.754,4.053,4.053,0,0,1,2.574.758,2.388,2.388,0,0,1,.965,1.969h-2.258a1.092,1.092,0,0,0-.312-.8,1.322,1.322,0,0,0-.977-.316,1.351,1.351,0,0,0-.883.258.814.814,0,0,0-.312.656.7.7,0,0,0,.355.605,3.657,3.657,0,0,0,1.2.4,9.8,9.8,0,0,1,1.422.379,2.336,2.336,0,0,1,1.789,2.273,2.205,2.205,0,0,1-.992,1.871,4.28,4.28,0,0,1-2.562.715,4.47,4.47,0,0,1-1.887-.379A3.166,3.166,0,0,1,187,15.738a2.414,2.414,0,0,1-.469-1.426h2.141a1.179,1.179,0,0,0,.445.922,1.766,1.766,0,0,0,1.109.32,1.635,1.635,0,0,0,.98-.246A.766.766,0,0,0,191.543,14.664Z" transform="translate(750 2923)" fill="#12263f"/><rect width="127" height="29" rx="14.5" transform="translate(681 3097)" fill="#69a897"/><rect width="127" height="29" rx="14.5" transform="translate(878 3097)" fill="#69a897"/><path d="M39.254,11.977H34.48V17h-1.5V5.625h7.047V6.852H34.48v3.9h4.773ZM43.168,17H41.715V8.547h1.453Zm.016-11.992h1.75L42.84,7.3l-1.164,0Zm7.289,9.75a1.064,1.064,0,0,0-.441-.91,4.249,4.249,0,0,0-1.539-.559,7.277,7.277,0,0,1-1.742-.562,2.479,2.479,0,0,1-.953-.781,1.869,1.869,0,0,1-.309-1.078,2.193,2.193,0,0,1,.879-1.758,3.432,3.432,0,0,1,2.246-.719,3.532,3.532,0,0,1,2.332.742,2.357,2.357,0,0,1,.895,1.9H50.387a1.3,1.3,0,0,0-.5-1.023,1.888,1.888,0,0,0-1.27-.43,1.976,1.976,0,0,0-1.234.344,1.082,1.082,0,0,0-.445.9.877.877,0,0,0,.414.789,5.1,5.1,0,0,0,1.5.508A7.8,7.8,0,0,1,50.6,12.7a2.558,2.558,0,0,1,1,.809,1.988,1.988,0,0,1,.324,1.152,2.163,2.163,0,0,1-.906,1.816,3.8,3.8,0,0,1-2.352.684,4.257,4.257,0,0,1-1.8-.359,2.922,2.922,0,0,1-1.223-1A2.42,2.42,0,0,1,45.2,14.4h1.445a1.5,1.5,0,0,0,.582,1.152,2.258,2.258,0,0,0,1.434.426,2.331,2.331,0,0,0,1.316-.332A1.02,1.02,0,0,0,50.473,14.758ZM55.371,17H53.926V8.547h1.445ZM53.809,6.3a.863.863,0,0,1,.215-.594.807.807,0,0,1,.637-.242.819.819,0,0,1,.641.242.854.854,0,0,1,.219.594.826.826,0,0,1-.219.586.834.834,0,0,1-.641.234.821.821,0,0,1-.637-.234A.834.834,0,0,1,53.809,6.3Zm7.266,9.672a2.082,2.082,0,0,0,1.352-.469,1.649,1.649,0,0,0,.641-1.172h1.367a2.621,2.621,0,0,1-.5,1.383,3.293,3.293,0,0,1-1.23,1.047,3.55,3.55,0,0,1-1.629.391A3.482,3.482,0,0,1,58.328,16a4.59,4.59,0,0,1-1.02-3.152v-.242a5.089,5.089,0,0,1,.453-2.2,3.451,3.451,0,0,1,1.3-1.492,3.7,3.7,0,0,1,2-.531,3.39,3.39,0,0,1,2.363.852,3.043,3.043,0,0,1,1,2.211H63.066a1.992,1.992,0,0,0-.621-1.348,1.932,1.932,0,0,0-1.379-.527,2.023,2.023,0,0,0-1.707.793,3.724,3.724,0,0,0-.605,2.293v.273a3.65,3.65,0,0,0,.6,2.25A2.033,2.033,0,0,0,61.074,15.977Zm4.6-3.281a4.993,4.993,0,0,1,.488-2.234A3.643,3.643,0,0,1,67.523,8.93a3.7,3.7,0,0,1,1.988-.539,3.565,3.565,0,0,1,2.793,1.2,4.6,4.6,0,0,1,1.066,3.18v.1a5.036,5.036,0,0,1-.473,2.215,3.589,3.589,0,0,1-1.352,1.527,3.743,3.743,0,0,1-2.02.547,3.556,3.556,0,0,1-2.785-1.2A4.575,4.575,0,0,1,65.676,12.8Zm1.453.172a3.616,3.616,0,0,0,.652,2.258,2.211,2.211,0,0,0,3.5-.012,3.955,3.955,0,0,0,.648-2.418,3.61,3.61,0,0,0-.66-2.254,2.1,2.1,0,0,0-1.754-.863,2.075,2.075,0,0,0-1.727.852A3.925,3.925,0,0,0,67.129,12.867Zm12.977,1.891a1.064,1.064,0,0,0-.441-.91,4.249,4.249,0,0,0-1.539-.559,7.277,7.277,0,0,1-1.742-.562,2.479,2.479,0,0,1-.953-.781,1.869,1.869,0,0,1-.309-1.078A2.193,2.193,0,0,1,76,9.109a3.432,3.432,0,0,1,2.246-.719,3.532,3.532,0,0,1,2.332.742,2.357,2.357,0,0,1,.895,1.9H80.02a1.3,1.3,0,0,0-.5-1.023,1.888,1.888,0,0,0-1.27-.43,1.976,1.976,0,0,0-1.234.344,1.082,1.082,0,0,0-.445.9.877.877,0,0,0,.414.789,5.1,5.1,0,0,0,1.5.508,7.8,7.8,0,0,1,1.754.578,2.558,2.558,0,0,1,1,.809,1.988,1.988,0,0,1,.324,1.152,2.163,2.163,0,0,1-.906,1.816,3.8,3.8,0,0,1-2.352.684,4.257,4.257,0,0,1-1.8-.359,2.922,2.922,0,0,1-1.223-1,2.42,2.42,0,0,1-.441-1.395h1.445a1.5,1.5,0,0,0,.582,1.152,2.258,2.258,0,0,0,1.434.426,2.331,2.331,0,0,0,1.316-.332A1.02,1.02,0,0,0,80.105,14.758Z" transform="translate(687 3101)" fill="#12263f"/><path d="M21.793,11.68a7.026,7.026,0,0,1-.523,2.84A4.388,4.388,0,0,1,19.8,16.383l2.031,1.594-1.023.945-2.4-1.906a4.88,4.88,0,0,1-1.187.141,4.244,4.244,0,0,1-4-2.543,6.752,6.752,0,0,1-.59-2.832v-.82a6.953,6.953,0,0,1,.57-2.9,4.218,4.218,0,0,1,4-2.594,4.4,4.4,0,0,1,2.418.664,4.284,4.284,0,0,1,1.605,1.91,7.016,7.016,0,0,1,.563,2.91Zm-1.5-.734a5.162,5.162,0,0,0-.8-3.1,2.666,2.666,0,0,0-2.285-1.09,2.643,2.643,0,0,0-2.23,1.082,5,5,0,0,0-.84,3v.836a5.147,5.147,0,0,0,.816,3.078,2.646,2.646,0,0,0,2.27,1.125,2.652,2.652,0,0,0,2.25-1.059,5.079,5.079,0,0,0,.82-3.035Zm8.8,5.219a3.07,3.07,0,0,1-2.477.992,2.628,2.628,0,0,1-2.059-.785,3.4,3.4,0,0,1-.715-2.324v-5.5h1.445v5.461q0,1.922,1.563,1.922a2.163,2.163,0,0,0,2.2-1.234V8.547H30.5V17H29.129ZM34.27,17H32.816V8.547H34.27Zm.016-11.992h1.75L33.941,7.3l-1.164,0Zm3.727,3.539.039.938a3.122,3.122,0,0,1,2.508-1.094A2.417,2.417,0,0,1,42.973,9.75a3.2,3.2,0,0,1,1.1-.984,3.242,3.242,0,0,1,1.6-.375q2.781,0,2.828,2.945V17H47.051V11.422a1.941,1.941,0,0,0-.414-1.355,1.823,1.823,0,0,0-1.391-.449,1.917,1.917,0,0,0-1.336.48,1.949,1.949,0,0,0-.617,1.293V17H41.84V11.461a1.613,1.613,0,0,0-1.8-1.844,1.934,1.934,0,0,0-1.945,1.211V17H36.645V8.547ZM52.246,17H50.8V8.547h1.445ZM50.684,6.3a.863.863,0,0,1,.215-.594.807.807,0,0,1,.637-.242.819.819,0,0,1,.641.242.854.854,0,0,1,.219.594.826.826,0,0,1-.219.586.834.834,0,0,1-.641.234.821.821,0,0,1-.637-.234A.834.834,0,0,1,50.684,6.3Zm7.266,9.672a2.082,2.082,0,0,0,1.352-.469,1.649,1.649,0,0,0,.641-1.172h1.367a2.621,2.621,0,0,1-.5,1.383,3.293,3.293,0,0,1-1.23,1.047,3.55,3.55,0,0,1-1.629.391A3.482,3.482,0,0,1,55.2,16a4.59,4.59,0,0,1-1.02-3.152v-.242a5.089,5.089,0,0,1,.453-2.2,3.451,3.451,0,0,1,1.3-1.492,3.7,3.7,0,0,1,2-.531,3.39,3.39,0,0,1,2.363.852,3.043,3.043,0,0,1,1,2.211H59.941a1.992,1.992,0,0,0-.621-1.348,1.932,1.932,0,0,0-1.379-.527,2.023,2.023,0,0,0-1.707.793,3.724,3.724,0,0,0-.605,2.293v.273a3.65,3.65,0,0,0,.6,2.25A2.033,2.033,0,0,0,57.949,15.977Zm4.6-3.281a4.993,4.993,0,0,1,.488-2.234A3.643,3.643,0,0,1,64.4,8.93a3.7,3.7,0,0,1,1.988-.539,3.565,3.565,0,0,1,2.793,1.2,4.6,4.6,0,0,1,1.066,3.18v.1a5.036,5.036,0,0,1-.473,2.215,3.589,3.589,0,0,1-1.352,1.527,3.743,3.743,0,0,1-2.02.547,3.556,3.556,0,0,1-2.785-1.2A4.575,4.575,0,0,1,62.551,12.8ZM64,12.867a3.616,3.616,0,0,0,.652,2.258,2.211,2.211,0,0,0,3.5-.012A3.955,3.955,0,0,0,68.8,12.7a3.61,3.61,0,0,0-.66-2.254,2.1,2.1,0,0,0-1.754-.863,2.075,2.075,0,0,0-1.727.852A3.925,3.925,0,0,0,64,12.867ZM76.98,14.758a1.064,1.064,0,0,0-.441-.91A4.249,4.249,0,0,0,75,13.289a7.277,7.277,0,0,1-1.742-.562,2.479,2.479,0,0,1-.953-.781A1.869,1.869,0,0,1,72,10.867a2.193,2.193,0,0,1,.879-1.758,3.432,3.432,0,0,1,2.246-.719,3.532,3.532,0,0,1,2.332.742,2.357,2.357,0,0,1,.895,1.9H76.895a1.3,1.3,0,0,0-.5-1.023,1.888,1.888,0,0,0-1.27-.43,1.976,1.976,0,0,0-1.234.344,1.082,1.082,0,0,0-.445.9.877.877,0,0,0,.414.789,5.1,5.1,0,0,0,1.5.508,7.8,7.8,0,0,1,1.754.578,2.558,2.558,0,0,1,1,.809,1.988,1.988,0,0,1,.324,1.152,2.163,2.163,0,0,1-.906,1.816,3.8,3.8,0,0,1-2.352.684,4.257,4.257,0,0,1-1.8-.359,2.922,2.922,0,0,1-1.223-1,2.42,2.42,0,0,1-.441-1.395h1.445a1.5,1.5,0,0,0,.582,1.152,2.258,2.258,0,0,0,1.434.426,2.331,2.331,0,0,0,1.316-.332A1.02,1.02,0,0,0,76.98,14.758Z" transform="translate(896 3101)" fill="#12263f"/><circle cx="25.5" cy="25.5" r="25.5" transform="translate(916 3050)" fill="#25e0ac"/><circle cx="25.5" cy="25.5" r="25.5" transform="translate(719 3050)" fill="#25e0ac"/><path d="M13,1.5H0v-3H13Z" transform="translate(835.5 2992.5)" fill="#126783"/></g><g transform="translate(947.375 4038.385)"><g clip-path="url(#a)"><path d="M29.9,16.272a.446.446,0,0,1,.549-.225,2.39,2.39,0,0,0,2.6-.942A2.511,2.511,0,0,0,33.3,12.37c-.178-.4-.7-.6-.695-1.018a12.781,12.781,0,0,1,.272-1.292c.014-.107.029-.213.042-.32A3.245,3.245,0,0,0,30.239,5.95a6.582,6.582,0,0,0-2-.107,17.632,17.632,0,0,0-5.191,1.391c-.578.237-.568.237-.75-.351a14.819,14.819,0,0,0-2.548-5.255A3.737,3.737,0,0,0,16.738,0a3.828,3.828,0,0,0-2.875,1.653A14.47,14.47,0,0,0,11.4,6.687c-.243.779-.235.777-.994.47A16.253,16.253,0,0,0,4.76,5.807a5.524,5.524,0,0,0-1.125.083A3.178,3.178,0,0,0,.7,8.874,5.528,5.528,0,0,0,1,11.137a.414.414,0,0,1-.138.513,2.566,2.566,0,0,0,2.35,4.4.393.393,0,0,1,.492.185A28.158,28.158,0,0,0,6.017,19.08c.224.24.176.366-.018.58A30.069,30.069,0,0,0,2.735,23.9a12.507,12.507,0,0,0-2.024,5A3.255,3.255,0,0,0,3.1,32.716a5.944,5.944,0,0,0,2.117.17,17.092,17.092,0,0,0,5.693-1.5c.2-.095.29-.093.358.159.162.595.354,1.182.559,1.764a.381.381,0,0,1-.1.455,2.5,2.5,0,0,0-.316,3.117,2.551,2.551,0,0,0,2.952,1.071.5.5,0,0,1,.507.094,3.1,3.1,0,0,0,3.885,0,6.781,6.781,0,0,0,1.7-1.922,17.537,17.537,0,0,0,1.914-4.549c.079-.275.168-.307.41-.186a11.457,11.457,0,0,0,1.721.679,13.309,13.309,0,0,0,5.38.773,3.2,3.2,0,0,0,3.08-3.462,9.069,9.069,0,0,0-1.227-4.048,27.782,27.782,0,0,0-4.085-5.68c-.2-.223-.219-.355,0-.587a27.448,27.448,0,0,0,2.254-2.79M2.615,14.84a1.3,1.3,0,0,1-1.291-1.311,1.29,1.29,0,0,1,2.579.04A1.3,1.3,0,0,1,2.615,14.84m2.109.624a.326.326,0,0,1,0-.452,2.451,2.451,0,0,0,.152-2.668,2.476,2.476,0,0,0-2.34-1.367c-.143,0-.268.012-.311-.167a4.891,4.891,0,0,1-.2-2.067A1.779,1.779,0,0,1,3.21,7.335a4.056,4.056,0,0,1,1.585-.243A14.639,14.639,0,0,1,9.481,8.177c.389.146.769.317,1.156.468.164.064.209.142.167.331a40.978,40.978,0,0,0-.945,6.615.586.586,0,0,1-.205.416c-.78.741-1.558,1.484-2.323,2.241-.167.165-.239.12-.371-.029-.788-.884-1.527-1.807-2.235-2.755m4.962,2.305v3.172l-.13.1c-.463-.5-.922-1.012-1.39-1.511-.108-.115-.153-.184-.02-.324.482-.5.948-1.018,1.42-1.529l.119.09m.983,12.295A17.765,17.765,0,0,1,5.113,31.62c-.107.008-.215,0-.323,0a3.94,3.94,0,0,1-1.47-.192A2.038,2.038,0,0,1,2,28.936a10.7,10.7,0,0,1,1.509-3.791A29.969,29.969,0,0,1,6.965,20.5c.145-.164.222-.166.371-.011q1.115,1.167,2.323,2.237a.6.6,0,0,1,.2.459,41.944,41.944,0,0,0,.93,6.533c.034.155.073.267-.124.35M21.651,9.57a46.626,46.626,0,0,1,.729,4.773c.006.062,0,.125,0,.252-1.427-1.167-2.845-2.244-4.319-3.234-.015-.12.079-.137.139-.175q1.507-.932,3.088-1.733c.165-.084.3-.183.362.116M12.4,7.833a16.024,16.024,0,0,1,2.285-5.159A4.093,4.093,0,0,1,15.818,1.6a1.982,1.982,0,0,1,.973-.314,2.4,2.4,0,0,1,1.661.827,8.519,8.519,0,0,1,1.631,2.524,21.681,21.681,0,0,1,1.116,3.1c.068.237.014.324-.192.426a37.92,37.92,0,0,0-3.928,2.208.4.4,0,0,1-.507.012,39.731,39.731,0,0,0-3.961-2.231c-.129-.064-.274-.1-.211-.314m-.47,2.017a.96.96,0,0,0,.035-.157c.011-.317.118-.38.417-.223,1.011.531,2.011,1.081,2.983,1.68.078.048.147.109.238.177a53.1,53.1,0,0,0-4.382,3.293,39.481,39.481,0,0,1,.71-4.77m.047,19.337a42.422,42.422,0,0,1-.755-5.072c1.454,1.19,2.875,2.264,4.41,3.3-.408.244-.777.477-1.157.689-.726.4-1.46.8-2.189,1.195-.149.081-.26.133-.309-.109m1.569,7.6a1.291,1.291,0,1,1,1.331-1.268,1.292,1.292,0,0,1-1.331,1.268m7.683-5.9a16.059,16.059,0,0,1-2.288,5.16,4.073,4.073,0,0,1-1.166,1.1,1.774,1.774,0,0,1-1.8.062c-.249-.121-.281-.217-.141-.475a2.578,2.578,0,0,0-2.389-3.816c-.322.125-.445-.077-.531-.393-.144-.53-.311-1.055-.49-1.575-.069-.2-.011-.287.164-.372a38.092,38.092,0,0,0,4-2.247.377.377,0,0,1,.472.006,40.28,40.28,0,0,0,3.963,2.232c.129.064.273.1.21.316m.887-4.413c-.135.887-.308,1.769-.47,2.652-.025.136-.02.319-.265.194-1.145-.584-2.27-1.2-3.4-1.918A54.224,54.224,0,0,0,22.4,24.09c-.1.864-.171,1.629-.287,2.388m.444-4.5a.672.672,0,0,1-.253.511A57.128,57.128,0,0,1,17.059,26.5a.367.367,0,0,1-.495-.009,59.79,59.79,0,0,1-5.288-4.026.59.59,0,0,1-.221-.441c-.07-.886-.043-1.773-.069-2.66.026-.886,0-1.774.069-2.66a.594.594,0,0,1,.219-.443,54.792,54.792,0,0,1,5.288-4.026.37.37,0,0,1,.5-.012,56.222,56.222,0,0,1,5.308,4.066.479.479,0,0,1,.188.373,49.133,49.133,0,0,1,.009,5.319m9.745-8.422a1.289,1.289,0,1,1-1.274-1.3,1.3,1.3,0,0,1,1.274,1.3M31.144,27.174a5.8,5.8,0,0,1,.52,2.382,1.889,1.889,0,0,1-1.444,1.9,4.166,4.166,0,0,1-1.356.17,14.16,14.16,0,0,1-4.534-1.02c-.44-.163-.87-.353-1.308-.521-.174-.067-.239-.14-.192-.354a41.11,41.11,0,0,0,.942-6.572.585.585,0,0,1,.183-.427q1.185-1.124,2.353-2.265c.14-.138.212-.144.345.008a24.7,24.7,0,0,1,4.491,6.695m-7.215-6.133V17.809l.113-.084c.483.515.964,1.032,1.449,1.545.082.087.083.149,0,.233-.5.493-1,.989-1.56,1.539m2.785-2.856c-.158.18-.242.223-.429.028a31,31,0,0,0-2.266-2.178.855.855,0,0,1-.245-.69,42.6,42.6,0,0,0-.825-5.9c-.149-.718-.15-.723.538-1a17.133,17.133,0,0,1,4.592-1.3c.267-.03.535-.044.8-.065a7.168,7.168,0,0,1,.844.074,2.088,2.088,0,0,1,1.9,2.706c-.016.093-.025.187-.048.278a2.869,2.869,0,0,1-.209.731c-.145.252-.441.076-.667.111a2.585,2.585,0,0,0-1.8,4,.371.371,0,0,1-.011.515q-1.037,1.39-2.181,2.693" transform="translate(0 0)"/><path d="M51.981,140.894a1.291,1.291,0,1,0,1.25,1.311,1.287,1.287,0,0,0-1.25-1.311" transform="translate(-38.353 -106.683)" fill="#61c2b5"/><path d="M6.782,50.492A1.287,1.287,0,0,0,5.453,51.76a1.29,1.29,0,1,0,2.579.04,1.287,1.287,0,0,0-1.25-1.308" transform="translate(-4.129 -38.232)" fill="#61c2b5"/><path d="M122.434,51.756a1.289,1.289,0,1,0,1.3-1.262,1.291,1.291,0,0,0-1.3,1.262" transform="translate(-92.706 -38.233)" fill="#fc9367"/><path d="M59.172,66.447a3.227,3.227,0,1,0,3.248,3.247,3.231,3.231,0,0,0-3.248-3.247m.037,5.163a1.935,1.935,0,1,1,1.919-1.93,1.949,1.949,0,0,1-1.919,1.93" transform="translate(-42.377 -50.313)"/><path d="M63.209,71.771a1.935,1.935,0,1,0,1.95,1.94,1.949,1.949,0,0,0-1.95-1.94" transform="translate(-46.408 -54.344)" fill="#fc9367"/></g></g><g transform="translate(1143.981 4040.999)"><g transform="translate(0 0)" clip-path="url(#b)"><path d="M26.353,11.145a.571.571,0,0,1,.619-.41c.641,0,1.281-.007,1.921,0a1.85,1.85,0,1,1,0,3.7c-.329,0-.42.081-.394.4.031.391.01.786.007,1.179a.571.571,0,0,1-.388.6c-.509.114-.733-.112-.763-.766-.01-.168,0-.337,0-.506-.011-.885.11-.8-.786-.8q-2.582,0-5.164,0c-.225,0-.45,0-.675,0-.371.005-.4.031-.4.409,0,1.417-.015,2.835.006,4.252a1.006,1.006,0,0,1-.641,1.027,9.526,9.526,0,0,0-4.113,3.827.808.808,0,0,0,.012,1.015c.081.1.1.248.264.354a5.9,5.9,0,0,1,.647-1.262,7.8,7.8,0,0,1,1.076-1.381,1.273,1.273,0,0,1,.987-.41c3.622.022,7.244.006,10.866.012a.892.892,0,0,1,.665.351,8.751,8.751,0,0,1,2.448,5.732,8.433,8.433,0,0,1-1.794,5.662,8.552,8.552,0,0,1-5.844,3.34,8.319,8.319,0,0,1-3.305-.231c-.371-.1-.379-.1-.556.275-.2.391-.2.39.229.518a2.009,2.009,0,0,0,.415.1,9.305,9.305,0,0,0,6.729-.919A9.415,9.415,0,0,0,32.8,32.191a9.464,9.464,0,0,0-.611-8.041,9.367,9.367,0,0,0-4.163-3.908,1.039,1.039,0,0,1-.667-1.093,9.639,9.639,0,0,1,.024-.977.561.561,0,1,1,1.115.113c-.115.7.209,1.028.8,1.382a10.266,10.266,0,0,1,5.132,7.752,10.209,10.209,0,0,1-2.559,8.431,10.445,10.445,0,0,1-8.8,3.626,9.617,9.617,0,0,1-2.854-.613.445.445,0,0,0-.467.042,3.26,3.26,0,0,1-1.931.6c-1.136.006-2.272,0-3.409,0a.557.557,0,0,1-.609-.418.485.485,0,0,1,.37-.66,1.468,1.468,0,0,1,.436-.037c1.058,0,2.115,0,3.173,0a2.346,2.346,0,0,0,2.1-3.444c-.378-.717-.8-1.408-1.207-2.109Q16,28.223,13.334,23.6a1.1,1.1,0,0,1-.143-.341c-.033-1.631,0-3.262-.018-4.893,0-.519,0-.52-.524-.52H8.6c-.5,0-.5.005-.5.514,0,1.451-.01,2.9.006,4.353A2.106,2.106,0,0,1,7.8,23.836c-1.451,2.487-2.885,4.984-4.324,7.478-.68,1.179-1.371,2.351-2.041,3.535a2.335,2.335,0,0,0,2.008,3.533c1.069.018,2.137.008,3.206,0,1.789-.015,3.578,0,5.367-.005a1.453,1.453,0,0,1,.235.016.542.542,0,0,1,.491.765.613.613,0,0,1-.63.351c-2.88,0-5.761.008-8.641-.007A3.328,3.328,0,0,1,.14,37.05a3.678,3.678,0,0,1,.4-2.919c2.106-3.6,4.181-7.228,6.272-10.841a1.191,1.191,0,0,0,.175-.632c-.009-1.53-.011-3.06,0-4.59,0-.261-.062-.33-.33-.336a1.852,1.852,0,1,1,.018-3.7c2.43.007,4.86,0,7.291,0,.281,0,.563-.006.843.008a1.839,1.839,0,0,1,.16,3.658c-.056.007-.111.017-.167.024-.52.063-.52.063-.52.608,0,1.417.01,2.835-.007,4.252a1.3,1.3,0,0,0,.32.914,11.35,11.35,0,0,1,1.58-2.087,10.373,10.373,0,0,1,2.773-2.061.411.411,0,0,0,.271-.43q-.022-2.092,0-4.185c0-.231-.048-.295-.289-.3a1.85,1.85,0,1,1,.014-3.7c1.912-.01,3.825,0,5.738,0a.575.575,0,0,1,.621.41c.113.387-.008.568-.462.691-1.844.008-3.688.005-5.532.016a1.791,1.791,0,0,0-.633.073.694.694,0,0,0-.011,1.325,1.423,1.423,0,0,0,.531.078c3.182.018,6.364.011,9.546.011a.84.84,0,0,0,.332-.041c.458-.195.628-.444.565-.834a.791.791,0,0,0-.818-.615c-.549-.025-1.1-.005-1.648-.009a2.417,2.417,0,0,1-.4-.017.477.477,0,0,1-.411-.68" transform="translate(0 -6.012)"/><path d="M52.876,24.072c-.427.052-.571.2-.582.628-.009.348.009.7,0,1.046a.7.7,0,0,0,.463.736,9.12,9.12,0,0,1,3.919,3.355A9.347,9.347,0,0,1,56.983,40.1a9.229,9.229,0,0,1-6.533,4.609,8.684,8.684,0,0,1-3.978-.1c-.267-.183-.593-.307-.687-.668.174-.52.169-.5.695-.377a8.41,8.41,0,0,0,8.513-2.488A8.224,8.224,0,0,0,57.256,34.4a8.5,8.5,0,0,0-2.545-5.328.634.634,0,0,0-.415-.2,1.154,1.154,0,0,0-.369-.02H44.715c-.427,0-.463-.052-.28-.438a7.451,7.451,0,0,1,1.653-2.322.641.641,0,0,0,.212-.509c0-.439,0-.877,0-1.316a1.923,1.923,0,0,1,1.781-2.047,4.794,4.794,0,0,1,.705-.053c1,0,2,0,3,0a.638.638,0,0,1,.481.105c.075.635.174.745.673.751a1.261,1.261,0,0,0-.067,1.051" transform="translate(-24.828 -12.413)" fill="#c8fef6"/><path d="M20.621,49.509c.012-.509-.151-.674-.676-.675l-5.475-.012a1.066,1.066,0,0,1-.367-1.048,1.318,1.318,0,0,1,.533-.049q5.279,0,10.557,0a3.42,3.42,0,0,0,.8-.074,1.28,1.28,0,0,0,.912-1.707,6.128,6.128,0,0,0-.494-.92c-1.387-2.379-2.752-4.772-4.134-7.154-.051-.088-.108-.172-.151-.263a.843.843,0,0,0-.87-.5c-1.54.015-3.08.008-4.621,0-.175,0-.365.042-.51-.109a1.219,1.219,0,0,1,.1-.657c.221-.848.448-1.695.665-2.544A3.509,3.509,0,0,0,17,32.9c0-.787-.007-1.574,0-2.36a1.233,1.233,0,0,1,1.329-1.324c.764-.007,1.528,0,2.293,0,.483,0,.495.018.5.484q0,1.786,0,3.574a.836.836,0,0,0,.027.366q3.294,5.71,6.588,11.421a2.438,2.438,0,0,1-2.088,3.769q-1.652,0-3.3,0c-.471,0-.628.15-.659.608a1.2,1.2,0,0,0-1.061.067" transform="translate(-7.883 -16.363)" fill="#e5e5e5"/><path d="M52.548,11.669c.019.461.172.612.639.616.639,0,1.278-.008,1.916,0a.832.832,0,0,1,.848.709.794.794,0,0,1-.62.9.843.843,0,0,1-.333.024q-3.775,0-7.549,0c-.469,0-.608-.126-.665-.6a1.77,1.77,0,0,1,0-.437c.059-.455.2-.58.65-.58q1.651,0,3.3,0a.8.8,0,0,0,.333-.025.522.522,0,0,0,.422-.611,1.949,1.949,0,0,0,1.055,0" transform="translate(-26.195 -6.536)" fill="#c8fef6"/><path d="M20.844,12.233a.51.51,0,0,1-.5-.524.521.521,0,0,1,.537-.492.506.506,0,0,1,.477.511.5.5,0,0,1-.514.5" transform="translate(-11.394 -6.282)" fill="#020202"/><path d="M23.494.5a.507.507,0,0,1-.508.514.5.5,0,0,1-.506-.477A.511.511,0,0,1,22.964,0a.531.531,0,0,1,.53.5" transform="translate(-12.59 0)" fill="#020202"/><path d="M25.5,7.786A.505.505,0,0,1,25,7.27a.534.534,0,0,1,.5-.5.526.526,0,0,1,.52.509.51.51,0,0,1-.514.507" transform="translate(-14.001 -3.792)" fill="#020202"/><path d="M42.182,39.749c.123,0,.247-.013.37-.013q4.74,0,9.48-.006a.66.66,0,0,1,.55.234,7.6,7.6,0,0,1-3.36,12.349,7.485,7.485,0,0,1-4.608-.023c-.159-.05-.245-.122-.253-.3a3.506,3.506,0,0,0-.541-1.61q-1.132-1.952-2.254-3.909c-.073-.126-.133-.259-.2-.388a3.18,3.18,0,0,1-.072-1.293,1.218,1.218,0,0,0,.055-.4c0-.114,0-.229,0-.344,0-.154,0-.307,0-.46a13.948,13.948,0,0,1,.664-3.6.311.311,0,0,1,.172-.235" transform="translate(-23.111 -22.251)" fill="#f6d260"/><path d="M14.534,32.2c-.109-.114-.064-.256-.065-.386,0-1.2-.008-2.407,0-3.61,0-.242-.053-.336-.316-.331-.854.016-1.709,0-2.564.007A1.092,1.092,0,0,0,10.49,29a8.661,8.661,0,0,0,0,.944,12.924,12.924,0,0,1-.735,4.819c-.076.269-.143.541-.213.812-.128.131-.3.1-.446.089a.81.81,0,0,0-.82.466q-1.747,3.057-3.516,6.1c-.394.681-.8,1.352-1.168,2.049A1.312,1.312,0,0,0,4.071,46.1a1.744,1.744,0,0,0,.879.192c.7,0,1.393,0,2.09,0,.142,0,.3-.033.412.092a6.877,6.877,0,0,0,.406,1c-1.1,0-2.205.04-3.306,0a2.4,2.4,0,0,1-2-3.523c.791-1.473,1.659-2.906,2.494-4.355q2.011-3.486,4.028-6.97a1.383,1.383,0,0,0,.2-.731c-.008-1.62,0-3.24-.01-4.86,0-.238.064-.3.3-.294q2.328.016,4.657,0c.267,0,.308.089.308.328-.007,1.743,0,3.487,0,5.23" transform="translate(-1.272 -14.923)" fill="#cbcbcb"/><path d="M46.818,20.586c-1.248,0-2.5-.006-3.743.008a2.115,2.115,0,0,0-1.553.52,1.836,1.836,0,0,0-.569,1.324c-.01.528-.007,1.057,0,1.585a.447.447,0,0,1-.158.385,7.406,7.406,0,0,0-1.754,2.4c-.133.262-.1.332.2.331q4.6-.013,9.206,0c.131,0,.271-.044.392.047-.168.005-.337.015-.5.015q-5.229,0-10.459-.015a1.035,1.035,0,0,0-.827.349,8.776,8.776,0,0,0-1.714,2.563c-.035.081-.079.157-.143.286-.2-.348-.383-.662-.568-.971-.072-.119-.014-.211.039-.312a9.258,9.258,0,0,1,4.171-4.124,1.172,1.172,0,0,0,.786-1.256c-.054-1.415-.009-2.834-.023-4.25,0-.26.075-.313.321-.312q3.306.015,6.612,0c.261,0,.327.074.31.321-.026.369-.018.74-.026,1.11" transform="translate(-19.375 -10.728)" fill="#72cdbf"/><path d="M25.547,20.655a.771.771,0,0,1,.608.868.8.8,0,0,1-.806.708c-1.055.012-2.109.009-3.164.005-.953,0-1.906-.014-2.859-.021a1.271,1.271,0,0,1-.2-1.346.438.438,0,0,1,.468-.245c1.28.005,2.56,0,3.84,0,.706,0,1.412-.038,2.117.026" transform="translate(-10.649 -11.548)" fill="#e5e5e5"/><path d="M39.327,44.716q-.007.679-.015,1.359-.84-1.431-1.682-2.86a.286.286,0,0,1-.012-.253A7.694,7.694,0,0,1,39.4,39.843c.213-.228.483-.084.727-.1a14.467,14.467,0,0,0-.743,3.832,1.524,1.524,0,0,0-.032.481v.332a.949.949,0,0,1-.026.332" transform="translate(-21.055 -22.241)" fill="#e48d13"/><path d="M47.85,13.051c-.105.1-.235.057-.355.058-1.1,0-2.2.012-3.3-.006a.432.432,0,0,0-.486.351,1.558,1.558,0,0,0,0,.861.451.451,0,0,0,.518.354c2.585-.014,5.17-.01,7.754-.01.045,0,.089.007.134.011a.593.593,0,0,1-.392.055q-4.84,0-9.681-.011a.908.908,0,0,1-.993-.634.839.839,0,0,1,.87-1.022c.7-.015,1.394-.013,2.091-.014q1.922,0,3.845,0" transform="translate(-22.974 -7.307)" fill="#71cdbf"/><path d="M22.185,20.615c-1.957,0-3.914.009-5.87-.005a.455.455,0,0,0-.515.4,1.722,1.722,0,0,0,.165,1.168c-.719.006-1.438.025-2.157.011a.816.816,0,0,1-.8-.8.845.845,0,0,1,.817-.825c.776-.015,1.552-.009,2.328-.009q2.818,0,5.636,0a.612.612,0,0,1,.392.065" transform="translate(-7.288 -11.508)" fill="#cbcbcb"/><path d="M47.377,71.654l.687.669a4.082,4.082,0,0,1-.774-.2c-.114-.025-.15-.085-.085-.191s.115-.188.172-.282" transform="translate(-26.419 -40.131)" fill="#71c9bb"/><path d="M8.779,57.753c-.877-.005-1.753,0-2.63-.018a1.408,1.408,0,0,1-1.491-1.653,1.669,1.669,0,0,1,.238-.589q2.346-4.069,4.692-8.138a.71.71,0,0,1,.712-.4c.19.01.381-.007.572-.012,1.72,0,3.44.021,5.16.007a.9.9,0,0,1,.89.509c1.53,2.68,3.079,5.347,4.618,8.021a1.409,1.409,0,0,1-.362,2.02,1.728,1.728,0,0,1-1,.238H9.149c-.123,0-.246.01-.37.015" transform="translate(-2.598 -26.291)"/><path d="M58.8,47.969a.508.508,0,0,1-1.015.036.508.508,0,1,1,1.015-.036" transform="translate(-32.361 -26.586)" fill="#020201"/><path d="M44.528,50.807a.51.51,0,0,1-.522.5.519.519,0,0,1-.492-.536.5.5,0,0,1,.508-.477.5.5,0,0,1,.506.51" transform="translate(-24.37 -28.17)" fill="#020201"/><path d="M49.409,60.119a.5.5,0,0,1,.5.521.514.514,0,0,1-.531.492.527.527,0,0,1-.484-.51.508.508,0,0,1,.518-.5" transform="translate(-27.382 -33.67)" fill="#020201"/><path d="M64.649,51.29a.521.521,0,0,1,.52.5.5.5,0,0,1-.474.508.487.487,0,0,1-.534-.476.517.517,0,0,1,.488-.536" transform="translate(-35.934 -28.726)" fill="#020101"/><path d="M63.818,44.52a.526.526,0,0,1-.492-.537.521.521,0,0,1,.509-.482.509.509,0,1,1-.018,1.018" transform="translate(-35.466 -24.364)" fill="#020101"/><path d="M41.519,48.96c.009-.16-.055-.329.057-.476,0,.157,0,.315,0,.473-.018.031-.037.032-.058,0" transform="translate(-23.248 -27.154)" fill="#c5b058"/><path d="M41.532,49.562l.058,0c0,.112,0,.225,0,.337-.018.031-.038.033-.058,0,0-.112,0-.223,0-.335" transform="translate(-23.261 -27.756)" fill="#c6c16e"/><path d="M41.533,50.326h.058c-.012.113.044.238-.058.335,0-.111,0-.222,0-.333" transform="translate(-23.261 -28.185)" fill="#d9cc6e"/><path d="M20.965,49.352c.084.03.1.111.142.178q2.256,3.905,4.51,7.812c.217.377.167.536-.194.667a.839.839,0,0,1-.334.024q-5.57,0-11.139,0c-.416,0-.436-.022-.454-.428a5.258,5.258,0,0,1,.192-1.569q.812-3.1,1.626-6.2c.132-.506.13-.507.659-.507q2.312,0,4.625,0a.923.923,0,0,1,.367.025" transform="translate(-7.557 -27.623)" fill="#fb5f61"/><path d="M17.313,49.336c-1.688,0-3.375.015-5.063,0a.386.386,0,0,0-.455.349c-.553,2.147-1.128,4.289-1.682,6.435a5.68,5.68,0,0,0-.173,1.5c0,.272.066.369.355.364,1.035-.017,2.07-.007,3.106-.007h7.966c.135,0,.269.007.4.011a.628.628,0,0,1-.362.039q-6.88,0-13.76,0c-.079,0-.157,0-.236,0-.411-.035-.554-.29-.35-.649.472-.83.953-1.655,1.43-2.481q1.533-2.655,3.063-5.311a.455.455,0,0,1,.436-.29c1.72.008,3.44,0,5.16.006a.7.7,0,0,1,.159.037" transform="translate(-3.904 -27.607)" fill="#e73842"/><path d="M21.37,54.539a.493.493,0,0,1-.524.491.509.509,0,0,1-.489-.5.524.524,0,0,1,.516-.513.5.5,0,0,1,.5.522" transform="translate(-11.401 -30.253)" fill="#020101"/><path d="M18.327,62.071a.485.485,0,0,1-.5.515.524.524,0,0,1-.521-.5.543.543,0,0,1,.492-.508.515.515,0,0,1,.525.5" transform="translate(-9.695 -34.485)" fill="#030101"/><path d="M26.02,59.193a.5.5,0,0,1,.517.5.539.539,0,0,1-.487.508.519.519,0,0,1-.526-.5.48.48,0,0,1,.5-.51" transform="translate(-14.295 -33.152)" fill="#030101"/></g></g></g></g></svg>