<svg xmlns="http://www.w3.org/2000/svg" xmlns:xlink="http://www.w3.org/1999/xlink" width="86" height="86" viewBox="0 0 86 86"><defs><clipPath id="a"><rect width="65.958" height="65.978" fill="none"/></clipPath></defs><g transform="translate(-916 -4372)"><rect width="86" height="86" transform="translate(916 4372)" fill="none"/><g transform="translate(926 4382)"><g clip-path="url(#a)"><path d="M34.169,18.083a13.741,13.741,0,0,1,10.676-7.314c6.979-.951,13.927,4.04,15.4,11.7a14.424,14.424,0,0,1-.109,6.194c-.124.51.162.583.5.719A8.465,8.465,0,0,1,65.949,37.9a8.342,8.342,0,0,1-5.957,7.511,8.82,8.82,0,0,1-2.556.341q-17.016-.008-34.031,0a8.386,8.386,0,0,1-8.079-11.135c.067-.207.137-.412.208-.625A17.028,17.028,0,1,1,34.021,17.819c-.029.132-.146.314.148.264" transform="translate(0 0)"/><path d="M72.329,158.842a2.982,2.982,0,0,1-3.158-2.236,2.853,2.853,0,0,1,1.518-3.345c1.449-.649,2.941-1.2,4.416-1.791a.971.971,0,0,1,1.1.232.992.992,0,0,1,.248,1.155c-.576,1.433-1.118,2.881-1.737,4.3a2.682,2.682,0,0,1-2.387,1.689" transform="translate(-46.748 -102.452)"/><path d="M111.529,158.848a2.954,2.954,0,0,1-1.263-5.628c1.416-.616,2.864-1.157,4.3-1.733a.992.992,0,0,1,1.154.248.973.973,0,0,1,.231,1.1c-.591,1.474-1.153,2.962-1.793,4.415a2.763,2.763,0,0,1-2.626,1.6" transform="translate(-73.468 -102.458)"/><path d="M151.4,155.594a2.718,2.718,0,0,1,1.745-2.4c1.377-.594,2.786-1.113,4.177-1.678a1.026,1.026,0,0,1,1.217.23,1.01,1.01,0,0,1,.208,1.164c-.572,1.411-1.1,2.84-1.708,4.236a2.9,2.9,0,0,1-3.349,1.65,2.983,2.983,0,0,1-2.289-3.2" transform="translate(-102.457 -102.468)"/><path d="M85.16,188.454a2.954,2.954,0,0,1-1.352-5.56c1.465-.665,2.98-1.221,4.476-1.817a1.058,1.058,0,0,1,1.348,1.347c-.6,1.5-1.164,3.006-1.818,4.476a2.77,2.77,0,0,1-2.654,1.554" transform="translate(-55.656 -122.491)"/><path d="M121.784,185.2a2.73,2.73,0,0,1,1.76-2.4c1.358-.584,2.745-1.1,4.114-1.656a1.08,1.08,0,0,1,1.445,1.461c-.558,1.369-1.073,2.756-1.658,4.114a2.922,2.922,0,0,1-3.391,1.685,2.974,2.974,0,0,1-2.27-3.208" transform="translate(-82.416 -122.515)"/><path d="M105.156,55.389c0,.133-.125.247-.184.192-.14-.133-.072-.309.036-.456.061.082-.013.239.148.264" transform="translate(-70.986 -37.305)" fill="#5e5e5e"/><path d="M92.163,47.345A12.715,12.715,0,0,1,93.511,57.5c-.016.064-.035.128-.053.191-.389,1.336-.258,1.587,1.061,2.034.059.067.13.144.114.23-.1.539.237.657.659.769a7.356,7.356,0,0,1,2.62,1.361,9.669,9.669,0,0,1,.76.817A6.309,6.309,0,0,1,93.2,72.219c-6.2.021-12.4.005-18.6.005-5.226,0-10.452-.009-15.678,0a6.32,6.32,0,0,1-5.739-9.019.806.806,0,0,1,.118-.157,5.509,5.509,0,0,1,2.476-1.94c.617-.254,1.154-.514,1.241-1.257,1-.427,1.09-.554,1.06-1.693a7.719,7.719,0,0,1,1.055-4.423,9.061,9.061,0,0,1,7.584-3.5,5.46,5.46,0,0,1,1.18.161c.152.035.383.04.309.316-.073.923-.294,1.828-.294,2.761,0,.36.066.525.466.5.505-.037,1.105.146,1.5-.07.419-.23.147-.885.213-1.349a12.659,12.659,0,0,1,1.773-5.209A12.654,12.654,0,0,1,88.88,44.32a10.6,10.6,0,0,1,3.283,3.024" transform="translate(-35.608 -28.6)" fill="#c3e1fe"/><path d="M22.852,31.7c1.063-.057,1.063-.057,1.063-1.153,0-.963,0-.963-1.063-1.02-.149-.175-.081-.377-.062-.568a11.376,11.376,0,0,1,1.243-4.07c.118-.231.2-.558.573-.537a1.035,1.035,0,0,1,.111.067c.343.269.67.94.955.808a5.563,5.563,0,0,0,1.35-1.251c.177-.177-.01-.274-.108-.376-.309-.318-.617-.637-.942-.938-.205-.191-.242-.314.015-.507a10.594,10.594,0,0,1,4.964-2.067c.313-.044.469,0,.41.346a.553.553,0,0,0,0,.133c.038.5-.223,1.261.106,1.441.463.253,1.157.077,1.751.1.262.01.275-.141.272-.336a8.049,8.049,0,0,0-.01-1c-.092-.631.15-.776.741-.658A11.247,11.247,0,0,1,38.8,22.109c.294.219.334.374.032.588a.357.357,0,0,0-.047.047c-1.19,1.23-1.177,1.326.2,2.407.187.148.284.141.433-.017.274-.29.577-.553.839-.852s.436-.389.728.022a10.691,10.691,0,0,1,2.007,5.249,12.793,12.793,0,0,1-1.344-.009c-.558-.06-.754.084-.731.7.055,1.433.016,1.427,1.441,1.448.2,0,.576-.162.589.159.014.351.116.827-.412,1.009a8.473,8.473,0,0,0-1.889.954A10.289,10.289,0,0,0,36.153,40a1.039,1.039,0,0,1-.9.87c-.54.117-1.2.475-1.6.243-.44-.255-.134-.994-.154-1.517-.014-.375-.11-.5-.485-.472-.527.038-1.211-.166-1.542.1-.352.279-.112.994-.1,1.515.008.409-.125.461-.488.406a10.7,10.7,0,0,1-4.844-2.022c-.314-.232-.288-.384-.018-.591a.935.935,0,0,0,.141-.141c.3-.352.987-.711.867-1-.223-.531-.8-.912-1.229-1.357-.175-.182-.271-.019-.379.081-.274.254-.546.512-.818.768-.23.062-.318-.115-.4-.261a10.8,10.8,0,0,1-1.442-4.609.389.389,0,0,1,.088-.306" transform="translate(-15.401 -13.586)" fill="#d3f9ee"/><path d="M23.781,33.995a8.159,8.159,0,0,0-2.254,1.837.8.8,0,0,1-.758.278,14.939,14.939,0,1,1,15.4-17.684,16.215,16.215,0,0,1,.211,3.9c-.028.394-.142.591-.6.525-.5-.071-1.186.144-1.465-.115-.243-.226-.025-.94-.022-1.438A12.8,12.8,0,1,0,22.173,33.986c.486-.022.969-.093,1.454-.141.147-.048.178.024.154.15" transform="translate(-4.501 -4.207)" fill="#25e0ac"/><path d="M132.453,45.444c-.712-.648-1.321-1.4-2.1-1.99a13.321,13.321,0,0,0-6.61-2.786c-4.4-.513-7.975,1.1-11.01,4.177-.2.2-.248.54-.585.6a11.625,11.625,0,0,1,19.943-.627c.137.2.239.419.358.63" transform="translate(-75.898 -26.699)" fill="#b2d9fd"/><path d="M81.847,65.51a6.433,6.433,0,0,0-3.74-.095,9.406,9.406,0,0,0-4.83,2.7,6.239,6.239,0,0,1-.5.422,8.206,8.206,0,0,1,8.9-4.207c.379.1.53.245.363.628-.078.179-.127.37-.188.555" transform="translate(-49.249 -43.396)" fill="#b2d9fc"/><path d="M22.735,32.509a9.811,9.811,0,0,0-1.61,4.4c-.04.26-.091.517-.144.774h-.988a10.169,10.169,0,0,1,2.135-5.378c.348-.451.425.069.608.2" transform="translate(-13.529 -21.741)" fill="#d4dbe9"/><path d="M20.975,55.981c.133.709.23,1.427.408,2.123a8.653,8.653,0,0,0,1.346,3.053c-.262.493-.483.418-.779,0a10.61,10.61,0,0,1-1.966-5.14,2.677,2.677,0,0,1,.991-.034" transform="translate(-13.524 -37.865)" fill="#d4dce9"/><path d="M186.2,99.474a9.675,9.675,0,0,0-3.169-1.949.78.78,0,0,0-.191-.051c-.819-.02-1.031-.446-.794-1.177a5.809,5.809,0,0,1,4.153,3.177" transform="translate(-123.138 -65.168)" fill="#b1d8fc"/><path d="M58.449,96.681c.1.681-.11,1.051-.846,1.265a8.044,8.044,0,0,0-2.871,1.933,5.636,5.636,0,0,1,3.717-3.2" transform="translate(-37.04 -65.428)" fill="#b2d8fc"/><path d="M59.32,91.6l-.154-.15a.494.494,0,0,1,.5-.08c-.055.174-.2.2-.344.23" transform="translate(-40.04 -61.81)" fill="#6f7a8c"/><path d="M76.556,163.253a.775.775,0,0,1-.856-.579.75.75,0,0,1,.32-.93c.508-.258,1.053-.447,1.582-.663.2-.08.334,0,.255.2a8.693,8.693,0,0,1-.73,1.694.649.649,0,0,1-.572.281" transform="translate(-51.202 -108.989)" fill="#c1dffc"/><path d="M116,163.262a.743.743,0,0,1-.811-.546.77.77,0,0,1,.339-.982c.489-.248,1.016-.422,1.525-.632.176-.073.371-.038.294.156a6.448,6.448,0,0,1-.805,1.8.635.635,0,0,1-.541.2" transform="translate(-77.922 -109.001)" fill="#c1dffc"/><path d="M158.811,163.252a.765.765,0,0,1-.84-.569.748.748,0,0,1,.31-.933c.507-.261,1.053-.446,1.58-.667.2-.083.344-.006.267.187a7.365,7.365,0,0,1-.769,1.746.63.63,0,0,1-.548.237" transform="translate(-106.875 -108.989)" fill="#c1dffc"/><path d="M89.819,192.887c-.588-.025-.865-.223-.953-.613a.777.777,0,0,1,.4-.957c.477-.225.979-.4,1.469-.6.218-.089.375-.039.283.208a17.262,17.262,0,0,1-.7,1.637.6.6,0,0,1-.5.322" transform="translate(-60.118 -129.04)" fill="#c1dffc"/><path d="M129.163,193a.759.759,0,0,1-.8-.537.808.808,0,0,1,.221-.91.94.94,0,0,1,.343-.188c.53-.15.973-.579,1.576-.494a6.265,6.265,0,0,1-.658,1.762.673.673,0,0,1-.681.367" transform="translate(-86.833 -129.163)" fill="#c1dffc"/><path d="M125.586,47.4a1.425,1.425,0,0,0,0,.265c.129.664-.158.808-.8.873a8.443,8.443,0,0,0-7.177,5.148c-.2.429-.352.6-.8.353a5.288,5.288,0,0,0-.685-.243c-.858-.33-.865-.132-.448-1.012a10.653,10.653,0,0,1,8.823-6.373c1.084-.132,1.089-.087,1.089.989" transform="translate(-78.099 -31.375)"/><path d="M37.007,40.4a.807.807,0,0,1,.039-.361c.4-.764.018-1.234-.531-1.725-.725-.647-1.378-1.374-2.078-2.049-.234-.226-.278-.359-.024-.628,1.177-1.244,1.167-1.254,2.361-.059.579.579,1.164,1.151,1.733,1.738a.554.554,0,0,0,.679.188,3.161,3.161,0,0,1,4.006,4.027c-.18.5.171.658.407.851.478.393.58.723.011,1.1a1.3,1.3,0,0,0-.188.186c-.758.767-.78.788-1.544.011-.29-.295-.517-.2-.818-.115A3.19,3.19,0,0,1,37.007,40.4" transform="translate(-23.172 -23.478)"/><path d="M50.438,49.4a1.062,1.062,0,1,1-1.054,1.05,1.07,1.07,0,0,1,1.054-1.05" transform="translate(-33.42 -33.428)" fill="#b7c2d6"/></g></g></g></svg>