<svg xmlns="http://www.w3.org/2000/svg" xmlns:xlink="http://www.w3.org/1999/xlink" width="127.999" height="136.843" viewBox="0 0 127.999 136.843"><defs><clipPath id="a"><rect width="127.999" height="136.843" fill="none"/></clipPath></defs><g clip-path="url(#a)"><path d="M69.55,150.214c-1.456-.61-3.029-.513-4.543-.758a63.163,63.163,0,0,1-28.944-12.584,6.484,6.484,0,0,1-.56-.546c.7-.642,1.568-.433,2.371-.434q27.272-.019,54.545-.009c4.393,0,8.786.009,13.18,0,2.455-.007,2.669-.277,2.731-2.739.052-2.037-.259-4.089.213-6.111.429-.719,1.144-.723,1.836-.738,1.774-.035,3.549.014,5.323-.023,1.51-.031,1.738-.257,1.767-1.781.035-1.815,0-3.631.015-5.446a3.36,3.36,0,0,1,.3-1.808,2.3,2.3,0,0,1,1.934-.585c1.61-.028,3.22-.014,4.83-.011a1.321,1.321,0,0,0,1.521-1.525c0-.578.011-1.157.011-1.736q0-31.984,0-63.967a13.126,13.126,0,0,1,.045-1.867c.058-.406.006-.934.626-.988a64.473,64.473,0,0,1,11.518,30.212c2.03,18.052-2.362,34.348-13.371,48.6a62.246,62.246,0,0,1-38.945,23.822,51.408,51.408,0,0,1-5.682.769c-.211.016-.441-.006-.537.259H77.127a1.954,1.954,0,0,0-1.568,0H73.992a2.614,2.614,0,0,0-1.829,0Z" transform="translate(-10.756 -13.37)" fill="#25e0ac"/><path d="M88.1,191.854a1.479,1.479,0,0,1,1.829,0Z" transform="translate(-26.69 -55.011)" fill="#5f75ad"/><path d="M92.97,191.859a1.16,1.16,0,0,1,1.568,0Z" transform="translate(-28.167 -55.016)" fill="#5f75ad"/><path d="M131.148,33.184c-.365.476-.175,1.03-.175,1.542q-.017,33.247-.01,66.494c0,2.476-.093,2.539-2.491,2.581a46.468,46.468,0,0,0-6.116.127,4.835,4.835,0,0,1-1.674.215q-33.955-.005-67.911,0a6.372,6.372,0,0,1-1.043-.047,1.826,1.826,0,0,1-1.7-1.994C50,101.564,50,101.029,50,100.5q0-48.576,0-97.154c0-.579-.008-1.158.041-1.736A1.576,1.576,0,0,1,51.2.016Q90.11.008,129.024,0c1.609,0,1.879.3,1.879,1.962q0,14.694,0,29.388a4.112,4.112,0,0,0,.246,1.829" transform="translate(-15.149 -0.001)" fill="#d8e9fb"/><path d="M46.4,107.625c.52.022,1.04.063,1.559.063q33.661,0,67.322.008a4.054,4.054,0,0,1,1.676.123c0,2.483,0,4.966-.015,7.449-.008,1.76-.263,1.994-1.953,2.047a58.389,58.389,0,0,0-7.254.168,4.3,4.3,0,0,1-1.678.17q-33.24,0-66.48-.011c-1.962,0-3.9.443-5.863.261-.565-.052-1.272.14-1.525-.681a2.659,2.659,0,0,1,2.115-.421c.873.023,1.2-.242,1.2-1.219-.076-22.442-.03-44.884-.04-67.327q-.007-16.029.012-32.06c0-1.027-.215-2.232,1.184-2.635l3.105,0c.618.609.453,1.408.454,2.143q.022,11.822.009,23.643,0,32.392,0,64.784c0,3.22.071,3.342,3.223,3.272,1.005-.022,1.948.472,2.951.227" transform="translate(-9.753 -3.893)" fill="#fe9418"/><path d="M29.778,120.965a10,10,0,0,0,4.357.177c.812-.056,1.63-.182,2.452-.182q33.545,0,67.09.008c.54,0,1.139-.221,1.617.254.006,2.493-.012,4.987.025,7.479.018,1.237-.541,1.812-1.716,1.827-.349,0-.7,0-1.045,0q-34.4,0-68.81,0c-.565,0-1.129.036-1.694.054a43.728,43.728,0,0,1-7.49-6.96,4.345,4.345,0,0,1-.431-2.588q0-26.789,0-53.578,0-18.973.013-37.945c0-1.026-.257-2.2.93-2.848l3.636-.1c.631.661.445,1.5.446,2.282q.023,12.28.009,24.559,0,32.168-.007,64.336a6.091,6.091,0,0,0,.619,3.217" transform="translate(-7.308 -7.631)" fill="#feae10"/><path d="M12.034,122.835a59.685,59.685,0,0,1-8.356-16.2A66.72,66.72,0,0,1,11.6,47.224a5.075,5.075,0,0,1,.432-.49,3.434,3.434,0,0,1,.413,2.431q.018,26.681.008,53.361,0,9.072-.008,18.143a2.976,2.976,0,0,1-.414,2.165" transform="translate(0 -13.422)" fill="#25e0ac"/><path d="M49.7,103.732a21.168,21.168,0,0,1-5.32.133,1.33,1.33,0,0,1-1.309-1.525c.008-.445-.006-.89-.006-1.335l0-91.343q.016-3.8.034-7.6C43.1.378,43.451.009,45.055,0,46.4,0,47.748.009,49.095.014a2.483,2.483,0,0,0-.779,2.271q.015,38.141.008,76.282,0,11.689-.011,23.379c0,1.029.2,1.776,1.384,1.786" transform="translate(-13.046 0)" fill="#c2dcf3"/><path d="M17.264,117.063c.018-.444.053-.888.053-1.332q0-36.718,0-73.436c0-.444-.035-.888-.054-1.332q.035-5.923.068-11.847c.012-2.106.374-2.483,2.416-2.477,1.084,0,2.167.031,3.25.048a3.506,3.506,0,0,0-.528,2.019q.022,47.47.018,94.94a32.969,32.969,0,0,1-5.224-6.583" transform="translate(-5.23 -7.651)" fill="#ee9514"/><path d="M31.768,117.211c-.8-.134-1.066-.669-1.041-1.433.011-.356,0-.713,0-1.068q0-45.012,0-90.023c0-.623-.017-1.246-.025-1.869,0-2.488-.018-4.977,0-7.466.009-1.545.326-1.848,1.862-1.849,1.216,0,2.431.026,3.647.041-.823.551-.779,1.4-.779,2.26q.008,48.17,0,96.341c0,1.113.018,2.227-.008,3.34a3.052,3.052,0,0,0,.444,1.726Z" transform="translate(-9.299 -3.878)" fill="#ee8218"/><path d="M61.489,80.77c.653,4.4,2.717,6.9,6.317,7.645A7.6,7.6,0,0,0,76.7,81.883c.093-.832.3-1.154,1.165-1.124,1.912.066,3.828.041,5.741.009.666-.011.9.175.873.908-.3,7.443-6.587,14.114-13.829,14.636a15.358,15.358,0,0,1-16.418-12.5,8.62,8.62,0,0,1-.2-3.041,1.656,1.656,0,0,1,1.211-.359q2.519-.042,5.038,0a1.662,1.662,0,0,1,1.211.357" transform="translate(-16.347 -23.089)" fill="#feae10"/><path d="M133.183,119c-2.482,0-4.964,0-7.444-.01-1.671-.007-2.022-.35-2.027-2q-.014-5.344,0-10.688c0-1.578.413-2.023,1.9-2.029q5.289-.02,10.579,0c1.508,0,1.9.426,1.908,2.005.009,2.583,0,5.166,0,7.749-.544.737-1.34.476-2.037.494-2.189.056-2.249.123-2.313,2.324-.022.742.3,1.628-.563,2.158" transform="translate(-37.479 -29.946)" fill="#fd3745"/><path d="M93.073,39.319a7.313,7.313,0,0,1,1.8.2,1.827,1.827,0,0,1,1.345,2.134,1.729,1.729,0,0,1-1.706,1.68c-.259.026-.521.02-.781.02q-19.231,0-38.461,0a5.306,5.306,0,0,1-.91-.038,1.737,1.737,0,0,1-1.547-1.7,1.822,1.822,0,0,1,1.139-2.024,6.1,6.1,0,0,1,2.052-.286,2.251,2.251,0,0,1,1.849-.4c1.486.114,3.03-.4,4.453.411l3.907-.009a1.884,1.884,0,0,1,1.594-.4c1.579.119,3.213-.4,4.733.413,3.841.136,3.828.136,3.851-3.747a10.235,10.235,0,0,1,.126-2.906c.581.383.47,1.007.489,1.564.04,1.155.02,2.312.014,3.467,0,.825.332,1.228,1.167,1.212q1.432-.028,2.868,0c.834.016,1.17-.387,1.166-1.212,0-1.155-.025-2.312.015-3.467.019-.557-.092-1.18.489-1.564a35.4,35.4,0,0,1,.116,5.545c.008.838.208,1.221,1.089,1.15.946-.076,1.9-.049,2.849-.068a10.136,10.136,0,0,1,6.291.033" transform="translate(-15.997 -9.38)" fill="#52baee"/><path d="M92.707,69.11h-.13a10.331,10.331,0,0,1-3.114-.079c-1.107-.371-.519-1.766-.923-2.665-1.29-2.866-3.313-4.628-6.4-4.99-.634-.074-.8-.335-.8-.924.018-1.959.031-3.919-.006-5.878-.014-.768.277-1,1-.987a13.282,13.282,0,0,1,8.08,2.947A15.06,15.06,0,0,1,96.53,67.81c.074,1.12-.356,1.4-1.342,1.314-.821-.069-1.653-.014-2.48-.014" transform="translate(-24.642 -15.39)" fill="#90dfe7"/><path d="M61.506,74.6l-7.461,0c-.484-6.618,4.623-13.418,11.387-15.158,3.758-.967,3.758-.967,3.758,2.884,0,.311,0,.622,0,.934a10.181,10.181,0,0,1-.071,3.046c-.376,1.129-1.726.562-2.6.952-3.178,1.411-4.685,3.933-5.01,7.34" transform="translate(-16.364 -16.918)" fill="#fd3745"/><path d="M73.357,112.784c-4.957,0-9.913.009-14.87-.006-1.625,0-2.6-1.122-2.213-2.491a2.083,2.083,0,0,1,2.214-1.5c1.347-.038,2.7-.011,4.043-.011H87.445a5.539,5.539,0,0,1,1.8.2,1.838,1.838,0,0,1,1.379,2.123,1.792,1.792,0,0,1-1.879,1.679q-3.326.007-6.652.01-4.369,0-8.739,0" transform="translate(-17.023 -31.238)" fill="#52baee"/><path d="M73.377,118.457q7.369,0,14.738,0c1.623,0,2.617.776,2.578,1.976-.04,1.248-1,2.026-2.6,2.028q-14.607.012-29.215,0a4.974,4.974,0,0,1-1.155-.141,1.951,1.951,0,0,1,.394-3.846c1.347-.035,2.7-.016,4.043-.016H73.377" transform="translate(-17.035 -34.021)" fill="#52baee"/><path d="M73.386,131.908q-7.37,0-14.739,0a2.267,2.267,0,0,1-1.9-.638,1.957,1.957,0,0,1,.6-3.111,4,4,0,0,1,1.66-.271q14.348.013,28.7.013a6.747,6.747,0,0,1,1.413.166,1.8,1.8,0,0,1,1.531,2.128,1.834,1.834,0,0,1-1.99,1.709c-4.261-.009-8.522,0-12.783,0H73.386" transform="translate(-17.032 -36.732)" fill="#52baee"/><path d="M124.652,58.818c4.439,0,8.877.007,13.316-.006a2.194,2.194,0,0,1,2.234,1.042,1.95,1.95,0,0,1-1.1,2.8,4.728,4.728,0,0,1-1.678.168H111.7c-.217,0-.436.008-.652,0-1.523-.068-2.387-.846-2.341-2.1.043-1.182.9-1.9,2.367-1.9,4.526-.013,9.051,0,13.577,0" transform="translate(-32.934 -16.891)" fill="#fd3745"/><path d="M124.588,77.943c4.526,0,9.052-.011,13.578.006,1.407,0,2.191.684,2.266,1.858a1.935,1.935,0,0,1-1.778,2.086,14.826,14.826,0,0,1-2.085.057q-12.337,0-24.675,0a11.1,11.1,0,0,1-1.174-.018A2,2,0,0,1,108.7,79.91a1.961,1.961,0,0,1,2.175-1.958c4.57-.021,9.139-.008,13.709-.009" transform="translate(-32.934 -22.385)" fill="#fd3745"/><path d="M124.561,72.32q-6.463,0-12.924,0a7.924,7.924,0,0,1-1.3-.052,1.8,1.8,0,0,1-1.6-1.677,1.849,1.849,0,0,1,1.26-2.087,4.028,4.028,0,0,1,1.543-.195q13.055,0,26.109.008a5.661,5.661,0,0,1,1.289.135,1.786,1.786,0,0,1,1.479,2.038,1.745,1.745,0,0,1-1.757,1.792c-1.477.064-2.958.038-4.437.039q-4.829.006-9.66,0" transform="translate(-32.937 -19.618)" fill="#fd3745"/><path d="M124.508,91.441q-6.462,0-12.924,0a6.938,6.938,0,0,1-1.3-.06,1.815,1.815,0,0,1-1.555-1.723,1.842,1.842,0,0,1,1.194-2.007,4.352,4.352,0,0,1,1.8-.22q12.858,0,25.717,0c.3,0,.611-.017.913.013a2.028,2.028,0,0,1,2.087,2.086c-.047,1.182-.829,1.9-2.224,1.9-4.569.021-9.138.008-13.707.009" transform="translate(-32.937 -25.11)" fill="#fd3745"/><path d="M107.837,34.461l-6.29-.032c0-5.687.036-11.374-.013-17.06-.01-1.252.458-1.677,1.6-1.622.954.046,1.911,0,2.866.011,1.469.019,1.825.378,1.828,1.909q.013,8.4.006,16.793" transform="translate(-30.761 -4.521)" fill="#91dfe7"/><path d="M63.7,34.467l-6.3-.008q0-8.407,0-16.814c0-1.622.21-1.827,1.807-1.836,1-.006,2,.036,3-.011,1.129-.053,1.519.444,1.512,1.589-.038,5.694-.017,11.387-.017,17.081" transform="translate(-17.39 -4.536)" fill="#feae10"/><path d="M137.3,122.938a13.736,13.736,0,0,0,.1-3.16c0-1.209.49-1.8,1.711-1.765,1.032.029,2.067-.031,3.1-.051,1.086.021,2.174.078,3.259.056,1.143-.024,1.7.487,1.7,1.664q-.014,3.339,0,6.678a1.419,1.419,0,0,1-1.606,1.63c-2.176-.007-4.352-.019-6.528.006-1.179.013-1.616-.589-1.623-1.735a14.861,14.861,0,0,0-.112-3.324" transform="translate(-41.598 -33.88)" fill="#37c37a"/><path d="M78.366,36.513,72.04,36.5c0-3.958.027-7.916-.018-11.874-.015-1.277.48-1.778,1.7-1.709a30.142,30.142,0,0,0,3.129,0c1.128-.054,1.531.442,1.52,1.583-.039,4-.012,8.005-.01,12.008" transform="translate(-21.82 -6.581)" fill="#fd3745"/><path d="M133.561,13.45c2.866,0,5.732-.008,8.6,0,1.64.006,2.532.745,2.5,2.031-.025,1.2-.948,1.967-2.472,1.97q-8.6.019-17.2,0a2.1,2.1,0,0,1-2.305-1.548,1.918,1.918,0,0,1,.783-2.1,2.378,2.378,0,0,1,1.62-.356q4.234-.006,8.469,0" transform="translate(-37.148 -3.862)" fill="#da722c"/><path d="M133.653,32.573c2.874,0,5.747-.011,8.621,0,1.538.009,2.412.771,2.39,2.023-.02,1.163-.9,1.964-2.349,1.971q-8.685.037-17.372,0a2.057,2.057,0,0,1-2.33-1.994c-.01-1.215.905-1.994,2.419-2,2.874-.014,5.747,0,8.621,0" transform="translate(-37.148 -9.354)" fill="#da722c"/><path d="M133.654,26.945c-2.874,0-5.747.01-8.621,0-1.518-.008-2.431-.781-2.419-1.993s.941-2,2.461-2.005c5.7-.019,11.408-.009,17.111,0a3.825,3.825,0,0,1,.775.079,1.89,1.89,0,0,1,1.677,2.039,1.835,1.835,0,0,1-1.972,1.868c-3,.038-6.008.012-9.013.012Z" transform="translate(-37.148 -6.586)" fill="#da722c"/><path d="M133.566,46.067c-2.83,0-5.66.009-8.489,0-1.541-.007-2.445-.743-2.461-1.952s.918-2.04,2.419-2.045q8.621-.031,17.24,0c1.515.006,2.411.844,2.378,2.067-.035,1.257-.862,1.922-2.466,1.929-2.874.013-5.747,0-8.62,0" transform="translate(-37.148 -12.077)" fill="#da722c"/><path d="M93.037,32.34c-.021,1.867-.072,3.734-.047,5.6.01.791-.218,1.123-1.035,1.091-1.346-.053-2.7-.053-4.043,0-.818.033-1.043-.3-1.033-1.092.024-1.866-.026-3.734-.047-5.6a.963.963,0,0,1,1.049-.771q2.053-.034,4.108,0a.963.963,0,0,1,1.049.771" transform="translate(-26.307 -9.062)" fill="#37c37a"/></g></svg>