<svg xmlns="http://www.w3.org/2000/svg" xmlns:xlink="http://www.w3.org/1999/xlink" width="88.374" height="91.872" viewBox="0 0 88.374 91.872"><defs><clipPath id="a"><rect width="88.374" height="91.872" fill="none"/></clipPath><clipPath id="b"><rect width="45.172" height="44.054" fill="none"/></clipPath></defs><g clip-path="url(#a)"><path d="M98.4,88.118a7.7,7.7,0,0,1-4.432-2.541,7.156,7.156,0,0,1-1.584-4.611q-.006-35.878.02-71.757c0-.78-.188-.982-.968-.968-2.81.051-5.621.024-8.431.018a1.439,1.439,0,0,1-1.6-1.865C82,2.326,84.682,0,88.786,0h48.525c4.455,0,7.386,2.916,7.386,7.358q0,35.749-.019,71.5c0,.812.157,1.043,1,1.024,2.781-.064,5.563-.026,8.345-.023,1.255,0,1.786.582,1.668,1.808A6.867,6.867,0,0,1,149.9,88a.833.833,0,0,0-.217.117Z" transform="translate(-67.337 0)"/><path d="M209.275,98.605h-43.32c-3.261,0-4.859-1.591-4.859-4.844q0-35.659-.02-71.318c0-.8.225-.96.983-.959q17.851.036,35.7.017c1.429,0,1.759-.3,1.9-1.7a4.121,4.121,0,0,1,8.23.244c.017.458.008.918.008,1.376q0,36.39,0,72.78a7.71,7.71,0,0,0,1.378,4.4" transform="translate(-133.294 -13.241)" fill="#e5e8ec"/><path d="M98.719,18.716a4.243,4.243,0,0,1,4.139-2.753q4.987,0,9.974,0h33.789a9.434,9.434,0,0,0-1.075,2.369.424.424,0,0,1-.541.387,1.563,1.563,0,0,0-.258,0H98.719Z" transform="translate(-81.692 -13.209)" fill="#f4f6f9"/><path d="M450.381,479.069h7.544a3.738,3.738,0,0,1-3.342,2.71,4.028,4.028,0,0,1-4.2-2.71" transform="translate(-372.7 -396.439)" fill="#cbd0d8"/><path d="M204.322,142.676q-8.647,0-17.295,0c-1.456,0-1.9-.442-1.9-1.9q-.005-1.549,0-3.1c.006-1.429.471-1.889,1.928-1.89q12.777,0,25.555,0,4.56,0,9.121,0c1.5,0,1.935.448,1.938,1.959q0,1.506,0,3.012c0,1.493-.432,1.912-1.965,1.912q-8.69,0-17.381,0" transform="translate(-153.194 -112.37)"/><path d="M204.484,258.236q-8.6,0-17.192,0a4.788,4.788,0,0,1-.857-.034,1.288,1.288,0,0,1-1.129-1.228,1.25,1.25,0,0,1,.928-1.377,3.069,3.069,0,0,1,.93-.11q17.364-.008,34.728,0c.172,0,.345-.009.516.007a1.418,1.418,0,0,1,1.4,1.441,1.361,1.361,0,0,1-1.442,1.3c-1.518.026-3.037.01-4.556.01H204.484" transform="translate(-153.339 -211.414)"/><path d="M204.452,290.155q-8.562,0-17.124,0a5.1,5.1,0,0,1-.858-.029,1.351,1.351,0,0,1-.1-2.659,3.96,3.96,0,0,1,.94-.062q17.253,0,34.506,0a4.839,4.839,0,0,1,.772.027,1.372,1.372,0,0,1,1.214,1.428,1.333,1.333,0,0,1-1.276,1.281,6.318,6.318,0,0,1-.774.016h-17.3" transform="translate(-153.339 -237.829)"/><path d="M250.7,322.084q-3.914,0-7.828,0c-1.107,0-1.736-.49-1.76-1.338-.025-.871.641-1.411,1.783-1.412q7.871-.007,15.742,0c1.044,0,1.662.49,1.712,1.3.052.851-.6,1.44-1.648,1.443-2.667.01-5.333,0-8,0" transform="translate(-199.528 -264.251)"/><path d="M192.733,210.358c-1.946,0-3.893.005-5.839,0-1.09,0-1.723-.518-1.722-1.367s.652-1.38,1.726-1.382q5.84-.012,11.679,0c1.078,0,1.719.539,1.718,1.386s-.627,1.359-1.722,1.363c-1.946.007-3.893,0-5.839,0" transform="translate(-153.234 -171.794)"/><path d="M328.467,210.358c-1.946,0-3.893.005-5.839,0-1.092,0-1.727-.511-1.732-1.357s.646-1.389,1.718-1.391q5.839-.013,11.679,0c1.081,0,1.72.531,1.725,1.377s-.616,1.368-1.711,1.372c-1.946.008-3.893,0-5.839,0" transform="translate(-265.547 -171.794)"/><path d="M291.745,209.078a1.358,1.358,0,0,1-1.368,1.348,1.4,1.4,0,0,1-1.365-1.368,1.436,1.436,0,0,1,1.384-1.363,1.394,1.394,0,0,1,1.349,1.383" transform="translate(-239.164 -171.872)" fill="#030303"/><path d="M217.394,153.046c-5.189,0-10.377-.016-15.566.017-.744,0-.956-.236-.872-.927.038-.312.115-.487.453-.467.143.008.286,0,.43,0q15.652,0,31.3,0c.389,0,.873-.183.879.562.005.626-.141.83-.8.826-5.275-.028-10.549-.016-15.824-.016" transform="translate(-166.281 -125.496)" fill="#646c77"/><path d="M250.121,358.447a7.954,7.954,0,1,1-7.979,7.9,7.966,7.966,0,0,1,7.979-7.9m-.035,1.769a6.185,6.185,0,1,0,6.192,6.177,6.2,6.2,0,0,0-6.192-6.177" transform="translate(-200.377 -296.622)"/><path d="M344.754,429.581v-1.819c.351-.065.712-.106,1.058-.2a4.084,4.084,0,0,0,2.437-1.864c.262-.42.581-.744,1.119-.6.5.135.636.526.679,1.015a1.743,1.743,0,0,0,1.8,1.6c1.138.013,2.277,0,3.453,0v1.73c-1.343,0-2.683.066-4.014-.021a3.256,3.256,0,0,1-2.421-1.5,16.516,16.516,0,0,1-1.956,1.108,15.7,15.7,0,0,1-2.15.55" transform="translate(-285.291 -351.749)"/><path d="M271.474,383.393a4.417,4.417,0,1,1-4.406-4.442,4.43,4.43,0,0,1,4.406,4.442m-4.41-2.674a2.65,2.65,0,1,0,2.643,2.683,2.66,2.66,0,0,0-2.643-2.683" transform="translate(-217.341 -313.591)"/><g transform="translate(3.048 44.065)"><g clip-path="url(#b)"><path d="M45.172,43.376a1.111,1.111,0,0,1-1.163.677q-21.424-.01-42.848-.006c-1.01,0-1.366-.494-1.048-1.439q1.715-5.082,3.435-10.163a1.108,1.108,0,0,0,.022-.719,11.989,11.989,0,0,1,.208-7.491,22.953,22.953,0,0,1,6.656-9.643.932.932,0,0,1,1.6.235Q12.725,15.906,13.39,17c.117.191.183.3.4.07a31.774,31.774,0,0,0,6.6-9.494A12.891,12.891,0,0,0,21.529,1.4c-.009-.1,0-.206-.013-.309a.923.923,0,0,1,.451-.976A.964.964,0,0,1,23.04.232,27.616,27.616,0,0,1,32.6,10.449a16.335,16.335,0,0,1,1.423,3.823c.073.314.17.325.429.2a6.631,6.631,0,0,0,3.228-3.3c.117-.252.213-.515.327-.769a.89.89,0,0,1,1.586-.24,13.659,13.659,0,0,1,1.716,2.449,19.517,19.517,0,0,1,2.295,12.418A24.335,24.335,0,0,1,41.7,31.647a1.21,1.21,0,0,0-.054.957c1.128,3.3,2.239,6.606,3.362,9.909.039.114.024.266.166.334Z" transform="translate(0 0.001)"/><path d="M36.639,44.658A13.419,13.419,0,0,1,38.6,38.87a24.622,24.622,0,0,1,3.843-4.924c.243-.245.329-.2.489.068.433.733.891,1.453,1.35,2.171a.921.921,0,0,0,1.577.21A33.658,33.658,0,0,0,53.82,25.346,15.028,15.028,0,0,0,55.036,20.5c.014-.2.046-.406.078-.681.5.39.974.732,1.419,1.1a23.272,23.272,0,0,1,6.739,8.647,14.149,14.149,0,0,1,.931,3.069c.026.144.051.29.089.431a.894.894,0,0,0,1.172.692,8.121,8.121,0,0,0,5.086-3.734c.275-.439.272-.448.547-.007a17.466,17.466,0,0,1,2.577,11.167,22,22,0,0,1-1.311,5.551l-.86-2.553a.949.949,0,0,0-.808-.767c-.494-.051-.818.19-1.017.779q-.89,2.627-1.773,5.256c-.1.3-.207.6-.314.917-.171-.064-.168-.215-.213-.324-.442-1.072-.884-2.144-1.312-3.221a.954.954,0,0,0-.886-.734c-.5-.008-.75.316-.921.746-.423,1.064-.861,2.121-1.3,3.18a.639.639,0,0,1-.22.369c-.366-1.077-.725-2.137-1.086-3.2-.045-.132.033-.231.088-.329,1.437-2.6,1.089-5.177-.1-7.733a18.685,18.685,0,0,0-3.807-5.206c-.338-.342-.694-.612-1.2-.4s-.566.658-.544,1.141a9.709,9.709,0,0,1-.45,3.609,3.859,3.859,0,0,1-1.176,1.778c-.249.207-.426.232-.611-.087a4.6,4.6,0,0,1-.439-1,.906.906,0,0,0-1.491-.588,6.9,6.9,0,0,0-3.531,4.161c-.623,2.545-1.6,4.964-2.372,7.456-.038.125-.086.247-.13.373-.171-.047-.167-.2-.213-.316-.443-1.071-.884-2.144-1.312-3.221-.165-.415-.4-.729-.882-.738-.5-.009-.752.311-.925.742-.472,1.181-.958,2.357-1.483,3.643-.2-.578-.364-1.054-.525-1.531q-.8-2.356-1.592-4.713c-.194-.574-.461-.813-.9-.822-.461-.009-.744.237-.945.827-.128.375-.252.751-.378,1.127-.226-.211-.077-.468-.087-.706" transform="translate(-31.736 -17.184)" fill="#fe7d46"/><path d="M147.718,154.16c-.124-.1-.12-.258-.178-.383a.876.876,0,0,0-.819-.567.856.856,0,0,0-.847.585c-.039.094-.068.194-.1.291l-2.063,6.081c-.178-.046-.169-.2-.214-.313-.442-1.07-.883-2.142-1.309-3.219-.171-.433-.423-.751-.922-.743a.954.954,0,0,0-.885.733c-.471,1.183-.958,2.359-1.448,3.559-.166-.1-.16-.258-.2-.383-.522-1.526-1-3.07-1.564-4.578a3.84,3.84,0,0,1,.789-4.01,1.523,1.523,0,0,1,.147-.164c.268-.251.506-.639.816-.712.384-.09.409.453.618.7,1,1.167,1.541,1.259,2.805.354a5.9,5.9,0,0,0,2.205-3.644c.1-.425.167-.859.252-1.3,1.856,1.848,3.6,5.537,2.921,7.715" transform="translate(-118.707 -126.984)" fill="#fac540"/><path d="M24.649,237.967c-.117.007-.233.02-.348.02-2.515,0-5.03,0-7.544.005-.3,0-.422-.015-.3-.377q1.99-5.834,3.952-11.677c.023-.069.057-.134.088-.207.184.3,4.074,11.761,4.151,12.236" transform="translate(-14.231 -195.734)" fill="#44c873"/><path d="M102.214,225.2l1.384,4.1c.878,2.6,1.75,5.2,2.641,7.8.116.339.1.444-.3.442-2.514-.016-5.029-.013-7.544,0-.315,0-.366-.072-.265-.369q1.983-5.835,3.95-11.676c.027-.079.069-.153.132-.289" transform="translate(-85.051 -195.271)" fill="#44c873"/><path d="M183.893,225.217l1.467,4.343c.85,2.516,1.695,5.034,2.558,7.546.115.335.113.447-.294.444-2.514-.017-5.029-.013-7.544,0-.31,0-.37-.067-.269-.367q1.983-5.835,3.949-11.677c.027-.081.071-.156.133-.288" transform="translate(-155.877 -195.288)" fill="#44c873"/><path d="M265.606,225.551c.536,1.582,1.07,3.151,1.6,4.721.8,2.377,1.6,4.758,2.415,7.131.122.353.079.439-.307.437q-3.75-.023-7.5,0c-.372,0-.4-.088-.289-.415q1.962-5.75,3.9-11.508a.708.708,0,0,1,.181-.366" transform="translate(-226.721 -195.577)" fill="#44c873"/><path d="M160.1,242.043c.516,1.264.981,2.4,1.448,3.544a.409.409,0,0,1,.027.3l-1.475,4.373c-.13-.382-.218-.636-.3-.891q-.555-1.647-1.109-3.3c-.045-.136-.128-.27-.065-.424l1.476-3.605" transform="translate(-137.521 -209.878)" fill="#248948"/><path d="M78.438,250.96q-.7-2.084-1.408-4.168a.452.452,0,0,1,.022-.339c.463-1.141.923-2.284,1.38-3.418.175,0,.175.13.209.212.424,1.033.84,2.068,1.259,3.1a.567.567,0,0,1,.061.422q-.713,2.1-1.418,4.2l-.105-.01" transform="translate(-66.773 -210.738)" fill="#248948"/><path d="M241.786,250.129q-.708-2.1-1.413-4.2a.4.4,0,0,1-.007-.256c.47-1.167.947-2.331,1.469-3.607.285.693.53,1.281.768,1.871a3.108,3.108,0,0,1,.118,3.725c-.273.82-.554,1.638-.832,2.457l-.1.01" transform="translate(-208.408 -209.897)" fill="#248948"/><path d="M36.41,206.745c.079.229-.075.487.087.706l-.088.275a1.7,1.7,0,0,1,0-.981" transform="translate(-31.507 -179.271)" fill="#a3502d"/><path d="M289.428,140.97c-.029.483-.039.968-.091,1.449a.9.9,0,0,1-.919.876.927.927,0,0,1-.841-1.045c.032-.528.061-1.054.056-1.583a13.562,13.562,0,0,0-.229-2.36,2.682,2.682,0,0,1-.042-.349.87.87,0,0,1,.732-1.024.9.9,0,0,1,1.034.842,17.862,17.862,0,0,1,.3,3.194" transform="translate(-249.172 -118.729)"/><path d="M283.884,119.591a.814.814,0,0,1-.827.887.837.837,0,0,1-.873-.854.881.881,0,0,1,.842-.9.841.841,0,0,1,.859.869" transform="translate(-244.684 -102.944)" fill="#010000"/></g></g></g></svg>