<svg xmlns="http://www.w3.org/2000/svg" xmlns:xlink="http://www.w3.org/1999/xlink" width="123" height="123" viewBox="0 0 123 123"><defs><clipPath id="a"><rect width="91.195" height="94.872" fill="none"/></clipPath></defs><g transform="translate(-1212 -1976)"><rect width="123" height="123" transform="translate(1212 1976)" fill="none"/><g transform="translate(1228 1990)"><g clip-path="url(#a)"><path d="M130.3,67.854a1.6,1.6,0,0,1,2.239.24c1.351,1.266,2.758,2.472,4.1,3.751a10.975,10.975,0,0,1,3.233,10.815c-.4,1.93-.791,3.862-1.2,5.791-.681,3.221.128,6.312.817,9.412a30.655,30.655,0,0,1,.633,3.828,10.524,10.524,0,0,1-3.088,8.5,45.567,45.567,0,0,1-3.943,3.642,17.06,17.06,0,0,0-5.012,6.76,55.807,55.807,0,0,1-2.346,5.115,10.841,10.841,0,0,1-8.63,5.914c-1.924.263-3.855.487-5.789.656a16.514,16.514,0,0,0-7.136,2.588,26.632,26.632,0,0,1-7.189,3.508c-.372.093-.8,0-1.12.294H93.086c-3.458-.811-6.37-2.76-9.37-4.519a15.675,15.675,0,0,0-6.465-1.949c-1.254-.129-1.571-.432-1.769-1.686a1.472,1.472,0,0,1,1.745-1.418,18.553,18.553,0,0,1,8.179,2.421c1.7,1,3.374,2.049,5.144,2.935a8.5,8.5,0,0,0,8,.017c1.664-.823,3.251-1.779,4.823-2.75a20.628,20.628,0,0,1,9.505-2.747,33.377,33.377,0,0,0,4.942-.685,7.38,7.38,0,0,0,4.81-3.478,41.826,41.826,0,0,0,2.767-5.853,19.391,19.391,0,0,1,5.563-7.4c1.345-1.133,2.617-2.345,3.865-3.587,2.152-2.14,2.441-4.75,1.988-7.548-.385-2.376-1.037-4.7-1.4-7.084A16.032,16.032,0,0,1,135.59,88c.353-1.913.805-3.8,1.182-5.712a13.137,13.137,0,0,0,.117-3.965,6.942,6.942,0,0,0-2.136-3.916,50.181,50.181,0,0,0-4.064-3.779,2.226,2.226,0,0,1-.96-1.71,1,1,0,0,1,.567-1.067" transform="translate(-48.971 -43.793)"/><path d="M86.228,29.016a1.547,1.547,0,0,0,.347,2.41c1.082.966,2.139,1.961,3.25,2.891,3.137,2.629,3.966,5.927,3.01,9.823-.477,1.942-.84,3.915-1.2,5.884-.549,3.026.169,5.948.81,8.872a38.208,38.208,0,0,1,.713,4,7.753,7.753,0,0,1-2.224,6.414,41.815,41.815,0,0,1-3.874,3.577,19.852,19.852,0,0,0-5.81,7.989c-.563,1.4-1.222,2.755-1.854,4.124a8.362,8.362,0,0,1-7.217,5.015c-2.268.241-4.539.474-6.8.8-3.134.446-5.729,2.155-8.381,3.719-.795.469-1.606.911-2.424,1.338a8.3,8.3,0,0,1-8.144,0c-1.875-1-3.707-2.073-5.541-3.142a18.237,18.237,0,0,0-7.832-2.249,1.558,1.558,0,0,0-1.65,1.2,10.934,10.934,0,0,1-1.607-.1c-.334-.066-.41.161-.592.28C29,90.4,27.9,90.085,26.679,89.788a7.4,7.4,0,0,1-4.608-3.479,42.045,42.045,0,0,1-2.9-6.1,18.919,18.919,0,0,0-5.289-7.037c-1.4-1.208-2.776-2.446-4.068-3.776-2.187-2.252-2.575-4.953-2.056-7.9.417-2.371,1.04-4.7,1.4-7.085a15.455,15.455,0,0,0-.172-5.153c-.336-1.822-.768-3.624-1.128-5.441a12.967,12.967,0,0,1-.2-4.32,7.493,7.493,0,0,1,2.148-4.121A53.048,53.048,0,0,1,14.232,31.3a19.99,19.99,0,0,0,5.607-8.263,35.7,35.7,0,0,1,1.786-3.865,8.248,8.248,0,0,1,5.933-4.443,51.457,51.457,0,0,1,5.78-.712,19.847,19.847,0,0,0,9.176-3.179,41.4,41.4,0,0,1,3.874-2.174,8.8,8.8,0,0,1,8.188-.024c1.837.895,3.558,1.984,5.314,3.014a20.017,20.017,0,0,0,8.373,2.442.614.614,0,0,0,.734-.41.944.944,0,0,1,.4-.6,27.849,27.849,0,0,1,4.2.369c.288.447-.057.807-.176,1.192a2.108,2.108,0,0,0-.2,1.157,1.119,1.119,0,0,0,.94.891,1.163,1.163,0,0,0,1.28-.668c.335-.555.268-1.343.969-1.684a16.424,16.424,0,0,1,3.21,2.841c-.057.666-.629.936-1.034,1.33-.218.212-.5.368-.631.657a1.223,1.223,0,0,0,.172,1.527,1.155,1.155,0,0,0,1.521.026c.459-.284.793-.784,1.4-.821q.671,1.513,1.343,3.026c.124.279.211.586.528.725.088.208-.069.34-.152.5-.567,1.062-.164,1.826,1.047,1.977.152.019.306.007.4.154a5.593,5.593,0,0,0,2.007,2.736" transform="translate(-4.902 -4.956)" fill="#e0f0f2"/><path d="M64.5,8.13c-.293,1.336-.288,1.249-1.715,1.178-4.005-.2-7.392-1.966-10.68-4.032-.677-.425-1.39-.794-2.091-1.182a8.715,8.715,0,0,0-9.064.125c-1.178.67-2.378,1.307-3.513,2.044a20.83,20.83,0,0,1-10.3,3.179,29.33,29.33,0,0,0-4.94.689,7.548,7.548,0,0,0-4.864,3.543,33.074,33.074,0,0,0-2.459,5.166,19.909,19.909,0,0,1-5.989,8.2C8,27.759,7.2,28.58,6.322,29.313c-3.161,2.643-4.045,5.954-3.058,9.9.485,1.941.839,3.917,1.195,5.888.546,3.028-.18,5.95-.822,8.876a39.665,39.665,0,0,0-.7,3.912,7.805,7.805,0,0,0,2.311,6.568,41.319,41.319,0,0,0,3.68,3.384,19.94,19.94,0,0,1,5.93,8.132A45.434,45.434,0,0,0,16.929,80.5a7.972,7.972,0,0,0,5.855,4.364c1.358.248,1.651.691,1.527,2.037a1.71,1.71,0,0,1-2.046.79,10.734,10.734,0,0,1-7.776-5.683,49.188,49.188,0,0,1-2.392-5.2,17.107,17.107,0,0,0-5-6.77Q5.182,68.436,3.4,66.676A11.034,11.034,0,0,1,.3,55.985C.7,53.994,1.1,52,1.515,50.009c.663-3.195-.19-6.248-.857-9.319a18.634,18.634,0,0,1-.575-6.143,11.16,11.16,0,0,1,3.7-6.754c1-.967,2.014-1.918,3.088-2.8a17.72,17.72,0,0,0,5.372-7.284c.6-1.512,1.313-2.985,2.028-4.45a10.8,10.8,0,0,1,8.8-6.243c2.017-.268,4.04-.5,6.065-.7a14.438,14.438,0,0,0,5.741-1.9c1.9-1.082,3.736-2.265,5.712-3.215a11.027,11.027,0,0,1,9.973-.03c1.928.909,3.729,2.037,5.55,3.127a16.109,16.109,0,0,0,6.812,2.141C64.478,6.6,64.478,6.6,64.5,8.13" transform="translate(0 0)"/><path d="M210.22,20.224c-.4.332-.788.675-1.2,1a1.419,1.419,0,0,1-1.988-.074,1.45,1.45,0,0,1,.1-2.061c.538-.541,1.1-1.053,1.659-1.578L218.2,9.03l.275-.247c.891-.8,1.721-.862,2.339-.163.592.669.471,1.479-.369,2.247-1.615,1.478-3.245,2.937-4.86,4.415-1.794,1.641-3.577,3.294-5.365,4.941" transform="translate(-134.071 -5.278)"/><path d="M222.1,48.734a1.453,1.453,0,0,1-1.851-.716,1.469,1.469,0,0,1,.551-1.911q4.18-1.831,8.36-3.659a1.494,1.494,0,0,1,2.086.526,1.447,1.447,0,0,1-.89,2.081c-2.58,1.16-5.171,2.293-7.758,3.438-.169.074-.332.16-.5.24" transform="translate(-142.779 -27.409)"/><path d="M197.262,11.83c-.229.564-.446,1.134-.689,1.691a1.426,1.426,0,0,1-1.863.891,1.445,1.445,0,0,1-.792-1.9c.166-.525.353-1.044.531-1.566.745-2.01,1.48-4.023,2.238-6.028.365-.965,1.026-1.33,1.831-1.063a1.4,1.4,0,0,1,.849,2.005c-.691,1.995-1.4,3.983-2.1,5.973" transform="translate(-125.748 -2.444)"/><path d="M55.595,35.945c.063-1.184.41-1.64,1.426-1.821,10.158-1.82,19.54.084,27.884,6.2A34.323,34.323,0,0,1,99.319,64.979a35.647,35.647,0,1,1-49.64-28.553c1.112-.481,1.488-.4,2.255.477.649.556.318,1.113-.032,1.633a3.025,3.025,0,0,1-1.44.964,32.609,32.609,0,0,0-7.352,4.592.539.539,0,0,0-.188.283,51.876,51.876,0,0,1,8.269,1.161,17.962,17.962,0,0,1,7.731,3.6,8.362,8.362,0,0,1,2.905,7.17c-.227,3.491-2.094,5.828-4.96,7.545-1.218.729-2.473,1.4-3.685,2.137-2.735,1.666-3.265,4.082-1.485,6.767,1.062,1.6,2.466,2.923,3.652,4.424A10.061,10.061,0,0,1,56.8,88.745,25.081,25.081,0,0,1,53.111,94.5,19.6,19.6,0,0,1,49.9,97.692c-.525.4-.412.655.14.9a33.159,33.159,0,0,0,10.85,2.939,30.5,30.5,0,0,0,5.628.056,32.853,32.853,0,0,0,10.963-2.836,37.053,37.053,0,0,0,4.592-2.585,1.011,1.011,0,0,0,.409-1.419c-1.2-3.143-2.36-6.3-3.278-9.54a26.446,26.446,0,0,1-1.445-7.793,8.618,8.618,0,0,1,2.391-5.85A32.313,32.313,0,0,1,83,68.926a3.761,3.761,0,0,0,1.035-4.3,24.859,24.859,0,0,0-2.167-4.389,12.751,12.751,0,0,1-1.7-7.361,7.628,7.628,0,0,1,2.614-4.76,12.291,12.291,0,0,1,2.853-2.039c.647-.326.615-.589.11-1.061a31.24,31.24,0,0,0-10.949-6.578A32.592,32.592,0,0,0,66.4,36.667a33.367,33.367,0,0,0-8.425.485,2.3,2.3,0,0,1-1.532-.044c-.47-.245-.922-.516-.849-1.163" transform="translate(-18.342 -21.71)"/><path d="M81.233,40.529a1.7,1.7,0,0,0,2.11.983,32.562,32.562,0,0,1,7.788-.58,2.5,2.5,0,0,1,1.085.141c-.717.456-1.579.356-2.36.651a33.447,33.447,0,0,0-11.535,7.14,9.462,9.462,0,0,0-1.527,1.462,51.807,51.807,0,0,0-9-1.12c.471-.413.789-.714,1.129-.987a32.8,32.8,0,0,1,7.552-4.575c1.161-.5,1.4-1.019,1.1-2.158l3.661-.958" transform="translate(-43.981 -26.294)" fill="#75b2d9"/><path d="M92.069,51.332c-.222-.581.329-.747.6-1a38.813,38.813,0,0,1,7.279-5.467,40.375,40.375,0,0,1,5.983-2.659c.514-.184,1.046-.01,1.558-.132a31.176,31.176,0,0,1,14.526,4.706,30.328,30.328,0,0,1,5.72,4.487c-.674.387-1.315.726-1.926,1.11-4.353,2.732-5.574,6.376-3.781,11.2a37.1,37.1,0,0,0,2.2,4.37,9.419,9.419,0,0,1,1.217,3.558,3.389,3.389,0,0,1-1.147,2.984c-.548.5-1.081,1.016-1.66,1.475-3.4,2.7-4.356,6.182-3.434,10.327a101.879,101.879,0,0,0,4.515,14.155.975.975,0,0,1-.434,1.413,31.969,31.969,0,0,1-15.774,5.509,5.594,5.594,0,0,1-2.983-.378,35.306,35.306,0,0,1-9.92-5.846c-.371-.313-.954-.557-.7-1.244a31.542,31.542,0,0,0,3.608-5.684,9.9,9.9,0,0,0-1.5-11.373c-1.017-1.2-2.049-2.39-3.065-3.592a7.624,7.624,0,0,1-1.172-1.876A4.3,4.3,0,0,1,93.3,71.823c1.478-1.069,3.156-1.8,4.693-2.776,3.785-2.394,5.361-6.1,4.262-10.133a9.066,9.066,0,0,0-4.591-5.439,22.4,22.4,0,0,0-5.591-2.143" transform="translate(-59.256 -27.299)" fill="#84cbf7"/><path d="M56.079,118.082a20.437,20.437,0,0,1-4.272,4.061c-.391.3-.649.145-.975-.081a32.03,32.03,0,0,1-13.628-20.1c-2.177-10.154.061-19.384,6.407-27.619a2.515,2.515,0,0,1,2.375-1.159,48.766,48.766,0,0,1,8.618.94,5.567,5.567,0,0,0-1.9,2.087A34.152,34.152,0,0,0,50.353,109.4a32.614,32.614,0,0,0,5.156,7.862c.221.251.513.454.57.819" transform="translate(-23.612 -47.476)" fill="#ebba4d"/><path d="M182.534,120.816c-1.113-2.829-2.09-5.643-2.98-8.486a41.5,41.5,0,0,1-1.6-6.454,5.9,5.9,0,0,1,1.728-5.41c.734-.7,1.5-1.381,2.274-2.039,2.557-2.169,3.062-4.848,2.043-7.94a28.92,28.92,0,0,0-2.237-4.555,12.935,12.935,0,0,1-1.42-3.887,4.813,4.813,0,0,1,1.645-4.74,15.352,15.352,0,0,1,3.357-2.105c.522-.264.793-.139,1.141.3a31.737,31.737,0,0,1,6.949,16c1.444,11.319-2.067,20.907-10.288,28.79-.176.169-.368.322-.614.535" transform="translate(-115.399 -48.698)" fill="#f0cf5f"/><path d="M75.472,119.83a16.921,16.921,0,0,1-3.459-4.166,33.765,33.765,0,0,1-4.976-11.746,37.34,37.34,0,0,1-.7-5.837A33.2,33.2,0,0,1,68.22,85.247a34.622,34.622,0,0,1,4.661-8.876,1.21,1.21,0,0,1,1.115-.5A15.836,15.836,0,0,1,80.7,78.336a5.744,5.744,0,0,1,.021,9.834c-1.441,1-3.028,1.777-4.525,2.694a7.422,7.422,0,0,0-3.726,4.624,7.831,7.831,0,0,0,1.076,6.2,36.949,36.949,0,0,0,3.447,4.23c1.413,1.64,2.609,3.375,2.532,5.682a7.45,7.45,0,0,1-.471,2.348,18.726,18.726,0,0,1-3.584,5.881" transform="translate(-43.005 -49.225)" fill="#f0cf5f"/><path d="M91.22,206.724c.39,1.07,1.42,1.488,2.219,2.122a34.1,34.1,0,0,0,9.031,4.963,7.442,7.442,0,0,0,2.353.383,24.564,24.564,0,0,1-6.442-.059,31.889,31.889,0,0,1-10.738-3.187c-.151-.076-.373-.086-.453-.412a29.7,29.7,0,0,0,4.031-3.811" transform="translate(-56.566 -134.118)" fill="#74b2d9"/></g></g></g></svg>