<svg xmlns="http://www.w3.org/2000/svg" xmlns:xlink="http://www.w3.org/1999/xlink" width="128" height="128" viewBox="0 0 128 128"><defs><clipPath id="a"><rect width="128" height="128" fill="none"/></clipPath></defs><g clip-path="url(#a)"><path d="M93.094,0h3.25a7.681,7.681,0,0,0,1.5.254,9.775,9.775,0,0,1,5.894,4.109,2.836,2.836,0,0,0,2.72,1.313c2.412-.067,4.827-.03,7.24-.017a6.358,6.358,0,0,1,6.242,3.755,5.484,5.484,0,0,1,.551,2.661q0,8.051,0,16.1a7.8,7.8,0,0,1-.389,2.579,6.134,6.134,0,0,1-5.874,3.883q-17.68-.005-35.362,0a6.369,6.369,0,0,1-1.367-.1c-3.351-1.138-4.771-3.088-4.774-6.579q-.007-7.67,0-15.34c0-4.122,1.674-6.111,5.714-6.823a31.7,31.7,0,0,1,4.834-.11,2.061,2.061,0,0,0,1.949-1.034A10.422,10.422,0,0,1,91.186.255c.615-.24,1.3.021,1.908-.255" transform="translate(-30.603)" fill="#f8de73"/><path d="M199.145,45.216a60.147,60.147,0,0,1,8.2,14.886,65.622,65.622,0,0,1,4.01,17.157c.028.268-.089.6.261.765v1.5a.909.909,0,0,0,0,1v5a.909.909,0,0,0,0,1v1.75c-.619,1.082-.485,2.315-.638,3.476a63.373,63.373,0,0,1-8.861,24.791,37.889,37.889,0,0,1-2.973,4.292,1.643,1.643,0,0,1-.424-1.381c-.014-8.307-.03-16.615.006-24.922a3.874,3.874,0,0,1,.078-.741,57.023,57.023,0,0,0,3.267-13.943,55.416,55.416,0,0,0-1.506-19.674c-.5-1.893-1.124-3.748-1.747-5.606-.214-2.738-.076-5.478-.082-8.217a1.334,1.334,0,0,1,.408-1.133" transform="translate(-83.617 -19.036)" fill="#25e0ac"/><path d="M117.651,0c1.52.551,3.15.387,4.705.728,1.872.41,3.779.658,5.619,1.215a9.877,9.877,0,0,0,2.629.844A47.276,47.276,0,0,1,141.233,7.6c.55.325,1.5.634,1.344,1.284-.171.734-1.132.412-1.755.428a26.107,26.107,0,0,1-2.987-.024l-.195-.034c-1.455-2.5-3.7-3.351-6.489-3.26-2.486.081-4.977-.008-7.464.031a1.786,1.786,0,0,1-1.8-.944A10.409,10.409,0,0,0,115.67.456c-.144-.263.109-.327.231-.456Z" transform="translate(-48.658)" fill="#25e0ac"/><path d="M85.452.469a10.805,10.805,0,0,0-6.172,4.92,1.176,1.176,0,0,1-1.218.63c-1.784-.012-3.569.006-5.354.013-1.235.12-2.464.3-3.706.347a6.724,6.724,0,0,0-5,2.9.82.82,0,0,1-.383.1c-1.121-.095-2.245-.019-3.367-.056-.521-.017-1.272.2-1.463-.368-.2-.587.533-.857.968-1.112a48.814,48.814,0,0,1,8.131-4.062c.7-.252,1.4-.505,2.111-.743a20.741,20.741,0,0,0,3.393-1.09,63.023,63.023,0,0,1,9.439-1.7c.3-.021.675.135.884-.247h1.25c.1.223.624,0,.485.468" transform="translate(-24.726 0)" fill="#25e0ac"/><path d="M104.5.469,104.011,0h2.25c-.513.441-1.221.145-1.765.468" transform="translate(-43.77 0)" fill="#fa7d97"/><path d="M115.009,0l-.231.457c-.394-.232-.935-.057-1.27-.457Z" transform="translate(-47.767)" fill="#fa7b92"/><path d="M220.8,105.472c-.341-.333-.39-.666,0-1Z" transform="translate(-92.804 -43.984)" fill="#f6a2bd"/><path d="M220.8,115.833c-.39-.334-.341-.666,0-1Z" transform="translate(-92.804 -48.346)" fill="#f6a2bd"/><path d="M62.774,56.286q18.751.01,37.5.006c2.462,0,3.864-1.662,5.022-3.579a2.523,2.523,0,0,1,1.564-.308c2.956-.008,5.912-.025,8.867,0a6.17,6.17,0,0,1,6.193,5.933c.031.54.019,1.082.019,1.623q0,36.393.005,72.786a10.1,10.1,0,0,1-.151,1.86,62.523,62.523,0,0,1-13.8,9.135,61.736,61.736,0,0,1-10.533,3.977c-2.635.72-5.334,1.066-7.953,1.8a1.357,1.357,0,0,0-1.188,0l-3.57.5c-.621-.3-1.322.083-1.942-.229l-.78.241a1.365,1.365,0,0,0-1.229,0l-1.531,0c-.5-.251-1.043-.06-1.561-.12a9.655,9.655,0,0,0-2.406.122l-1.06-.263a2.659,2.659,0,0,0-1.694.015l-.555-.265a2.032,2.032,0,0,0-1.431.008,56.072,56.072,0,0,0-5.755-1.212,58.1,58.1,0,0,1-9.778-3.276c.176-.762.817-.571,1.3-.582,1.855-.039,3.71-.014,5.565-.016a4.356,4.356,0,0,0,1.585-.185c1.673-.5,2.345-1.2,2.378-2.9q.144-7.544,0-15.09c-.035-2-.982-2.82-3.007-2.827q-7.549-.03-15.1,0c-2.025.005-2.8.747-2.827,2.78-.045,3.741,0,7.483-.024,11.225,0,.642.162,1.35-.433,1.866a41.524,41.524,0,0,1-6.2-4.687,10.23,10.23,0,0,1-.15-1.736q.01-36.654,0-73.308a7.526,7.526,0,0,1,.9-4.085,5.737,5.737,0,0,1,5.346-3.058c3.029.083,6.061.042,9.091.017a2.694,2.694,0,0,1,2.517,1.244A4.927,4.927,0,0,0,60.2,55.916a11.308,11.308,0,0,1,2.571.37" transform="translate(-16.041 -22.058)" fill="#efefef"/><path d="M170.405,119.045c-.461-.449-.226-1.02-.226-1.527q-.02-36.857-.013-73.712c0-3.377-1.572-5.694-4.409-6.436a8.58,8.58,0,0,0-2.1-.223c-3.249-.019-6.5,0-9.749,0,.515-6.408.111-12.826.225-19.239a10.065,10.065,0,0,0-.5-2.163l.061-.024c1.468-.226,2.96.057,4.414-.135a7.471,7.471,0,0,1,3.511.086q4.185.023,8.37.044c6.077.03,10.093,4.025,10.139,10.087q.025,3.434.052,6.868,0,4.788,0,9.576a16.623,16.623,0,0,1,.39,3.829q-.022,15.594,0,31.19a14.139,14.139,0,0,1-.392,3.7q0,13.66,0,27.321a52.223,52.223,0,0,1-7.676,8.8c-.688.664-1.4,1.3-2.1,1.954" transform="translate(-64.653 -6.492)" fill="#20bdfc"/><path d="M37.484,37.14c-3.578-.113-6.3,2.751-6.287,6.813.085,24.566.044,49.132.031,73.7,0,.465.226,1-.226,1.4a69.112,69.112,0,0,1-9.336-10.023c-.169-.228-.294-.488-.44-.734a5.057,5.057,0,0,1-.378-1.821c.01-8.492-.03-16.984.017-25.476q-.023-5-.019-9.992c.014-9.577-.033-19.155.028-28.732-.056-2.6-.01-5.194-.023-7.79a4.932,4.932,0,0,1,.374-1.8c.2-2.866-.161-5.745.206-8.607a9.3,9.3,0,0,1,8.986-8.3c3.119-.122,6.246-.064,9.369-.087a7.61,7.61,0,0,1,3.4-.1c1.493.228,3.035-.072,4.551.138l.058.017a1.046,1.046,0,0,1,.17.829c-.642,6.348-.237,12.709-.223,19.065,0,1.42.036,1.475-1.4,1.483-2.954.015-5.908-.032-8.862.023" transform="translate(-8.771 -6.501)" fill="#20bdfc"/><path d="M12.459,93.512q0,13.66,0,27.32a59.241,59.241,0,0,1-8.2-14.9,63.949,63.949,0,0,1,7.939-60.455,2.14,2.14,0,0,1,.264-.258q0,4.788,0,9.576c-.623,3.184-1.833,6.221-2.329,9.439a72.059,72.059,0,0,0-.82,7.684,54.642,54.642,0,0,0,2.539,19.056c.262.833.4,1.694.612,2.539" transform="translate(0 -19.037)" fill="#25e0ac"/><path d="M49.083,190.63q.024-6.5.049-12.993c.01-2.424.881-3.309,3.3-3.312q7.563-.01,15.125,0c2.289,0,3.275.968,3.284,3.26q.029,7.559,0,15.119c-.009,2.026-.821,2.946-2.714,3.22-3.161.068-6.322.171-9.483-.034a69.754,69.754,0,0,1-9.56-5.261" transform="translate(-20.655 -73.39)" fill="#5896d0"/><path d="M61.5,11.322l-7.949-.041a56.314,56.314,0,0,1,13.943-6.2c.279-.12.545-.215.527.261a50.589,50.589,0,0,0-11.5,5.636c1.819.335,3.437-.187,4.979.339" transform="translate(-22.535 -2.1)" fill="#25e0ac"/><path d="M65.589,211.577l9.483.034c-2.35.384-4.717.062-7.073.179-.478.024-1.01-.184-1.414.261a1.544,1.544,0,0,1-1-.473" transform="translate(-27.601 -89.076)" fill="#c2aec2"/><path d="M78.151,4.661c-.115-.211-.321-.236-.527-.262a13.167,13.167,0,0,1,3.708-1.041c-.205.588-.793.521-1.228.688-.636.244-1.3.413-1.954.615" transform="translate(-32.666 -1.414)" fill="#f25987"/><path d="M102.311,220.822c.785-.5,1.65-.136,2.473-.225.09.046.119.091.089.137s-.06.068-.09.068l-2.472.02" transform="translate(-43.055 -92.854)" fill="#c6b7c8"/><path d="M115.272,220.588c.644.1,1.342-.245,1.943.229-.648-.08-1.344.259-1.943-.229" transform="translate(-48.509 -92.859)" fill="#c5b3c5"/><path d="M97.556,220.387a1.45,1.45,0,0,1,1.695-.015l-1.695.015" transform="translate(-41.054 -92.667)" fill="#c9b9c9"/><path d="M94.128,219.942a1.061,1.061,0,0,1,1.431-.008l-1.431.008" transform="translate(-39.611 -92.48)" fill="#ccbdcd"/><path d="M106.579,220.813a1.158,1.158,0,0,0,0-.206c.5.048,1.05-.21,1.494.223l-1.5-.018" transform="translate(-44.851 -92.864)" fill="#d4d1da"/><path d="M124.79,219.949a.794.794,0,0,1,1.188,0l-1.188,0" transform="translate(-52.514 -92.489)" fill="#c9b7c8"/><path d="M111.8,220.822a.828.828,0,0,1,1.229,0l-1.229,0" transform="translate(-47.049 -92.854)" fill="#d8d6dd"/><path d="M98.324,35.391q6.807,0,13.614,0c1.94,0,3.062.955,3.106,2.619.045,1.689-1.121,2.792-3.055,2.873-.54.023-1.082,0-1.623,0q-12.552,0-25.105,0a5.357,5.357,0,0,1-1.841-.234,2.581,2.581,0,0,1-1.872-3.092A2.648,2.648,0,0,1,84.21,35.4c3.622-.019,7.244-.007,10.866-.008h3.247" transform="translate(-34.296 -14.899)" fill="#f1ad5a"/><path d="M49.575,35c2.989-.019,5.978-.063,8.967-.042.864.006,1.232-.159.954-1.115a6.321,6.321,0,0,1-.125-1.732c-.009-4.654.012-9.308-.014-13.963a13.635,13.635,0,0,1,.529-4.548,6.671,6.671,0,0,1,6.482-3.232c.825.035,1.651.017,2.477.024-.529.407-1.195.2-1.788.419a5.459,5.459,0,0,0-3.7,5c-.027,5.869-.045,11.739.01,17.608.021,2.163,1.359,3.579,3.125,4.633.35.209.733.362,1.1.541-.954.005-1.91.051-2.862.008a5.093,5.093,0,0,1-4.34-2.5,1.946,1.946,0,0,0-1.987-1.05c-2.943.029-5.887-.021-8.831-.042" transform="translate(-20.862 -4.361)" fill="#f1ad5a"/><path d="M103.991,12.772a3.763,3.763,0,0,1,7.525-.065,3.763,3.763,0,1,1-7.525.065" transform="translate(-43.762 -3.785)" fill="#343a6e"/><path d="M156.362,11.1l-7.926.05c1.53-.542,3.118-.018,4.911-.336a48.2,48.2,0,0,0-12.206-5.9c-.023-.482.244-.382.521-.259A57.063,57.063,0,0,1,154.447,9.97c.65.355,1.277.752,1.915,1.128" transform="translate(-59.395 -1.918)" fill="#25e0ac"/><path d="M139.821,4.152a.583.583,0,0,0-.521.259c-.845-.284-1.69-.567-2.533-.855a.211.211,0,0,1,.017-.111.409.409,0,0,1,.086-.088,10.184,10.184,0,0,1,2.951.8" transform="translate(-57.553 -1.413)" fill="#f25987"/><path d="M199.431,100.475c-.015-6.87-.041-13.739-.041-20.609,0-6.037.028-12.074.043-18.11a50.092,50.092,0,0,1,2.982,10.969,46.089,46.089,0,0,1,.64,8.269,43.959,43.959,0,0,1-.476,7.416,67.368,67.368,0,0,1-2.155,9.543,13.419,13.419,0,0,1-.993,2.523" transform="translate(-83.908 -26)" fill="#25e0ac"/><path d="M49.165,87.628c0-2.58-.012-5.161,0-7.741.012-2.056,1.011-3.055,3.079-3.061q7.743-.018,15.487,0c2.015,0,3.083.9,3.112,2.928q.112,7.926,0,15.854c-.025,1.892-1.106,2.889-3.037,2.907-5.2.049-10.408.058-15.611,0-2.13-.025-3.026-1.091-3.034-3.268-.008-2.539,0-5.077,0-7.616" transform="translate(-20.688 -32.341)" fill="#5896d0"/><path d="M115.707,105.007q-8.938,0-17.876.005a2.8,2.8,0,0,1-2.806-1.482,2.561,2.561,0,0,1,1.492-3.547,5.819,5.819,0,0,1,1.852-.209q17.376.008,34.752,0a5.89,5.89,0,0,1,1.611.138,2.554,2.554,0,0,1-.153,5.027,8.058,8.058,0,0,1-1.37.061q-8.75.005-17.5,0" transform="translate(-39.878 -42.006)" fill="#484b7f"/><path d="M115.763,197.265c6,0,12-.01,18,.006,2.023.006,3.2,1.253,2.932,2.994a2.416,2.416,0,0,1-1.762,2.043,5.66,5.66,0,0,1-1.853.193q-17.315,0-34.628-.007a7.451,7.451,0,0,1-1.607-.14,2.473,2.473,0,0,1-2.065-2.577,2.563,2.563,0,0,1,2.358-2.48,10.553,10.553,0,0,1,1.249-.031q8.688,0,17.376,0" transform="translate(-39.885 -83.049)" fill="#484b7f"/><path d="M115.833,148.519q8.875,0,17.751,0c1.852,0,2.876.758,3.1,2.229a2.471,2.471,0,0,1-1.714,2.813,5.211,5.211,0,0,1-1.729.19q-17.5,0-35,0h-.25c-2.051-.021-3.262-1.017-3.233-2.66.028-1.6,1.208-2.567,3.2-2.57q8.938-.015,17.876,0" transform="translate(-39.878 -62.527)" fill="#484b7f"/><path d="M49.038,126.915a3.43,3.43,0,0,1,0-2.69,2.582,2.582,0,0,1,4.782-.218c.619.774,1.121,1.634,1.674,2.455,1.247,2,2.7,3.871,3.806,5.876.7-1.95,1.77-3.865,2.694-5.848a22.927,22.927,0,0,1,2.638-5.052c.739-1.483,1.435-2.989,2.231-4.44a2.4,2.4,0,0,1,2.73-1.278,2.517,2.517,0,0,1,2.059,2.216,2.829,2.829,0,0,1-.335,1.672c-.4.952-.839,1.89-1.261,2.835A9.435,9.435,0,0,1,68.7,125.9c-1.007,2.1-1.952,4.234-2.981,6.325-1.024,1.889-1.769,3.91-2.776,5.808-.23.444-.44.9-.689,1.329a2.875,2.875,0,0,1-4.883.47,18.664,18.664,0,0,1-1.228-1.725c-.632-1.073-1.355-2.088-2.061-3.114-1.354-2.132-2.794-4.205-4.195-6.305a5.847,5.847,0,0,1-.853-1.773" transform="translate(-20.519 -48.694)" fill="#ee487d"/><path d="M49.21,131.846c1.8,2.6,3.6,5.195,5.232,7.9a2.038,2.038,0,0,1,.269.932c-.144,1.329.573,1.894,1.753,2.093.365.5.729,1.007,1.1,1.508,1.4,1.917,3.6,1.773,4.724-.305.216-.4.443-.794.665-1.192a1.326,1.326,0,0,1,.8-.27c1.484.049,1.563-.383,1.558-1.842a11.176,11.176,0,0,1,.31-3.535c1.417-3.311,3.005-6.541,4.6-9.766a3.451,3.451,0,0,1,.653,2.465q.021,7.373,0,14.747c-.007,2.33-.994,3.411-3.313,3.435q-7.5.076-15,0c-2.532-.024-3.4-1-3.393-3.556q.01-6.31.039-12.62" transform="translate(-20.692 -53.626)" fill="#5896d0"/><path d="M105.553,136.111c-2.583,0-5.166.013-7.749,0-1.891-.013-3.025-.994-3.037-2.576-.012-1.538,1.149-2.62,3.009-2.633q7.811-.05,15.623,0c1.842.013,3.007,1.127,2.978,2.667-.029,1.563-1.179,2.53-3.075,2.541-2.583.014-5.166,0-7.749,0" transform="translate(-39.88 -55.099)" fill="#484b7f"/><path d="M105.593,184.853c-2.667,0-5.333.032-8-.011a2.6,2.6,0,1,1-.08-5.2q8.061-.061,16.123,0a2.613,2.613,0,0,1,2.758,2.625,2.655,2.655,0,0,1-2.927,2.581c-2.624.027-5.249.007-7.874.006" transform="translate(-39.895 -75.617)" fill="#484b7f"/><path d="M105.583,87.372c-2.79,0-5.582.038-8.37-.019a2.368,2.368,0,0,1-2.342-2.028,2.531,2.531,0,0,1,1.352-2.816,4.2,4.2,0,0,1,1.828-.321q7.559-.009,15.119.006a5.247,5.247,0,0,1,1.6.233,2.548,2.548,0,0,1,1.616,2.682,2.467,2.467,0,0,1-2.43,2.247c-2.789.057-5.58.017-8.371.016" transform="translate(-39.904 -34.6)" fill="#484b7f"/><path d="M55.561,130.833c-.5-.706-.993-1.41-1.485-2.119-1.231-1.774-2.486-2.023-4.286-.847-.48.018-.379-.261-.278-.541a2.325,2.325,0,0,1,2.439-1.728c4.319-.012,8.638.012,12.957.022l-2.446,5.216a1.585,1.585,0,0,1-1.023.395c-1.616.043-3.232.052-4.849,0a1.763,1.763,0,0,1-1.029-.394" transform="translate(-20.8 -52.877)" fill="#5896d0"/><path d="M49.407,128.585c.034.21.057.426.278.54l-.476.54a1.3,1.3,0,0,1,.2-1.08" transform="translate(-20.696 -54.136)" fill="#7694c8"/><path d="M18.855,100.476a49.092,49.092,0,0,1-3.006-11.212,56.31,56.31,0,0,1-.621-7.775,34.345,34.345,0,0,1,.208-5.451,59.265,59.265,0,0,1,2.445-11.75c.286-.856.646-1.688.972-2.531.015,3.5.046,6.994.043,10.49q-.01,14.115-.042,28.229" transform="translate(-6.396 -26)" fill="#25e0ac"/><path d="M63.847,194.47c-1.541,0-3.081-.025-4.621.011-.7.016-1.056-.131-1.046-.95q.06-4.619,0-9.239c-.01-.807.324-.966,1.038-.96,3.081.027,6.162.032,9.243,0,.777-.009,1,.274.989,1.018-.031,3.038-.042,6.076.005,9.114.013.877-.35,1.042-1.113,1.02-1.5-.043-3-.013-4.5-.013" transform="translate(-24.483 -77.184)" fill="#efefef"/><path d="M58.2,91.386c0-1.5.025-3-.012-4.5-.017-.7.116-1.055.942-1.044,3.124.042,6.249.032,9.373.005.686-.006.959.183.952.912q-.047,4.747,0,9.495c.005.667-.249.857-.882.852-3.166-.021-6.332-.03-9.5,0-.767.009-.894-.332-.883-.981.03-1.582.01-3.165.01-4.747" transform="translate(-24.485 -36.142)" fill="#efefef"/><path d="M60.017,134.641l6.9,0-2.872,6.173-4.029-6.177" transform="translate(-25.256 -56.685)" fill="#efefef"/><path d="M75.629,144.241c.011,1.457-.038,2.916.053,4.368.066,1.065-.336,1.435-1.353,1.312a13.363,13.363,0,0,0-1.372-.032,52.1,52.1,0,0,1,2.672-5.647" transform="translate(-30.702 -60.727)" fill="#e9eaed"/><path d="M60.263,151.775c-2.072.1-2.074.1-2.062-1.922,0-.367.027-.735.041-1.1a16.61,16.61,0,0,1,2.021,3.024" transform="translate(-24.492 -62.626)" fill="#eaeaec"/></g></svg>