<svg xmlns="http://www.w3.org/2000/svg" xmlns:xlink="http://www.w3.org/1999/xlink" width="123" height="123" viewBox="0 0 123 123"><defs><clipPath id="a"><rect width="112.067" height="99.621" fill="rgba(0,0,0,0)"/></clipPath></defs><g transform="translate(-581 -1975)"><g transform="translate(586.174 1986.488)"><g clip-path="url(#a)"><path d="M97.18,9.55c.352-1.357.746-1.686,2.1-1.746,4.656-.206,8.012,2.011,8.987,5.951a16.979,16.979,0,0,1-.008,5.877,54.2,54.2,0,0,1-5.96,19.831c-.271.518-.306.713.352.972a14.339,14.339,0,0,1,5.48,23.338,1.246,1.246,0,0,0-.407,1.246c2.359,10.3-.75,18.967-8.247,26.051-10.35,9.78-26.98,11.3-39.135,3.877a1.854,1.854,0,0,1-.986-2.452c.529-1.015,1.1-1.271,2.1-.945a5.287,5.287,0,0,1,.983.475,29.6,29.6,0,0,0,14.721,3.917,28.536,28.536,0,0,0,17.963-5.826,23.777,23.777,0,0,0,9.477-15.34c1.6-9.333-2.92-17.943-10.794-22.6a32.214,32.214,0,0,0-18.92-4.235A29.687,29.687,0,0,0,59,53.519a21.14,21.14,0,0,0-9.037,15.69c-.595,6.337,1.445,11.829,5.331,16.736a3.591,3.591,0,0,1,.971,1.682c.089.638.068,1.256-.634,1.588-1.237.65-1.8.564-2.656-.462-5.255-6.274-7.547-13.426-6.378-21.6.026-.176.019-.357.035-.66a29.1,29.1,0,0,1-6.1,1.15C30.41,68.234,21.9,65.03,15.583,56.867A3.676,3.676,0,0,0,12.811,55.2,40.31,40.31,0,0,1,2.592,52.19,5.171,5.171,0,0,1,0,49.145v-1.97c2.181-4.7,5.371-8.535,10.1-10.731a6.621,6.621,0,0,0,3.374-3.367C17.291,25.63,23.588,21.348,31.6,19.433a1.193,1.193,0,0,0,1.1-1.155A25.606,25.606,0,0,1,38.969,5.761,9.542,9.542,0,0,1,52.8,5.1c.684.633.96.505,1.446-.13a30.092,30.092,0,0,1,2.085-2.386,7.722,7.722,0,0,1,11.526-.006A48.879,48.879,0,0,1,75.68,13.451c.4.752.691.776,1.38.411a52.129,52.129,0,0,1,13.172-4.8c1.458-.323,1.841-.154,2.549,1.137a1.54,1.54,0,0,1-1.154,2.134c-1.063.371-2.178.567-3.257.891-1.985.6-3.955,1.229-5.872,2.012-1.283.51-2.528,1.1-3.756,1.739a.831.831,0,0,0-.451,1.236A49.094,49.094,0,0,1,81.8,30.659a.906.906,0,0,0,.361.761c1.348-1.214,2.6-2.565,3.9-3.852,1.052-1.009,2.059-2.064,3.1-3.079a1.9,1.9,0,1,1,2.693,2.644c-1.659,1.74-3.4,3.4-5.077,5.122-1.377,1.355-2.727,2.737-4.1,4.092a3.309,3.309,0,0,0-.987,1.782A18.681,18.681,0,0,1,80.122,43c-.465.927-.418.994.645,1.138,1.516.205,3.042.326,4.541.643A1.552,1.552,0,0,0,86.82,44.1a14.915,14.915,0,0,1,4.5-3.409,13.62,13.62,0,0,1,6-1.444,1.535,1.535,0,0,0,1.609-1.012c.524-1.2,1.217-2.324,1.694-3.55a52.86,52.86,0,0,0,4.056-15.224c.129-1.116.2-2.245.252-3.365a4.364,4.364,0,0,0-4.363-4.726,14.655,14.655,0,0,1-1.96-.073A1.5,1.5,0,0,1,97.18,9.55" transform="translate(0 0)"/><path d="M83.189,115.663c.7-1.191.645-1.629-.348-2.816a23.04,23.04,0,0,1-5.617-13.258C76.562,90.8,80.087,83.967,87.31,79.1c6.363-4.291,13.519-5.59,21.075-4.9a29.377,29.377,0,0,1,15.628,5.9c10.354,7.994,11.78,22.443,3.149,32.575-6.047,7.1-13.917,10.2-23.14,10.042a28.84,28.84,0,0,1-14.43-4.141c-1.2-.711-1.69-.627-2.676.371l-3.728-3.282" transform="translate(-27.563 -26.447)" fill="#deb597"/><path d="M142.817,14.859a1.814,1.814,0,0,0,2.142,1.547,8.814,8.814,0,0,1,2.071.036,4.513,4.513,0,0,1,3.822,4.639,49.537,49.537,0,0,1-4.386,19.134c-.325.259-.7.147-1.053.121a19.715,19.715,0,0,0-12.339,2.88c-.3.19-.655.476-1,.227-.32-.232-.254-.659-.194-1.022a23.117,23.117,0,0,0,.107-3.491,3.423,3.423,0,0,1,.3-1.594c1.68-1.706,3.37-3.4,5.038-5.122a1.64,1.64,0,1,0-2.2-2.411c-1.109,1.044-2.185,2.123-3.275,3.187-.576-.109-.541-.625-.625-1.014a55.139,55.139,0,0,0-3.252-10.287c-.188-.436-.4-.877-.032-1.33a46.1,46.1,0,0,1,8.781-2.823,1.891,1.891,0,0,0,1.7-2.025l4.4-.652" transform="translate(-45.636 -5.309)" fill="#7ec98e"/><path d="M70.316,52.368A14.422,14.422,0,0,0,54.394,74.627c.343.473.744.806-.246,1.05-9.916,2.446-18.616.474-25.822-7.017-.378-.393-.694-.844-1.043-1.265-.179-.217-.275-.384.015-.628,2.2-1.848,2.855-4.414,3.171-7.094A13.751,13.751,0,0,0,29.257,51.9a6.775,6.775,0,0,0-3.642-3.606c-.93-.35-.8-.722-.458-1.39a22.549,22.549,0,0,1,9.24-9.491c10.114-5.746,23.535-3.64,31.107,4.923a19.764,19.764,0,0,1,4.811,10.034" transform="translate(-8.897 -12.214)" fill="#f3eb83"/><path d="M95.683,22.965c-.392-1.143-1.042-1.663-1.915-1.465a1.764,1.764,0,0,0-1.4,2.012c.008.682-.028,1.364-.044,2.046-.79.058-1.094-.634-1.561-1.047C89,22.951,89.061,22.965,90.2,20.92A12.931,12.931,0,0,0,90.6,8.946c-.226-.523-.655-.988-.5-1.629,2.237-2.849,5.167-3.021,7.6-.345a48.4,48.4,0,0,1,12.508,26.092,17.14,17.14,0,0,1-2.476,12.253,1.762,1.762,0,0,1-1.458.913c-1.88.182-3.747.5-5.619.76a2.351,2.351,0,0,1-.312-1.575A25.23,25.23,0,0,0,96.2,30.833a3.169,3.169,0,0,1-.476-1.757c-.01-2.037.08-4.074-.046-6.11" transform="translate(-31.936 -1.811)" fill="#abd87f"/><path d="M55.928,21.94a21.235,21.235,0,0,1,6.666-11.9A5.228,5.228,0,0,1,66.92,8.975a7.2,7.2,0,0,1,6.049,8.3,5.159,5.159,0,0,1-1.424,2.655c-.361.361-.76.682-1.129,1.034-1.794,1.713-3.626,2.646-6.3,1.653-2.521-.936-5.306-.8-8.186-.681" transform="translate(-19.982 -3.183)" fill="#efd68a"/><path d="M139.593,70.1c3.535-4.385,10.818-4.658,15.354-.641,4.364,3.865,4.987,11.157,1.215,15.088-3.458-7.184-9.22-11.729-16.568-14.448" transform="translate(-49.875 -23.803)" fill="#d79882"/><path d="M90.626,70.1c-7.408,2.749-13.135,7.284-16.576,14.431-3.144-3.289-3.829-10.263.93-14.815,4.466-4.27,11.74-4.119,15.646.383" transform="translate(-25.564 -23.8)" fill="#d79882"/><path d="M20.2,67.309a11.559,11.559,0,0,1-1.113,5.073A2.109,2.109,0,0,1,16.834,73.7c-3.84-.259-7.385-1.578-10.924-2.92a1.165,1.165,0,0,1-.625-1.8,19.252,19.252,0,0,1,8.011-8.13c2.809-1.393,5.187-.349,6.279,2.6a10.85,10.85,0,0,1,.626,3.863" transform="translate(-1.812 -21.521)" fill="#f0bb77"/><path d="M130.666,49.832a32.753,32.753,0,0,1-.226,6.117,28.022,28.022,0,0,1,4.66-2.367,19.418,19.418,0,0,1,9.748-.872,42.011,42.011,0,0,1-1.937,4.024.987.987,0,0,1-1.023.605A14.133,14.133,0,0,0,130.6,62.556a.922.922,0,0,1-1.017.421,43.989,43.989,0,0,0-6.372-.893,21.314,21.314,0,0,0,2.407-7.024,1.129,1.129,0,0,1,.389-.636l4.664-4.593" transform="translate(-44.02 -17.804)" fill="#68b080"/><path d="M86.448,8.567a14.393,14.393,0,0,1,2.03,7.81,12.033,12.033,0,0,1-2.38,7c-.447.586-.492.982.184,1.372a28.34,28.34,0,0,1,2.389,2.064V32.6a27.421,27.421,0,0,0-9.517-7.867c.875-.738,1.7-1.384,2.471-2.092A8.812,8.812,0,0,0,84.1,12.6a1.523,1.523,0,0,1,.322-1.755c.7-.741,1.354-1.517,2.028-2.279" transform="translate(-28.281 -3.061)" fill="#7eca8e"/><path d="M125.531,23.416c.017,1.176.734,2.111,1.118,3.158a63.041,63.041,0,0,1,2.606,9.094,1.7,1.7,0,0,0,.184.379l-4.516,4.294a45.146,45.146,0,0,0-2.223-9.876c-.484-1.369-.985-2.735-1.561-4.067-.267-.618-.14-.89.434-1.166,1.309-.629,2.592-1.309,3.957-1.816" transform="translate(-43.234 -8.366)" fill="#73bd87"/><path d="M99.164,32.914a29.146,29.146,0,0,1,.138,5.42,4.339,4.339,0,0,0,.731,2.425,26.14,26.14,0,0,1,3.922,10.633c.26,1.857.107,3.7.188,5.548a33.923,33.923,0,0,0-3.613-3.258c-.3-.192-.267-.587-.285-.908a11.382,11.382,0,0,0-.528-3.112,15.1,15.1,0,0,1-.586-5.167c.03-3.86.023-7.721.031-11.581" transform="translate(-35.418 -11.76)" fill="#7eca8e"/><path d="M141.764,106.569c.449-1.528.449-1.508,2.216-1.534a6.728,6.728,0,0,1,5.2,2.082,4.237,4.237,0,0,1,.318,5.755c-2.632,3.482-9.072,3.153-11.35-.564a4.039,4.039,0,0,1,.677-5.067,2.211,2.211,0,0,0,2.939-.671" transform="translate(-49.147 -37.527)" fill="#fefefe"/><path d="M94.694,107.16a3.923,3.923,0,0,1,.4,5.407c-2.362,3.173-8.095,3.448-10.781.517a4.426,4.426,0,0,1,.622-6.709,7.306,7.306,0,0,1,6.705-1.19c.28.278.251.666.354,1.006.366,1.222.913,1.5,2.087,1.06.2-.076.388-.205.615-.093" transform="translate(-29.675 -37.46)" fill="#fefefe"/><path d="M118.949,120.331c-1.035.109-2.051-1.012-3.028-.95s-1.963.967-3.149.953A4.819,4.819,0,0,1,108,115.956a1.733,1.733,0,0,1,1.4-2.025,1.622,1.622,0,0,1,1.857,1.549c.139.9.536,1.534,1.512,1.546,1.027.012,1.459-.609,1.573-1.584a1.63,1.63,0,0,1,3.251.005c.107.969.553,1.6,1.581,1.579.969-.019,1.372-.638,1.5-1.551a1.607,1.607,0,0,1,1.758-1.552,1.689,1.689,0,0,1,1.5,1.929,4.845,4.845,0,0,1-4.978,4.48" transform="translate(-38.583 -40.699)"/><path d="M118.765,101.526c.291.022.583.027.87.069.886.129,1.845.31,2.012,1.343.158.973-.571,1.6-1.341,2.066a3.059,3.059,0,0,1-3.859-.659c-.96-1.1-.685-2.089.706-2.59a6.81,6.81,0,0,1,1.613-.23" transform="translate(-41.403 -36.274)" fill="#010101"/><path d="M142.253,104.883c-.681,1.511-1.622,1.726-2.938.672a7.239,7.239,0,0,1-.231-3.955,1.433,1.433,0,0,1,1.735-1.27,1.478,1.478,0,0,1,1.426,1.512c.04,1.012.008,2.028.008,3.042" transform="translate(-49.636 -35.842)" fill="#010101"/><path d="M99.465,105.538a1.674,1.674,0,0,1-1.955.53,1.78,1.78,0,0,1-1.046-1.857c0-.216-.035-.431-.054-.647.026-.577.018-1.157.087-1.728a1.6,1.6,0,0,1,1.654-1.531,1.538,1.538,0,0,1,1.566,1.6,8.511,8.511,0,0,1-.251,3.635" transform="translate(-34.446 -35.838)" fill="#010101"/><path d="M47.809,58.382a5.639,5.639,0,0,1,5.3,4.1,4.007,4.007,0,0,1-.819,3.473c-2.28,3.126-8.517,3.117-10.8,0a4.385,4.385,0,0,1,1.248-6.437,6.411,6.411,0,0,1,1.972-.906.393.393,0,0,1,.4.084,1.538,1.538,0,0,0,2.3-.154.627.627,0,0,1,.394-.159" transform="translate(-14.503 -20.859)" fill="#e5979d"/><path d="M46.686,55.483c-1.019,1.4-1.869,1.464-3.1.229-.031-.179-.071-.357-.091-.537-.093-.882-.424-1.617-1.434-1.594-.914.021-1.264.644-1.373,1.529a1.617,1.617,0,0,1-1.744,1.462,1.678,1.678,0,0,1-1.5-1.825,4.634,4.634,0,0,1,9.207-.572,11.81,11.81,0,0,1,.031,1.308" transform="translate(-13.38 -17.96)"/></g></g><rect width="123" height="123" transform="translate(581 1975)" fill="none"/></g></svg>