<svg xmlns="http://www.w3.org/2000/svg" xmlns:xlink="http://www.w3.org/1999/xlink" width="295" height="466.052" viewBox="0 0 295 466.052"><defs><clipPath id="a"><rect width="295" height="466" rx="12" fill="#126783"/></clipPath><filter id="b" x="-48.491" y="-25.747" width="115.549" height="99.711" filterUnits="userSpaceOnUse"><feOffset dy="3" input="SourceAlpha"/><feGaussianBlur stdDeviation="8.5" result="c"/><feFlood flood-opacity="0.373"/><feComposite operator="in" in2="c"/><feComposite in="SourceGraphic"/></filter><filter id="d" x="-2.393" y="-20.083" width="70.147" height="67.186" filterUnits="userSpaceOnUse"><feOffset dy="3" input="SourceAlpha"/><feGaussianBlur stdDeviation="8.5" result="e"/><feFlood flood-opacity="0.373"/><feComposite operator="in" in2="e"/><feComposite in="SourceGraphic"/></filter></defs><g transform="translate(-771.693 -2948)"><path d="M12,0H283c6.627,0,12,5.976,12,13.348V452.7c0,7.372-5.373,13.348-12,13.348H12c-6.627,0-12-5.976-12-13.348V13.348C0,5.976,5.373,0,12,0Z" transform="translate(771.693 2948)" fill="#d3f9ee"/><g transform="translate(771.693 2948)" clip-path="url(#a)"><g transform="translate(-24.572 -2.721)"><g transform="matrix(1, 0, 0, 1, 24.57, 2.72)" filter="url(#b)"><path d="M11.852,63.632a9.392,9.392,0,0,0,9.459-9.556l.735-43.809A9.8,9.8,0,0,0,12.419.543,9.392,9.392,0,0,0,2.96,10.1L2.225,53.908A9.8,9.8,0,0,0,11.852,63.632Z" transform="translate(-24.57 15.57) rotate(-60)" fill="#126783"/></g><g transform="matrix(1, 0, 0, 1, 24.57, 2.72)" filter="url(#d)"><path d="M4.972,17.189a4.338,4.338,0,0,0,4.369-4.414L9.271,4.7A4.526,4.526,0,0,0,4.824.211,4.338,4.338,0,0,0,.455,4.625L.525,12.7A4.526,4.526,0,0,0,4.972,17.189Z" transform="translate(22.7 10.4) rotate(-60)" fill="#25e0ac"/></g><path d="M18.807,66.764c.209,0,.421,0,.632-.01,10.082-.331,18.552-8.46,18.882-18.121l0-.05L41.208-.378A15.743,15.743,0,0,0,36.8-11.944a16.321,16.321,0,0,0-5.454-3.714,17.815,17.815,0,0,0-6.937-1.369c-.209,0-.422,0-.633.01C13.7-16.686,5.226-8.557,4.9,1.1l0,.05L2.009,50.115a15.743,15.743,0,0,0,4.4,11.565A16.322,16.322,0,0,0,11.868,65.4a17.819,17.819,0,0,0,6.938,1.369h0m0,2C8.011,68.763-.346,60.507.011,50.023L2.9,1.036c.365-10.709,9.684-19.687,20.815-20.052S43.571-11,43.206-.286L40.319,48.7C39.954,59.41,30.635,68.388,19.5,68.753,19.27,68.76,19.038,68.764,18.805,68.764Z" transform="translate(271.47 455.649) rotate(-60)" fill="#25e0ac"/></g></g></g></svg>