<svg xmlns="http://www.w3.org/2000/svg" xmlns:xlink="http://www.w3.org/1999/xlink" width="295" height="485" viewBox="0 0 295 485"><defs><clipPath id="a"><rect width="295" height="484" rx="12" fill="#126783"/></clipPath><filter id="b" x="-48.49" y="-25.746" width="115.549" height="99.711" filterUnits="userSpaceOnUse"><feOffset dy="3" input="SourceAlpha"/><feGaussianBlur stdDeviation="8.5" result="c"/><feFlood flood-opacity="0.373"/><feComposite operator="in" in2="c"/><feComposite in="SourceGraphic"/></filter><filter id="d" x="-2.393" y="-20.083" width="70.147" height="67.186" filterUnits="userSpaceOnUse"><feOffset dy="3" input="SourceAlpha"/><feGaussianBlur stdDeviation="8.5" result="e"/><feFlood flood-opacity="0.373"/><feComposite operator="in" in2="e"/><feComposite in="SourceGraphic"/></filter></defs><g transform="translate(-180 -1951)"><rect width="295" height="485" rx="12" transform="translate(180 1951)" fill="#126783"/><g transform="translate(180 1951)" clip-path="url(#a)"><g transform="translate(-24.572 -2.721)"><g transform="matrix(1, 0, 0, 1, 24.57, 2.72)" filter="url(#b)"><path d="M11.852,63.632a9.392,9.392,0,0,0,9.459-9.556l.735-43.809A9.8,9.8,0,0,0,12.419.543,9.392,9.392,0,0,0,2.96,10.1L2.225,53.908A9.8,9.8,0,0,0,11.852,63.632Z" transform="translate(-24.57 15.57) rotate(-60)" fill="#20bdfc"/></g><path d="M30.03,116.962A23.027,23.027,0,0,0,46.5,110.11a23.33,23.33,0,0,0,5.026-7.575A23.821,23.821,0,0,0,53.316,93.2v-.047l.984-65.6A24.586,24.586,0,0,0,39.572,5.293a23.632,23.632,0,0,0-9.258-1.966H30.1a23.027,23.027,0,0,0-16.473,6.852A23.328,23.328,0,0,0,8.6,17.752a23.824,23.824,0,0,0-1.788,9.334v.047l-.984,65.6A24.586,24.586,0,0,0,20.56,115a23.632,23.632,0,0,0,9.258,1.966h.212m0,2H29.8A26.428,26.428,0,0,1,3.832,92.731L4.816,27.1A25.333,25.333,0,0,1,30.331,1.326,26.428,26.428,0,0,1,56.3,27.557l-.984,65.627A25.335,25.335,0,0,1,30.03,118.962Z" transform="translate(236.692 473.562) rotate(-60)" fill="#25e0ac"/><g transform="matrix(1, 0, 0, 1, 24.57, 2.72)" filter="url(#d)"><path d="M4.972,17.189a4.338,4.338,0,0,0,4.369-4.414L9.271,4.7A4.526,4.526,0,0,0,4.824.211,4.338,4.338,0,0,0,.455,4.625L.525,12.7A4.526,4.526,0,0,0,4.972,17.189Z" transform="translate(22.7 10.4) rotate(-60)" fill="#25e0ac"/></g></g></g></g></svg>