<svg xmlns="http://www.w3.org/2000/svg" xmlns:xlink="http://www.w3.org/1999/xlink" width="123" height="123" viewBox="0 0 123 123"><defs><clipPath id="a"><rect width="108.855" height="108.805" fill="none"/></clipPath></defs><g transform="translate(-266 -1976)"><g transform="translate(273 1983)"><g clip-path="url(#a)"><path d="M42.178,83.316a7.206,7.206,0,0,1-7.017,0c0,1.458.01,2.793,0,4.128a7.132,7.132,0,0,1-7,7.323,7.058,7.058,0,0,1-7.026-7.38c-.009-6.8.009-13.592-.009-20.388a3.513,3.513,0,1,0-7.013-.183,24.088,24.088,0,0,1-.224,5.022A7.1,7.1,0,0,1,6.469,77.2,6.925,6.925,0,0,1,.124,70.626c-.033-6.72-.345-13.451.166-20.16A53.386,53.386,0,0,1,13.248,19.286,52.408,52.408,0,0,1,40.821,1.849c16.831-4.23,32.4-1.211,46.322,9.164a52.947,52.947,0,0,1,20.685,32.973,50.217,50.217,0,0,1,1,9.9c.008,3.471-.082,6.945.024,10.413.177,5.773-5.589,9.392-10.277,6.863-.054-.029-.137,0-.268,0,0,4.31.021,8.614-.007,12.917A7.158,7.158,0,0,1,93,91.034a7,7,0,0,1-8.716-6.866q-.048-12.057,0-24.114A3.633,3.633,0,0,0,82.5,56.648,3.485,3.485,0,0,0,77.267,59.8c-.026,5.736.008,11.473-.015,17.209a7.1,7.1,0,0,1-5.464,7.035,7,7,0,0,1-8.546-6.621c-.056-2.3-.006-4.6-.017-6.905a3.517,3.517,0,1,0-7.011-.022q-.01,15.455-.007,30.91a7.162,7.162,0,0,1-6.386,7.37,7.037,7.037,0,0,1-7.631-6.966c-.041-5.7-.011-11.4-.012-17.1V83.316" transform="translate(0 0)"/><path d="M7.187,235.431a7.015,7.015,0,1,1,7.07-6.876,7.024,7.024,0,0,1-7.07,6.876" transform="translate(-0.147 -142.421)"/><path d="M191.27,248.125a7.014,7.014,0,1,1-7-7.055,7.031,7.031,0,0,1,7,7.055" transform="translate(-114.014 -155.073)"/><path d="M104.341,10.676c-3.015,2.195-5.828,4.277-8.683,6.3a2.621,2.621,0,0,0-1.219,2.386q.059,6.412,0,12.825a3.137,3.137,0,0,0,.878,2.261q6.582,7.347,13.116,14.737c1.174,1.323,1.646,1.432,3.21.662,1.328-.653,1.348-.662,1.983.671.514,1.08,1.559,2.136,1.419,3.235-.133,1.042-1.158,1.976-1.8,2.948-1.935,2.908-1.817,3.315,1.362,4.677.635.272,1.5.416,1.817.905.3.453-.441,1.119-.605,1.742a9.563,9.563,0,0,0-.317,2.487q.014,8.44,0,16.881a3.568,3.568,0,0,1-2,3.4,3.206,3.206,0,0,1-3.6-.347,3.459,3.459,0,0,1-1.416-2.942q.016-3.289,0-6.577a7.018,7.018,0,1,0-14.026-.026q-.018,15.291,0,30.583a5.311,5.311,0,0,1-.221,1.837,3.477,3.477,0,0,1-6.786-1.01c-.036-1.058-.01-2.119-.01-3.178q0-15.51,0-31.021c0-.329.017-.659-.009-.986a1.741,1.741,0,0,0-1.76-1.729,1.705,1.705,0,0,0-1.725,1.756c-.039,1.9-.013,3.8-.014,5.7,0,1.608.025,3.216-.009,4.823a3.5,3.5,0,0,1-6.994.034c-.034-4.567,0-9.134-.023-13.7,0-.545.17-.738.721-.838,2.116-.383,4.217-.854,6.331-1.256A2.162,2.162,0,0,0,85.7,66.442c1.066-2.716,2.137-5.43,3.263-8.121a5.239,5.239,0,0,0-.026-2.909c-.452-3.363-.979-6.716-1.444-10.077a4.449,4.449,0,0,0-.56-1.639C84.77,39.93,82.6,36.168,80.467,32.384a2.6,2.6,0,0,0-1.933-1.419c-2.117-.38-4.217-.856-6.334-1.238a2.93,2.93,0,0,1-2.05-1.235c-1.589-2.23-3.246-4.412-4.914-6.584-.41-.533-.5-.83.117-1.3a50.123,50.123,0,0,1,26.96-10.45,52.322,52.322,0,0,1,10.712.287c.36.044.715.124,1.317.232" transform="translate(-41.754 -6.435)" fill="#006def"/><path d="M189.12,81.35c0-3.873.008-7.745,0-11.618-.013-5.33-4.3-8.539-9.4-7.019-.908.271-1.525-.32-2.237-.6-1.519-.6-1.5-.628-.632-1.948,2.332-3.553,2.217-2.52.379-6.32q-1.072-2.217-2.206-4.4a1.791,1.791,0,0,0-2.72-.9c-2.093.974-2.1.979-3.637-.745q-5.286-5.932-10.566-11.868a1.88,1.88,0,0,1-.561-1.355q.037-5.48,0-10.961a1.367,1.367,0,0,1,.642-1.264q4.849-3.482,9.656-7.023a1.716,1.716,0,0,1,1.708-.3q28.3,8.845,35.784,37.525a45.8,45.8,0,0,1,1.336,11.61q0,4.877,0,9.755c0,2.476-1.443,4.15-3.546,4.134-2.082-.016-3.467-1.638-3.469-4.074q0-6.357,0-12.714a4.622,4.622,0,0,0-.046-1.091,1.741,1.741,0,0,0-3.416.026,5.678,5.678,0,0,0-.042,1.2q0,15.783,0,31.566a7.516,7.516,0,0,1-.068,1.419,3.49,3.49,0,0,1-6.938-.647c-.02-4.128-.006-8.257-.006-12.385" transform="translate(-101.336 -9.597)" fill="#25e0ac"/><path d="M20.439,91.7c0-.924.019-1.69,0-2.456a1.761,1.761,0,0,0-1.8-1.906,1.741,1.741,0,0,0-1.691,1.9c-.018,3.981.007,7.963-.016,11.945a3.521,3.521,0,0,1-2.074,3.346,3.211,3.211,0,0,1-3.508-.38,3.159,3.159,0,0,1-1.407-2.606c.066-6.9-.4-13.819.256-20.7A50.28,50.28,0,0,1,20.909,54.323a58.1,58.1,0,0,1,4.92-5.44c.564-.561.843-.669,1.376.073,1.767,2.461,3.638,4.847,5.428,7.292a3.126,3.126,0,0,0,2.124,1.362c2.084.355,4.146.835,6.225,1.216a2.131,2.131,0,0,1,1.678,1.163c1.559,2.849,3.154,5.68,4.838,8.456a10.349,10.349,0,0,1,1.424,4.192c.357,2.859.766,5.712,1.194,8.562a2.311,2.311,0,0,1-.144,1.269c-.819,2.028-1.647,4.054-2.43,6.1a1.293,1.293,0,0,1-1.081.92c-1.4.252-2.8.5-4.183.833-.679.161-.807-.047-.8-.672.026-2.3.012-4.6.01-6.9,0-1.6-.585-2.4-1.735-2.418s-1.772.807-1.772,2.379q0,17.643,0,35.287a8.037,8.037,0,0,1-.061,1.42,3.494,3.494,0,0,1-6.948-.676q-.019-10.247,0-20.493a7.239,7.239,0,0,0-1.828-5.021A6.86,6.86,0,0,0,21.462,91.3c-.3.111-.6.235-1.023.4" transform="translate(-6.327 -31.154)" fill="#25e0ac"/><path d="M13.563,231.244a3.5,3.5,0,1,1-3.488,3.489,3.514,3.514,0,0,1,3.488-3.489" transform="translate(-6.481 -148.752)" fill="#25e0ac"/><path d="M194.09,254.374a3.5,3.5,0,1,1-3.517-3.462,3.53,3.53,0,0,1,3.517,3.462" transform="translate(-120.345 -161.404)" fill="#25e0ac"/></g></g><rect width="123" height="123" transform="translate(266 1976)" fill="none"/></g></svg>