<svg xmlns="http://www.w3.org/2000/svg" xmlns:xlink="http://www.w3.org/1999/xlink" width="88.374" height="91.872" viewBox="0 0 88.374 91.872"><defs><clipPath id="a"><rect width="88.374" height="91.872" fill="none"/></clipPath><clipPath id="b"><rect width="42.588" height="39.67" fill="none"/></clipPath></defs><g clip-path="url(#a)"><path d="M98.4,88.118a7.7,7.7,0,0,1-4.432-2.541,7.156,7.156,0,0,1-1.584-4.611q-.006-35.878.02-71.757c0-.78-.188-.982-.968-.968-2.81.051-5.621.024-8.431.018a1.439,1.439,0,0,1-1.6-1.865C82,2.326,84.682,0,88.786,0h48.525c4.455,0,7.386,2.916,7.386,7.358q0,35.749-.019,71.5c0,.812.157,1.043,1,1.024,2.781-.064,5.563-.026,8.345-.023,1.255,0,1.786.582,1.668,1.808A6.867,6.867,0,0,1,149.9,88a.833.833,0,0,0-.217.117Z" transform="translate(-67.337 0)"/><path d="M209.275,98.605h-43.32c-3.261,0-4.859-1.591-4.859-4.844q0-35.659-.02-71.318c0-.8.225-.96.983-.959q17.851.036,35.7.017c1.429,0,1.759-.3,1.9-1.7a4.121,4.121,0,0,1,8.23.244c.017.458.008.918.008,1.376q0,36.39,0,72.78a7.71,7.71,0,0,0,1.378,4.4" transform="translate(-133.294 -13.241)" fill="#e5e8ec"/><path d="M98.719,18.716a4.243,4.243,0,0,1,4.139-2.753q4.987,0,9.974,0h33.789a9.434,9.434,0,0,0-1.075,2.369.424.424,0,0,1-.541.387,1.563,1.563,0,0,0-.258,0H98.719Z" transform="translate(-81.692 -13.209)" fill="#f4f6f9"/><path d="M450.381,479.069h7.544a3.738,3.738,0,0,1-3.342,2.71,4.028,4.028,0,0,1-4.2-2.71" transform="translate(-372.7 -396.439)" fill="#cbd0d8"/><path d="M204.322,142.676q-8.647,0-17.295,0c-1.456,0-1.9-.442-1.9-1.9q-.005-1.549,0-3.1c.006-1.429.471-1.889,1.928-1.89q12.777,0,25.555,0,4.56,0,9.121,0c1.5,0,1.935.448,1.938,1.959q0,1.506,0,3.012c0,1.493-.432,1.912-1.965,1.912q-8.69,0-17.381,0" transform="translate(-153.194 -112.37)"/><path d="M204.484,258.236q-8.6,0-17.192,0a4.788,4.788,0,0,1-.857-.034,1.288,1.288,0,0,1-1.129-1.228,1.25,1.25,0,0,1,.928-1.377,3.069,3.069,0,0,1,.93-.11q17.364-.008,34.728,0c.172,0,.345-.009.516.007a1.418,1.418,0,0,1,1.4,1.441,1.361,1.361,0,0,1-1.442,1.3c-1.518.026-3.037.01-4.556.01H204.484" transform="translate(-153.339 -211.414)"/><path d="M204.452,290.155q-8.562,0-17.124,0a5.1,5.1,0,0,1-.858-.029,1.351,1.351,0,0,1-.1-2.659,3.96,3.96,0,0,1,.94-.062q17.253,0,34.506,0a4.839,4.839,0,0,1,.772.027,1.372,1.372,0,0,1,1.214,1.428,1.333,1.333,0,0,1-1.276,1.281,6.318,6.318,0,0,1-.774.016h-17.3" transform="translate(-153.339 -237.829)"/><path d="M250.7,322.084q-3.914,0-7.828,0c-1.107,0-1.736-.49-1.76-1.338-.025-.871.641-1.411,1.783-1.412q7.871-.007,15.742,0c1.044,0,1.662.49,1.712,1.3.052.851-.6,1.44-1.648,1.443-2.667.01-5.333,0-8,0" transform="translate(-199.528 -264.251)"/><path d="M192.733,210.358c-1.946,0-3.893.005-5.839,0-1.09,0-1.723-.518-1.722-1.367s.652-1.38,1.726-1.382q5.84-.012,11.679,0c1.078,0,1.719.539,1.718,1.386s-.627,1.359-1.722,1.363c-1.946.007-3.893,0-5.839,0" transform="translate(-153.234 -171.794)"/><path d="M328.467,210.358c-1.946,0-3.893.005-5.839,0-1.092,0-1.727-.511-1.732-1.357s.646-1.389,1.718-1.391q5.839-.013,11.679,0c1.081,0,1.72.531,1.725,1.377s-.616,1.368-1.711,1.372c-1.946.008-3.893,0-5.839,0" transform="translate(-265.547 -171.794)"/><path d="M291.745,209.078a1.358,1.358,0,0,1-1.368,1.348,1.4,1.4,0,0,1-1.365-1.368,1.436,1.436,0,0,1,1.384-1.363,1.394,1.394,0,0,1,1.349,1.383" transform="translate(-239.164 -171.872)" fill="#030303"/><path d="M217.394,153.046c-5.189,0-10.377-.016-15.566.017-.744,0-.956-.236-.872-.927.038-.312.115-.487.453-.467.143.008.286,0,.43,0q15.652,0,31.3,0c.389,0,.873-.183.879.562.005.626-.141.83-.8.826-5.275-.028-10.549-.016-15.824-.016" transform="translate(-166.281 -125.496)" fill="#646c77"/><path d="M250.121,358.447a7.954,7.954,0,1,1-7.979,7.9,7.966,7.966,0,0,1,7.979-7.9m-.035,1.769a6.185,6.185,0,1,0,6.192,6.177,6.2,6.2,0,0,0-6.192-6.177" transform="translate(-200.377 -296.622)"/><path d="M344.754,429.581v-1.819c.351-.065.712-.106,1.058-.2a4.084,4.084,0,0,0,2.437-1.864c.262-.42.581-.744,1.119-.6.5.135.636.526.679,1.015a1.743,1.743,0,0,0,1.8,1.6c1.138.013,2.277,0,3.453,0v1.73c-1.343,0-2.683.066-4.014-.021a3.256,3.256,0,0,1-2.421-1.5,16.516,16.516,0,0,1-1.956,1.108,15.7,15.7,0,0,1-2.15.55" transform="translate(-285.291 -351.749)"/><path d="M271.474,383.393a4.417,4.417,0,1,1-4.406-4.442,4.43,4.43,0,0,1,4.406,4.442m-4.41-2.674a2.65,2.65,0,1,0,2.643,2.683,2.66,2.66,0,0,0-2.643-2.683" transform="translate(-217.341 -313.591)"/><g transform="translate(0 52.202)" clip-path="url(#b)"><path d="M7.629.606A.668.668,0,0,1,8.383,0q9.271,0,18.543.006A1.39,1.39,0,0,1,28.236.93a1.381,1.381,0,0,1-.29,1.611.826.826,0,0,0-.257.648c.009,1.954.012,3.908,0,5.862,0,.3.078.359.365.359,4.282-.01,8.564.007,12.847-.019a1.577,1.577,0,0,1,1.69,1.007v.665a4.365,4.365,0,0,0-.377,2.29c.014,1.452.006,2.9,0,4.357a2.074,2.074,0,0,0,.249,1.277c.094.134.053.324.126.475v.748a6.322,6.322,0,0,0-.372,3c0,1.369,0,2.738,0,4.107a1.707,1.707,0,0,0,.227,1.033c.12.175.07.4.148.595v.665a6.514,6.514,0,0,0-.372,3.038c0,1.258,0,2.517,0,3.776a1.853,1.853,0,0,0,.234,1.155c.1.146.065.349.14.514v.665c-.147.077-.147.252-.244.365a1.334,1.334,0,0,1-1.059.549q-1.221-.011-2.441,0a.7.7,0,0,1-.776-.534c-.083-.5.011-.644.515-.817.773-.026,1.547-.018,2.382-.035a1.351,1.351,0,0,1-.254-.976q0-3.409,0-6.818a1.376,1.376,0,0,1,.3-1.046c.16-.166.093-.333-.04-.478a1.126,1.126,0,0,1-.258-.809q0-3.638,0-7.275a1.051,1.051,0,0,1,.252-.769.35.35,0,0,0,.008-.546,1.087,1.087,0,0,1-.26-.808q0-3.575,0-7.15a.915.915,0,0,1,.317-.836c-4.228-.019-8.409-.007-12.59-.008-.186,0-.394-.061-.543.12a1.9,1.9,0,0,0,.243,1.615,1.881,1.881,0,0,1-.056,2.288,1.2,1.2,0,0,0-.255.767c0,.915,0,1.829,0,2.743,0,.6.02.617.642.618q4.76,0,9.519,0c.18,0,.361-.006.541.007a.884.884,0,0,1,.9.8c-.014.419-.359.691-.917.693-2.356.007-4.711,0-7.067,0-1.025,0-2.051,0-3.076,0-.5,0-.539.043-.541.551,0,1.039,0,2.079,0,3.117a1.215,1.215,0,0,0,.241.773,1.926,1.926,0,0,1,.059,2.325,1.919,1.919,0,0,0-.205.312,1.256,1.256,0,0,0-.025,1.01c.122.255.452.125.69.132.526.016,1.053,0,1.579.008s.807.248.829.677a.79.79,0,0,1-.784.8c-.608.049-1.219.012-1.828.019-.534.006-.553.021-.554.569,0,1.857,0,3.713,0,5.57a1.168,1.168,0,0,0,.277.842,1.3,1.3,0,0,1,.336.705c.048.411.294.462.638.461,1.968-.008,3.935,0,5.9,0a2.525,2.525,0,0,1,.621.04.575.575,0,0,1,.5.68c-.229.6-.309.653-.97.653q-16.675,0-33.349,0A2.07,2.07,0,0,1,1,39.57a1.471,1.471,0,0,1-.975-1.2,1.411,1.411,0,0,1,.621-1.445A.532.532,0,0,0,.9,36.422q-.01-4.2,0-8.4a.621.621,0,0,0-.227-.533,1.851,1.851,0,0,1,.017-2.87A.54.54,0,0,0,.9,24.164q-.009-4.324,0-8.649a.582.582,0,0,0-.234-.487,1.851,1.851,0,0,1,0-2.843A.623.623,0,0,0,.9,11.655q-.008-4.2,0-8.4A.573.573,0,0,0,.622,2.72a1.451,1.451,0,0,1-.54-1.658A1.483,1.483,0,0,1,1.515.005C2.624,0,3.733.006,4.842,0a.666.666,0,0,1,.753.608.581.581,0,0,1-.469.731,2.137,2.137,0,0,1-.538.037c-.9,0-1.8-.005-2.7.005-.119,0-.291-.027-.333.1-.051.157.132.183.232.234a.915.915,0,0,1,.5.808c.012.152.01.3.01.457,0,2.95-.007,5.9.006,8.85A1.356,1.356,0,0,1,1.655,13.2a.431.431,0,0,0-.006.784A1.492,1.492,0,0,1,2.3,15.45q-.025,4.445,0,8.891a1.391,1.391,0,0,1-.615,1.313c-.38.253-.361.623.041.869a1.17,1.17,0,0,1,.57,1.116q-.006,4.612,0,9.224a1.119,1.119,0,0,1-.638,1.154c-.088.041-.178.1-.078.219a.787.787,0,0,0,.487.07q11.246,0,22.491,0c.637,0,1.275,0,1.912-.017.121,0,.278.019.339-.1.071-.145-.082-.219-.171-.293a.891.891,0,0,1-.318-.735q-.006-4.926,0-9.852a1.077,1.077,0,0,1,.332-.777c.382-.4.384-.545-.009-.934a1.27,1.27,0,0,1-.325-.992q0-4.116,0-8.231c0-.471,0-.942,0-1.413a1.193,1.193,0,0,1,.351-.9c.349-.353.346-.56-.006-.915a1.15,1.15,0,0,1-.345-.858q0-4.864,0-9.728a.975.975,0,0,1,.349-.808c.072-.059.179-.123.149-.229-.037-.133-.177-.12-.282-.123-.831-.022-1.663-.021-2.494-.022-5.266-.01-10.532,0-15.8-.008-.51-.122-.677-.326-.619-.756" transform="translate(0 0)"/><path d="M4.083,39.623c-.254-.2-.164-.342.09-.434.588-.213.656-.3.656-.927,0-3.158,0-6.316,0-9.474a.8.8,0,0,0-.524-.884.564.564,0,0,1-.369-.554.582.582,0,0,1,.39-.584.755.755,0,0,0,.5-.813q-.008-4.841,0-9.682a.758.758,0,0,0-.5-.814.581.581,0,0,1-.39-.583.592.592,0,0,1,.405-.574.735.735,0,0,0,.486-.782q-.007-4.841,0-9.682a.687.687,0,0,0-.577-.784c-.165-.032-.318-.076-.3-.267.017-.207.186-.247.368-.247q1.579,0,3.158,0c.519,0,.688-.147.786-.651a9.651,9.651,0,0,0,2.034,0,.67.67,0,0,0,.53.657,1.431,1.431,0,0,0,.495.029q7.609,0,15.218,0c.719,0,.721,0,.722.744,0,2.065-.057,4.132.015,6.194.093,2.66-.016,5.322.087,7.978.09,2.328-.022,4.656.076,6.981.106,2.522-.016,5.045.089,7.562.094,2.245.025,4.488.065,6.732,0,.152,0,.3,0,.457,0,.325-.131.448-.479.447q-11.351-.014-22.7-.008a.618.618,0,0,1-.326-.036" transform="translate(-2.668 -1.279)" fill="#fe7f85"/><path d="M94.564,61.575c-.112-.47-.414-.618-.886-.614-2.134.017-4.268,0-6.4.013-.3,0-.479-.008-.462-.4a1.166,1.166,0,0,0-.451-.945.571.571,0,0,1-.2-.5c0-2.065.012-4.129-.006-6.194,0-.33.1-.385.4-.376.678.021,1.358.01,2.037.005.484,0,.771-.235.782-.617.012-.4-.273-.64-.787-.644-.707,0-1.414-.01-2.12,0-.235,0-.312-.065-.3-.3a2.027,2.027,0,0,1,.356-1.38A1.72,1.72,0,0,0,86.37,47.4a.81.81,0,0,1-.213-.593c.009-1.164.017-2.328,0-3.492-.006-.338.073-.439.426-.437,3.423.014,6.846.009,10.269.008.632,0,.938-.2.945-.617s-.319-.65-.967-.65c-3.423,0-6.846-.005-10.269.008-.329,0-.412-.085-.406-.409.021-1.095.013-2.189,0-3.284a.756.756,0,0,1,.21-.551,1.8,1.8,0,0,0,.062-2.362,1.068,1.068,0,0,1-.271-.821c.018-.3.017-.608.024-.912a.767.767,0,0,1,.407-.039q5.53,0,11.06,0c.5,0,.528.03.544.544,0,.139,0,.277,0,.416V59.988c0,.941,0,.941-.929.953a.593.593,0,0,0-.286.033.682.682,0,0,0-.447.723c-.107-.14-.26-.124-.409-.124q-.781,0-1.562,0" transform="translate(-58.466 -22.56)" fill="#88e4fe"/><path d="M4.4,40.99l16.089-.007c2.273,0,4.546-.01,6.818.009.394,0,.481-.119.478-.491-.018-2.051.056-4.1-.029-6.152-.1-2.437.031-4.875-.081-7.307-.11-2.409.028-4.819-.081-7.224-.115-2.534.026-5.068-.085-7.6-.113-2.589-.03-5.177-.059-7.765,0-.383-.106-.485-.487-.484q-7.671.019-15.341.006c-.16,0-.335.057-.479-.069q5.2,0,10.395-.009,3.991,0,7.983.006c.1,0,.194,0,.291,0a.262.262,0,0,1,.261.224.225.225,0,0,1-.164.258c-.442.149-.5.49-.495.9q.012,4.8,0,9.6a.917.917,0,0,0,.391.853.581.581,0,0,1,0,1.008.887.887,0,0,0-.387.812q.009,4.907,0,9.813a.882.882,0,0,0,.378.817.578.578,0,0,1,.019,1.006.936.936,0,0,0-.4.851q.012,4.823,0,9.646c0,.4.069.714.485.861a.228.228,0,0,1,.169.291c-.053.171-.2.2-.368.2-.721,0-1.442.005-2.162.005q-11.352,0-22.7,0c-.146,0-.307.055-.435-.069" transform="translate(-2.988 -2.647)" fill="#e4646e"/><path d="M97.048,60.894c.257-.154.54-.058.809-.072.192-.011.283-.073.27-.27-.006-.1,0-.194,0-.291V33.754c0-.54,0-.54-.535-.54l-11.343,0c.052-.131.166-.071.25-.071,4.419,0,8.839,0,13.321.026-.572.258-.463.742-.464,1.185,0,2.258,0,4.516,0,6.775a.973.973,0,0,0,.371.948c.22.148.174.371-.038.514a.806.806,0,0,0-.333.755q.008,3.657,0,7.315a.846.846,0,0,0,.341.794c.237.163.224.381-.008.543a.817.817,0,0,0-.333.756c.005,2.424.009,4.849,0,7.273a1,1,0,0,0,.42.871Z" transform="translate(-58.532 -22.481)" fill="#67caee"/><path d="M31.444,44.369c.5.272.568.439.429.968a9.025,9.025,0,0,1-1.807,3.437H31.6c.3,0,.61-.007.914,0a.628.628,0,1,1-.014,1.252c-1.067.008-2.134.012-3.2,0a1.616,1.616,0,0,0-1,.3,8.8,8.8,0,0,1-10.057-.082,1.1,1.1,0,0,0-.687-.214c-1.067.01-2.134,0-3.2,0-.585,0-.884-.219-.879-.639s.3-.618.9-.619h2.23A8.894,8.894,0,0,1,14.477,43,8.792,8.792,0,0,1,16.547,37.3c-.081-.137-.2-.072-.3-.073-.651-.007-1.3,0-1.954,0-.521,0-.808-.221-.813-.618s.285-.633.8-.634c1.108,0,2.217-.006,3.325,0a.978.978,0,0,0,.611-.194,8.8,8.8,0,0,1,10.261.008.921.921,0,0,0,.572.186c1.109-.009,2.217-.005,3.326,0,.523,0,.81.218.817.614s-.291.638-.836.639c-.732,0-1.465,0-2.2,0-.024.18.117.254.194.355a8.873,8.873,0,0,1,1.779,4.323.72.72,0,0,1-.524.9c-.434.108-.755-.151-.831-.7a7.538,7.538,0,0,0-6.155-6.468,7.251,7.251,0,0,0-6.12,1.682,7.143,7.143,0,0,0-2.641,5.815,7.482,7.482,0,0,0,6.3,7.26,6.628,6.628,0,0,0,2.19.025,7.286,7.286,0,0,0,3.812-1.691,7.591,7.591,0,0,0,2.37-3.628,1.358,1.358,0,0,1,.215-.491c.183-.219.385-.414.706-.237" transform="translate(-9.147 -23.168)"/><path d="M47.639,38.518a7.053,7.053,0,0,1,4.117,2.129,7.36,7.36,0,0,1,2.124,4.394c.061.5.214.651.732.735a9.234,9.234,0,0,1-.154,1.565c-.536.044-.642.14-.822.751a7.538,7.538,0,0,1-6.246,5.39c.015-.195.19-.222.317-.287A8.212,8.212,0,0,0,51,50.112a1.144,1.144,0,0,0,.18-.5A6.9,6.9,0,0,0,52.2,47.27a2.17,2.17,0,0,0-.116-1.719,7.633,7.633,0,0,0-1.444-4.243,7.951,7.951,0,0,0-2.678-2.421c-.143-.08-.346-.133-.324-.369" transform="translate(-32.162 -26.14)" fill="#fecf64"/><path d="M103.894,89.432c.914,0,1.828,0,2.742,0,.482,0,.773.237.78.614s-.292.644-.757.646q-2.783.007-5.567,0c-.609,0-.939-.495-.664-.959a.7.7,0,0,1,.682-.3c.928,0,1.856,0,2.784,0" transform="translate(-68.089 -60.691)" fill="#000101"/><path d="M32.989,49.353a2.736,2.736,0,0,1-.772,1.359,8.345,8.345,0,0,1-3.077,2.447,7.589,7.589,0,0,1-2.221-15.015,6.044,6.044,0,0,1,2.469.051c.421.379.951.592,1.394.944a8.126,8.126,0,0,1,3.01,4.838c.082.4.279.806.071,1.227-.334.1-.643-.088-.977-.075-.76.03-1.523.015-2.285.007a.922.922,0,0,1-.783-1.383c.4-.7.812-1.386,1.205-2.086.417-.74.3-1.1-.487-1.431a5.819,5.819,0,0,0-5.059.093c-.565.277-.675.619-.384,1.186.368.715.8,1.393,1.2,2.09a1,1,0,0,1-.16,1.38.633.633,0,0,1-.5.15c-.775,0-1.551,0-2.326,0a2.256,2.256,0,0,0-.5.036.823.823,0,0,0-.692.972,6.173,6.173,0,0,0,1.647,3.686,5.4,5.4,0,0,0,.888.747c.621.43,1.024.339,1.4-.309.4-.683.786-1.369,1.186-2.049a.964.964,0,0,1,1.722.019c.412.69.791,1.4,1.212,2.082.367.594.738.681,1.31.3a4.154,4.154,0,0,0,1.056-.927.661.661,0,0,1,.451-.338" transform="translate(-13.91 -25.817)" fill="#fedf7e"/><path d="M36.166,52.623a6.753,6.753,0,0,1-1.549,1.433.83.83,0,0,1-1.3-.3q-.684-1.161-1.345-2.338c-.126-.223-.25-.382-.542-.3a.769.769,0,0,1-.371,0c-.238-.059-.341.061-.447.249-.434.771-.88,1.536-1.326,2.3a.874.874,0,0,1-1.473.312,6.054,6.054,0,0,1-2.629-4.642.849.849,0,0,1,.929-1.006q1.371-.016,2.744,0c.233,0,.325-.1.474-.277.415-.487.229-.865-.059-1.31-.4-.614-.744-1.263-1.106-1.9a.85.85,0,0,1,.425-1.354,6.034,6.034,0,0,1,5.369,0,.851.851,0,0,1,.415,1.359c-.445.782-.891,1.562-1.353,2.333-.124.206-.07.334.008.549.218.6.637.632,1.166.6.7-.038,1.413,0,2.12-.012a1.638,1.638,0,0,1,.722.151c.5.469.311,1.046.225,1.591a6.24,6.24,0,0,1-1.1,2.557" transform="translate(-17.088 -29.087)"/><path d="M40.387,49.475c-.448.159-.625-.109-.8-.446-.288-.552-.607-1.088-.931-1.62-.111-.182-.085-.256.11-.32a4.977,4.977,0,0,1,3.179-.012c.222.073.244.171.133.362-.365.621-.729,1.242-1.073,1.874-.161.3-.412.137-.616.163" transform="translate(-26.188 -31.775)" fill="#5d5360"/><path d="M51.061,63.8c.36,0,.719,0,1.079,0,.2,0,.308.02.254.277A4.958,4.958,0,0,1,50.8,66.823c-.167.151-.248.1-.343-.063-.361-.637-.724-1.273-1.094-1.905a.405.405,0,0,1,.011-.415.925.925,0,0,1,1.148-.644,2.891,2.891,0,0,0,.538.005" transform="translate(-33.464 -43.276)" fill="#5d5360"/><path d="M30.7,63.83a4.948,4.948,0,0,0,.622,0,.829.829,0,0,1,1,.539.581.581,0,0,1,.015.63c-.353.577-.685,1.167-1.013,1.759-.116.209-.2.245-.4.068a4.927,4.927,0,0,1-1.551-2.677c-.052-.249,0-.326.246-.318.359.012.719,0,1.078,0" transform="translate(-19.923 -43.305)" fill="#5d5360"/><path d="M41.4,59.982a.94.94,0,0,1,.88-.964.891.891,0,0,1,.881.85.956.956,0,0,1-.878.971.9.9,0,0,1-.883-.857" transform="translate(-28.099 -40.052)" fill="#5c525f"/></g></g></svg>