<svg xmlns="http://www.w3.org/2000/svg" xmlns:xlink="http://www.w3.org/1999/xlink" width="105" height="105" viewBox="0 0 105 105"><defs><clipPath id="a"><rect width="69.114" height="55.611" fill="#126783"/></clipPath></defs><g transform="translate(-180 -4967)"><circle cx="52.5" cy="52.5" r="52.5" transform="translate(180 4967)" fill="#20bdfc"/><g transform="translate(198.261 4991.652)"><g transform="translate(0 0)" clip-path="url(#a)"><path d="M64.463,0Q34.269.063,4.076.024C1.4.024,0,1.419,0,4.093V36.755a3.51,3.51,0,0,0,1.931,3.306,4.39,4.39,0,0,0,2.159.407h61A3.976,3.976,0,0,0,68.2,39.286a8.613,8.613,0,0,0,.912-1.611V2.85C68.354.606,66.7,0,64.463,0m.528,37.6H4.128c-1.181,0-1.279-.1-1.279-1.258V4.151c0-1.146.13-1.277,1.272-1.277H64.983c1.149,0,1.28.131,1.28,1.27V36.328c0,1.17-.1,1.266-1.272,1.266Z" transform="translate(0 0)" fill="#126783"/><path d="M67.069,89.964c-8.635.021-17.27.008-25.9.023-.489,0-.747-.1-.927-.6a5.587,5.587,0,0,0-10.463-.01.786.786,0,0,1-.914.614Q15.5,89.965,2.147,89.978a6.291,6.291,0,0,0-.935.055A1.392,1.392,0,0,0,.036,91.385a1.378,1.378,0,0,0,1.083,1.358,5.093,5.093,0,0,0,1,.087q13.358.007,26.715-.007c.511,0,.771.1.962.635a5.586,5.586,0,0,0,10.436-.014.794.794,0,0,1,.905-.624c8.567.018,17.135,0,25.7.025a2.467,2.467,0,0,0,2.289-.918v-.945a2.023,2.023,0,0,0-2.062-1.018M35.013,94.192a2.79,2.79,0,1,1,2.785-2.8,2.833,2.833,0,0,1-2.786,2.8Z" transform="translate(-0.017 -41.433)" fill="#126783"/><path d="M66.422,27.519q-6.369-4.533-12.74-9.065a1.676,1.676,0,0,0-1.806-.351c-.726.351-.8,1-.8,1.71.01,3.041,0,6.074,0,9.11,0,3.06.006,6.118,0,9.178a1.505,1.505,0,0,0,2.588,1.324q6.363-4.544,12.738-9.069c1.308-.934,1.316-1.916.021-2.836M53.965,35.7V22.162l9.515,6.764Z" transform="translate(-24.662 -8.687)" fill="#126783"/><path d="M51.115,30.629c0-3.041.006-6.074,0-9.11.01,3.041,0,6.074,0,9.11,0,3.06.006,6.118,0,9.178.007-3.059,0-6.118,0-9.178" transform="translate(-24.698 -10.398)" fill="#126783"/></g></g></g></svg>