<svg xmlns="http://www.w3.org/2000/svg" xmlns:xlink="http://www.w3.org/1999/xlink" width="128" height="128.006" viewBox="0 0 128 128.006"><defs><clipPath id="a"><rect width="128" height="128.006" fill="none"/></clipPath></defs><g clip-path="url(#a)"><path d="M214.165,29.232A56.184,56.184,0,0,1,224.558,39.42a63.54,63.54,0,0,1,13.014,28.073,46.335,46.335,0,0,1,.84,6.162c.014.237-.048.512.25.641v1a2.556,2.556,0,0,0,0,1.75V81.8a1.91,1.91,0,0,0,0,1.5v1.5c-.248,1.345-.134,2.722-.329,4.068a63.455,63.455,0,0,1-14.223,31.865c-.982,1.19-2.137,2.221-3.056,3.463a1.891,1.891,0,0,1-.981.74c-.633.068-.972-.4-1.346-.771q-4.983-4.962-9.945-9.945c-.372-.373-.837-.717-.751-1.355a44.3,44.3,0,0,1,3.836-4.585A63.368,63.368,0,0,0,225.856,76.7a56.342,56.342,0,0,0,.673-8.449A64.215,64.215,0,0,0,216.021,32.7c-.5-.765-1.085-1.477-1.583-2.247-.238-.367-.631-.718-.273-1.226" transform="translate(-110.662 -15.551)" fill="#1ba9e2"/><path d="M113.082,208.206l11.695,11.774c.194.454-.142.7-.4.949a64.682,64.682,0,0,1-34.131,17.312c-1.8.313-3.633.2-5.433.486h-1.25a1.354,1.354,0,0,0-1.251,0H76.56a1.911,1.911,0,0,0-1.5,0h-.75A24.258,24.258,0,0,0,69.7,238a63.382,63.382,0,0,1-29.861-13.1A57.4,57.4,0,0,1,29.27,214.225c.636-.371,1.019.155,1.428.447a61.26,61.26,0,0,0,13.335,7.317,65.2,65.2,0,0,0,20.913,4.454,62.78,62.78,0,0,0,27.886-5.053,61.128,61.128,0,0,0,17.205-10.965,32.049,32.049,0,0,1,2.661-2.261.4.4,0,0,1,.384.044" transform="translate(-15.571 -110.722)" fill="#1ec194"/><path d="M273.153,129.4a1.441,1.441,0,0,1,0-1.75Z" transform="translate(-145.153 -67.908)" fill="#e273a3"/><path d="M273.167,143.044a1.131,1.131,0,0,1,0-1.5Z" transform="translate(-145.167 -75.298)" fill="#e06c9e"/><path d="M127.105,273.177a1.127,1.127,0,0,1,1.5,0Z" transform="translate(-67.617 -145.171)" fill="#a4f4bf"/><path d="M142.6,273.186a.841.841,0,0,1,1.25,0Z" transform="translate(-75.859 -145.18)" fill="#a0f4bc"/><path d="M97.283,97.434a38.646,38.646,0,0,1-6.388,5.694,64.024,64.024,0,0,1-19.232,10.016A58.865,58.865,0,0,1,58.8,115.787a63.765,63.765,0,0,1-6.934.433,65.548,65.548,0,0,1-25-5.262A62.2,62.2,0,0,1,14.273,103.7a2.017,2.017,0,0,0-.574-.2A63.977,63.977,0,0,1,5.915,37.1,64.435,64.435,0,0,1,49.559,1.619,55.906,55.906,0,0,1,64,.018c.527.658.337,1.438.337,2.17q.015,29.065-.023,58.13a7.6,7.6,0,0,0,2.414,5.866Q78.709,78.057,90.6,90.028c1.907,1.921,3.843,3.815,5.763,5.724.463.461,1.015.9.923,1.682" transform="translate(0 0)" fill="#25e0ac"/><path d="M170.008,97.455c-1.971-2.435-4.337-4.487-6.531-6.7-5.179-5.236-10.41-10.42-15.62-15.625-3.091-3.088-6.169-6.191-9.279-9.261a5.657,5.657,0,0,1-1.871-4.194q.021-30.816.015-61.631A62.753,62.753,0,0,1,176.228,13.7c.725,1.737,2.044,3.09,3.02,4.669a63.833,63.833,0,0,1,8.466,21.7,69.358,69.358,0,0,1,1.049,9.369,62.415,62.415,0,0,1-7.992,33.93,56.584,56.584,0,0,1-8.525,11.77c-.711.751-1.342,1.576-2.01,2.368a1.723,1.723,0,0,1-.228-.051" transform="translate(-72.725 -0.021)" fill="#20bdfc"/><path d="M73.818,70.05A16.632,16.632,0,1,1,57.352,53.4,16.538,16.538,0,0,1,73.818,70.05" transform="translate(-21.574 -28.406)" fill="#ecf5fe"/><path d="M66.028,138.32c2.245,0,4.49-.01,6.734,0,1.29.008,2.091.7,2.121,1.771A1.884,1.884,0,0,1,72.8,142.06q-6.8.033-13.594,0a1.9,1.9,0,0,1-2.078-1.855c-.012-1.114.833-1.87,2.167-1.88,2.245-.017,4.49,0,6.734,0" transform="translate(-30.39 -73.581)" fill="#fed166"/><path d="M68.9,159.749c-1.417,0-2.834.024-4.25-.008a1.842,1.842,0,0,1-1.987-1.8,1.941,1.941,0,0,1,1.931-1.917q4.374-.07,8.749,0a1.93,1.93,0,0,1,1.935,1.914,1.885,1.885,0,0,1-2,1.8c-1.457.032-2.916.008-4.375.008" transform="translate(-33.334 -82.981)" fill="#fed166"/><path d="M178.444,53.381A16.634,16.634,0,1,1,161.8,70.024a16.624,16.624,0,0,1,16.646-16.643" transform="translate(-86.073 -28.397)" fill="#ecf5fe"/><path d="M187.264,138.327c2.2,0,4.405-.009,6.608,0,1.412.008,2.3.773,2.263,1.917-.032,1.1-.881,1.821-2.237,1.825q-6.67.018-13.34,0a1.92,1.92,0,0,1-2.174-2.01c.034-1.054.852-1.726,2.148-1.731,2.244-.01,4.488,0,6.732,0" transform="translate(-94.895 -73.585)" fill="#fed166"/><path d="M190.1,159.729c-1.416,0-2.833.02-4.248-.007a1.915,1.915,0,0,1-2.056-1.751,2.011,2.011,0,0,1,1.911-1.959q4.434-.092,8.87,0a2.009,2.009,0,0,1,1.855,2.011,1.864,1.864,0,0,1-2.084,1.7c-1.416.021-2.832.005-4.249,0" transform="translate(-97.775 -82.97)" fill="#fed166"/><path d="M67.4,88.249a1.931,1.931,0,0,1-1.443-.627c-.943-.937-1.9-1.861-2.815-2.826a1.835,1.835,0,0,1-.074-2.759,1.9,1.9,0,0,1,2.685.083c.584.476.942,1.537,1.724,1.363.621-.138,1.092-.961,1.622-1.487.944-.937,1.865-1.9,2.827-2.813a1.869,1.869,0,1,1,2.617,2.647c-1.89,1.929-3.813,3.826-5.722,5.736a2.048,2.048,0,0,1-1.42.684" transform="translate(-33.236 -41.76)" fill="#4172c9"/><path d="M186.188,76.006a2.829,2.829,0,0,1,1.889,1.01c.806.756,1.483,2.173,2.43,2.1.827-.061,1.564-1.362,2.34-2.115.12-.116.233-.24.357-.35a1.87,1.87,0,1,1,2.607,2.671c-.335.371-.7.713-1.055,1.067-1.657,1.658-1.657,1.658.04,3.355.324.324.658.64.968.976a1.875,1.875,0,0,1,.169,2.776c-.813.836-1.859.779-2.859-.181-.691-.664-1.383-1.33-2.026-2.04-.421-.465-.722-.538-1.173-.028-.606.685-1.281,1.311-1.938,1.951-1.1,1.066-2.086,1.173-2.945.335-.879-.858-.8-1.848.264-2.938a18.538,18.538,0,0,1,1.779-1.753c.8-.624.631-1.049-.042-1.63a24.826,24.826,0,0,1-2.114-2.126,1.652,1.652,0,0,1-.288-1.969,1.94,1.94,0,0,1,1.6-1.116" transform="translate(-98.09 -40.433)" fill="#4172c9"/></g></svg>