<svg xmlns="http://www.w3.org/2000/svg" xmlns:xlink="http://www.w3.org/1999/xlink" width="88.374" height="91.872" viewBox="0 0 88.374 91.872"><defs><clipPath id="a"><rect width="88.374" height="91.872" fill="none"/></clipPath></defs><g clip-path="url(#a)"><path d="M98.4,88.118a7.7,7.7,0,0,1-4.432-2.541,7.156,7.156,0,0,1-1.584-4.611q-.006-35.878.02-71.757c0-.78-.188-.982-.968-.968-2.81.051-5.621.024-8.431.018a1.439,1.439,0,0,1-1.6-1.865C82,2.326,84.682,0,88.786,0h48.525c4.455,0,7.386,2.916,7.386,7.358q0,35.749-.019,71.5c0,.812.157,1.043,1,1.024,2.781-.064,5.563-.026,8.345-.023,1.255,0,1.786.582,1.668,1.808A6.867,6.867,0,0,1,149.9,88a.833.833,0,0,0-.217.117Z" transform="translate(-67.337 0)"/><path d="M209.275,98.605h-43.32c-3.261,0-4.859-1.591-4.859-4.844q0-35.659-.02-71.318c0-.8.225-.96.983-.959q17.851.036,35.7.017c1.429,0,1.759-.3,1.9-1.7a4.121,4.121,0,0,1,8.23.244c.017.458.008.918.008,1.376q0,36.39,0,72.78a7.71,7.71,0,0,0,1.378,4.4" transform="translate(-133.294 -13.241)" fill="#e5e8ec"/><path d="M98.719,18.716a4.243,4.243,0,0,1,4.139-2.753q4.987,0,9.974,0h33.789a9.434,9.434,0,0,0-1.075,2.369.424.424,0,0,1-.541.387,1.563,1.563,0,0,0-.258,0H98.719Z" transform="translate(-81.692 -13.209)" fill="#f4f6f9"/><path d="M450.381,479.069h7.544a3.738,3.738,0,0,1-3.342,2.71,4.028,4.028,0,0,1-4.2-2.71" transform="translate(-372.7 -396.439)" fill="#cbd0d8"/><path d="M204.322,142.676q-8.647,0-17.295,0c-1.456,0-1.9-.442-1.9-1.9q-.005-1.549,0-3.1c.006-1.429.471-1.889,1.928-1.89q12.777,0,25.555,0,4.56,0,9.121,0c1.5,0,1.935.448,1.938,1.959q0,1.506,0,3.012c0,1.493-.432,1.912-1.965,1.912q-8.69,0-17.381,0" transform="translate(-153.194 -112.37)"/><path d="M204.484,258.236q-8.6,0-17.192,0a4.788,4.788,0,0,1-.857-.034,1.288,1.288,0,0,1-1.129-1.228,1.25,1.25,0,0,1,.928-1.377,3.069,3.069,0,0,1,.93-.11q17.364-.008,34.728,0c.172,0,.345-.009.516.007a1.418,1.418,0,0,1,1.4,1.441,1.361,1.361,0,0,1-1.442,1.3c-1.518.026-3.037.01-4.556.01H204.484" transform="translate(-153.339 -211.414)"/><path d="M204.452,290.155q-8.562,0-17.124,0a5.1,5.1,0,0,1-.858-.029,1.351,1.351,0,0,1-.1-2.659,3.96,3.96,0,0,1,.94-.062q17.253,0,34.506,0a4.839,4.839,0,0,1,.772.027,1.372,1.372,0,0,1,1.214,1.428,1.333,1.333,0,0,1-1.276,1.281,6.318,6.318,0,0,1-.774.016h-17.3" transform="translate(-153.339 -237.829)"/><path d="M250.7,322.084q-3.914,0-7.828,0c-1.107,0-1.736-.49-1.76-1.338-.025-.871.641-1.411,1.783-1.412q7.871-.007,15.742,0c1.044,0,1.662.49,1.712,1.3.052.851-.6,1.44-1.648,1.443-2.667.01-5.333,0-8,0" transform="translate(-199.528 -264.251)"/><path d="M192.733,210.358c-1.946,0-3.893.005-5.839,0-1.09,0-1.723-.518-1.722-1.367s.652-1.38,1.726-1.382q5.84-.012,11.679,0c1.078,0,1.719.539,1.718,1.386s-.627,1.359-1.722,1.363c-1.946.007-3.893,0-5.839,0" transform="translate(-153.234 -171.794)"/><path d="M328.467,210.358c-1.946,0-3.893.005-5.839,0-1.092,0-1.727-.511-1.732-1.357s.646-1.389,1.718-1.391q5.839-.013,11.679,0c1.081,0,1.72.531,1.725,1.377s-.616,1.368-1.711,1.372c-1.946.008-3.893,0-5.839,0" transform="translate(-265.547 -171.794)"/><path d="M291.745,209.078a1.358,1.358,0,0,1-1.368,1.348,1.4,1.4,0,0,1-1.365-1.368,1.436,1.436,0,0,1,1.384-1.363,1.394,1.394,0,0,1,1.349,1.383" transform="translate(-239.164 -171.872)" fill="#030303"/><path d="M217.394,153.046c-5.189,0-10.377-.016-15.566.017-.744,0-.956-.236-.872-.927.038-.312.115-.487.453-.467.143.008.286,0,.43,0q15.652,0,31.3,0c.389,0,.873-.183.879.562.005.626-.141.83-.8.826-5.275-.028-10.549-.016-15.824-.016" transform="translate(-166.281 -125.496)" fill="#646c77"/><path d="M36.048,250.891a27.155,27.155,0,0,1-1.771,8.815,28.291,28.291,0,0,1-3.588,7.376c-.687.965-.142,1.623.244,2.36.543,1.037,1.151,2.041,1.706,3.073.3.555.346,1.118-.339,1.429a1.015,1.015,0,0,1-1.412-.577c-.666-1.213-1.353-2.415-1.987-3.645a.937.937,0,0,0-1.092-.621,21.837,21.837,0,0,1-12.015-2.035,23.39,23.39,0,0,1-9.023-7.717A38.752,38.752,0,0,1,.7,246.488a22.944,22.944,0,0,1-.218-9.917c.537-3.028,1.277-6.029,1.011-9.141a18.868,18.868,0,0,0-1.279-5.461c-.521-1.3-.1-1.945,1.287-1.79a45.372,45.372,0,0,1,8.786,1.96,49.194,49.194,0,0,1,9.508,4.119,35.674,35.674,0,0,1,13.376,12.868,21.025,21.025,0,0,1,2.876,11.766" transform="translate(0 -182.184)"/><path d="M32.8,265.614c-.746-1.332-1.471-2.623-2.193-3.915-.552-.988-1.107-1.974-1.648-2.968a.843.843,0,0,1,.081-1.18,14.506,14.506,0,0,0,3.347-8.393.985.985,0,0,0-.844-1.19.964.964,0,0,0-1.123.989,13.506,13.506,0,0,1-2.181,6.456c-.161.246-.36.624-.57.644-.293.029-.394-.4-.536-.655q-3.487-6.294-6.962-12.6-.644-1.168-1.245-2.36a1.035,1.035,0,0,0-1.352-.6.986.986,0,0,0-.376,1.475c1.45,2.648,2.927,5.282,4.382,7.928.489.889.943,1.8,1.442,2.751a12.129,12.129,0,0,1-5.381-.541,13.19,13.19,0,0,1-2.241-.914.9.9,0,0,0-1.384.493c-.272.57.06.983.524,1.24a15.487,15.487,0,0,0,4.368,1.564,12.249,12.249,0,0,0,4.811.076.458.458,0,0,1,.586.272q1.818,3.338,3.654,6.666c.258.466.155.617-.374.643a13.039,13.039,0,0,1-6.7-1.445c-.854-.437-1.553-.245-1.719.507a.9.9,0,0,0,.564,1.1,14.272,14.272,0,0,0,9.161,1.655c.312-.055.424.1.557.344.649,1.18,1.329,2.343,1.985,3.519.667,1.2,1.32,2.4,2.017,3.675a12.808,12.808,0,0,1-6.473-.981,9.372,9.372,0,0,1-1.2-.527.913.913,0,0,0-1.369.372.861.861,0,0,0,.378,1.26,14.677,14.677,0,0,0,4.649,1.7,11.8,11.8,0,0,0,4.391.069.723.723,0,0,1,.907.429c.7,1.307,1.427,2.6,2.162,3.884.24.42.132.565-.33.6a19.721,19.721,0,0,1-10.139-1.887c-4.632-2.158-7.857-5.786-10.328-10.165a36.359,36.359,0,0,1-3.793-8.977,21.8,21.8,0,0,1-.192-9.493,52.139,52.139,0,0,0,1.04-7.13,21.123,21.123,0,0,0-.9-6.809c-.15-.533-.091-.535.365-.457a51.763,51.763,0,0,1,7.88,2.08,42.186,42.186,0,0,1,13.662,7.484,28.552,28.552,0,0,1,8.195,10.576,19.443,19.443,0,0,1,1.23,10.514,32.8,32.8,0,0,1-3.5,10.663,18.407,18.407,0,0,1-1.319,2.305c-.56-.96-1.136-1.909-1.674-2.88-1.007-1.815-1.987-3.645-2.988-5.464a.817.817,0,0,1,.117-1.081,12.623,12.623,0,0,0,3.109-7.042,12.925,12.925,0,0,0,.226-1.433.994.994,0,0,0-.973-1.086c-.644-.061-.95.418-.983.968a12.741,12.741,0,0,1-1.352,5,12.063,12.063,0,0,1-1.448,2.264" transform="translate(-9.672 -192.569)" fill="#94c48f"/><path d="M250.121,358.447a7.954,7.954,0,1,1-7.979,7.9,7.966,7.966,0,0,1,7.979-7.9m-.035,1.769a6.185,6.185,0,1,0,6.192,6.177,6.2,6.2,0,0,0-6.192-6.177" transform="translate(-200.377 -296.622)"/><path d="M344.754,429.581v-1.819c.351-.065.712-.106,1.058-.2a4.084,4.084,0,0,0,2.437-1.864c.262-.42.581-.744,1.119-.6.5.135.636.526.679,1.015a1.743,1.743,0,0,0,1.8,1.6c1.138.013,2.277,0,3.453,0v1.73c-1.343,0-2.683.066-4.014-.021a3.256,3.256,0,0,1-2.421-1.5,16.516,16.516,0,0,1-1.956,1.108,15.7,15.7,0,0,1-2.15.55" transform="translate(-285.291 -351.749)"/><path d="M271.474,383.393a4.417,4.417,0,1,1-4.406-4.442,4.43,4.43,0,0,1,4.406,4.442m-4.41-2.674a2.65,2.65,0,1,0,2.643,2.683,2.66,2.66,0,0,0-2.643-2.683" transform="translate(-217.341 -313.591)"/></g></svg>