<svg xmlns="http://www.w3.org/2000/svg" xmlns:xlink="http://www.w3.org/1999/xlink" width="136.825" height="136.844" viewBox="0 0 136.825 136.844"><defs><clipPath id="a"><rect width="136.825" height="136.844" fill="none"/></clipPath></defs><g clip-path="url(#a)"><path d="M0,63.059a19.282,19.282,0,0,0,.725-4.527,68.44,68.44,0,0,1,93.7-53.4,8.057,8.057,0,0,1,.808.436.753.753,0,0,1-.436.489,15.038,15.038,0,0,0-7.617,3.313A13.755,13.755,0,0,0,82.169,18.5c-.34,3.365-.422,6.744-.546,10.122a26.465,26.465,0,0,1-.513,5.019,1.058,1.058,0,0,1-.572.31,10.412,10.412,0,0,0-5.082,1.133c-.7-.267-.911-.951-1.236-1.51A33.1,33.1,0,0,0,61.822,21.2a30.946,30.946,0,0,0-13.67-4.065c-1.857-.107-3.7-.486-5.563-.046a32.539,32.539,0,0,0-19.724,9.2,32.011,32.011,0,0,0-9.643,19.495,44.044,44.044,0,0,0-.282,5.329q.019,16.567,0,33.134c0,.77.229,1.626-.5,2.254a6.943,6.943,0,0,1-2.873.222,51.659,51.659,0,0,1-6.979-.16c-.665-.295-.753-.932-.915-1.532A42.637,42.637,0,0,1,.138,74.251a.753.753,0,0,0-.138-.5V72.416a.975.975,0,0,0,0-1.07V65.733a.975.975,0,0,0,0-1.07Z" transform="translate(0 0)" fill="#25e0ac"/><path d="M82.046,163.351c-.273.1-.642-.06-.811.308H80.7c-.447-.281-.943-.074-1.411-.138a6.412,6.412,0,0,0-2.063.138H75.354c-.438-.347-1.059.1-1.477-.341a3.55,3.55,0,0,1-.243-1.828c-.008-4.269.032-8.539-.013-12.807a12.792,12.792,0,0,0-7.131-11.931,10.455,10.455,0,0,0-4.592-1.275c-2.353-.075-4.712-.095-7.069-.005-6.475.022-12.948.009-19.422.01a5.4,5.4,0,0,1-1.712-.155c-.927-.526-.467-1.231-.177-1.844a23.543,23.543,0,0,1,7.846-9.439,25.923,25.923,0,0,1,13.028-4.661,55.136,55.136,0,0,1,11.037.323c3.552.333,6.6,1.968,9.611,3.716,6.06,4.31,9.992,10,10.95,17.462a41.147,41.147,0,0,1,.276,9.184c-.342,3.587-.065,7.212-.111,10.82a3.124,3.124,0,0,1-.3,1.942c-.646.588-1.438.168-2.149.309-.526.277-1.129-.035-1.66.213" transform="translate(-7.454 -26.815)" fill="#66b9ec"/><path d="M61.388,139.631c3.268.079,6.576-.5,9.78.6a12.947,12.947,0,0,1,8.942,10.153,33.029,33.029,0,0,1,.246,6.641c.049,3.643.038,7.286.052,10.929.07.073.087.137.052.195s-.063.08-.091.08h-.8a3.486,3.486,0,0,0-2.139,0h-.8c-1.091-.5-2.3-.281-3.426-.543-.373-.086-.8.077-1.13-.22a2.8,2.8,0,0,1-.364-1.921q-.012-6.4,0-12.8a12.759,12.759,0,0,0-8.725-12.155c-.574-.2-1.379-.112-1.589-.955" transform="translate(-13.806 -31.384)" fill="#844f88"/><path d="M90.015,176.464c.663-.522,1.429-.17,2.143-.253.084.057.112.114.083.17s-.058.083-.088.083Z" transform="translate(-20.244 -39.62)" fill="#78a6b5"/><path d="M82.083,176.46a2.026,2.026,0,0,1,2.139,0Z" transform="translate(-18.46 -39.617)" fill="#837c9f"/><path d="M85.877,176.469l.04-.274c.437.071.939-.166,1.3.274Z" transform="translate(-19.313 -39.625)" fill="#6bb1da"/><path d="M92.774,176.468c0-.084,0-.168,0-.253.45.05.959-.207,1.332.253Z" transform="translate(-20.865 -39.624)" fill="#8aacac"/><path d="M0,92.048a.636.636,0,0,1,0,1.07Z" transform="translate(0 -20.701)" fill="#8fd5b0"/><path d="M0,83.425A.642.642,0,0,1,0,84.5Z" transform="translate(0 -18.762)" fill="#7ccda2"/><path d="M97.93,163.948c.03-5.732.091-11.463.078-17.195a27.383,27.383,0,0,0-1.934-10.78,25.436,25.436,0,0,0-8.635-10.768c-.211-.155-.4-.338-.6-.508.757-.679,1.691-.447,2.555-.447q28.114-.022,56.228-.01c1.024,0,2.05-.047,3.071.029.539.04,1.22-.075,1.377.732a66.67,66.67,0,0,1-14.948,20.92,65.453,65.453,0,0,1-15.1,10.87,1.661,1.661,0,0,1-.384-1.239c-.019-4.261-.053-8.521.016-12.782a2.129,2.129,0,0,1,.091-.522c.3-.884,1.072-.829,1.773-.839,2.449-.032,4.9.018,7.346-.021,2.852-.046,4.337-2.028,3.665-4.84a3.65,3.65,0,0,0-2.937-2.418,11.055,11.055,0,0,0-2.247-.241q-7.994,0-15.988,0a12.814,12.814,0,0,0-1.461.1,3.967,3.967,0,0,0-3.724,3.1c-.414,1.689-.009,3.4-.165,5.1.087,6.276.029,12.55.03,18.826a2.226,2.226,0,0,1-.371,1.394,35.172,35.172,0,0,1-7.729,1.541" transform="translate(-19.529 -27.935)" fill="#a25418"/><path d="M146.268,121.965c-.335-.413-.805-.314-1.239-.314q-31,0-61.99.012a28.5,28.5,0,0,0-7.987-3.32c-.429-.088-.864-.136-1.3-.2-.707-.8-.181-1.851-.549-2.718-.366-.56-.94-.326-1.433-.367a3.554,3.554,0,0,1-1.529-.232.591.591,0,0,1-.289-.585c1.119-.856,2.482-.55,3.718-.678,6.414-.667,12.825-1.371,19.246-1.968a4.5,4.5,0,0,0,1.628-.565,2.138,2.138,0,0,1,.481-.144c3.334-.178,6.669-.078,10-.063,4.155-.051,8.308-.062,12.461,0,2.111-.074,4.224.057,6.335-.107,6.939.167,13.879.026,20.818.073.578,0,1.157-.026,1.734.034,1.263.1,2.588-.373,3.775.415a52.045,52.045,0,0,1-3.886,10.727" transform="translate(-15.731 -24.9)" fill="#cb7a3b"/><path d="M121.707,5.9l.378-.257c3.783.029,7.567.049,11.35.088,4.717.048,9.435.093,14.151.185a2.429,2.429,0,0,0,1.99-.813c1.378-1.453,2.868-2.8,4.217-4.28.687-.751,1.034-.573,1.618.091a14.815,14.815,0,0,1,.444,18.609,2.309,2.309,0,0,0-.736,1.64c-2.072,1.465-4.021,3.138-6.552,3.822a15.29,15.29,0,0,1-14.2-2.876,4.675,4.675,0,0,0-1-.664,3.64,3.64,0,0,0-1.578-.168q-5.262-.007-10.525,0a3.517,3.517,0,0,1-1.445-.144c-.439-.215-.46-.612-.432-1.025.4-6.05,3.169-10.563,8.668-13.281a8.279,8.279,0,0,1,2.821-.774c-2.638.452-5.3.178-7.95.233a1.376,1.376,0,0,1-1.225-.384" transform="translate(-26.849 -0.074)" fill="#3d4159"/><path d="M166.982,99.536l-3.707-.064c-.5-.569-.331-1.264-.343-1.916-.053-2.7.2-5.425-.526-8.085a19.267,19.267,0,0,0-12.94-13.757c-1.336-.746-2.622-1.58-3.946-2.352-.326-.19-.736-.342-.746-.832.315-.489.883-.543,1.345-.779a23.55,23.55,0,0,0,12.807-11.84c.233-.46.308-1.052.925-1.229.76-.04,1.413.433,2.161.452a4.435,4.435,0,0,0,2.093-.053c.5-.091,1.028-.352,1.517.057a68.47,68.47,0,0,1,3.738,24.092,66.309,66.309,0,0,1-2.376,16.3" transform="translate(-32.559 -13.197)" fill="#25e0ac"/><path d="M126.942,147.1q.028,6.575.06,13.15c0,.532.026,1.063.039,1.594-2.325,1.5-4.967,2.318-7.468,3.437-.354.158-.715.3-1.074.45a2.319,2.319,0,0,1-.41-1.766q-.019-7.6,0-15.2a2.824,2.824,0,0,1,.325-1.674,1.415,1.415,0,0,1,.967-.37c2.2-.077,4.4-.068,6.605-.005a1.281,1.281,0,0,1,.957.38" transform="translate(-26.556 -32.985)" fill="#66b9ec"/><path d="M117,147.072q-.034,9.32-.067,18.64a34.836,34.836,0,0,1-5.813,1.73q.016-10.223.033-20.447a10.006,10.006,0,0,1,5.847.078" transform="translate(-24.991 -32.969)" fill="#2ba0ce"/><path d="M157.135,30.66a16.971,16.971,0,0,0,5.289-3.136c.261-.237.611-.725,1.136-.359q.338,6.267.677,12.534c.186.608-.246.837-.657,1.081a31.162,31.162,0,0,1-3.821,1.193c-.662.17-1.233.021-1.36-.676-.615-3.368-1.2-6.742-1.48-10.159a.758.758,0,0,1,.217-.478" transform="translate(-35.29 -6.08)" fill="#2a2f4f"/><path d="M170.558,55.689c-1.228.091-2.4.826-3.682.291-.408-1.265.189-2.431.387-3.632.076-.464.584-.637,1.006-.792a1.924,1.924,0,0,0,1.422-1.884,1.707,1.707,0,0,0-1.374-1.743,1.639,1.639,0,0,1-1.284-1.771c.012-.913-.564-1.794-.158-2.731a6.307,6.307,0,0,1,7.057,4.162c1.041,3.064-.017,5.839-2.962,7.773-.146.1-.274.218-.411.328" transform="translate(-37.497 -9.747)" fill="#d2a389"/><path d="M166.231,43.435c.105.52.254,1.036.307,1.561.139,1.373.336,2.6,2.046,2.979.836.188.892,1.125.861,1.913a1.782,1.782,0,0,1-1.259,1.855,1.621,1.621,0,0,0-1.47,1.915,9.821,9.821,0,0,1-.484,2.331c-.8.116-1.427-.384-2.139-.581-.5-.718-.037-1.373.167-2.02a20.136,20.136,0,0,0,.874-9.2c.267-.234.677-.353.665-.814l.431.061" transform="translate(-36.853 -9.755)" fill="#be8e75"/><path d="M96.235,176.079c.508-.424,1.1-.165,1.659-.213-.511.4-1.094.232-1.659.213" transform="translate(-21.643 -39.544)" fill="#72a8bf"/><path d="M86.4,91.124c-.088.774-.764.682-1.227.731-4.667.493-9.338.936-14.007,1.41-3.122.317-6.242.661-9.362.993-.3.46-.777.395-1.222.431a4.451,4.451,0,0,0-1.492.152,5.108,5.108,0,0,1-1.074.112,4.6,4.6,0,0,0-1.5.2c-3.929.391-7.85.856-11.784,1.191a3.1,3.1,0,0,0-2.851,1.508c-.6-1.2-1.656-1.118-2.744-.977-.508.066-1.037.248-1.525-.1a9.386,9.386,0,0,1-1.1-2.993,98.2,98.2,0,0,1-2.427-16.753c-.354-4.752-.322-9.514-.584-14.26a69.94,69.94,0,0,1,.638-15.7c1.315-7.707,3.9-14.887,9.149-20.891a18.059,18.059,0,0,1,2.7-2.377c.3-.229.7-.537,1.077-.211.3.259.157.681.047,1.013a32.411,32.411,0,0,0-1.337,6.119,30.158,30.158,0,0,0,.521,10.215c.163.762.192,1.546.382,2.3.1.161.255-.118.115-.006-.056.046-.1.022-.112-.071a13.176,13.176,0,0,1,.06-3.7c.6-5.66,1.784-11.168,4.673-16.171.453-.784.565-1.332-.607-1.37a.756.756,0,0,1-.565-.319,1.585,1.585,0,0,1,1.146-.238c8.406-.112,16.073,2.1,22.676,7.428a34.325,34.325,0,0,1,8.869,11.033c1,.722,1.069,1.955,1.585,2.941a12.849,12.849,0,0,1,.493,1.355,27.662,27.662,0,0,1,.839,3.033,26.06,26.06,0,0,1,.679,4.082,7.451,7.451,0,0,1,.263,2.508q.017,17.8-.058,35.594a2.645,2.645,0,0,1-.336,1.794" transform="translate(-7.498 -4.802)" fill="#3d4159"/><path d="M46.265,21.648c.76.16,1.873-.388,2.2.3.207.441-.576,1.376-.963,2.063a34.9,34.9,0,0,0-3.855,11.813c-.408,2.569-.6,5.171-.932,8.135a31.32,31.32,0,0,1,.295-20.1,12.132,12.132,0,0,0-3.191,2.3c-5.189,5.878-7.81,12.94-9.231,20.486a54.958,54.958,0,0,0-.807,14.177c.234,3.2-.021,6.4.238,9.585.445,5.459.645,10.937,1.512,16.367a99.194,99.194,0,0,0,2.2,9.962,2.436,2.436,0,0,1-1.825.67q-7.163.75-14.333,1.44c-1.572.15-1.837-.087-1.878-1.61-.042-1.556-.021-3.114-.005-4.671a2.028,2.028,0,0,1,.372-1.387q.02-18.166.04-36.334A32.017,32.017,0,0,1,18.57,42.116c4.535-10.571,12.443-17.193,23.622-19.894a14.064,14.064,0,0,1,4.072-.574" transform="translate(-3.522 -4.856)" fill="#2a2f4f"/><path d="M100.445,48.164l-.814-2.947a1.6,1.6,0,0,1,1-1.454c1.194-.437,1.465-1.363,1.658-2.442a3.165,3.165,0,0,1,.587-1.725l.493-.011a36.841,36.841,0,0,0,3.769,1.308c1.263.371,1.473.253,1.667-1.064.531-3.6,1.06-7.2,1.626-10.8.413-2.627.529-2.731,3.238-2.658a2.024,2.024,0,0,1,1.5.391c4.267,0,8.533-.009,12.8.006.466,0,.985-.184,1.39.233-.5.517-1.161.367-1.765.371-2.98.018-5.961.043-8.939-.01a3.015,3.015,0,0,0-2.707,1.325c-6.327,8.363-5.8,21.18,1.181,29.056a24.357,24.357,0,0,0,12.8,7.729c1.38.335,2.636-.188,3.954-.149,1.079,1.209.826,2.621-.622,3.114a23.346,23.346,0,0,1-6.906,1.18c-1.231.035-1.346.209-.843,1.314a7.946,7.946,0,0,0,2.694,3.047c.346.255.835.343.974.839-.067.587-.548.591-.964.687a3.122,3.122,0,0,1-1.068.1,7.291,7.291,0,0,1-6.984-6.995c0-.53,0-1.06-.008-1.59a2.069,2.069,0,0,0-.346-1.38,31.352,31.352,0,0,1-7.217-3.923,24.956,24.956,0,0,1-6.9-8.339c-.443-.87-.83-1.415-1.887-.983a1.022,1.022,0,0,1-1.006-.2,4.892,4.892,0,0,1-.591-2.137c-.124-1.109-.6-1.8-1.765-1.9" transform="translate(-22.407 -5.927)" fill="#be8d75"/><path d="M116.255,22.523a21.5,21.5,0,0,1-2.79.022c-1.221-.14-1.367.577-1.5,1.487-.608,4.243-1.251,8.48-1.868,12.723-.064.442-.115.829-.7.65q-2.283-.7-4.56-1.414c-.3-.095-.346-.375-.386-.643.2-4.351.438-8.7.592-13.053.261-7.374,4.73-12.989,11.72-14.615a12.5,12.5,0,0,1,1.585-.167h9.867a17.5,17.5,0,0,0-7.082,3.769,14.621,14.621,0,0,0-4.612,9.142c-.093.7-.178,1.4-.266,2.1" transform="translate(-23.491 -1.689)" fill="#2a2f4f"/><path d="M13.238,111.366c.013,2.172.039,4.343.033,6.515,0,.644.083.916.894.824,5.576-.635,11.16-1.2,16.741-1.782a17.778,17.778,0,0,0,2.74-.265c1.188-.295,1.445.239,1.4,1.231.115.592-.353.678-.722.732a29.168,29.168,0,0,0-8.845,3.3,2.177,2.177,0,0,1-.77.216c-5.445.178-10.889.046-16.332.076a2.524,2.524,0,0,1-1.507-.428,49.681,49.681,0,0,1-3.727-10.406l10.1-.012" transform="translate(-0.706 -25.046)" fill="#cb7a3b"/><path d="M102.354,43.416c.119,1.219-.58,2.307-.56,3.513a.425.425,0,0,1-.4.452c-1.094.1-1.661.914-2.283,1.657q-.9-2.137-1.791-4.275a6.3,6.3,0,0,1,5.034-1.346" transform="translate(-21.887 -9.748)" fill="#d2a388"/><path d="M52.219,139.546A17.882,17.882,0,0,1,58,142.4a12.457,12.457,0,0,1,4.9,9.628c.064,5.117.008,10.235,0,15.354a64.942,64.942,0,0,1-18.823-5.631,68.213,68.213,0,0,1-23.121-17.576,3.741,3.741,0,0,1-.339-.562c.253-.953,1.113-1.336,1.8-1.869a12.5,12.5,0,0,1,6.594-2.536,2.327,2.327,0,0,1,1.547.223c4.7.012,9.391.017,14.086.039,2.525.012,5.051.052,7.576.079" transform="translate(-4.637 -31.299)" fill="#713775"/><path d="M30.025,134.19a14.4,14.4,0,0,0-9.938,4.182,9.285,9.285,0,0,1-1.835-2.32,14.111,14.111,0,0,1,2.4-5.691,24.734,24.734,0,0,1,6.028-6.652,6.036,6.036,0,0,1,1.757-.885,25.758,25.758,0,0,1,9.491-3.558c.184-.023.346-.235.519-.36-.136-1.363.7-1.453,1.779-1.553,4.351-.408,8.686-.988,13.051-1.26a4.738,4.738,0,0,1,1.478-.1,41.224,41.224,0,0,1,7.3.134l.079,3.176a41.149,41.149,0,0,0-15.184.321,23.826,23.826,0,0,0-16.617,13.56,6.716,6.716,0,0,0-.3,1.007" transform="translate(-4.105 -26.06)" fill="#2ba0ce"/><path d="M26.115,124.833a25.657,25.657,0,0,0-8.742,9.962c-.513,1.072-.961,2.176-1.439,3.266a60.056,60.056,0,0,1-7.986-13.254l18.167.026" transform="translate(-1.787 -28.069)" fill="#a25418"/><path d="M111.332,139.636a3.915,3.915,0,0,1,4.2-3.316q9.4-.127,18.8.006c1.861.024,3.472.759,4.017,2.826a3.438,3.438,0,0,1-2.6,2.569,6.768,6.768,0,0,1-2.37.255q-9.919,0-19.836,0c-.088,0-.178,0-.266,0-2.1-.026-2.214-.157-1.942-2.34" transform="translate(-25.014 -30.645)" fill="#f5c9ad"/><path d="M111.29,140.475c.069,1.921.069,1.921,1.952,1.921,6.7,0,13.4-.061,20.1.035a5.382,5.382,0,0,0,4.961-2.44,3.976,3.976,0,0,1-3.54,5.4c-2.66-.032-5.322,0-7.982.013a2.441,2.441,0,0,0-1.425.195l-8.377-.009-5.847-.077c.088-1.677-.355-3.371.155-5.035" transform="translate(-24.973 -31.483)" fill="#e9b498"/><path d="M147.381,80.262c7.017,2.2,11.36,6.962,13.294,13.985.912,3.31.445,6.709.546,10.071q-10.909.021-21.818.043a1.172,1.172,0,0,1-.867-.252.729.729,0,0,1-.343-.395c-.92-3.021-1.717-6.078-2.509-9.135a1.031,1.031,0,0,1,.073-.782,20.585,20.585,0,0,1,3-4.533c1.3-.107,2.231.753,3.257,1.321,1.93,1.07,1.892,1.091,2.389-1.068.617-2.683,1.136-5.388,1.782-8.063.146-.6.178-1.422,1.2-1.193" transform="translate(-30.505 -18.042)" fill="#dce7ec"/><path d="M120.477,76.573c.85.391.505,1.165.489,1.763a8.081,8.081,0,0,0,1.633,5.728,8.352,8.352,0,0,0,5.06,2.583c-.757,1.205-2.231,1.361-3.233,2.207-1.3.687-2.566,1.432-3.858,2.128-1.267.683-1.7.507-2.087-.915-.4-1.489-.549-3.045-1.134-4.751a18.847,18.847,0,0,0-3.579,5.6c-1.384,3.359-1.258,6.88-1.237,10.4,0,.736.2,1.527-.348,2.184l-10.067,0c-.51-1.407-.217-2.866-.19-4.288.053-2.831.081-5.655,1.213-8.377a19.215,19.215,0,0,1,9.828-10.589c2.106-.968,4.138-2.037,6.15-3.169a3.254,3.254,0,0,1,1.36-.5" transform="translate(-22.899 -17.221)" fill="#bed4dd"/><path d="M120.4,72.655a50.152,50.152,0,0,1-6.1,3.437c-7.481,3.22-11.578,8.909-12.154,17.1-.15,2.132-.119,4.256-.111,6.385l-.319.047q-.019-17.907-.04-35.815a22.614,22.614,0,0,0-.195-4.258,2.27,2.27,0,0,1,1.811,0c.267-.012.59.068.791-.053,1.5-.9,1.835.164,2.392,1.225a23.773,23.773,0,0,0,12.933,11.546c.331.126.66.261.989.392" transform="translate(-22.824 -13.303)" fill="#25e0ac"/><path d="M115.188,105.852c.161-3.4-.352-6.818.482-10.206a19.777,19.777,0,0,1,4.359-8.256c.143-.167.251-.4.508-.345.29.058.222.334.267.54.347,1.6.749,3.183,1.032,4.791.194,1.1.5,1.327,1.542.7a18.414,18.414,0,0,1,4.1-2.161,6.846,6.846,0,0,1,2.733,7c-.632,2.223-1.2,4.463-1.839,6.682a2.113,2.113,0,0,1-.663,1.27l-12.523-.015" transform="translate(-25.903 -19.575)" fill="#dce7ec"/><path d="M131.28,106.375c.827-3.091,1.633-6.188,2.5-9.269a1.9,1.9,0,0,0-.213-1.746c-.87-1.291-1.68-2.621-2.516-3.934a19.928,19.928,0,0,1,3.184-1.917.9.9,0,0,0,.782-.212q1.008.606,2.035,1.18c.371.208.807.395.75.952a12.745,12.745,0,0,1-1.215,1.912c-1.7,1.865-1.7,3.838-.868,6.119.784,2.161,1.2,4.455,1.785,6.69-2.057.549-4.149.127-6.223.226" transform="translate(-29.472 -20.082)" fill="#f64f4f"/><path d="M72.575,116.079l-7.42-.033c-.089-.048-.118-.094-.087-.139s.061-.066.092-.066l1.06-.058a3.771,3.771,0,0,1,1.349-.105,5.642,5.642,0,0,1,1.582.095c1.129.236,2.323-.252,3.424.307" transform="translate(-14.631 -26.013)" fill="#80a5b2"/><path d="M69.851,115.714l-1.58,0c-.1-.043-.127-.085-.095-.127a.129.129,0,0,1,.1-.062l1.358-.115.22.3" transform="translate(-15.33 -25.956)" fill="#e7b397"/><path d="M137.2,65.691c-2.921,1.169-5.606.1-8.189-1.047a23.278,23.278,0,0,1-14.158-17.613,23.322,23.322,0,0,1,4.614-19.056,2.056,2.056,0,0,1,1.861-.785c3.783.024,7.567,0,11.351,0,4.321,3.9,9.318,4.924,14.891,3.508.5,3.405,1.014,6.807,1.479,10.217.124.911.481,1.013,1.287.725,1.2-.429,2.445-.732,3.672-1.089.627.089.552.566.57,1.008a22.315,22.315,0,0,1-1.216,8.689,15.449,15.449,0,0,0-.4,1.523,24.834,24.834,0,0,1-9.983,11.484,12.757,12.757,0,0,1-3.616,1.656,4.168,4.168,0,0,0-2.166.784" transform="translate(-25.728 -6.114)" fill="#d2a388"/><path d="M138.951,88.567c-.492-.665-1.328-.8-1.948-1.269-.322-.242-.888-.258-.838-.863.392-.029.815.081,1.142-.247.66-.605,1.563-.77,2.266-1.343,2.237-1.82,2.806-4.295,2.92-6.972.042-.963.008-.964.462-1.3L147.5,79.44c-.606.088-.743.55-.85,1.048-.708,3.288-1.474,6.564-2.1,9.867-.18.956-.465.808-1.1.51-1.528-.715-2.862-1.806-4.5-2.3" transform="translate(-30.622 -17.221)" fill="#bed4dd"/><path d="M142.012,76.392c-.687.666-.329,1.513-.317,2.258a7.478,7.478,0,0,1-2.828,6.287,3.827,3.827,0,0,1-2.5,1.07,8.079,8.079,0,0,1-4.08-4.142c-.564-1.334-.461-1.507.948-1.494a23.894,23.894,0,0,0,6.653-.978c1.744-.485,1.923-.938,1.27-2.774.432-1.063,1.323-.856,2.166-.784a3.237,3.237,0,0,1-1.308.559" transform="translate(-29.678 -17.04)" fill="#d2a388"/><path d="M103.117,58.456a2.35,2.35,0,0,1-1.811,0q-.312-2-.626-4.01c.574-.342,1.766-.047,1.869.5.217,1.163.381,2.337.567,3.506" transform="translate(-22.643 -12.213)" fill="#cfa388"/><path d="M64.8,115.881c0,.068-.005.136-.005.2H63.433c.414-.333.9-.215,1.363-.2" transform="translate(-14.266 -26.055)" fill="#7398a8"/><path d="M67.912,115.55a1.542,1.542,0,0,0,0,.189l-1.351.009a1.835,1.835,0,0,1,1.353-.2" transform="translate(-14.969 -25.979)" fill="#c09889"/><path d="M150.686,106.633c-1.332,0-2.666-.04-4,.015-.843.033-1.26-.214-1.16-1.118a9.186,9.186,0,0,0,.008-1.331c-.021-.579.271-.777.815-.775q4.4.014,8.791,0c.658,0,.851.315.822.907a10.034,10.034,0,0,0,0,1.331c.064.771-.295,1-1.022.984-1.42-.037-2.842-.011-4.262-.011" transform="translate(-32.726 -23.259)" fill="#bed4dd"/><path d="M133.245,61.372a11.769,11.769,0,0,1-5.034-1.286c-.655-.289-1.209-.743-.825-1.546.358-.749.984-.756,1.7-.413a9.647,9.647,0,0,0,8.96,0c.574-.289,1.271-.522,1.651.184.405.753.029,1.368-.718,1.739a12.187,12.187,0,0,1-5.731,1.324" transform="translate(-28.62 -13.009)" fill="#be8e75"/><path d="M144.758,41.954a2.609,2.609,0,0,1,2.671,2.717,2.679,2.679,0,1,1-5.356-.16,2.6,2.6,0,0,1,2.685-2.556" transform="translate(-31.952 -9.435)" fill="#3e4259"/><path d="M127.075,43.639c.364,1.951-.336,3.179-2.021,3.545a2.593,2.593,0,0,1-3.067-2.056,2.7,2.7,0,0,1,1.438-2.99,2.653,2.653,0,0,1,3.269.915.677.677,0,0,1-.284.237,2.216,2.216,0,0,1-.522.1c-.512.05-1.111.157-.934.817.216.808.81.653,1.358.267.322-.217.2-.846.764-.836" transform="translate(-27.419 -9.421)" fill="#3e4259"/><path d="M134.269,53.406c-.843,0-1.687-.031-2.527.009a1.154,1.154,0,0,1-1.292-1.062c-.124-.652.4-.943.9-1.146a2.62,2.62,0,0,1,1.026-.194,31.425,31.425,0,0,1,4.64.111,1.133,1.133,0,0,1,1.091,1.265c-.067.753-.6,1.023-1.309,1.018-.842-.006-1.684,0-2.527,0" transform="translate(-29.334 -11.465)" fill="#bf8e75"/><path d="M128.319,43.976c-.346.262-.042.811-.46,1.041a1.6,1.6,0,0,1-.343-1.578l.42-.048a.755.755,0,0,1,.382.585" transform="translate(-28.663 -9.758)" fill="#515062"/><path d="M147.768,44.395c-.052.708-.411,1.151-1.156,1.13a1.112,1.112,0,1,1,1.156-1.13" transform="translate(-32.731 -9.738)" fill="#fafafb"/><path d="M127,43.417a1.77,1.77,0,0,1,.343,1.577c-.507.5-1.062.8-1.729.3a1.039,1.039,0,0,1-.322-1.4c.379-.732,1.039-.67,1.709-.481" transform="translate(-28.145 -9.737)" fill="#fafafb"/></g></svg>