<svg xmlns="http://www.w3.org/2000/svg" xmlns:xlink="http://www.w3.org/1999/xlink" width="123" height="123" viewBox="0 0 123 123"><defs><clipPath id="a"><rect width="102.361" height="95.347" fill="none"/></clipPath></defs><g transform="translate(-896 -1976)"><rect width="123" height="123" transform="translate(896 1976)" fill="none"/><g transform="translate(906 1990)"><g transform="translate(0 0)" clip-path="url(#a)"><path d="M18.336,1.457A1.606,1.606,0,0,1,20.148,0Q42.432.01,64.715.015a3.341,3.341,0,0,1,3.151,2.219,3.319,3.319,0,0,1-.7,3.872,1.986,1.986,0,0,0-.617,1.558c.022,4.7.029,9.393-.006,14.089-.005.712.188.864.877.862,10.292-.024,20.585.017,30.877-.046,1.955-.012,3.319.587,4.062,2.421v1.6c-.976,1.725-.924,3.609-.907,5.5.032,3.49.015,6.982.006,10.472a4.985,4.985,0,0,0,.6,3.07c.225.321.127.778.3,1.141v1.8c-1.169,2.292-.89,4.766-.9,7.2-.006,3.29.006,6.581-.006,9.872a4.1,4.1,0,0,0,.545,2.484c.289.421.169.969.356,1.429v1.6c-1.167,2.327-.888,4.834-.9,7.3-.008,3.025,0,6.05,0,9.075a4.455,4.455,0,0,0,.563,2.777c.248.351.155.84.337,1.234v1.6c-.354.185-.354.606-.586.878a3.205,3.205,0,0,1-2.546,1.318q-2.933-.025-5.868,0A1.675,1.675,0,0,1,91.5,94.064c-.2-1.192.026-1.549,1.238-1.963,1.858-.063,3.718-.044,5.725-.083a3.248,3.248,0,0,1-.609-2.345q0-8.193,0-16.387a3.307,3.307,0,0,1,.721-2.514c.384-.4.222-.8-.1-1.149a2.707,2.707,0,0,1-.62-1.946q0-8.744,0-17.486a2.527,2.527,0,0,1,.606-1.848.841.841,0,0,0,.019-1.312,2.612,2.612,0,0,1-.626-1.941q0-8.593,0-17.185a2.2,2.2,0,0,1,.762-2.011c-10.161-.046-20.21-.018-30.26-.019-.448,0-.947-.148-1.3.287a4.56,4.56,0,0,0,.583,3.883,4.521,4.521,0,0,1-.134,5.5,2.9,2.9,0,0,0-.613,1.844c.01,2.2,0,4.4,0,6.594,0,1.44.048,1.484,1.544,1.485q11.44,0,22.879,0c.433,0,.867-.014,1.3.018a2.124,2.124,0,0,1,2.163,1.925c-.032,1.006-.863,1.661-2.205,1.665-5.662.018-11.323.005-16.985.008-2.464,0-4.929-.008-7.393,0-1.2.006-1.3.1-1.3,1.325-.008,2.5,0,5-.005,7.493a2.92,2.92,0,0,0,.579,1.857,4.629,4.629,0,0,1,.141,5.587,4.613,4.613,0,0,0-.494.749,3.02,3.02,0,0,0-.06,2.427c.294.612,1.087.3,1.658.317,1.264.039,2.531-.008,3.8.02s1.94.6,1.992,1.627a1.9,1.9,0,0,1-1.884,1.935c-1.461.118-2.929.028-4.394.046-1.284.015-1.329.051-1.331,1.367,0,4.463.006,8.925-.008,13.387a2.808,2.808,0,0,0,.667,2.024,3.114,3.114,0,0,1,.808,1.695c.114.987.707,1.111,1.532,1.108,4.729-.019,9.458-.011,14.187-.008a6.069,6.069,0,0,1,1.491.1,1.382,1.382,0,0,1,1.193,1.634c-.551,1.439-.743,1.57-2.33,1.57q-40.077,0-80.155,0a4.974,4.974,0,0,1-1.87-.239A3.535,3.535,0,0,1,.062,92.231a3.392,3.392,0,0,1,1.492-3.473,1.278,1.278,0,0,0,.612-1.218q-.024-10.093,0-20.187a1.494,1.494,0,0,0-.545-1.282,4.448,4.448,0,0,1,.04-6.9,1.3,1.3,0,0,0,.507-1.1q-.021-10.394,0-20.787a1.4,1.4,0,0,0-.562-1.172,4.45,4.45,0,0,1-.01-6.834,1.5,1.5,0,0,0,.569-1.271Q2.145,17.92,2.17,7.827A1.377,1.377,0,0,0,1.5,6.537,3.487,3.487,0,0,1,.2,2.553,3.565,3.565,0,0,1,3.642.013c2.665-.024,5.331,0,8-.013a1.6,1.6,0,0,1,1.81,1.461,1.4,1.4,0,0,1-1.126,1.758,5.137,5.137,0,0,1-1.292.088c-2.163.007-4.328-.012-6.491.013-.287,0-.7-.065-.8.249-.124.378.318.439.558.563a2.2,2.2,0,0,1,1.2,1.942c.029.365.023.731.023,1.1,0,7.09-.016,14.181.015,21.271.006,1.386-.209,2.527-1.552,3.3a1.035,1.035,0,0,0-.015,1.885c1.356.853,1.58,2.053,1.571,3.511q-.06,10.684,0,21.37a3.343,3.343,0,0,1-1.478,3.155c-.914.607-.868,1.5.1,2.088a2.812,2.812,0,0,1,1.369,2.682q-.015,11.084,0,22.169a2.689,2.689,0,0,1-1.532,2.774c-.212.1-.429.244-.187.526a1.891,1.891,0,0,0,1.171.168q27.029.007,54.058,0c1.532,0,3.064-.007,4.6-.042.29-.006.668.046.815-.252.171-.348-.2-.527-.411-.705A2.143,2.143,0,0,1,63.27,89.3q-.014-11.839,0-23.68a2.589,2.589,0,0,1,.8-1.867c.918-.962.923-1.311-.022-2.245a3.053,3.053,0,0,1-.781-2.384q0-9.892,0-19.784c0-1.132.007-2.265,0-3.4a2.868,2.868,0,0,1,.844-2.161c.84-.849.833-1.346-.014-2.2a2.764,2.764,0,0,1-.829-2.063q0-11.691,0-23.381a2.343,2.343,0,0,1,.839-1.943c.172-.142.429-.3.358-.551-.089-.319-.425-.289-.677-.3-2-.054-4-.05-5.994-.054-12.657-.023-25.314.011-37.97-.019C18.6,2.978,18.2,2.489,18.336,1.457" transform="translate(0 0)"/><path d="M4.3,92.588c-.611-.488-.395-.822.215-1.042,1.413-.511,1.576-.726,1.576-2.229,0-7.59-.008-15.181.012-22.771a1.931,1.931,0,0,0-1.26-2.126,1.357,1.357,0,0,1-.886-1.332,1.4,1.4,0,0,1,.938-1.4,1.814,1.814,0,0,0,1.2-1.954Q6.075,48.1,6.1,36.46a1.821,1.821,0,0,0-1.2-1.956,1.4,1.4,0,0,1-.938-1.4,1.422,1.422,0,0,1,.974-1.379,1.767,1.767,0,0,0,1.167-1.878q-.016-11.636,0-23.271A1.651,1.651,0,0,0,4.706,4.69c-.4-.076-.765-.184-.728-.641.041-.5.446-.594.884-.593q3.8.006,7.591,0c1.247,0,1.654-.354,1.889-1.566a23.2,23.2,0,0,0,4.889,0A1.61,1.61,0,0,0,20.5,3.463a3.44,3.44,0,0,0,1.189.069q18.288.006,36.576,0c1.728,0,1.734,0,1.736,1.787,0,4.963-.137,9.931.036,14.888C60.265,26.6,60,33,60.252,39.386c.217,5.6-.052,11.192.184,16.778.256,6.061-.039,12.125.214,18.176.226,5.4.059,10.788.156,16.18.006.366-.01.733-.009,1.1,0,.781-.314,1.076-1.152,1.074q-27.282-.035-54.565-.02a1.486,1.486,0,0,1-.784-.086" transform="translate(-0.895 -0.429)" fill="#fe7f85"/><path d="M106.37,101.338c-.27-1.128-1-1.485-2.13-1.475-5.129.041-10.259.005-15.388.032-.727,0-1.152-.019-1.11-.959a2.8,2.8,0,0,0-1.083-2.272,1.371,1.371,0,0,1-.492-1.209c.012-4.963.028-9.925-.015-14.888-.007-.793.249-.925.955-.9,1.63.05,3.264.025,4.9.013,1.164-.008,1.853-.565,1.879-1.482.028-.968-.657-1.539-1.892-1.547-1.7-.01-3.4-.023-5.1.009-.564.011-.75-.155-.733-.728a4.871,4.871,0,0,1,.856-3.317,4.134,4.134,0,0,0-.341-5.333,1.946,1.946,0,0,1-.512-1.426c.022-2.8.042-5.6-.009-8.393-.015-.813.176-1.055,1.025-1.051,8.227.035,16.455.021,24.682.02,1.52,0,2.255-.482,2.272-1.484.018-1.033-.767-1.563-2.323-1.563-8.227,0-16.454-.012-24.681.019-.79,0-.989-.205-.975-.982.05-2.631.032-5.262.008-7.894a1.817,1.817,0,0,1,.506-1.325,4.338,4.338,0,0,0,.15-5.677,2.568,2.568,0,0,1-.65-1.973c.043-.729.041-1.461.059-2.191a1.844,1.844,0,0,1,.979-.093q13.292-.007,26.584,0c1.2,0,1.269.073,1.308,1.308.011.333.005.667.005,1V97.524c0,2.262,0,2.262-2.234,2.291a1.425,1.425,0,0,0-.687.079,1.638,1.638,0,0,0-1.075,1.738c-.257-.337-.624-.3-.984-.3q-1.877.006-3.754,0" transform="translate(-19.61 -7.567)" fill="#88e4fe"/><path d="M4.4,93.047l38.67-.016c5.463,0,10.925-.024,16.388.022.946.008,1.157-.286,1.149-1.18-.043-4.929.134-9.865-.069-14.786-.241-5.858.073-11.716-.195-17.563-.265-5.791.066-11.582-.2-17.362-.277-6.09.063-12.182-.2-18.262-.272-6.223-.072-12.442-.142-18.663-.01-.921-.255-1.165-1.17-1.162q-18.436.045-36.873.014c-.385,0-.8.136-1.151-.166Q33.1,3.91,45.6,3.9q9.593,0,19.188.015c.233,0,.467-.006.7.012a.631.631,0,0,1,.627.539.541.541,0,0,1-.395.619c-1.062.358-1.192,1.179-1.189,2.153q.028,11.543,0,23.085a2.2,2.2,0,0,0,.939,2.05,1.4,1.4,0,0,1-.008,2.424,2.131,2.131,0,0,0-.93,1.953q.022,11.793,0,23.585a2.12,2.12,0,0,0,.908,1.963,1.39,1.39,0,0,1,.046,2.419,2.25,2.25,0,0,0-.958,2.044q.029,11.593,0,23.185c0,.95.167,1.717,1.166,2.069a.549.549,0,0,1,.406.7c-.127.411-.488.491-.884.491-1.732,0-3.465.013-5.2.013q-27.284,0-54.567-.005c-.351,0-.738.131-1.047-.167" transform="translate(-1.002 -0.888)" fill="#e4646e"/><path d="M112.2,99.867c.619-.37,1.3-.139,1.945-.174.46-.025.681-.175.649-.649-.015-.232,0-.466,0-.7V34.636c0-1.3,0-1.3-1.286-1.3L86.249,33.33c.125-.314.4-.171.6-.171,10.622-.008,21.244-.007,32.016.063-1.376.62-1.114,1.784-1.115,2.848-.006,5.428,0,10.855-.009,16.283a2.338,2.338,0,0,0,.891,2.279c.53.355.417.893-.09,1.237a1.936,1.936,0,0,0-.8,1.815q.019,8.79,0,17.581a2.034,2.034,0,0,0,.82,1.908c.568.392.539.916-.02,1.3a1.964,1.964,0,0,0-.8,1.817c.013,5.827.022,11.654-.008,17.481a2.4,2.4,0,0,0,1.01,2.093Z" transform="translate(-19.632 -7.54)" fill="#67caee"/><path d="M56.658,58.728c1.195.653,1.366,1.054,1.031,2.326a21.692,21.692,0,0,1-4.343,8.26h3.685c.732,0,1.465-.016,2.2.007a1.51,1.51,0,1,1-.034,3.009c-2.564.019-5.129.029-7.693-.006a3.883,3.883,0,0,0-2.393.715,21.146,21.146,0,0,1-24.172-.2,2.642,2.642,0,0,0-1.652-.514c-2.564.024-5.129.011-7.693.009-1.406,0-2.126-.526-2.113-1.535s.71-1.485,2.153-1.487c1.718,0,3.436,0,5.36,0A21.377,21.377,0,0,1,15.879,55.43a21.131,21.131,0,0,1,4.973-13.684c-.194-.329-.49-.173-.724-.175-1.565-.016-3.13-.005-4.7-.009-1.252,0-1.942-.532-1.954-1.486s.685-1.522,1.914-1.525c2.664,0,5.329-.014,7.993.009a2.35,2.35,0,0,0,1.468-.467,21.16,21.16,0,0,1,24.663.02,2.214,2.214,0,0,0,1.374.446c2.665-.022,5.329-.012,7.993-.009,1.258,0,1.946.524,1.964,1.476.019.981-.7,1.532-2.008,1.535-1.76,0-3.521,0-5.294,0-.058.433.281.609.467.853a21.326,21.326,0,0,1,4.275,10.389,1.731,1.731,0,0,1-1.26,2.161c-1.044.26-1.815-.363-2-1.687A18.117,18.117,0,0,0,40.237,37.734a17.427,17.427,0,0,0-14.71,4.042A17.169,17.169,0,0,0,19.18,55.753,17.982,17.982,0,0,0,34.322,73.2a15.93,15.93,0,0,0,5.265.06A17.511,17.511,0,0,0,48.748,69.2a18.246,18.246,0,0,0,5.7-8.72,3.264,3.264,0,0,1,.517-1.181c.44-.527.926-.995,1.7-.57" transform="translate(-3.068 -7.771)"/><path d="M47.988,38.518a16.952,16.952,0,0,1,9.894,5.118A17.691,17.691,0,0,1,62.988,54.2c.148,1.2.515,1.566,1.759,1.766a22.194,22.194,0,0,1-.37,3.761c-1.289.105-1.544.337-1.975,1.805A18.118,18.118,0,0,1,47.391,74.486c.036-.468.456-.534.762-.691a19.738,19.738,0,0,0,7.908-7.411,2.749,2.749,0,0,0,.433-1.207,16.578,16.578,0,0,0,2.461-5.623c.266-1.4.6-2.808-.279-4.132a18.345,18.345,0,0,0-3.472-10.2,19.111,19.111,0,0,0-6.435-5.82c-.344-.193-.831-.32-.779-.886" transform="translate(-10.787 -8.767)" fill="#fecf64"/><path d="M108.9,89.433c2.2,0,4.394-.008,6.591,0,1.159.005,1.857.571,1.875,1.475s-.7,1.549-1.819,1.552q-6.69.017-13.381,0c-1.464-.005-2.257-1.189-1.595-2.3a1.67,1.67,0,0,1,1.639-.727c2.23.006,4.461,0,6.69,0" transform="translate(-22.837 -20.356)" fill="#000101"/><path d="M50.52,65.229c-.108,1.376-1.117,2.259-1.855,3.266a20.057,20.057,0,0,1-7.4,5.881,18.241,18.241,0,0,1-5.339-36.089,14.527,14.527,0,0,1,5.935.122c1.011.911,2.286,1.422,3.35,2.27A19.531,19.531,0,0,1,52.45,52.309c.2.961.67,1.936.171,2.95-.8.233-1.546-.212-2.348-.181-1.827.071-3.66.037-5.491.018A2.217,2.217,0,0,1,42.9,51.772c.967-1.671,1.951-3.331,2.9-5.013,1-1.779.711-2.634-1.169-3.439a13.987,13.987,0,0,0-12.159.224c-1.359.665-1.624,1.488-.924,2.851.884,1.718,1.922,3.348,2.88,5.023a2.393,2.393,0,0,1-.385,3.317,1.521,1.521,0,0,1-1.2.36c-1.864.012-3.728,0-5.591.005a5.422,5.422,0,0,0-1.193.087,1.978,1.978,0,0,0-1.662,2.336,14.836,14.836,0,0,0,3.958,8.859,12.979,12.979,0,0,0,2.135,1.8c1.491,1.033,2.462.815,3.365-.742.952-1.641,1.888-3.29,2.852-4.924a2.316,2.316,0,0,1,4.138.046c.99,1.658,1.9,3.361,2.914,5,.881,1.427,1.773,1.637,3.147.711a9.985,9.985,0,0,0,2.538-2.229,1.589,1.589,0,0,1,1.084-.813" transform="translate(-4.666 -8.659)" fill="#fedf7e"/><path d="M51.586,66.326a16.231,16.231,0,0,1-3.722,3.443,2,2,0,0,1-3.125-.713q-1.645-2.791-3.232-5.618c-.3-.536-.6-.919-1.3-.729a1.848,1.848,0,0,1-.893-.006c-.573-.141-.819.146-1.074.6-1.043,1.854-2.115,3.692-3.186,5.529-.935,1.6-2.006,1.841-3.541.751a14.55,14.55,0,0,1-6.319-11.158,2.04,2.04,0,0,1,2.233-2.418q3.3-.038,6.595,0c.561.007.782-.244,1.139-.666,1-1.172.551-2.079-.141-3.149-.958-1.476-1.789-3.035-2.658-4.568a2.042,2.042,0,0,1,1.023-3.254,14.5,14.5,0,0,1,12.9,0c1.507.71,1.826,1.809,1,3.266-1.069,1.878-2.141,3.755-3.251,5.607-.3.494-.169.8.019,1.318.523,1.438,1.53,1.52,2.8,1.452,1.694-.09,3.4-.008,5.095-.029a3.938,3.938,0,0,1,1.736.364c1.213,1.127.748,2.513.54,3.825a15,15,0,0,1-2.64,6.146" transform="translate(-5.731 -9.756)"/><path d="M42.911,53.2c-1.077.382-1.5-.261-1.926-1.073-.693-1.326-1.459-2.615-2.238-3.894-.266-.437-.205-.616.263-.77a11.963,11.963,0,0,1,7.641-.028c.533.175.587.412.319.869-.877,1.492-1.753,2.985-2.58,4.5-.387.711-.991.33-1.48.391" transform="translate(-8.784 -10.657)" fill="#5d5360"/><path d="M53.517,63.847c.864,0,1.729.01,2.593,0,.474-.007.739.047.611.667a11.917,11.917,0,0,1-3.83,6.6c-.4.363-.6.252-.824-.151-.867-1.531-1.739-3.06-2.629-4.579a.974.974,0,0,1,.027-1,2.224,2.224,0,0,1,2.759-1.549,6.948,6.948,0,0,0,1.294.012" transform="translate(-11.224 -14.515)" fill="#5d5360"/><path d="M32.584,63.857a11.893,11.893,0,0,0,1.494-.011,1.992,1.992,0,0,1,2.405,1.295,1.4,1.4,0,0,1,.036,1.515c-.85,1.386-1.646,2.806-2.435,4.228-.278.5-.49.589-.953.165A11.841,11.841,0,0,1,29.4,64.613c-.125-.6-.008-.783.591-.763.863.029,1.727.007,2.591.007" transform="translate(-6.682 -14.525)" fill="#5d5360"/><path d="M41.4,61.335a2.26,2.26,0,0,1,2.115-2.316,2.142,2.142,0,0,1,2.117,2.043,2.3,2.3,0,0,1-2.11,2.333,2.162,2.162,0,0,1-2.122-2.06" transform="translate(-9.425 -13.434)" fill="#5c525f"/></g></g></g></svg>