<svg xmlns="http://www.w3.org/2000/svg" xmlns:xlink="http://www.w3.org/1999/xlink" width="128" height="128" viewBox="0 0 128 128"><defs><clipPath id="a"><rect width="128" height="128" fill="none"/></clipPath></defs><g clip-path="url(#a)"><path d="M166.067,70.676v1.75c-.338,1.794-.181,3.631-.45,5.43a59.5,59.5,0,0,1-5.26,16.857,64.615,64.615,0,0,1-14.728,19.975,60.073,60.073,0,0,1-7.961,6.218c-.577.374-1.155.863-1.946.662a.616.616,0,0,1-.338-.482.8.8,0,0,1,.078-.485c1.384-2,1.414-4.271,1.343-6.574-.045-1.45-.014-2.9-.008-4.356a6.413,6.413,0,0,0-2.582-5.393c-.467-.36-.938-.7-1-1.352-.054-11.58-.008-23.157-.024-34.734,0-1.583.011-3.166-.01-4.748a56.549,56.549,0,0,1-.155-6.365q-.007-21.122,0-42.244a15.878,15.878,0,0,0-.118-2.617,2.288,2.288,0,0,1,.172-.868c.581-.634,1.082-.1,1.542.162a59.762,59.762,0,0,1,10.2,7.38,63.819,63.819,0,0,1,13.19,16.2,61.489,61.489,0,0,1,7.6,21.406c.269,1.882.179,3.8.452,5.681v1c-.264.489-.061,1.017-.126,1.522.062.574-.14,1.168.126,1.727v1.5c-.255.4-.068.853-.126,1.277.064.489-.137,1,.126,1.473" transform="translate(-38.067 -3.167)" fill="#d3f9ee"/><path d="M94.3,162.832a46.27,46.27,0,0,1-4.691.707c-.258.047-.592-.1-.736.265h-3.5a1.388,1.388,0,0,0-1.25,0h-1.75a3.344,3.344,0,0,0-2,0h-2c-1.512-.583-3.135-.466-4.7-.738a47.461,47.461,0,0,1-4.818-1,1.649,1.649,0,0,1-.335-.545,18.708,18.708,0,0,1,.848-4.992c1.18-5.506,2.246-11.037,3.619-16.5.908-4.471,1.872-8.93,2.856-13.384A2.567,2.567,0,0,1,76.5,125.2a2.142,2.142,0,0,1,2.042.03c9.072,3.528,14.559,10.077,16.006,19.7.831,5.525.256,11.143.329,16.717a1.333,1.333,0,0,1-.577,1.183" transform="translate(-19.622 -35.804)" fill="#25e0ac"/><path d="M85.13,179.3a1.93,1.93,0,0,1,2,0Z" transform="translate(-24.383 -51.299)" fill="#f86f5d"/><path d="M179.273,87.914c-.42-.542-.2-1.17-.233-1.763q.13-.229.233.013Z" transform="translate(-51.273 -24.655)" fill="#fee671"/><path d="M179.275,93.972c-.417-.443-.188-.99-.24-1.492q.111-.255.24-.008Z" transform="translate(-51.275 -26.463)" fill="#fee880"/><path d="M179.274,85.613l-.234-.013c.053-.5-.2-1.047.234-1.487Z" transform="translate(-51.274 -24.103)" fill="#feeb90"/><path d="M179.277,92.019c-.081,0-.161,0-.241.008.015-.432-.111-.89.241-1.258Z" transform="translate(-51.277 -26.01)" fill="#fee468"/><path d="M90.386,179.308a.888.888,0,0,1,1.25,0Z" transform="translate(-25.889 -51.308)" fill="#f76855"/><path d="M8.491,37.2l.047-25.848c0-.443,0-.886,0-1.52,1.595,1.083,2.871,2.262,4.328,3.2a28.378,28.378,0,0,0,9.515,3.916,7.311,7.311,0,0,0,1.115.073c1.837-.593,3.721-.121,5.581-.225a37.93,37.93,0,0,0,9.051-1.666c6.264-1.921,12.182-4.7,18.163-7.329a77.333,77.333,0,0,1,16.5-5.644,20.035,20.035,0,0,1,6.8-.146,29.428,29.428,0,0,1,11.73,3.042.753.753,0,0,1,.82.015,23.68,23.68,0,0,1,4.849,3.37,2.675,2.675,0,0,1,.566.95c.381.367.294.845.294,1.293q0,24.528,0,49.057c0,.371-.062.743-.1,1.114a.647.647,0,0,1-.358.046c-1.865-1.082-3.424-2.613-5.337-3.631a6.756,6.756,0,0,0-1.112-.53A25.368,25.368,0,0,0,79.4,53.79a3.534,3.534,0,0,1-2.165-.343,2.59,2.59,0,0,1-.466-2c-.046-3.2.15-6.4-.475-9.572a31.632,31.632,0,0,0-26.78-25.506,27.184,27.184,0,0,0-6.957-.251,32.139,32.139,0,0,0-15.943,6.191,31.1,31.1,0,0,0-12.5,21.488,59.41,59.41,0,0,0-.33,9.336,3.8,3.8,0,0,1-.275,1.955,1.206,1.206,0,0,1-.656.55,13.466,13.466,0,0,0-3.37,1.552c-.427.265-.944.4-1.3-.2a4.7,4.7,0,0,1-.193-1.973c-.013-4.79.006-9.58-.015-14.37A13.705,13.705,0,0,1,8.491,37.2" transform="translate(-2.286 -0.514)" fill="#25e0ac"/><path d="M132.938,158.98l-1.44.858a5.273,5.273,0,0,1-4.715-4.445,30.24,30.24,0,0,1,.029-11.158,5.874,5.874,0,0,1,2.884-4.057c.581-.339,1.249-.789,1.924-.1a6.851,6.851,0,0,1,3.8,6.6c-.038,2.069-.054,4.142.006,6.21a7.3,7.3,0,0,1-1.765,5.15c-.166.372-.517.6-.724.942" transform="translate(-36.169 -40.036)" fill="#f5c9ad"/><path d="M129.759,124.258c-1.82-.243-4.142,2.517-4.43,4.71a35.385,35.385,0,0,0,.021,10.142,5.787,5.787,0,0,0,3.19,4.349c.364.188.731.372,1.1.558l-.519.237c-.991.052-1.864.648-2.912.537a8.643,8.643,0,0,1-3.17-1.047,6.6,6.6,0,0,1-3.255-5.932c.021-2.577.017-5.154,0-7.73a6.562,6.562,0,0,1,3.544-6,6.291,6.291,0,0,1,3.93-.9c1.678.014,1.757-.066,1.758-1.752.008-11.467-.006-22.934.021-34.4,0-.858-.36-1.864.6-2.52a.334.334,0,0,1,.133.051q-.005,19.851-.009,39.7" transform="translate(-34.308 -24.216)" fill="#e9b498"/><path d="M131,8.879a51.429,51.429,0,0,0-6.235-4.334c.009-1.25.043-2.5.015-3.747-.013-.592.178-.8.781-.79,1.541.034,3.084.049,4.623,0,.738-.026.9.242.891.927-.026,2.415.01,4.831.022,7.246-.032.234-.064.469-.1.7" transform="translate(-35.735 0)" fill="#3d4159"/><path d="M135.611,166.339a1.188,1.188,0,0,1,.724-.942l.269.263-.993.679" transform="translate(-38.842 -47.395)" fill="#fbde7a"/><path d="M6.205,51.426q.024,8.855.047,17.709c0,.79.016,1.58.026,2.369.267.6-.093,1.039-.392,1.476A7.375,7.375,0,0,0,9.9,84.21a1.924,1.924,0,0,1,1.456,1.045,11.391,11.391,0,0,1,.167,3.227c.029,2.331-.007,4.663.016,6.995.016,1.525.2,1.71,1.755,1.721,3.123.021,6.247.008,9.37.006a32.3,32.3,0,0,1,4.237.158,2.274,2.274,0,0,1,1.528.387,32.526,32.526,0,0,0,4.578,2.187c.46.19.93.375,1.1.917-.029.747-.632,1.02-1.149,1.339-1.266.781-2.589,1.468-3.813,2.317a11.99,11.99,0,0,1-2.184.918,23.271,23.271,0,0,0-12.29,11.02c-.3.572-.468,1.28-1.225,1.487A63.993,63.993,0,0,1,5.729,52.293c.136-.3.317-.579.477-.867" transform="translate(0 -14.736)" fill="#d3f9ee"/><path d="M66.627,143.666q-1.943,9.154-3.886,18.308-.337,1.587-.679,3.173c-.206.456-.534.484-.933.268a24.345,24.345,0,0,1-5.838-1.672,27.094,27.094,0,0,1-6.453-2.842c-1.049-1.3-1.05-2.937-1.384-4.45-.782-3.554-1.566-7.109-2.317-10.672a3.528,3.528,0,0,1-.121-1.957,3.048,3.048,0,0,1,1.535-1.4c2.631-1.435,5.236-2.919,7.854-4.376,1.22-.99,2.4-.333,3.46.23q4,2.114,7.908,4.391a1.433,1.433,0,0,1,.854,1" transform="translate(-12.864 -39.412)" fill="#f1efeb"/><path d="M85.812,1.512C77.66,1.569,70.286,4.5,62.976,7.684c-6.329,2.753-12.558,5.761-19.219,7.687a35.106,35.106,0,0,1-12.569,1.417,3.944,3.944,0,0,1-1.464-.267A59.78,59.78,0,0,1,45.316,6.1a63.209,63.209,0,0,1,30.03-6A45.421,45.421,0,0,1,85.812,1.512" transform="translate(-8.514 -0.01)" fill="#d3f9ee"/><path d="M18.841,139.13A23.73,23.73,0,0,1,34.469,125.4a.876.876,0,0,1,.723.758,18.883,18.883,0,0,1,.9,4.966,4.034,4.034,0,0,1-.98,1.705,23.471,23.471,0,0,0-5.966,14.939c-.024.534.022,1.1-.516,1.45a55.491,55.491,0,0,1-9.791-10.087" transform="translate(-5.396 -35.933)" fill="#16cb98"/><path d="M32.56,151.515a24.329,24.329,0,0,1,5.305-15.877c.582-.746,1.5-1.226,1.766-2.221.706.176.791.8.9,1.347.421,2.061.895,4.11,1.319,6.171a2.36,2.36,0,0,1-.114,1.567q1.714,8.062,3.423,16.124c.076.359.093.731.136,1.1a51.644,51.644,0,0,1-12.739-8.207" transform="translate(-9.324 -38.231)" fill="#25e0ac"/><path d="M67.637,176.506a1.334,1.334,0,0,0,.934-.268c.011.176.021.352.031.528-.33-.054-.713.083-.965-.26" transform="translate(-19.373 -50.502)" fill="#f2b8af"/><path d="M109.963,121.441c-.271.253-.539.509-.815.757a6,6,0,0,0-2.25,4.524c-.016,2.155.1,4.319-.045,6.465-.206,3,.607,5.474,3.111,7.271a3.593,3.593,0,0,1,.1,3.547,60.768,60.768,0,0,1-13.247,4.06c-.4.076-.818.1-1.229.148.018-4.617.074-9.235.045-13.852-.044-7.1-2.4-13.269-7.643-18.181a21.97,21.97,0,0,0-10.033-5.539,17.771,17.771,0,0,1-4.742-2.713.608.608,0,0,1-.2-.556,1.241,1.241,0,0,1,.867-.81,39.626,39.626,0,0,0,5.216-2.528,1.8,1.8,0,0,1,1.416-.293c4.408-.178,8.815-.04,13.22-.1,1.441-.019,1.625-.228,1.628-1.853q.02-10.919.006-21.839c0-1.5-.024-3,.016-4.492.016-.57-.05-1.2.642-1.489a26.238,26.238,0,0,1,12.792,2.467,12.566,12.566,0,0,1,1.16.7,2.261,2.261,0,0,1,.468,1.633q.016,20.516,0,41.032a2.392,2.392,0,0,1-.486,1.634" transform="translate(-20.913 -21.185)" fill="#d3f9ee"/><path d="M124.888,170.724a24.622,24.622,0,0,1-.1-3.547,7.8,7.8,0,0,0,5.47.579c.071-.021.191.121.289.188a34.8,34.8,0,0,1-5.659,2.78" transform="translate(-35.738 -47.905)" fill="#41445a"/><path d="M68.914,120.849c1.242.748,2.492,1.485,3.723,2.252.407.253.946.377,1.086.945-1.119,4.928-1.994,9.909-3.281,14.8-3.241-1.785-6.487-3.562-9.72-5.363a1.811,1.811,0,0,0-2.3.117.641.641,0,0,1-.083-.821c.557-.581,1.281-.447,1.965-.432.445.009.892.166,1.319-.076a8.162,8.162,0,0,0,5.726-5.251,7.454,7.454,0,0,0,.4-3.405,4.156,4.156,0,0,1,.191-2.53c.268-.314.563-.517.974-.235" transform="translate(-16.679 -34.591)" fill="#d7d4cf"/><path d="M84.589,58.806c-.021,3.288-.054,6.577-.059,9.866-.009,6.33-.022,12.661.018,18.99.006.96-.23,1.283-1.236,1.272-4.54-.052-9.08-.021-13.62-.027-.33,0-.659-.063-.988-.1.011-.853.7-1.234,1.266-1.587A5.026,5.026,0,0,0,72.5,82.143c-.178-2.98.034-5.99.038-8.982.006-4.325-.084-8.656-.1-12.983,0-.935-.371-1.358-1.33-1.381a13.772,13.772,0,0,1-3.925-.629,19.406,19.406,0,0,1-3.621-1.109,24.227,24.227,0,0,1-5.619-3.432,19.87,19.87,0,0,1-6.685-10.846c-.056-.226-.026-.481-.145-.62A17.821,17.821,0,0,1,36.561,52.507c-1.11.145-2.287.673-3.38-.14A.657.657,0,0,1,33.076,52c.606-2,.51-4.105.878-6.146,1.277-7.1,3.539-13.772,8.173-19.446a14.982,14.982,0,0,1,5.686-4.565c.6-.257,1.332-.092,1.839-.6a23.952,23.952,0,0,1,8.549.364C70.86,24.264,79.239,31.767,83.228,44.085a29.863,29.863,0,0,1,1.3,9.481c-.012,1.747.04,3.494.063,5.24" transform="translate(-9.474 -6.021)" fill="#3d4159"/><path d="M44.607,21.337c.191.086.494.173.047.329-6.02,2.111-9.067,7.05-11.636,12.373a48.731,48.731,0,0,0-4.049,14.986c-.081.616-.032,1.248-.052,1.872-.019.571-.143,1.084-.795,1.259a3.019,3.019,0,0,1-2.49.372A19.945,19.945,0,0,1,20.141,50.6c-1.1-.589-1.386-.429-1.42.824-.065,2.444-.013,4.891-.025,7.336-.011,2.082-.012,2.082-2.046,2.373a1.28,1.28,0,0,1-1.181-.517c.049-4.069-.187-8.148.435-12.2A31.231,31.231,0,0,1,27.833,27.954a30.312,30.312,0,0,1,16.774-6.617" transform="translate(-4.429 -6.114)" fill="#2a2f4f"/><path d="M124.794,122.731l.017-44.3a22.432,22.432,0,0,1,6.259,4.334q-.012,18.869-.024,37.738c0,.375-.014.75,0,1.124.014.474-.172.744-.666.59a8.041,8.041,0,0,0-5.584.512" transform="translate(-35.744 -22.475)" fill="#3d4159"/><path d="M12.663,76.395l1.215.052c1.254.185,1.357.32,1.112,1.6-.109.571-.27,1.139-.329,1.712a2.607,2.607,0,0,1-1.812,2.433,2.21,2.21,0,0,0,.006,4.174,2.57,2.57,0,0,1,1.789,2.316c.08.657.257,1.3.348,1.962a1.552,1.552,0,0,1-.918,1.846,1.253,1.253,0,0,1-1.408-.322c-3.937-.781-6.347-3.078-6.929-7.1A7.46,7.46,0,0,1,7.2,79.68q.351-.512.7-1.021a10.507,10.507,0,0,1,4.762-2.264" transform="translate(-1.624 -21.891)" fill="#f5c9ad"/><path d="M16.175,87.445a1.087,1.087,0,0,0,.423-1.312,7.114,7.114,0,0,1-.336-1.578,2.281,2.281,0,0,0-1.869-2.507,2.284,2.284,0,0,1-1.544-2.465,2.321,2.321,0,0,1,1.611-2.429,2.121,2.121,0,0,0,1.773-2.3,5.816,5.816,0,0,1,.4-1.817c.269-.742-.071-1.051-.694-1.248,1.358.284,1.533-.362,1.523-1.581a59.168,59.168,0,0,1,.29-10.062c3.028,1.819,6.087,3.244,9.624,3.128.043.059.083.118.12.179a7.34,7.34,0,0,0-.315,2.331c.016,3.83.009,7.661.006,11.492A8.817,8.817,0,0,0,27.6,80.1c1.917-1.391,3.845-1.545,5.608.053a3.737,3.737,0,0,1,1.161,4.194c-.718,2.129-2.313,2.933-4.567,2.912a10.842,10.842,0,0,0,1.546,3.266A28.987,28.987,0,0,0,49.9,103.645a9.992,9.992,0,0,0,3.945-.221c.47-.076,1.062-.457,1.349.32q0,1.374-.007,2.749c-.3.718-1,.831-1.618,1.017a27.941,27.941,0,0,1-8.073,1.246c-1.41,0-1.53.221-.955,1.531a8.413,8.413,0,0,0,3.349,3.73c.46.293,1.112.46,1.038,1.222-1.137.487-2.336.161-3.5.266a1.562,1.562,0,0,1-1.648.011,8.713,8.713,0,0,1-5.843-7.092,22.885,22.885,0,0,1-.248-4.938c-2.3-1.052-4.639-2.019-6.828-3.3-2.59-.864-4.382-2.794-6.152-4.712a26.72,26.72,0,0,1-5.021-7.685c-.229-.539-.4-.642-.99-.406-.793.319-1.668.881-2.522.061" transform="translate(-3.68 -17.236)" fill="#e9b498"/><path d="M16.919,98.095a5.1,5.1,0,0,0,2.743-.645c.442-.218.712-.218.938.307a30.707,30.707,0,0,0,11,13.08c-5,0-9.992-.019-14.987.031-.968.009-1.18-.315-1.17-1.219.046-3.829.02-7.659.02-11.489l1.452-.065" transform="translate(-4.424 -27.885)" fill="#2a2f4f"/><path d="M45.677,120.891c.756.239.492.88.5,1.369a14.508,14.508,0,0,0,.756,5.386,8.557,8.557,0,0,0,6.487,5.265c0,.246,0,.493,0,.74l-9.332,5.261-2.109-9.084a51.32,51.32,0,0,0-1.234-5.721c.661-.975,1.8-1.249,2.714-1.861.72-.483,1.48-.905,2.222-1.355" transform="translate(-11.669 -34.642)" fill="#d7d4cf"/><path d="M60.732,100.348c-.569-.229-1.07.112-1.558.262-2.841.88-5.444-.118-7.984-1.089A29.09,29.09,0,0,1,34.535,83.732a3.848,3.848,0,0,1-.144-.542,15.939,15.939,0,0,0,1.763.145c1.789-.051,2.872-1,3.405-2.921a3.715,3.715,0,0,0-1.434-3.6,3.443,3.443,0,0,0-4.478.213c-.26.22-.432.751-.869.522-.349-.183-.28-.654-.32-1.026-.544-5.148-.112-10.31-.256-15.464-.016-.607.2-.952.826-1,5.672.043,10.619-1.682,14.528-5.946a16.613,16.613,0,0,0,2.9-4.476c.162-.361.317-.724.586-1.341,1.275,7.818,5.519,13,12.4,16.116-.106.841-.853.815-1.405.98a4.266,4.266,0,0,0-2.709,2.24c-.492.975-.367,1.2.7,1.575a1.276,1.276,0,0,1,.532.316c.3.481.084.957,0,1.442a2.74,2.74,0,0,0,1.9,3.31,3.046,3.046,0,0,0,3.553-2,3.263,3.263,0,0,0-.2-1.822,1.014,1.014,0,0,1,.044-.9.559.559,0,0,1,.178-.167c1.651-.779,1.659-.8.627-2.441a2.9,2.9,0,0,1-.471-.865c-.121-.535.1-.7.6-.521a30.5,30.5,0,0,0,5.194.546c.819-.042.669.564.671,1.036q.01,5.37,0,10.74c0,4.787-.013,9.574.015,14.361a1.881,1.881,0,0,1-.776,1.707c-1.166.867-2.3,1.782-3.442,2.678a45.717,45.717,0,0,1-7,3.468l-.718.25" transform="translate(-9.215 -13.839)" fill="#f5c9ad"/><path d="M61.244,133.852a13.948,13.948,0,0,1-3.557-2.647,8.964,8.964,0,0,1-1.765-3.372c-.219-.738.013-1.01.742-.977a30.3,30.3,0,0,0,10.84-1.749,8.089,8.089,0,0,1-3.966,7.832,4.671,4.671,0,0,1-2.294.913" transform="translate(-15.995 -35.85)" fill="#f5c9ad"/><path d="M71.089,76.092a.589.589,0,0,1-.123-.006c-.632-.171-1.557.394-1.875-.458a2.521,2.521,0,0,1,.61-2.307,4.689,4.689,0,0,1,2.886-1.978,11.606,11.606,0,0,0,1.4-.457l3.342,1.15c-.448.1-.4.314-.138.59a4.711,4.711,0,0,1,1.128,1.762c.445,1.327.232,1.652-1.12,1.684l-.746.019a.457.457,0,0,1-.334.068,3.5,3.5,0,0,0-4.214-.21.86.86,0,0,1-.813.142" transform="translate(-19.76 -20.312)" fill="#e9b498"/><path d="M85.377,90.916a3.624,3.624,0,1,1-7.248-.069,3.736,3.736,0,0,1,3.619-3.578,3.594,3.594,0,0,1,3.629,3.647" transform="translate(-22.378 -25.007)" fill="#e9b498"/><path d="M57.615,103.8a14.74,14.74,0,0,1-7.181-1.749c-.682-.362-1.269-.82-.893-1.644a1.38,1.38,0,0,1,2.088-.641,13.55,13.55,0,0,0,4.641,1.3,12.8,12.8,0,0,0,6.162-1.057c.269-.11.519-.268.792-.364a1.237,1.237,0,0,1,1.673.642,1.131,1.131,0,0,1-.543,1.586,10,10,0,0,1-2.019.953,13.633,13.633,0,0,1-4.72.975" transform="translate(-14.156 -28.524)" fill="#e9b498"/><path d="M40.524,76.188c-.125,0-.25-.007-.375-.009-1.954-.02-2.259-.543-1.257-2.309a4.8,4.8,0,0,1,4.5-2.618,4.9,4.9,0,0,1,4.448,3.467c.26.818.279,1.531-.921,1.46a1.2,1.2,0,0,0-.944.228,27.455,27.455,0,0,0-5.339-.178c-.035.006-.076-.026-.115-.041" transform="translate(-10.98 -20.417)" fill="#e9b498"/><path d="M41.143,77.648c2.027-1.807,3.732-1.739,5.454.218.974,2.064.487,3.779-1.352,4.763a3.269,3.269,0,0,1-4.359-1.45,3.377,3.377,0,0,1,.257-3.531" transform="translate(-11.599 -21.877)" fill="#3d4159"/><path d="M71.682,77.65c1.93-1.761,3.549-1.769,5.173-.026.1.213-.016.334-.176.439-.416.2-.917.057-1.319.329a.743.743,0,0,0-.4.719.7.7,0,0,0,.481.666.787.787,0,0,0,.909-.22c.293-.356.28-.88.654-1.194a.263.263,0,0,1,.318.026c.609,1.8.235,3.065-1.192,4.015a3.226,3.226,0,0,1-4.022-.325c-1.238-1.127-1.378-2.587-.424-4.429" transform="translate(-20.353 -21.871)" fill="#3d4159"/><path d="M58.567,88.677c1,0,2-.052,2.991.015.843.056,1.556.4,1.588,1.412.034,1.077-.692,1.5-1.593,1.527-2.035.06-4.074.054-6.109,0a1.537,1.537,0,0,1-1.648-1.41c-.035-.974.749-1.461,1.655-1.526,1.034-.073,2.077-.016,3.116-.018" transform="translate(-15.408 -25.405)" fill="#e9b499"/><path d="M79.528,78.912l-.3.009c-.342,0-.516-.141-.444-.5l.28-.272a1.3,1.3,0,0,0,.188.026l.279.74" transform="translate(-22.56 -22.393)" fill="#5f5c6c"/><path d="M47.678,79.644A1.3,1.3,0,0,1,46.22,81,1.274,1.274,0,0,1,44.9,79.645a1.3,1.3,0,0,1,1.4-1.415,1.324,1.324,0,0,1,1.385,1.414" transform="translate(-12.859 -22.417)" fill="#fafafb"/><path d="M77.893,78.441l.443.5a3.861,3.861,0,0,1,.08.855,1.382,1.382,0,0,1-2.752-.169,1.313,1.313,0,0,1,1.281-1.4,2.883,2.883,0,0,1,.948.208" transform="translate(-21.672 -22.416)" fill="#fbfbfc"/></g></svg>