<svg xmlns="http://www.w3.org/2000/svg" xmlns:xlink="http://www.w3.org/1999/xlink" width="128" height="128" viewBox="0 0 128 128"><defs><clipPath id="a"><path d="M36.271,107.71a64,64,0,1,0,64-64,64,64,0,0,0-64,64" transform="translate(-36.271 -43.71)" fill="none"/></clipPath></defs><g transform="translate(-36.271 -43.71)"><g transform="translate(36.271 43.71)" clip-path="url(#a)"><path d="M100.532,69.833c18.342-17.269,41.092-20.506,62.424-17.774L84.263,0,3.449,122.16c38.716,2.1,51.936-9.823,97.083-52.326" transform="translate(-32.056 -38.097)" fill="#20bdfc"/><path d="M113.224,209.151l83.821-126.7L162.513,59.6c-21.332-2.732-44.082.506-62.424,17.774-45.147,42.5-58.366,54.429-97.083,52.326L0,134.247Z" transform="translate(-31.613 -45.641)" fill="#25e0ac"/><path d="M95.675,114.182l1.923-1.443c.845.047.95.8,1.222,1.345,2.924,5.814,5.822,11.642,8.748,17.454,1.825,3.717,3.68,7.421,5.679,11.381,2.026-3.955,3.858-7.668,5.7-11.38,2.947-5.8,5.816-11.646,8.752-17.454.274-.542.379-1.3,1.222-1.348l2.918,2.193a.634.634,0,0,1,.148.676c-.94,2.747-.706,5.6-.75,8.423.03,4.852.059,9.7-.005,14.555a15.091,15.091,0,0,0,2.3,8.605,2.224,2.224,0,0,1,.383.892c-.078.75-.706,1.057-1.212,1.44-2.988,2.258-5.974,4.519-8.988,6.743a9.883,9.883,0,0,0-4.249,8.477c.029,4.763.011,9.526,0,14.29,0,.6.131,1.235-.338,1.748H107.389c-.469-.512-.337-1.151-.338-1.748-.011-4.723-.041-9.446.005-14.167a10.014,10.014,0,0,0-4.348-8.676c-2.991-2.186-5.936-4.435-8.893-6.667-.506-.383-1.134-.689-1.212-1.444a1.392,1.392,0,0,1,.2-.574A16.978,16.978,0,0,0,95.3,137.488c-.108-5.82-.053-11.643-.018-17.465-.072-1.5-.033-3-.022-4.5a1.563,1.563,0,0,1,.419-1.342" transform="translate(-43.505 -52.574)" fill="#20bdfc"/><path d="M127.925,75.6c.014,6.906.1,13.813,0,20.717a13.212,13.212,0,0,1-2.884,7.5c-.657,1.645-2.141,2.447-3.485,3.378a12.954,12.954,0,0,1-1.7.9,13.866,13.866,0,0,1-11.136.069,24.14,24.14,0,0,1-4.3-2.946,2.629,2.629,0,0,1-.9-1.408,15.447,15.447,0,0,1-2.968-9.706c.1-6.226.032-12.455.036-18.682,1.454-2.08,3.2-3.724,5.89-3.978,1.937.074,3.328,1.2,4.634,2.453a4.344,4.344,0,0,0,4.462,1.245,3.483,3.483,0,0,0,1.551-.926,14.056,14.056,0,0,1,1.353-1.232c2.969-2.29,5.859-1.964,8.229.954a6.742,6.742,0,0,1,1.224,1.665" transform="translate(-44.525 -47.271)" fill="#f4c89c"/><path d="M92,120.343c.005,6.834.072,13.67-.014,20.5a13.516,13.516,0,0,1-2.881,7.642c-.653,1.657-2.158,2.442-3.5,3.385a12.04,12.04,0,0,1-1.712.9,13.515,13.515,0,0,1-11.12.006,15.938,15.938,0,0,1-4.219-2.819,2.506,2.506,0,0,1-.992-1.476,15.643,15.643,0,0,1-2.964-9.84c.108-6.109.045-12.22.055-18.331a2.356,2.356,0,0,1,1.264-.381,8.026,8.026,0,0,0,5.843-4.527c.221-.431.255-1.239,1.134-.86A3.87,3.87,0,0,1,73.5,115.6a7.4,7.4,0,0,0,7.021,4.378c3.284.066,6.571.009,9.856.02a2.157,2.157,0,0,1,1.62.345" transform="translate(-39.909 -52.795)" fill="#f4c89c"/><path d="M139.448,148.457a15.833,15.833,0,0,1-2.962-10.2c.126-4.674.054-9.355.067-14.032a2.531,2.531,0,0,1,1.355-.5A7.494,7.494,0,0,0,144,116.439a7.525,7.525,0,0,1,.12-1.824c.055-.191.132-.413.372-.413.164,0,.275.156.367.295a6.06,6.06,0,0,1,.433.876,7.41,7.41,0,0,0,7.176,4.585c3.261.051,6.525.006,9.787.017a2.321,2.321,0,0,1,1.642.31c.006,6.8.069,13.605-.008,20.406a13.56,13.56,0,0,1-2.9,7.762c-.648,1.66-2.157,2.444-3.5,3.388a12.224,12.224,0,0,1-1.712.906,13.471,13.471,0,0,1-11.12.006,15.9,15.9,0,0,1-4.22-2.82,2.509,2.509,0,0,1-.993-1.476" transform="translate(-49.14 -52.763)" fill="#f4c89c"/><path d="M137.719,153.5a16.292,16.292,0,0,0,5.1,3.935,5.193,5.193,0,0,1,.76,2.507,29.343,29.343,0,0,1,.752,4.147,1.722,1.722,0,0,1-.635.99c-1.066,1.1-1,1.953.221,2.908.254.2.539.359.648.693a36.369,36.369,0,0,1-.451,6.054c-.265,3.072-.608,6.139-.9,9.209a3.407,3.407,0,0,1-.59,2.068H123.03c0-5.255.069-10.51-.015-15.764a10.632,10.632,0,0,1,4.759-9.331c3.352-2.42,6.634-4.939,9.946-7.415" transform="translate(-47.411 -57.81)" fill="#b1dbea"/><path d="M65.835,153.505a16.3,16.3,0,0,0,5.1,3.934,5.193,5.193,0,0,1,.76,2.507,29.341,29.341,0,0,1,.752,4.147,1.722,1.722,0,0,1-.635.99c-1.066,1.1-1,1.953.221,2.908.254.2.539.359.648.693a36.369,36.369,0,0,1-.451,6.054c-.265,3.072-.608,6.139-.9,9.209a3.407,3.407,0,0,1-.59,2.068c-6.239.013-12.477.016-18.715.054-.712,0-.886-.238-.883-.913.026-5.383-.044-10.767.049-16.148a9.252,9.252,0,0,1,3.9-7.423c3.569-2.714,7.167-5.389,10.753-8.08" transform="translate(-38.18 -57.81)" fill="#d3f9ee"/><path d="M86.551,157.446A15.687,15.687,0,0,0,91.7,153.5c3.6,2.7,7.225,5.37,10.8,8.106a9.341,9.341,0,0,1,3.864,7.542c.076,5.62.025,11.242.028,16.863H86.8c-.916-1.543-.607-3.3-.828-4.958-.127-.957-.6-1.985.1-2.935a3.145,3.145,0,0,1,1.778-.279c2.886-.01,5.771.008,8.656-.015.538,0,1.253.21,1.516-.454a3.069,3.069,0,0,0-.013-2.269c-.218-.537-.838-.4-1.308-.4-3.089-.017-6.177,0-9.266-.012a3.581,3.581,0,0,1-1.791-.241,1.774,1.774,0,0,1-.465-1.325,21.088,21.088,0,0,1-.331-4.424c.131-.424.527-.579.835-.829a1.63,1.63,0,0,0,.154-2.683c-.3-.319-.675-.58-.757-1.056a23.756,23.756,0,0,1,1.473-6.683" transform="translate(-42.504 -57.81)" fill="#d3f9ee"/><path d="M158.432,157.446a15.6,15.6,0,0,0,5.15-3.947q5.28,3.965,10.561,7.929a9.787,9.787,0,0,1,4.118,8.189c.012,5.138,0,10.277.012,15.415,0,.642-.018,1.047-.879,1.04-6.239-.048-12.478-.045-18.716-.058-.879-1.252-.56-2.745-.773-4.122-.229-1.476-.322-2.978-.458-4.471a1.472,1.472,0,0,1,.266-1.261,3.147,3.147,0,0,1,1.779-.276c3.576-.01,7.152,0,10.728-.007,1.707,0,1.792-.144,1.8-1.788,0-1-.4-1.368-1.377-1.361-3.129.021-6.258.01-9.388.006-.893,0-1.788.02-2.681-.016a1.554,1.554,0,0,1-1.474-.677,8.029,8.029,0,0,1-.356-3.382c.144-.413.545-.558.85-.808a1.623,1.623,0,0,0,.2-2.589c-.32-.351-.749-.614-.835-1.137a23.909,23.909,0,0,1,1.471-6.677" transform="translate(-51.733 -57.809)" fill="#b1dbea"/><path d="M163.9,119.163c-4,.007-7.995.119-11.987-.011a7.424,7.424,0,0,1-6.885-4.663,8.791,8.791,0,0,0-.6-1.2c.045,2.435-.15,4.786-1.734,6.779a7.827,7.827,0,0,1-6.134,3.033c-.115-3.078-.191-6.152.915-9.107a14.2,14.2,0,0,1,8.1-7.686A13.684,13.684,0,0,1,163.9,119.163" transform="translate(-49.142 -51.642)" fill="#b0792c"/><path d="M128.726,74.193c-.932-.906-1.815-1.869-2.806-2.7a4.5,4.5,0,0,0-6.03-.006c-.566.463-1.084.985-1.62,1.484a4.549,4.549,0,0,1-6.559-.188c-1.266-1.254-2.568-2.4-4.471-2.474a7.59,7.59,0,0,1,.25-5.818,6.364,6.364,0,0,1,6.747-3.946c1.416.094,2.863-.085,4.259.12a11.687,11.687,0,0,1,10.285,11.95c0,.527-.035,1.054-.054,1.581" transform="translate(-45.326 -45.869)" fill="#b0792c"/><path d="M93.1,119.478q-5.5,0-11,0c-4.306,0-6.815-1.769-8.3-5.839a3.025,3.025,0,0,1,.255-3.938,4.259,4.259,0,0,1,3.935-1.985c2.89.05,5.781.01,8.672.014,3.831,0,6.071,2,6.52,5.806q-.039,2.97-.079,5.941" transform="translate(-41.013 -51.93)" fill="#b0792c"/><path d="M156.317,178.408q.464,4.874.929,9.748H145.511q.812-8.059,1.621-16.119c.049-.485.062-.972.092-1.458a1.421,1.421,0,0,1,1.116-.38q3.038-.051,6.077,0a1.424,1.424,0,0,1,1.117.38q.166,1.728.331,3.458a6.82,6.82,0,0,1,.451,4.372" transform="translate(-50.3 -59.951)" fill="#fed166"/><path d="M83.647,170.577q.288,2.935.576,5.867a5.66,5.66,0,0,1,.429,3.919q.354,3.895.707,7.791H73.625q.812-8.06,1.621-16.12c.048-.484.061-.972.091-1.458a1.419,1.419,0,0,1,1.117-.379q3.037-.052,6.076,0a1.42,1.42,0,0,1,1.117.379" transform="translate(-41.068 -59.95)" fill="#fed166"/><path d="M122.518,112.5a14.536,14.536,0,0,0,5.167-3.922l4.891,3.625c-.466.2-.55.682-.745,1.07q-4.182,8.342-8.353,16.691c-.2.4-.441.77-.663,1.153a.8.8,0,0,1-.445-.546,45.2,45.2,0,0,1-1.262-6.872c1.569-2.2,1.569-2.2,0-4.279a22.1,22.1,0,0,1,1.41-6.919" transform="translate(-47.166 -52.04)" fill="#e4e6e8"/><path d="M103.23,108.572c1.374,1.789,3.4,2.775,5.1,4.173a1.514,1.514,0,0,1,.518,1.062,36.9,36.9,0,0,1,.957,5.588c-1.561,2.184-1.561,2.184-.008,4.28a43.535,43.535,0,0,1-1.252,6.893.8.8,0,0,1-.447.546q-2.787-5.486-5.573-10.971c-1.156-2.286-2.287-4.585-3.443-6.871-.2-.387-.275-.868-.747-1.069l4.9-3.632" transform="translate(-44.241 -52.04)" fill="#e4e6e8"/><path d="M72.954,109.991a5.519,5.519,0,0,0-.255,3.939c-.5.194-.479.72-.675,1.1a7.99,7.99,0,0,1-7.366,4.714c-.009-1.944-.048-3.889-.017-5.833a3.864,3.864,0,0,1,3.937-3.924c1.458-.029,2.917,0,4.375.005" transform="translate(-39.913 -52.22)" fill="#946625"/><path d="M106.692,65.069c-.437,1.924-.166,3.879-.25,5.818a6.017,6.017,0,0,0-4,2.028,7.014,7.014,0,0,1-1.861,1.68c0-1.783-.019-3.566-.008-5.35a3.914,3.914,0,0,1,4.17-4.192c.648-.006,1.3.01,1.944.017" transform="translate(-44.529 -46.451)" fill="#946625"/><path d="M109.534,133.256q.771-3.81,1.542-7.618a1.466,1.466,0,0,1,1.127-.365q3.228-.046,6.457,0a1.462,1.462,0,0,1,1.126.366l1.543,7.619c-1.769,4-3.866,7.833-5.888,11.982-.786-1.553-1.481-2.868-2.123-4.208-1.245-2.6-2.689-5.1-3.783-7.776" transform="translate(-45.68 -54.181)" fill="#fed166"/><path d="M111.109,120.174q-.655-3.425-1.309-6.851c1.222-.064,2.273.608,3.458.786a13.888,13.888,0,0,0,7.808-1.032q-.628,3.549-1.254,7.1a1.474,1.474,0,0,1-1.127.363q-3.224.046-6.45,0a1.463,1.463,0,0,1-1.125-.365" transform="translate(-45.714 -52.618)" fill="#fed166"/><path d="M117.716,96.5a6.342,6.342,0,0,0,.854-.006c.885-.12,1.027.306,1.093,1.114a6.172,6.172,0,0,1-6.925,6.749c-.766-.066-1.014-.314-.936-1.021a5.7,5.7,0,0,0,0-.61c0-2.12,0-2.12,2.063-2.315a1.922,1.922,0,0,0,1.851-2.021c.1-1.89.1-1.89,2-1.89" transform="translate(-45.969 -50.486)" fill="#c69269"/><path d="M123.762,83.016c3.151,0,3.133,0,2.9,3.168-.044.592-.252.764-.807.754-1.422-.024-2.847-.044-4.269,0-1.163.04-.9-.844-.771-1.337.23-.864-.9-2.206.757-2.563a10.731,10.731,0,0,1,2.19-.025" transform="translate(-47.107 -48.752)" fill="#b0792c"/><path d="M108.034,83.022c3.038,0,3.015,0,2.916,3.034-.024.7-.242.914-.92.893q-2.072-.06-4.146,0c-.647.018-.812-.225-.839-.847-.136-3.08-.154-3.079,2.99-3.079" transform="translate(-45.097 -48.759)" fill="#b0792c"/><path d="M124.7,91.747a1.952,1.952,0,1,1-1.893-1.977,1.948,1.948,0,0,1,1.893,1.977" transform="translate(-47.126 -49.625)" fill="#956726"/><path d="M109.264,93.671a1.951,1.951,0,1,1,1.959-1.913,1.944,1.944,0,0,1-1.959,1.913" transform="translate(-45.395 -49.625)" fill="#956726"/><path d="M85.144,158.026q-.658,3.431-1.316,6.86c-.274.607-.844.563-1.353.572q-2.962.05-5.926,0c-.51-.009-1.077.028-1.352-.575q-.672-3.432-1.345-6.864a13.907,13.907,0,0,0,11.291.008" transform="translate(-41.097 -58.39)" fill="#fed166"/><path d="M75.86,147.24a4.448,4.448,0,0,0-.006-.61c-.147-.987.21-1.469,1.255-1.293a.713.713,0,0,0,.122,0c1.938-.015,2.586-.609,2.52-2.555-.035-1.035.2-1.566,1.328-1.362a1.34,1.34,0,0,0,.244,0c2.626,0,2.728.013,2.331,2.613-.557,3.647-3.5,5.643-7.267,5.213-.432-.05-.526-.3-.525-.665q0-.672,0-1.343" transform="translate(-41.35 -56.253)" fill="#c69269"/><path d="M87.833,127.95c2.956,0,2.934,0,2.887,2.938-.011.71-.164,1.025-.946.993a38.728,38.728,0,0,1-4.14-.058c-1.68-.255-.531-1.68-.763-2.542-.132-.489-.4-1.4.767-1.339.73.039,1.463.008,2.195.007" transform="translate(-42.49 -54.527)" fill="#b0792c"/><path d="M71.95,131.864c-3.018,0-3,0-2.851-3.1.031-.646.241-.842.861-.828,1.422.033,2.846.03,4.268,0,.587-.011.738.226.774.787.2,3.138.215,3.137-3.052,3.137" transform="translate(-40.48 -54.527)" fill="#b0792c"/><path d="M75.28,136.6a1.952,1.952,0,1,1-1.965-1.906A1.951,1.951,0,0,1,75.28,136.6" transform="translate(-40.779 -55.395)" fill="#956726"/><path d="M88.759,136.7a1.952,1.952,0,1,1-1.868-2,1.95,1.95,0,0,1,1.868,2" transform="translate(-42.51 -55.395)" fill="#956726"/><path d="M157.028,158.027q-.658,3.429-1.314,6.859c-.274.606-.844.563-1.352.571q-2.963.051-5.927,0c-.509-.008-1.077.029-1.351-.574q-.673-3.432-1.346-6.864a13.9,13.9,0,0,0,11.29.008" transform="translate(-50.329 -58.39)" fill="#fed166"/><path d="M147.745,147.315a5.927,5.927,0,0,0-.006-.853c-.143-.955.308-1.153,1.184-1.142,2.221.031,2.767-.5,2.713-2.706-.025-1.006.329-1.327,1.256-1.191a1.628,1.628,0,0,0,.244,0c2.569,0,2.944.477,2.365,3.024a6.285,6.285,0,0,1-7.156,4.81c-.389-.066-.6-.2-.594-.6.005-.448,0-.9,0-1.343h-.007" transform="translate(-50.583 -56.255)" fill="#c69269"/><path d="M159.674,127.95c3.046,0,3.026,0,2.941,3.007-.019.666-.18.946-.892.922-1.381-.046-2.765-.035-4.146,0-.611.014-.836-.166-.868-.819-.154-3.106-.176-3.105,2.965-3.105" transform="translate(-51.731 -54.528)" fill="#b0792c"/><path d="M143.98,127.944c3.151,0,3.133,0,2.9,3.168-.044.592-.252.764-.807.754-1.422-.024-2.847-.044-4.269,0-1.163.04-.9-.844-.771-1.337.23-.864-.9-2.206.757-2.563a10.732,10.732,0,0,1,2.19-.025" transform="translate(-49.703 -54.521)" fill="#b0792c"/><path d="M145.2,138.6a1.951,1.951,0,1,1,1.965-1.906A1.941,1.941,0,0,1,145.2,138.6" transform="translate(-50.011 -55.395)" fill="#956726"/><path d="M160.645,136.6a1.952,1.952,0,1,1-1.965-1.906,1.951,1.951,0,0,1,1.965,1.906" transform="translate(-51.742 -55.395)" fill="#956726"/><path d="M147.056,165.893a4.1,4.1,0,0,0,2.257.2c2.125-.076,4.262.271,6.373-.194.105.118.189.282.321.344a1.9,1.9,0,0,1,1.221,2.006,1.967,1.967,0,0,1-1.692,1.78h-8.311a1.966,1.966,0,0,1-1.693-1.775,1.9,1.9,0,0,1,1.215-2.008c.13-.062.207-.232.309-.351" transform="translate(-50.301 -59.401)" fill="#dd9300"/><path d="M75.17,165.893a4.1,4.1,0,0,0,2.257.2c2.125-.076,4.262.271,6.373-.194.105.118.189.282.321.344a1.9,1.9,0,0,1,1.221,2.006,1.967,1.967,0,0,1-1.692,1.78H75.339a1.966,1.966,0,0,1-1.693-1.775,1.9,1.9,0,0,1,1.215-2.008c.13-.062.207-.232.309-.351" transform="translate(-41.069 -59.401)" fill="#dd9300"/><path d="M86.215,181.286l-.429-3.919c3.9,0,7.81.025,11.715-.016.886-.01,1.2.211,1.2,1.152-.015,2.781.026,2.781-2.721,2.781l-9.763,0" transform="translate(-42.63 -60.872)" fill="#486bdf"/><path d="M157.842,178.977q-.226-2.186-.451-4.373c.329.59.894.452,1.408.453,4.155,0,8.311.03,12.465-.019.964-.011,1.255.263,1.242,1.235-.037,2.7.007,2.7-2.688,2.7l-11.976,0" transform="translate(-51.825 -60.52)" fill="#486bdf"/><path d="M111.08,121.22l8.7,0a2.014,2.014,0,0,1,.009,3.9h-8.71a2.016,2.016,0,0,1,0-3.9" transform="translate(-45.685 -53.664)" fill="#dd9300"/></g></g></svg>