<svg xmlns="http://www.w3.org/2000/svg" xmlns:xlink="http://www.w3.org/1999/xlink" width="128" height="128.001" viewBox="0 0 128 128.001"><defs><clipPath id="a"><path d="M39.019,111.02a64,64,0,1,0,64-64,64,64,0,0,0-64,64" transform="translate(-39.019 -47.02)" fill="none"/></clipPath></defs><g transform="translate(-39.019 -47.02)"><g transform="translate(39.019 47.02)" clip-path="url(#a)"><path d="M100.792,69.833c18.343-17.269,41.092-20.507,62.424-17.774L84.524,0,3.71,122.159c38.717,2.1,51.936-9.822,97.082-52.326" transform="translate(-32.318 -38.096)" fill="#20bdfc"/><path d="M113.224,213.6,197.045,86.9,162.513,64.052c-21.332-2.732-44.082.506-62.425,17.775-45.146,42.5-58.366,54.429-97.082,52.326L0,138.7Z" transform="translate(-31.614 -50.09)" fill="#25e0ac"/><path d="M73.054,48.4A2.7,2.7,0,0,1,74.3,50.99c-.073,2.166,0,4.335-.034,6.5-.013.753.25,1,.993.986,1.636-.042,3.272-.015,4.909-.015a4.161,4.161,0,0,1,3.708-.006q25.876,0,51.753.009c.516,0,1.066-.164,1.547.183-.456.554-1.1.445-1.693.45q-3.59.029-7.178-.006c-7,.043-14,.016-21,.019q-20.812.007-41.625-.008c-.754,0-1.573.2-2.22-.422,1.634-.493,3.306-.148,4.958-.2,2.172-.068,2.174-.017,2.174-2.239,0-1.754.057-3.511-.02-5.261A2.674,2.674,0,0,1,71.826,48.4Z" transform="translate(-43.659 -47.281)" fill="#f2e9e5"/><path d="M66.4,130.282q.007-24.468.014-48.935a2.054,2.054,0,0,1,1.619-.394q29.458-.016,58.916,0c1.718,0,1.971.288,2.012,2.011.006.286,0,.573,0,.86q0,45.229-.006,90.46a4.277,4.277,0,0,1-.31,2.4,2.334,2.334,0,0,1-1.625.372q-5.243.018-10.487,0a2.475,2.475,0,0,1-1.525-.318,2,2,0,0,1-.3-1.4q-.013-11.8,0-23.6a2.946,2.946,0,0,1,.15-1.2c.477-.768,1.431-.26,2.009-.755a1.372,1.372,0,0,0,.509-1.309c.019-1.842.031-3.684,0-5.526-.022-1.244-.274-1.492-1.551-1.517q-2.638-.049-5.279,0-11.757.015-23.512.006c-.45,0-.9.015-1.347.01a1.233,1.233,0,0,0-1.433,1.4c-.009,1.837,0,3.673,0,5.51,0,.872.314,1.394,1.268,1.417a1.27,1.27,0,0,1,1.253.611,4.741,4.741,0,0,1,.186,1.821q.006,11.238,0,22.475a3.377,3.377,0,0,1-.32,2.027,2.65,2.65,0,0,1-1.765.356q-8.4.015-16.807,0a2.821,2.821,0,0,1-1.663-.3,1.58,1.58,0,0,1-.359-1.138c0-5.494-.093-10.988.04-16.479a1.566,1.566,0,0,1,.95-1.187c6.4-3.426,8.732-11.708,6.753-18.194a14.117,14.117,0,0,0-6.679-8.707c-.31-.172-.687-.311-.7-.766" transform="translate(-44.14 -53.459)" fill="#f2e9e5"/><path d="M128.068,175q0-47.033.033-94.064c0-1.133-.469-1.226-1.385-1.224q-30.393.029-60.786.016c-.5-1.586-.163-3.212-.221-4.818-.061-1.681-.014-1.677-1.7-1.831a2.13,2.13,0,0,1-.547-.21c.655-.6,1.471-.408,2.227-.41q22.718-.018,45.436-.009,7.061,0,14.122,0c2.9,0,5.784.476,8.692.314a1.19,1.19,0,0,1,1.018.33q0,14.372,0,28.744a1.744,1.744,0,0,1,.251.4,50.994,50.994,0,0,1,.133,6.125c.033,1.431,0,2.864.011,4.3s.108,1.549,1.525,1.558c2.988.017,5.976-.015,8.963.02.605.006,1.346-.2,1.683.613a2.24,2.24,0,0,1-1.74.386c-3.024.019-6.047-.011-9.071.018-1.185.011-1.333.228-1.372,1.354-.033.951.374,1.311,1.306,1.307q4.658-.022,9.317,0a2.548,2.548,0,0,1,1.762.344c-.211.84-.929.646-1.473.653-3.023.042-6.047.013-9.069.021-1.805,0-1.829.032-1.833,1.862,0,1.757-.015,3.514,0,5.27.015,1.271.139,1.4,1.418,1.413,3.186.023,6.372-.011,9.559.023.606.006,1.343-.193,1.685.608-.5.492-1.138.388-1.738.391-3.024.016-6.047,0-9.071.009-1.813,0-1.852.049-1.86,1.85,0,.408,0,.817-.025,1.226.047,3.166.054,6.333,0,9.5.036,1.257.04,2.515,0,3.772.049,3.166.054,6.332,0,9.5.006.326.027.652.028.979.006,2.123.008,2.124,2.193,2.126,2.9,0,5.8-.008,8.7.006a2.416,2.416,0,0,1,1.754.368c-.3.838-1.051.63-1.648.636-3.1.036-6.2.01-9.3.019-1.649,0-1.693.048-1.7,1.737-.007,4.324,0,8.649-.007,12.973a3.039,3.039,0,0,1-.327,1.894,2.73,2.73,0,0,1-1.746.341c-1.29.011-2.58.023-3.87-.007a1.582,1.582,0,0,1-1.334-.425" transform="translate(-43.657 -51.843)" fill="#dfd1cd"/><path d="M134.779,70.946c-23.421-.5-46.845-.126-70.268-.248-.408,0-.817.014-1.226.022a1.3,1.3,0,0,1-.735-1.4q.027-3.411,0-6.822a1.368,1.368,0,0,1,.742-1.406q10.974.013,21.949.027,21.46.011,42.92.015c.767.342.849,1.024.855,1.738.017,2.075.063,4.152-.02,6.223-.037.941.168,1.3,1.181,1.25,1.745-.088,3.5-.037,5.246-.018.557.006,1.155-.081,1.6.395-.714.427-1.5.089-2.246.223" transform="translate(-43.485 -49.691)" fill="#b7abab"/><path d="M178.934,108.88c1.353.293,1.48,1.288,1.479,2.44q-.017,34.48-.007,68.959c0,.531.023,1.062.036,1.593-.059.057-.111.155-.177.164a17.726,17.726,0,0,1-7.022-.081,3.876,3.876,0,0,1-.342-2.382q-.013-29.43-.007-58.861c0-2.289,0-4.578,0-6.867,0-1.662.173-3.349-.624-4.911a2.011,2.011,0,0,1,1.843-.362,44.779,44.779,0,0,0,4.822.308" transform="translate(-64.309 -58.688)" fill="#9c9595"/><path d="M53.408,170.156a14.461,14.461,0,0,1-8.028-10.524c-1.244-6.355.237-11.929,5.336-16.23a9.359,9.359,0,0,1,4.822-2.235,9.076,9.076,0,0,1,5.8,3.349,17.06,17.06,0,0,1,0,22.806,11.44,11.44,0,0,1-5.781,3.518,2.622,2.622,0,0,1-2.149-.684" transform="translate(-40.147 -64.888)" fill="#80d161"/><path d="M148.468,198.956l7.165.01c1.759.006,3.518,0,5.278.021,1.357.015,2.136.689,2.146,1.819s-.77,1.826-2.108,1.861c-.286.007-.573,0-.86,0H44.458c-.327,0-.655.012-.982,0a1.81,1.81,0,0,1-1.928-1.79,1.785,1.785,0,0,1,1.953-1.88c2.659-.028,5.319-.008,7.978-.011.409,0,.818-.016,1.227-.025,1.422-.683,2.929-.243,4.4-.335,1.131-.051,2.261-.025,3.392-.014a1.711,1.711,0,0,1,1.25.352l20.224-.01a1.457,1.457,0,0,1,1.1-.314c3.654-.071,7.309-.055,10.963-.014.154,0,.309,0,.463,0,1.232-.037,2.465-.028,3.7,0,3.944.007,7.89-.169,11.831.09a2.207,2.207,0,0,1,.422.227l13.47,0,6.868.006a2.438,2.438,0,0,1,1.636-.363q7.213-.011,14.425,0a2.271,2.271,0,0,1,1.629.367" transform="translate(-39.499 -75.782)" fill="#746e6e"/><path d="M57.97,170.635a21.638,21.638,0,0,0,4.423-2.526,15.219,15.219,0,0,0,5.18-9.441,16.386,16.386,0,0,0-3.8-13.81,11.838,11.838,0,0,0-4.669-3.276c-.37-.152-.808-.159-1.1-.491a9.8,9.8,0,0,1,5.593.169c.426.121.85.25,1.275.375,5.451,2.879,8.132,7.549,8.314,13.566.2,6.559-2.4,11.714-8.382,14.875-1.437,1.189-3.163,1.089-4.866,1.1-.677-.107-1.491.283-1.972-.538" transform="translate(-42.616 -64.81)" fill="#4fc022"/><path d="M152.394,70.716c-2.413-.008-4.826-.041-7.238-.012-.831.011-1.258-.007-1.188-1.125.147-2.322.026-4.66.058-6.99a2.232,2.232,0,0,0-.5-1.461l8.846-.075a1.02,1.02,0,0,1,.766,1.108c0,2.49,0,4.979,0,7.469,0,.522-.116.985-.745,1.086" transform="translate(-58.854 -49.683)" fill="#9c9595"/><path d="M57.467,177.5c.647.359,1.4.061,2.059.331.613.279.563.859.566,1.368q.046,7.2.006,14.4a1.659,1.659,0,0,1-.379,1.25l-4.4,0q.027-8.953.054-17.907l2.093.557" transform="translate(-42.113 -71.679)" fill="#d77e49"/><path d="M151.706,106.412c0-.09,0-.18,0-.269,1.678,0,3.356-.037,5.032.015.842.027,1.148-.228,1.131-1.1-.049-2.535-.035-5.073-.011-7.609.015-1.607.69-2.371,1.99-2.359,1.19.011,1.678.493,1.684,1.737.013,2.7.045,5.4-.018,8.1-.023.982.284,1.285,1.251,1.24,1.552-.072,3.109-.017,4.664-.015a.294.294,0,0,1-.146.4,2.934,2.934,0,0,1-1.436.228q-6.25.013-12.5,0a2.325,2.325,0,0,1-1.636-.365" transform="translate(-60.405 -56.142)" fill="#f2e9e5"/><path d="M171.107,107.05v-.213c.417-.405.228-.924.235-1.393.023-1.631.009-3.262.009-4.893a1.677,1.677,0,0,1,1.487-1.791,1.621,1.621,0,0,1,2.021,1.317,25.956,25.956,0,0,1,.167,5.11c.047,1.638.011,1.614,1.662,1.653.675.015,1.384-.216,2.026.186l-6.628.048a.648.648,0,0,1-.979-.023" transform="translate(-64.088 -56.833)" fill="#f2e9e5"/><path d="M87.791,59.087l-3.708.006c0-1.749-.024-3.5.023-5.246a1.958,1.958,0,0,1,1.39-2.06,1.784,1.784,0,0,1,2.009.779,1.648,1.648,0,0,1,.269,1.153q.01,2.685.015,5.368" transform="translate(-47.571 -47.91)" fill="#f2e9e5"/><path d="M121.24,164.245c-.626.407-1.334.095-1.991.224-1.318.689-2.74.421-4.092.294a72.893,72.893,0,0,0-8.092-.11,23.138,23.138,0,0,0-3.951,0c-3.621-.14-7.242-.03-10.862-.064a3.245,3.245,0,0,1-1.444-.133,1.845,1.845,0,0,0-1.416-.207c-1.033.07-1.382-.425-1.372-1.388.024-2.083.037-4.168,0-6.251-.023-1.131.493-1.508,1.565-1.495,2.819.035,5.638.008,8.458.012q8.4.012,16.792.031c.8.332.824,1.04.83,1.741.019,1.911.051,3.825-.015,5.735-.032.91.3,1.249,1.193,1.21,1.015-.044,2.034-.028,3.05,0,.479.013.99-.034,1.349.4" transform="translate(-48.318 -67.535)" fill="#b7abab"/><path d="M91.459,166.589a1.6,1.6,0,0,1,.935-.22q5.261.006,10.522,0a1.629,1.629,0,0,1,.935.223c.521.422.45,1.027.45,1.585q.022,11.577,0,23.155a1.938,1.938,0,0,1-.386,1.5h-.25a1.967,1.967,0,0,1-.34-1.51q-.011-9.318-.009-18.635c0-.492.108-.972.116-1.223a3.091,3.091,0,0,1-.472,1.21C99.75,179.016,96.7,185.44,93.329,191.7a2.346,2.346,0,0,1-.9,1.126l-.989.011q.012-13.125.023-26.25" transform="translate(-48.967 -69.671)" fill="#084e65"/><path d="M111.23,166.577c.388-.326.853-.193,1.289-.208,3.695-.132,7.379.228,11.07.231q0,13.111.01,26.223l-.116.02-.117-.013c-.435-.367-.384-.88-.384-1.362q-.015-11.277-.009-22.554c0-.365.083-.72.107-1.171a3.346,3.346,0,0,1-.435,1.2q-5.125,10.25-10.254,20.5a3.173,3.173,0,0,1-.736,1.117c-.25.207-.438.124-.582-.14a4.377,4.377,0,0,1-.184-1.7q-.007-10.127,0-20.254a2.776,2.776,0,0,1,.338-1.889" transform="translate(-52.658 -69.666)" fill="#126783"/><path d="M60.7,194.851q0-7.794,0-15.587a2.339,2.339,0,0,0-.19-1.432,18.393,18.393,0,0,0,4.779-.889q.027,8.957.053,17.913l-4.64-.006" transform="translate(-43.098 -71.678)" fill="#c76d35"/><path d="M135.279,87.835q.039,6.5.078,13c0,.584-.263.939-.876.941q-3.8.007-7.608,0a.577.577,0,0,1-.625-.469c.6-1.81,1.894-3.212,2.864-4.8,1.653-2.707,3.388-5.366,5.146-8.008.225-.339.326-1,1.022-.664" transform="translate(-55.574 -54.749)" fill="#126783"/><path d="M82.189,132.932c-.544-.28-.486-.8-.487-1.279-.008-3.84.013-7.679-.016-11.52-.007-1.027.337-1.473,1.428-1.442,2.2.062,4.412.015,6.617.023.354,0,.745-.1,1.033.227a2.107,2.107,0,0,1-.586,1.533c-2.681,4.141-5.321,8.308-7.989,12.457" transform="translate(-47.117 -60.622)" fill="#084e65"/><path d="M113.158,87.856q.043,6.5.083,13c0,.58-.263.939-.877.94q-3.8.006-7.609,0a.574.574,0,0,1-.625-.47,23.546,23.546,0,0,1,2.662-4.489c1.7-2.674,3.37-5.369,5.134-8,.292-.438.478-1.09,1.232-.98" transform="translate(-51.377 -54.768)" fill="#126783"/><path d="M104.069,132.48c-.4-.31-.24-.751-.241-1.136q-.018-5.5-.006-11c0-1.543.1-1.632,1.685-1.633,2.037,0,4.075-.01,6.111.006.429,0,.9-.154,1.273.228.153.458-.156.774-.364,1.1-2.411,3.844-4.872,7.656-7.329,11.47-.267.413-.436,1.018-1.13.96" transform="translate(-51.313 -60.622)" fill="#084e65"/><path d="M91.032,87.851c.231,4.334.049,8.67.094,13.005a.812.812,0,0,1-.882.94q-3.806.006-7.613,0a.574.574,0,0,1-.624-.47,4.48,4.48,0,0,1,.946-1.821C85.237,95.948,87.5,92.379,89.8,88.83c.286-.442.481-1.087,1.234-.979" transform="translate(-47.178 -54.767)" fill="#126783"/><path d="M135.081,119.011c.431.29.271.74.273,1.122.013,3.848-.014,7.7.023,11.544.009.971-.255,1.418-1.316,1.39-2.25-.06-4.5-.008-6.754-.028-.4,0-.96.207-1.06-.494a37.636,37.636,0,0,1,3.088-5.108c1.551-2.491,3.165-4.941,4.737-7.417.256-.4.472-.873,1.009-1.009" transform="translate(-55.574 -60.683)" fill="#126783"/><path d="M135.019,118.951q-3.934,6.156-7.877,12.305c-.279.433-.452.964-.957,1.228-.388-.316-.231-.755-.233-1.142q-.017-5.5-.006-11c0-1.519.109-1.625,1.566-1.629,2.12,0,4.238-.008,6.358,0,.391,0,.825-.131,1.148.234" transform="translate(-55.513 -60.623)" fill="#084e65"/><path d="M90.97,87.773a7.2,7.2,0,0,0-1.8,2.424c-2.305,3.566-4.578,7.152-6.87,10.726a1.854,1.854,0,0,1-.356.325c-.356-.273-.245-.667-.245-1.019-.007-3.754.023-7.507-.021-11.26-.014-1.168.395-1.582,1.582-1.536,2.159.083,4.323.013,6.486.033.418,0,.915-.182,1.223.307" transform="translate(-47.115 -54.689)" fill="#084e65"/><path d="M113.1,87.778a10.469,10.469,0,0,0-2.208,3.033c-2.158,3.321-4.264,6.675-6.4,10.012a2.759,2.759,0,0,1-.422.426c-.388-.315-.238-.755-.24-1.144-.011-3.718.025-7.437-.026-11.155-.015-1.091.283-1.554,1.45-1.514,2.2.075,4.412.011,6.619.031.419,0,.916-.181,1.224.311" transform="translate(-51.314 -54.69)" fill="#084e65"/><path d="M104.133,132.541a41.73,41.73,0,0,0,3.52-5.225c1.821-2.734,3.541-5.536,5.3-8.309.429.284.283.732.284,1.114.012,3.828-.025,7.658.027,11.486.015,1.126-.365,1.5-1.488,1.463-2.2-.073-4.4-.011-6.6-.031-.4,0-.957.2-1.049-.5" transform="translate(-51.377 -60.682)" fill="#126783"/><path d="M135.218,87.777c-1.091.779-1.539,2.034-2.235,3.095-2.2,3.365-4.343,6.772-6.513,10.158-.061.095-.188.147-.284.22-.383-.319-.233-.758-.233-1.146-.011-3.718.024-7.436-.026-11.153-.015-1.09.278-1.555,1.448-1.515,2.2.075,4.412.011,6.617.031.42,0,.917-.179,1.226.31" transform="translate(-55.513 -54.69)" fill="#084e65"/><path d="M82.307,132.991c.194-1.582,1.386-2.632,2.15-3.892,2.068-3.411,4.274-6.738,6.425-10.1.436.278.3.727.3,1.112.011,3.844-.019,7.69.023,11.534.012,1.059-.339,1.452-1.421,1.419-2.491-.078-4.987-.057-7.481-.075" transform="translate(-47.235 -60.681)" fill="#126783"/><path d="M127.522,164.245c-1.708-.011-3.416-.032-5.124-.029-.625,0-.951.041-.887-.894.16-2.349.052-4.715.076-7.075,0-.459-.288-.741-.474-1.092,1.916-.011,3.833-.006,5.749-.04.995-.017,1.39.446,1.38,1.414-.023,2.162-.008,4.323-.006,6.485,0,.55-.017,1.087-.714,1.232" transform="translate(-54.6 -67.535)" fill="#9c9595"/><path d="M167.419,109l.979.023a2.267,2.267,0,0,1,1,1.966q-.032,35.483-.027,70.968l-17.69-.006c.007-5.228.035-10.457,0-15.686-.006-.954.241-1.266,1.229-1.249,3.512.058,7.026.028,10.539.016.432,0,.909.147,1.275-.24a1.221,1.221,0,0,1,.15-.46c.94-1.713.446-2.585-1.544-2.61-3.3-.04-6.6,0-9.9-.018-.6,0-1.238.113-1.729-.392q0-4.764,0-9.528a2.35,2.35,0,0,1,1.746-.386c3.143-.01,6.286,0,9.429-.007a4.449,4.449,0,0,0,1.574-.166,1.364,1.364,0,0,0,0-2.6,4.45,4.45,0,0,0-1.574-.167c-3.144,0-6.286,0-9.429-.006a2.354,2.354,0,0,1-1.746-.385q0-4.764,0-9.528c.49-.506,1.131-.39,1.728-.392,3.136-.014,6.271,0,9.407-.007a5.823,5.823,0,0,0,1.338-.081,1.341,1.341,0,0,0,.954-2.125,2.28,2.28,0,0,1-.409-.874c-.366-.387-.844-.239-1.276-.241-3.515-.011-7.031-.044-10.545.017-1,.018-1.245-.318-1.221-1.259q.09-3.431,0-6.865c-.025-.949.23-1.274,1.226-1.257,3.432.06,6.867.028,10.3.017.433,0,.908.143,1.286-.22a1.175,1.175,0,0,1,.278-.391c1.15-1.249,1.1-1.74-.275-2.82a.9.9,0,0,1-.243-.265c-.383-.351-.856-.211-1.29-.212-3.351-.011-6.7-.043-10.052.017-.993.018-1.241-.3-1.228-1.254.049-3.759.021-7.519.023-11.278L167.419,109" transform="translate(-60.401 -58.783)" fill="#b7abab"/><path d="M151.705,157.223c4.037,0,8.075,0,12.113.022,1.659.011,2.544,1.346,1.836,2.71a1.951,1.951,0,0,1-1.958.972c-4-.007-7.994,0-11.99.009v-3.713" transform="translate(-60.406 -67.936)" fill="#f2e9e5"/><path d="M164.249,124.773a1.652,1.652,0,0,1,1.625,1.629,1.7,1.7,0,0,1-1.385,1.846c-3.881-.006-7.763-.039-11.644,0-.927.01-1.2-.28-1.168-1.189.089-2.7-.327-2.234,2.276-2.259,3.432-.032,6.863-.023,10.3-.031" transform="translate(-60.4 -61.777)" fill="#f2e9e5"/><path d="M164.693,141.134c.787.521,1.4,1.1,1.035,2.191-.372,1.119-1.221,1.271-2.221,1.27-3.944,0-7.887.011-11.831.019.045-1.092-.46-2.487.2-3.2.724-.789,2.16-.249,3.281-.265,3.18-.045,6.361-.015,9.541-.015" transform="translate(-60.373 -64.853)" fill="#f2e9e5"/><path d="M151.7,173.567c3.944.007,7.887.022,11.831.018,1,0,1.849.152,2.221,1.27.365,1.094-.249,1.67-1.034,2.192-3.955,0-7.91-.026-11.865.019-.91.01-1.26-.253-1.176-1.176.07-.769.019-1.548.022-2.323" transform="translate(-60.399 -71.038)" fill="#f2e9e5"/><path d="M111.285,190.876a3.444,3.444,0,0,0,.739-1.253q5.279-10.526,10.544-21.061a2.641,2.641,0,0,1,.8-1.031v25.526l-12.167,0a1.973,1.973,0,0,1,.08-2.175" transform="translate(-52.665 -69.892)" fill="#126783"/><path d="M92.657,193.908l11.023-21.855.219.027v21.829l-11.242,0" transform="translate(-49.199 -70.75)" fill="#126783"/><path d="M110.5,190.645q-.04,1.088-.079,2.175h-3.592l-.066-26.239a6.575,6.575,0,0,1,3.689-.009q.024,12.036.048,24.073" transform="translate(-51.875 -69.661)" fill="#f2e9e5"/></g></g></svg>