<svg xmlns="http://www.w3.org/2000/svg" xmlns:xlink="http://www.w3.org/1999/xlink" width="128" height="128.065" viewBox="0 0 128 128.065"><defs><clipPath id="a"><rect width="128" height="128.065" fill="none"/></clipPath></defs><g clip-path="url(#a)"><path d="M151.284,91.31c-.66,1.2-.485,2.563-.685,3.845a64.3,64.3,0,0,1-44.136,51.717c-.592-.189-.493-.712-.515-1.141-.047-.913,0-1.83-.021-2.745a6.151,6.151,0,0,0-5.371-6.069c-.4-.057-.85-.013-1.092-.456.559-1.855.177-3.719-.079-5.545a22.881,22.881,0,0,0-8.159-14.673c-.708-.6-1.673-.983-1.947-2.015a1.2,1.2,0,0,0-.815-1.236c-1.6-.771-3.2-1.548-4.758-2.389a1.4,1.4,0,0,0-1.692.138,11.029,11.029,0,0,1-4.561-2.651c.05-.613.6-.631.992-.778A29.2,29.2,0,0,0,93.662,94.544c.25-.415.41-.926.957-1.088a2.483,2.483,0,0,1,1.251.515,36.179,36.179,0,0,0,14.681,4.539c11.842,1.007,21.88-2.847,30.159-11.264a34.306,34.306,0,0,0,8.159-13.313c.189-.565.126-1.411,1.078-1.448.981,1.582.863,3.4,1.072,5.138.127,1.055.069,2.13.264,3.184v1.5c-.261.55-.067,1.134-.129,1.7.059.432-.134.89.129,1.3v1.25c-.262.4-.069.853-.129,1.277.065.49-.142,1,.129,1.474Z" transform="translate(-23.284 -21.79)" fill="#25e0ac"/><path d="M14.9,105.057A61.574,61.574,0,0,1,1.507,77.662C-2.935,55.679,2.434,36.3,17.709,19.9,28.159,8.683,41.25,2.337,56.487.439A5.146,5.146,0,0,0,58.983,0h1c.166.182.388.113.591.129.3-.045.634.11.909-.129h5c.276.238.607.084.91.129.2-.015.424.053.591-.129h1c1.467.281,2.965.169,4.44.367a60.992,60.992,0,0,1,9.136,2A2.141,2.141,0,0,1,83.753,3c.024.875-.734.806-1.23.923a40.638,40.638,0,0,0-6.3,2.024,35.946,35.946,0,0,0-9.973,6.339,21.785,21.785,0,0,0-3.088,3.079,1.924,1.924,0,0,1-1.086.8,11.435,11.435,0,0,1-2.888-1.118,22.165,22.165,0,0,0-8.93-1.446c-4.074-.04-8.153-.122-12.222.027a21.888,21.888,0,0,0-12.064,4.273,23.006,23.006,0,0,0-9.552,15.5c-.144.864-.036,1.748-.238,2.607a42.272,42.272,0,0,0-.1,5.231c-.031,2.827,0,5.654.007,8.481.031,1.249.043,2.5,0,3.749-.025.818-.359,1.36-1.259,1.377A7.613,7.613,0,0,0,7.7,58.357a7.068,7.068,0,0,0-.306,7.585,7.337,7.337,0,0,0,6.6,4c.208,0,.416,0,.623,0a5.125,5.125,0,0,0,2.411-.546c.85-.409,1.315-.092,1.657.694A29.341,29.341,0,0,0,35.1,85.447c.443.169,1.012.187,1.195.776a13.618,13.618,0,0,1-4.79,2.884,1.506,1.506,0,0,0-1.734-.017c-1.418.758-2.9,1.387-4.37,2.03-.812.355-1.277.762-1.072,1.685-1.248,1.273-2.734,2.268-3.968,3.581a23.869,23.869,0,0,0-4.773,7.539c-.164.408-.222.9-.693,1.134" transform="translate(0)" fill="#25e0ac"/><path d="M157.133,62.673A47.705,47.705,0,0,1,152.89,71.8a36.521,36.521,0,0,1-17.829,14.806c-10.631,4.133-21.067,3.466-31.224-1.692-.666-.338-1.294-.75-1.939-1.127a2.929,2.929,0,0,1,1.005-2.41c.731-.322,1.341.159,2,.3a5.408,5.408,0,0,0,1.442.243,7.488,7.488,0,0,0,1.883-.108c.411-.108.817-.23,1.229-.329a3.43,3.43,0,0,0,1.816-.965,2.605,2.605,0,0,1,1.953-1.056,43.015,43.015,0,0,0,7.016,1.022,29.052,29.052,0,0,0,9.831-1.3A28.507,28.507,0,0,0,149.5,56.635,29.9,29.9,0,0,0,149.038,45a1.555,1.555,0,0,1-.009-.938c2.667-1.043,4.942-2.789,7.433-4.152a.56.56,0,0,1,.361.129,15.748,15.748,0,0,1,1.535,5.921,16.51,16.51,0,0,0,.265,2.3v1.5a.571.571,0,0,0,0,.75v3.5a.571.571,0,0,0,0,.75v1.25c-.358,1.4-.22,2.866-.593,4.258a5.767,5.767,0,0,1-.9,2.406" transform="translate(-30.623 -11.997)" fill="#f64f4f"/><path d="M182.658,88.269c.1-.578-.26-1.219.242-1.741v1.751c-.085.112-.166.115-.242-.009" transform="translate(-54.9 -26.012)" fill="#70c99a"/><path d="M182.9,95.86c-.473-.434-.157-.995-.24-1.491.076-.124.155-.121.24-.009Z" transform="translate(-54.903 -28.341)" fill="#6ec898"/><path d="M182.906,93.857c-.08,0-.16,0-.24.009.042-.427-.174-.9.24-1.26Z" transform="translate(-54.906 -27.839)" fill="#55bf87"/><path d="M182.664,89.018c.08.006.161.008.242.009v1.251c-.415-.355-.2-.833-.242-1.26" transform="translate(-54.906 -26.76)" fill="#53be84"/><path d="M96.075.225c-.354,0-.741.147-1.013-.225h1c.078.045.107.094.085.145s-.047.079-.072.079" transform="translate(-28.577)" fill="#7bcda1"/><path d="M87.442,0c-.272.371-.659.223-1.013.225-.073-.055-.1-.106-.068-.154S86.415,0,86.441,0Z" transform="translate(-25.958)" fill="#7bcda1"/><path d="M182.907,60.819c-.369-.25-.318-.5,0-.75Z" transform="translate(-54.907 -18.058)" fill="#faa5a5"/><path d="M182.91,54.741c-.313-.25-.357-.5,0-.75Z" transform="translate(-54.91 -16.231)" fill="#f99090"/><path d="M96.5.225A2.011,2.011,0,0,1,96.492,0h.5c-.087.239-.283.241-.487.225" transform="translate(-29.007)" fill="#9ad9b7"/><path d="M86.266,0a2,2,0,0,1-.013.225c-.2.016-.4.015-.487-.225Z" transform="translate(-25.783)" fill="#9ad9b7"/><path d="M89.678,131.959c.037.477.4.7.735.945a23.49,23.49,0,0,1,9.5,15.6,22.443,22.443,0,0,1,.317,4.952c-.02.334.023.68-.39.819-.58-.348-.415-.936-.441-1.446a23.564,23.564,0,0,0-.141-2.6,2.861,2.861,0,0,0-4.33-2.11,3.509,3.509,0,0,0-1.319,3.077q.022,7.17,0,14.341a2.493,2.493,0,0,1-.4,1.9,56.625,56.625,0,0,1-15.051-.436,4,4,0,0,0,1.453-1.951c1.948-4.692,3.843-9.406,5.806-14.092.536-1.278.473-1.338-.971-1.426-1.423-.086-1.645-.383-1.164-1.7,1.864-5.084,3.853-10.119,5.8-15.171.112-.29.145-.68.594-.7" transform="translate(-23.496 -39.669)" fill="#3d4159"/><path d="M86.9,130.163c-2.047,5.371-4.072,10.75-6.162,16.1-.361.925-.211,1.152.755,1.155,2.214.007,2.227.047,1.367,2.135-2,4.863-4.027,9.717-6.02,14.582-.283.69-.668,1.124-1.458,1.058a29.136,29.136,0,0,1-6.394-1.281c-.287-1.086.354-2,.559-3a15.778,15.778,0,0,1,.417-1.565c1.627-5.911,3.364-11.791,5-17.7,1.306-4.276,2.412-8.609,3.674-12.9a4.9,4.9,0,0,1,.808-2.058c.278-.641.584-.943,1.366-.513,1.846,1.012,3.74,1.937,5.638,2.849.566.273.757.569.448,1.129" transform="translate(-20.717 -37.873)" fill="#2a2f4f"/><path d="M34.511,130.721c-.417-.85-.251-1.344.717-1.734,1.842-.741,3.626-1.632,5.418-2.493.627-.3,1.02-.245,1.166.494a2.079,2.079,0,0,1,.655,1.309c1.272,4.4,2.5,8.809,3.8,13.2q2.511,8.984,5.082,17.953c.136.793.693,1.548.221,2.4a48.532,48.532,0,0,1-10.3-5.063,7.936,7.936,0,0,1-1.211-2.443c-.828-1.818-1.539-3.686-2.253-5.55-.447-1.169-.2-1.516,1.032-1.6a2.593,2.593,0,0,1,.5-.006c1.063.13,1.058-.36.74-1.158-1.278-3.208-2.458-6.454-3.719-9.668-.562-1.434-1.071-2.887-1.663-4.309a1.777,1.777,0,0,1-.188-1.325" transform="translate(-10.31 -37.975)" fill="#2a2f4f"/><path d="M30.6,132.611c2.035,5.3,4.053,10.616,6.122,15.908.3.756.172.885-.6.9-2.417.029-2.358.034-1.481,2.319.891,2.321,2.06,4.531,2.721,6.941a59.834,59.834,0,0,1-13.956-11.306c-.734-.788-1.409-1.629-2.112-2.446a22.708,22.708,0,0,1,9.3-12.311" transform="translate(-6.403 -39.865)" fill="#3d4159"/><path d="M58.781,166.113q-.25-1.135-.5-2.27a7.988,7.988,0,0,1,.285-1.951q1.406-5.757,2.947-11.48a3.1,3.1,0,0,0-.411-2.7,31.766,31.766,0,0,1-2.739-4.594c.031-.562.49-.736.888-.933a19.1,19.1,0,0,1,3.2-1.641,1.691,1.691,0,0,1,.578,0c1.338.8,3.006,1.092,3.913,2.553a8.173,8.173,0,0,1-1.786,3.235,5.5,5.5,0,0,0-.918,5.534c1.058,3.186,1.667,6.518,2.57,9.763a5.347,5.347,0,0,1,.224,2.071q-.62,2.3-1.239,4.589a39.713,39.713,0,0,1-7.009-2.17" transform="translate(-17.52 -42.241)" fill="#f64f4f"/><path d="M99.68,174.184q.01-8.357.016-16.715a3.039,3.039,0,0,1,1.731-3.029c1.5-.108,2.372.659,2.578,2.321a20.473,20.473,0,0,1,.045,3.114,2.015,2.015,0,0,0,1.05,1.948,6.488,6.488,0,0,1,3.217,6.069c-.039,1.2,0,2.411-.012,3.616a1.9,1.9,0,0,1-.342,1.414l-4.535.986a1.775,1.775,0,0,0-1.2.024l-.8.221a1.784,1.784,0,0,0-1.2.031H99.68" transform="translate(-29.965 -46.424)" fill="#f5c9ad"/><path d="M108.714,172.758c0-1.748-.038-3.5,0-5.243a6.011,6.011,0,0,0-3.3-5.708,1.579,1.579,0,0,1-.976-1.655c.062-1.12.049-2.248,0-3.37a2.42,2.42,0,0,0-2.265-2.5,3.251,3.251,0,0,1,4.725,3.028,13.2,13.2,0,0,0,.156,3.559,7.14,7.14,0,0,1,4.518,1.792,6.629,6.629,0,0,1,2.151,4.483,21.163,21.163,0,0,0,.169,4.2,28.353,28.353,0,0,1-5.182,1.416" transform="translate(-30.716 -46.261)" fill="#e9b498"/><path d="M103.32,182.208a.888.888,0,0,1,1.2-.024l-1.2.024" transform="translate(-31.06 -54.7)" fill="#d4baa5"/><path d="M100.462,182.567a.887.887,0,0,1,1.2-.031l-1.2.031" transform="translate(-30.2 -54.808)" fill="#cab7a5"/><path d="M93.121,89.179c-.836-.037-1.188.687-1.735,1.1-.979-.447-1.181.615-1.775.914-.406.078-.756.377-1.2.3-.788-.034-1.588-.409-2.36.083a.586.586,0,0,1-.432-.676A25.733,25.733,0,0,1,86.39,87a.647.647,0,0,1,.662-.466c1.244.593,1.244.593,1.594-.657a4.548,4.548,0,0,0,.754-3.121c.365-1.03-.376-.974-1.01-1.022-2.089-.543-2.358-.906-2.264-3.042.308-.545.628-1.093-.279-1.4-.381.264-.391.264-.394.686a39.77,39.77,0,0,1-.258,5.939,31.768,31.768,0,0,1-1.515,6,1.766,1.766,0,0,1-.826,1.041q-.482,1.136-.962,2.272a29.651,29.651,0,0,1-13.386,12.911c-1.185.571-2.417,1.046-3.628,1.565a.9.9,0,0,1-.487.32,11.3,11.3,0,0,1-7.788.123A29.486,29.486,0,0,1,39.163,94.333a29.881,29.881,0,0,1-3.785-11.915c-.05-.473-.236-1.019.424-1.268a11.479,11.479,0,0,1,2.054,2.292c2.77,3.1,8.2,3.444,11.494,1.427.511-.312.942-.86,1.655-.741a3.021,3.021,0,0,0,2.646,1c1.648-.064,3.3-.045,4.949-.006a2.822,2.822,0,0,0,2.333-.89c.763-.325,1.255.264,1.8.577a9.474,9.474,0,0,0,11.957-1.795,8.4,8.4,0,0,0,2.316-6.148C77,73.6,76.7,73.645,80.038,72.721c1.272-.352,2.495-.868,3.78-1.177a2.041,2.041,0,0,1,1.327-.112c.51.8.231,1.723.381,2.577-.073.815-.38,1.778,1.043,1.652a2.991,2.991,0,0,1,.528.086,4.763,4.763,0,0,0,1.243.177,2.973,2.973,0,0,1,1.191.394,1.073,1.073,0,0,0,1.622.8c1.686.746,2.47,2.325,3.447,3.728a7.769,7.769,0,0,1-1.48,8.336" transform="translate(-10.617 -21.45)" fill="#f5c9ad"/><path d="M73.28,123.356l.533-.01A47.673,47.673,0,0,0,78.28,125.9a50.833,50.833,0,0,1-1.684,6.338c-.806,2.9-1.674,5.79-2.515,8.683a28.7,28.7,0,0,1-5.226-3.062l-3.819-2.269c.35-.885,1.264-.458,1.848-.8,3.849-.963,6.18-4.312,6.041-8.695.068-.921-.255-1.893.355-2.742" transform="translate(-19.551 -37.08)" fill="#bed4dd"/><path d="M81.264,55.71c-2.169.683-4.325,1.41-6.512,2.028-.955.271-1.4.7-1.243,1.725a10.363,10.363,0,0,1-.022,1.735,2.466,2.466,0,0,1-2.459.134,1.986,1.986,0,0,1-.39-1.523c-.027-.832.009-1.664-.031-2.5a1.711,1.711,0,0,0-1.449-1.757,21.018,21.018,0,0,0-10.851.064,1.477,1.477,0,0,0-1.211,1.6c-.062,1.352.327,2.745-.3,4.055a3.146,3.146,0,0,1-2.174.213c-1.027-.134-.975-.99-.983-1.726-.01-.84-.15-1.444-1.209-1.446-1.318,0-1.492.107-1.56,1.433a2.377,2.377,0,0,1-.345,1.541,3.388,3.388,0,0,1-2.7.065c-.694-.733-.408-1.651-.429-2.493-.079-3.268.453-2.873-3-3.656a19.614,19.614,0,0,0-9.248.4,2.337,2.337,0,0,0-1.005.469c-.383.364-.3.841-.3,1.29-.01.871.015,1.744-.01,2.615-.037,1.284-.307,1.546-1.541,1.556-1.264.011-1.662-.248-1.613-1.474.055-1.362-.594-1.907-1.786-2.244-1.676-.473-3.351-.962-4.989-1.565a2.418,2.418,0,0,1-1.357-.818q-.017-6.475-.029-12.951a1.534,1.534,0,0,1,.2-1.075c.52.5.4,1.156.4,1.765.018,2.874,0,5.748.011,8.621.007,1.669.087,1.737,1.778,1.764a9.191,9.191,0,0,1,1.494.083c.462.107.906.279,1.356.426,1.667.714,3.265,1.095,4.364-.917a24.112,24.112,0,0,1,16.4-.331A3.832,3.832,0,0,1,50.335,54.3a2.416,2.416,0,0,0,3.8-.1,3.592,3.592,0,0,1,1.986-1.426,25,25,0,0,1,14.887-.141,3.609,3.609,0,0,1,2.4,1.644.889.889,0,0,0,1.166.43,7.3,7.3,0,0,1,1.655-.353c-.843-.261-.813-.958-.825-1.585-.038-1.916-.007-3.832-.017-5.748-.008-1.567-.025-1.611-1.513-1.892q-15.654-2.954-31.323-5.834c-1.6-.3-3.186-.632-4.789-.9a2.232,2.232,0,0,1-1.263-.484,1.52,1.52,0,0,1-.109-1.538,24.027,24.027,0,0,1,15.825-16.64,23.1,23.1,0,0,1,4.761-.759,21.649,21.649,0,0,1,11.4,2.511,4.275,4.275,0,0,0,.583.2,2.828,2.828,0,0,1,1.577.687,22.856,22.856,0,0,1,5.182,4.463,23.6,23.6,0,0,1,4.714,8.1,18.255,18.255,0,0,1,1.195,6.45c.076,3.979-.145,7.962.131,11.941a3.457,3.457,0,0,1-.5,2.384" transform="translate(-6.765 -5.69)" fill="#3d4159"/><path d="M20.47,71.134c2.288.744,4.554,1.566,6.872,2.2,1.2.329,1.82.834,1.558,2.123-.265,1.307.329,1.644,1.558,1.532.73-.066.99-.22,1-.995a18.855,18.855,0,0,1,.151-4.556,1.038,1.038,0,0,1,.4.864,31.074,31.074,0,0,1-.1,5.284c-.225.574-.556.273-.883.108a1.405,1.405,0,0,0-1.427-.069c-.532.355-.12.908-.108,1.376.017.736.653,1.361.389,2.149a9.292,9.292,0,0,0,.383,4.355,29.063,29.063,0,0,0,8.565,15.426,28.35,28.35,0,0,0,15.5,7.6c1.341.2,2.742-.489,4.091-.874l-.034,2.993a6.961,6.961,0,0,1-3.33,1.269,26.614,26.614,0,0,1-6.922.827c-1.189-.024-1.331.206-.873,1.308a8.366,8.366,0,0,0,4.061,4.556c.34.167.847.215.838.782-.617.342-1.386.083-1.983.5l-.541-.03c-3.28.5-6.837-2.319-8-5.5a9.17,9.17,0,0,1-.569-3.407,10.288,10.288,0,0,0-.206-3.332,34.847,34.847,0,0,1-8.944-4.82,29.047,29.047,0,0,1-8.727-11.029c-.382-.86-.708-1.139-1.6-.642a3.54,3.54,0,0,1-2.152.459c-.046-.789-.256-1.557-.328-2.338-.124-1.348-.417-2.406-1.965-2.906a2.5,2.5,0,0,1-1.517-2.762,2.675,2.675,0,0,1,1.85-2.579,1.96,1.96,0,0,0,1.509-1.99c.085-1.022.513-2.019.2-3.067.995.109,1.4-.254,1.3-1.324-.108-1.155-.018-2.33-.015-3.5" transform="translate(-4.695 -21.384)" fill="#e9b498"/><path d="M95.445,22.378a29.6,29.6,0,0,0-6.508-5.224,36.857,36.857,0,0,1,20.8-12.511c.281-.064.556-.16.835-.241a64.184,64.184,0,0,1,7.305-.535,37.833,37.833,0,0,1,17.614,4.614c.064.485-.291.749-.573,1.034q-2.345,2.372-4.715,4.717a1.724,1.724,0,0,1-1.156.646,45.729,45.729,0,0,0-7.334-2c-9.237-1.19-17.293,1.268-24.083,7.717-.68.644-1.176,1.535-2.183,1.783" transform="translate(-26.736 -1.162)" fill="#f64f4f"/><path d="M26.907,53.991c-.992-.013-1.988-.078-2.976-.021-.884.051-1.126-.285-1.119-1.14.03-3.8,0-7.611-.009-11.416.469-8.881,4.755-15.378,12.427-19.688a22.461,22.461,0,0,1,11.484-2.8c3.451.044,6.9.029,10.355.04-.961.187-1.932.332-2.88.571a23.927,23.927,0,0,0-10.331,5.471,24.191,24.191,0,0,0-7.192,11.809,5.005,5.005,0,0,0-.088.862.955.955,0,0,1-.848.248c-1.852-.286-3.693-.639-5.534-.991-1.643-.315-1.732-.256-1.735,1.381-.009,4.582,0,9.164-.008,13.746A3.533,3.533,0,0,1,28.2,53.9c-.406.4-.857.162-1.3.092" transform="translate(-6.855 -5.689)" fill="#2a2f4f"/><path d="M17.141,78.02c.357.227.75.3.545.985a16.225,16.225,0,0,0-.546,3.288c-.062.721-.583.739-1.02.874-1.572.483-2.258,1.283-2.249,2.7.009,1.4.681,2.186,2.293,2.651.606.174.969.4.992,1.169a15.489,15.489,0,0,0,.494,2.922c.1.434.191.79-.259,1.055a7.845,7.845,0,1,1-.251-15.642" transform="translate(-2.65 -23.45)" fill="#f5c9ad"/><path d="M49.708,123.311c.766.124.519.729.548,1.185.1,1.65-.143,3.3.387,4.95a8.352,8.352,0,0,0,7.276,5.913,2.38,2.38,0,0,1,.565.2l-3.945,2.287a11.474,11.474,0,0,1-5.33,2.773c-1.528-4.8-2.843-9.669-4.168-14.531l4.666-2.772" transform="translate(-13.54 -37.069)" fill="#bed4dd"/><path d="M117.967,81.7a3.54,3.54,0,0,1,.291-.8,7.742,7.742,0,0,0,.989-7.153,1.976,1.976,0,0,1-.038-.489c.385-.345.792-.13,1.18-.026a23.645,23.645,0,0,0,4.175.707,19.982,19.982,0,0,0,21.491-17.169,19.748,19.748,0,0,0-.44-7.792,11.254,11.254,0,0,1-.4-1.827c.034-.736.385-.866.97-.485.8.523,1.613,1.036,2.383,1.6a1.5,1.5,0,0,0,2.039-.025,14.739,14.739,0,0,1,2.382-1.36c.349-.18.719-.482,1.15-.152a28.924,28.924,0,0,1-17.8,34.274,29.418,29.418,0,0,1-18.376.689" transform="translate(-35.463 -13.966)" fill="#f1efeb"/><path d="M164.709,43.778a13.452,13.452,0,0,0-3.375,1.8,1.661,1.661,0,0,1-2.316.059c-.792-.662-1.7-1.189-2.536-1.8-.308-.224-.423-.152-.469.188-.6-.021-.479-.618-.739-.912-.628-1.116-1.134-2.3-1.863-3.362-.208-.3-.414-.639-.169-1.032a3.2,3.2,0,0,1,2.464.562c1.5.734,2.737.669,3.785-.774a9.4,9.4,0,0,1,1.4-1.4c.338-.3.679-.642,1.205-.392a19.405,19.405,0,0,1,2.55,5.608.7.7,0,0,1-.082.706q.07.375.141.749" transform="translate(-46.034 -11.011)" fill="#d7d4cf"/><path d="M168.339,41.827a31.314,31.314,0,0,0-2.66-6.3c.317-1.466,1.462-2.184,2.611-2.9.869.009,1.138.869,1.757,1.246,1.509.92,2.9,2.013,4.377,2.991a3.274,3.274,0,0,1,1.1.965c-.474.905-1.441,1.131-2.223,1.611-1.09.67-2.169,1.36-3.289,1.976-.5.276-.977.866-1.676.407" transform="translate(-49.806 -9.809)" fill="#dc3033"/><path d="M110.037,84.843a3.354,3.354,0,0,1-.751,3.249,1.441,1.441,0,0,1-1.5.749c-1.131-.069-.918,1.027-.869,1.407.144,1.144-1.211,2.215-.133,3.351.056.044.076.089.06.136s-.033.071-.051.071c-1.26.211-2.279-.761-3.507-.713a26.638,26.638,0,0,0,2.251-11c0-.833-.034-1.668.015-2.5.024-.4-.3-1.048.346-1.16.58-.1.22.731.631.909a1.264,1.264,0,0,1,.255,1.248c.05,2.374.05,2.374,2.249,3,.49.292,1.008.56,1,1.248" transform="translate(-31.049 -23.576)" fill="#e9b498"/><path d="M176.655,36.5a36.287,36.287,0,0,1-6.878-4.908c-.077-.077-.227-.082-.343-.12.442-1.482,1.764-2.186,2.786-3.155a.772.772,0,0,1,.671-.077,29.835,29.835,0,0,1,3.991,8.245,2.092,2.092,0,0,0-.229.015" transform="translate(-50.935 -8.474)" fill="#f64f4f"/><path d="M112.948,99.089c.148-.291.293-.585.448-.874.415-.773.859-.826,1.326-.041a3.372,3.372,0,0,1-1.774.914" transform="translate(-33.954 -29.343)" fill="#f5c9ad"/><path d="M108.3,100.025c0-.069-.008-.138-.009-.207.7-1.469,1.374-.221,2.058.018a3.732,3.732,0,0,1-2.049.189" transform="translate(-32.553 -29.795)" fill="#f5c9ad"/><path d="M145.18,16.692c2.172-1.988,4.232-4.087,6.249-6.229.324-.051.463.134.528.413a1.874,1.874,0,0,1,.632.9A40.718,40.718,0,0,1,154.666,18a2.177,2.177,0,0,1-.787,1.238Q150,23.126,146.106,27c-.341.338-.642.8-1.242.7-.621-.5-.713-1.288-1.03-1.953-.515-1.575-1.119-3.119-1.693-4.671a1.766,1.766,0,0,1,.427-2.142c.854-.769,1.481-1.8,2.613-2.248" transform="translate(-42.676 -3.143)" fill="#e7c834"/><path d="M158.8,18.4l-2.55-7.346a31.291,31.291,0,0,1,8.973,7.255.225.225,0,0,1,.085.2c-.01.075-.024.113-.043.113-1.143.716-2.346,1.331-3.493,2.042a1.749,1.749,0,0,1-1.027-.173A6.047,6.047,0,0,1,158.8,18.4" transform="translate(-46.972 -3.324)" fill="#f64f4f"/><path d="M168.9,21.716c.006-.1.012-.192.017-.287a22.054,22.054,0,0,1,3.7,4.776l-.446.245c-1.136-.46-2.483-.492-3.3-1.608a3.741,3.741,0,0,1,.026-3.126" transform="translate(-50.666 -6.442)" fill="#f65150"/><path d="M68.965,144.1a22.31,22.31,0,0,1,5.225,3.061q-2.2,7.867-4.4,15.733c-.178.633-.413,1.251-.621,1.874q-1.86-7.1-3.725-14.2a1.529,1.529,0,0,1,.311-1.276c1.079-1.725,2.142-3.461,3.209-5.192" transform="translate(-19.661 -43.32)" fill="#dce7ec"/><path d="M51,146.86l5.33-2.774c1.078,1.724,2.143,3.455,3.242,5.166a1.727,1.727,0,0,1,.264,1.5c-1.2,4.569-2.357,9.149-3.534,13.723a2.509,2.509,0,0,1-.211.437c-1.758-6-3.53-12-5.091-18.055" transform="translate(-15.332 -43.314)" fill="#dce7ec"/><path d="M132.949,30.752l.837,2.067c.034.427-.26.682-.518.942q-2.531,2.554-5.088,5.084a1.232,1.232,0,0,1-1.076.508,11.814,11.814,0,0,0-6.669-1.036,10.058,10.058,0,1,0,11.717,8.521,5.39,5.39,0,0,1-.117-1.241c.085-.466.464-.669.819-.878,2.4-1.405,4.777-2.847,7.2-4.219.282-.16.564-.372.927-.234l.5,1a20.517,20.517,0,0,1-25.155,26.55c-.356-.1-.718-.185-1.078-.277-.928-.752-1.28-1.979-2.269-2.7-.352-.258-.684-.562-1.061-.8a2.787,2.787,0,0,1-1.437-.74L109.264,63c-.392-.262-.866.006-1.267-.2l-.484-.048c-.519-.513-1.26-.856-1.312-1.724a11.019,11.019,0,0,1-.208-2.765c0-5.076.035-10.153-.038-15.228a18.266,18.266,0,0,0-1.192-5.7c.376-1.6,1.611-2.605,2.65-3.7a20.78,20.78,0,0,1,23.5-4.281,6.09,6.09,0,0,1,2.036,1.4" transform="translate(-31.493 -8.25)" fill="#f64f4f"/><path d="M84.467,79.37h2.486A8.967,8.967,0,0,1,81.964,87.7a9.637,9.637,0,0,1-10.294-.5c-.316-.2-.629-.406-.943-.609a8.631,8.631,0,0,1-3.258-5.11c-.371-1.851-.278-1.982,1.563-1.978a9.132,9.132,0,0,1,1.116.024c.429.3.394.8.506,1.229a6.454,6.454,0,0,0,5.977,5.167,6.521,6.521,0,0,0,6.512-3.28,4.922,4.922,0,0,0,.739-1.965c.074-.488.1-1.006.587-1.311" transform="translate(-20.23 -23.86)" fill="#fee052"/><path d="M67.221,78.284c-2.976-.137-3.04-.057-2.066,2.806a4.708,4.708,0,0,0,2.017,2.986,1.177,1.177,0,0,1,.594,1.153,1.582,1.582,0,0,1-1.814,1.3c-2.114-.033-4.23-.064-6.341.013a1.82,1.82,0,0,1-2.095-1.272,1.233,1.233,0,0,1,.616-1.47c1.55-1.052,1.953-2.678,2.272-4.347a2.466,2.466,0,0,1,.551-1.464q0-.562,0-1.125c0-2.014,0-1.986,2.07-2.024.969-.018,1.622-.012,1.556,1.337-.108,2.2-.363,1.875,1.884,1.893A7.4,7.4,0,0,0,67.213,78a.183.183,0,0,1,.066.188c-.018.064-.038.1-.058.1" transform="translate(-17.27 -22.496)" fill="#e9b498"/><path d="M54.084,79.34a13,13,0,0,1-.86,3.821c-.426.883-.771,1.813-1.817,2.23-.478.191-.543.795-.762,1.23a9.854,9.854,0,0,1-15.053-3.005,7.357,7.357,0,0,1-.769-2.465c-.037-.52-.615-1.288.206-1.458.757-.157,1.846-.594,2.287.674.411.243.413.7.553,1.078a6.83,6.83,0,0,0,12.987-.38c.173-.573.01-1.277.594-1.709l2.634-.015" transform="translate(-10.399 -23.851)" fill="#fee052"/><path d="M61.848,102.073a15.785,15.785,0,0,1-7.42-1.666,1.3,1.3,0,0,1-.744-1.82c.354-.821,1.148-.8,1.825-.515a17.508,17.508,0,0,0,3.52,1.181,11.981,11.981,0,0,0,7.155-.857,5.343,5.343,0,0,1,.562-.268c.811-.241,1.726-.513,2.2.439.483.972-.231,1.56-1.025,1.944a15.211,15.211,0,0,1-6.072,1.562" transform="translate(-16.095 -29.428)" fill="#e9b498"/><path d="M106.711,75.473c.418.59,1.153.937,1.312,1.725-1.688.024-1.8-.118-1.312-1.725" transform="translate(-32.004 -22.688)" fill="#f1e8e2"/><path d="M109.72,93l1.5-.749c.048.618-.035,1.213-.7,1.43-.519.168-.747-.2-.8-.681" transform="translate(-32.984 -27.731)" fill="#f5c9ad"/><path d="M112.858,78.709a2.17,2.17,0,0,1,1.438.74c-.369.217-.665.7-1.2.311-.39-.285-.55-.611-.242-1.05" transform="translate(-33.878 -23.661)" fill="#f5c9ad"/><path d="M112.507,87.063l-1-1.248c.874-.017,1.737-.026,1,1.248" transform="translate(-33.52 -25.796)" fill="#f5c9ad"/><path d="M108.178,80.987c-.411-.35-.187-.829-.255-1.248.327.011.69-.025.739.437.04.38.045.76-.483.811" transform="translate(-32.443 -23.971)" fill="#f5c9ad"/><path d="M109.386,78a1.794,1.794,0,0,1,1.267.2c-.426-.04-.89.162-1.267-.2" transform="translate(-32.883 -23.441)" fill="#f5c9ad"/><path d="M65.487,136.384a8.906,8.906,0,0,1-5.152-5.055,5.826,5.826,0,0,1-.314-.806c-.173-.725-.159-1.207.883-1.148a30.553,30.553,0,0,0,10.809-1.732,8.35,8.35,0,0,1-6.227,8.742" transform="translate(-18.018 -38.371)" fill="#f5c9ad"/><path d="M39.557,45.748l.746-.006c2.92.784,5.916,1.185,8.879,1.749,8.337,1.588,16.685,3.122,25.028,4.676,1.506.281,3.006.619,4.524.808.747.093.861.419.855,1.05-.023,2.289.016,4.58-.023,6.868-.013.8.016,1.441,1.086,1.532-.923.29-1.858.547-2.765.881-.531.2-.646-.083-.769-.472a2.455,2.455,0,0,0-1.76-1.608,24.516,24.516,0,0,0-15.562.024c-.7.227-1.42.566-1.589,1.277-.241,1.009-.853,1.06-1.655,1a13.547,13.547,0,0,0-1.5,0c-.525.017-.9,0-1.067-.693a2.543,2.543,0,0,0-1.995-1.69,24.553,24.553,0,0,0-16.143.411c-.738-.08-.59-.685-.626-1.13a15.4,15.4,0,0,1,.245-3.723,31.411,31.411,0,0,1,2.7-8.916,4.938,4.938,0,0,1,1.389-2.034" transform="translate(-10.578 -13.751)" fill="#f5c9ad"/><path d="M130.989,27.262a21.455,21.455,0,0,0-9.549-2.944c-7.6-.282-13.616,2.74-18.1,8.855-.169.231-.355.452-.532.678a25.235,25.235,0,0,0-4.561-7.874c8.634-9.869,21.414-12.769,33.795-7.667-.742.784-1.438,1.619-2.24,2.336a1.553,1.553,0,0,0-.48,2.051c.636,1.488,1.122,3.04,1.672,4.566" transform="translate(-29.533 -4.76)" fill="#f1efeb"/><path d="M71.412,76.775c0-.094,0-.19-.007-.284,0-1.539.023-3.079-.015-4.617a.966.966,0,0,1,.819-1.143,22.019,22.019,0,0,1,12.42-.043,1.089,1.089,0,0,1,.958,1.2c.014,1.538.071,3.076.111,4.614a7.306,7.306,0,0,1-3.134,5.7,7.016,7.016,0,0,1-7.231.508,6.619,6.619,0,0,1-3.921-5.929" transform="translate(-21.461 -20.988)" fill="#dce7ec"/><path d="M52.622,76.487c-.409,3.992-2.388,6.192-6.152,6.835A6.877,6.877,0,0,1,38.488,77.5q0-3.231,0-6.462A21.008,21.008,0,0,1,51.9,70.758c.565.161.659.5.659,1.005,0,1.574.039,3.149.063,4.724" transform="translate(-11.57 -20.982)" fill="#dce7ec"/><path d="M37.989,45.149c-.629,1.343-1.339,2.655-1.87,4.035a28.425,28.425,0,0,0-2.135,10.994.835.835,0,0,0,.3.774c-.111.12-.282.223-.324.364-.59,2-1.891,1.214-3.1.806-.273-.092-.548-.176-.822-.264-.182-.252.094-.32.186-.462.013-5.492.055-10.983.017-16.474-.008-1.072.2-1.342,1.3-1.074,2.13.518,4.333.708,6.452,1.3" transform="translate(-9.01 -13.152)" fill="#e9b498"/><path d="M29.828,68.978q-.093.231-.186.462a1.853,1.853,0,0,1-.971-.4l1.157-.059" transform="translate(-8.619 -20.736)" fill="#a7867f"/><path d="M163.249,25.809c.928.656,2.222.566,3.022,1.483a26.752,26.752,0,0,0-3.012,2.986,16.827,16.827,0,0,0-2.626,2.728A23.335,23.335,0,0,0,157.474,36a1.4,1.4,0,0,1-1.658.37,21.318,21.318,0,0,0-3.885-1.3,1.184,1.184,0,0,1-.7-.087c-.548-.2-1.106-.366-1.653-.566-.838-.3-.874-.787-.326-1.409.138-.156.283-.3.43-.453q3.793-3.8,7.6-7.587c.341-.339.63-.807,1.227-.736l1.006.271a6.5,6.5,0,0,1,3.737,1.3" transform="translate(-44.758 -7.283)" fill="#fee052"/><path d="M146.251,39.4l.42.229a25.732,25.732,0,0,1,2.311,4.228l-8.745,5.257c-1,1.093-2.407,1.582-3.618,2.359-.836.536-1.715,1.011-2.558,1.543-.554.273-1.052.65-1.61.909-.33.152-.723.527-1.062-.021.278-.918,1.222-1.167,1.816-1.772,3.859-3.935,7.773-7.816,11.676-11.708.4-.4.748-.9,1.37-1.022" transform="translate(-39.498 -11.846)" fill="#dc3033"/><path d="M144.749,34.041Q138.02,40.8,131.283,47.548a9.418,9.418,0,0,1-1.311.932,2.374,2.374,0,0,1-2.871-.667,3.069,3.069,0,0,1-.364-3.377,8.727,8.727,0,0,1,1.689-1.976c1.448-1.355,2.809-2.8,4.231-4.18.344-.334.618-.8,1.2-.776l6.427-6.456,9.539-9.489a10.876,10.876,0,0,1,1.918,1.873l-9.444,9.54c.718.561,1.687.592,2.449,1.067" transform="translate(-37.996 -6.481)" fill="#3d4159"/><path d="M167.816,25.091a25.751,25.751,0,0,1-3.737-1.3,8.1,8.1,0,0,1,3.482-1.948,14.01,14.01,0,0,0,.255,3.251" transform="translate(-49.325 -6.565)" fill="#dd3133"/><path d="M130.383,43.7c-1.624,1.748-3.292,3.451-5.067,5.047a8.136,8.136,0,0,0-2.042.907,3.544,3.544,0,0,0,.968,6.419A3.282,3.282,0,0,0,128,54.822a6.814,6.814,0,0,1,.953-1.147,53.922,53.922,0,0,1,6.306-3.725,10.386,10.386,0,1,1-20.316,4.08A10.328,10.328,0,0,1,130.383,43.7" transform="translate(-34.519 -12.678)" fill="#f1efeb"/><path d="M80.056,76.581c.263,1.965-.4,3.3-1.976,3.983a3.292,3.292,0,0,1-3.175-5.7,3.123,3.123,0,0,1,4.718.907c.117.237-.028.316-.22.367-.293-.019-.547-.188-.835-.225a1.117,1.117,0,0,0-1.242.618.9.9,0,0,0,.346,1.2.963.963,0,0,0,1.342-.159,3.674,3.674,0,0,0,.334-.366c.237-.206.246-.675.708-.627" transform="translate(-22.116 -22.292)" fill="#3d4159"/><path d="M82.5,77.278l-.426.734a.946.946,0,0,1-.218-1.274l.211-.266a.955.955,0,0,1,.434.8" transform="translate(-24.559 -22.989)" fill="#63677b"/><path d="M49.443,80.8a3.487,3.487,0,0,1-3.328-3.365A3.341,3.341,0,1,1,49.443,80.8" transform="translate(-13.863 -22.289)" fill="#3d4159"/><path d="M131.722,56.5a3.8,3.8,0,0,1-4.591,2.791,3.9,3.9,0,0,1,.955-7.716c-.306.332-.592.683-.92.991a2.867,2.867,0,0,0-.978,3.416,2.707,2.707,0,0,0,3.077,1.52c1.039.206,1.53-.934,2.457-1" transform="translate(-37.289 -15.502)" fill="#f64f4f"/><path d="M80.824,76.634l.218,1.274c-.441.832-1.063,1.263-2,.812a1.341,1.341,0,0,1-.534-1.985c.515-.783,1.3-.817,2.317-.1" transform="translate(-23.528 -22.883)" fill="#fcfcfc"/><path d="M50.642,77.53c.087-.94.559-1.444,1.446-1.42a1.272,1.272,0,0,1,1.341,1.329,1.294,1.294,0,0,1-1.371,1.432,1.333,1.333,0,0,1-1.416-1.341" transform="translate(-15.224 -22.88)" fill="#fcfcfc"/></g></svg>