<svg xmlns="http://www.w3.org/2000/svg" xmlns:xlink="http://www.w3.org/1999/xlink" width="86" height="86" viewBox="0 0 86 86"><defs><clipPath id="a"><rect width="66.847" height="67.215" fill="none"/></clipPath></defs><g transform="translate(5102 7323)"><rect width="86" height="86" transform="translate(-5102 -7323)" fill="none"/><g transform="translate(-5086 -7306)"><g transform="translate(-7.024 -7.063)" clip-path="url(#a)"><path d="M74.73,83.474c0-1.255-.012-2.511.007-3.766.006-.372-.031-.55-.489-.542-1.838.031-3.677.025-5.515,0-.4,0-.472.13-.468.493.017,1.793-.006,3.587.018,5.38.006.439-.058.615-.562.608-1.6-.023-1.6,0-1.6-1.577,0-1.435-.018-2.87.011-4.3.009-.444-.066-.613-.566-.6-1.793.034-3.587.024-5.38,0-.386,0-.612.053-.522.5a.35.35,0,0,1,0,.067c-.017,1.79-.016,1.78-1.837,1.606-.283-.027-.326-.13-.319-.368.013-.448-.014-.9.01-1.345.018-.332-.059-.463-.433-.459q-2.791.031-5.583,0c-.419-.006-.458.159-.455.506.015,1.816-.006,3.632.016,5.447,0,.4-.075.527-.506.527-1.656,0-1.656.017-1.656-1.655,0-1.39-.024-2.78.013-4.169.013-.515-.108-.685-.648-.657a5.3,5.3,0,0,1-4.621-2,5.361,5.361,0,0,1,2.906-8.587A.731.731,0,0,0,47.161,68,8.574,8.574,0,0,1,58.6,62.617a.537.537,0,0,0,.794-.243,10.746,10.746,0,0,1,19.449,4.077c.143.628-.041,1.381.24,1.91s1.118.491,1.662.832a5.383,5.383,0,0,1-2.661,9.982c-1.206.032-1.206.032-1.206,1.22,0,2.286-.013,4.573.012,6.86,0,.452-.132.545-.557.543-1.607-.009-1.607.007-1.607-1.567Z" transform="translate(-29.425 -39.959)"/><path d="M161.564,152.6c.827,0,1.54.018,2.251-.007.357-.013.495.058.5.463.022,1.7.038,1.7-1.679,1.7h-1.111c.418.417.735.765,1.086,1.075.27.238.231.387-.006.636-1.186,1.243-1.178,1.25-2.389.032l-.094-.1c-1.743-1.749-1.744-1.751-4.238-1.644-.162.007-.379-.086-.452.164-.064.221.124.315.244.437.87.874,1.735,1.752,2.617,2.612.236.23.281.365.024.637-1.187,1.257-1.177,1.267-2.39.055q-.9-.9-1.809-1.8c-.123-.123-.232-.295-.449-.2-.194.085-.125.268-.126.412-.007.762.012,1.525-.011,2.286a.8.8,0,0,0,.3.629c.764.757,1.512,1.531,2.291,2.272.279.265.285.432,0,.683-.405.351-.748,1-1.171,1.044-.445.051-.763-.661-1.167-1.008-.049-.041-.1-.081-.245-.2,0,.8-.018,1.527.008,2.25.013.36-.064.493-.465.5-1.7.022-1.7.037-1.7-1.68v-1.1c-.4.393-.732.694-1.031,1.026-.232.258-.406.363-.679.036-.355-.425-1.012-.788-1.054-1.223-.033-.351.655-.77,1.023-1.159a.346.346,0,0,1,.048-.047,3.846,3.846,0,0,0,1.691-4.152c-.036-.2.135-.478-.17-.581-.246-.083-.349.159-.482.29-.861.85-1.721,1.7-2.565,2.57-.232.238-.368.271-.635.016-1.25-1.19-1.26-1.179-.052-2.388l1.805-1.808c.124-.124.293-.234.194-.45-.088-.191-.271-.121-.415-.122-.762-.007-1.525.012-2.286-.011a.8.8,0,0,0-.628.308c-.743.747-1.5,1.482-2.227,2.242-.259.27-.433.4-.729.036-.34-.413-1-.751-1.042-1.171-.045-.439.664-.764,1.013-1.167.041-.048.079-.1.191-.24-.824,0-1.572-.014-2.319.006-.311.009-.41-.068-.424-.4-.071-1.758-.083-1.757,1.685-1.757h1.106c-.418-.418-.736-.767-1.088-1.078-.269-.238-.231-.386.007-.634,1.183-1.237,1.175-1.245,2.388-.032l.1.1c1.753,1.753,1.753,1.754,4.236,1.646.162-.007.379.084.452-.165.064-.22-.122-.317-.243-.438-.869-.874-1.735-1.751-2.617-2.613-.234-.228-.282-.362-.023-.634,1.193-1.254,1.182-1.265,2.39-.056q.9.9,1.808,1.8c.123.123.231.3.447.2.193-.086.123-.27.124-.413.007-.762-.012-1.525.011-2.286a.8.8,0,0,0-.3-.63c-.763-.758-1.512-1.532-2.291-2.273-.279-.266-.283-.431.006-.681.405-.351.749-1,1.172-1.044.445-.05.764.661,1.168,1.008.048.041.1.08.243.2,0-.825.014-1.572-.006-2.318-.008-.309.065-.411.4-.425,1.759-.072,1.759-.084,1.759,1.683v1.1c.433-.431.794-.767,1.128-1.129.2-.218.324-.189.539,0,1.332,1.186,1.337,1.18.079,2.438l-.1.1c-1.752,1.752-1.753,1.752-1.647,4.236.007.162-.085.379.164.453.22.065.317-.121.439-.242.874-.869,1.753-1.734,2.613-2.617.23-.236.364-.281.636-.026,1.265,1.184,1.275,1.174.058,2.391q-.9.9-1.8,1.808c-.123.123-.3.229-.2.447.085.2.267.126.412.127.762.007,1.525-.012,2.286.011a.8.8,0,0,0,.631-.3c.757-.765,1.531-1.512,2.274-2.29.261-.274.428-.3.683,0,.35.406.992.748,1.043,1.173.054.449-.659.764-1,1.167-.042.049-.083.1-.207.248" transform="translate(-97.473 -98.313)"/><path d="M15.6,159.553c1.231,2.488,2.519,4.865,3.6,7.331a6.248,6.248,0,0,1-5.64,8.688c-2.33.046-4.662.039-6.992,0a6.278,6.278,0,0,1-5.609-8.989c1.111-2.34,2.3-4.641,3.495-7.029L7.577,163.7l2.449-4.264,2.449,4.262,3.127-4.145" transform="translate(-0.237 -110.537)"/><path d="M168.777,14.134a13.528,13.528,0,0,1,1.5-5.288A38.426,38.426,0,0,1,176.034.224c.153-.176.253-.364.5-.07,2.988,3.57,5.7,7.311,6.961,11.879a7.558,7.558,0,1,1-14.718,2.1" transform="translate(-117.013 0)"/><path d="M32.156,28.032a5.379,5.379,0,1,1-5.35-5.408,5.394,5.394,0,0,1,5.35,5.408" transform="translate(-14.835 -15.685)"/><path d="M88.106,8.6a30.473,30.473,0,0,1,14.914,4.5c.444.266.545.47.209.886-.307.38-.5,1.047-.855,1.137s-.836-.4-1.263-.632a28.7,28.7,0,0,0-22.844-2.422c-.647.194-.859.058-1.043-.564-.388-1.309-.427-1.3.824-1.658A34.31,34.31,0,0,1,88.106,8.6" transform="translate(-53.373 -5.962)"/><path d="M81.084,202.126a31.13,31.13,0,0,1-11.284-2.3c-.36-.145-.5-.269-.294-.657.253-.468.332-1.159.711-1.394.361-.225.918.276,1.394.442a28.981,28.981,0,0,0,20.908-.388c.345-.137.509-.151.685.258.678,1.576.7,1.568-.917,2.152a32.13,32.13,0,0,1-11.2,1.884" transform="translate(-48.121 -137.079)"/><path d="M7.36,87.043a30.643,30.643,0,0,1,1.453-8.628c.14-.439.263-.657.763-.413.437.213,1.1.212,1.327.539.251.354-.178.9-.3,1.368a28.934,28.934,0,0,0,1.046,18.822c.175.434.091.6-.328.775-1.5.636-1.5.652-2.042-.853A32.844,32.844,0,0,1,7.36,87.043" transform="translate(-5.103 -54.008)"/><path d="M200.936,87.735a32.31,32.31,0,0,1-2.293,12.154c-.174.436-.354.455-.716.269-.455-.234-1.134-.312-1.339-.673-.215-.378.273-.922.44-1.4a29,29,0,0,0,.4-18.719c-.143-.461-.113-.646.381-.8,1.523-.481,1.5-.5,1.947,1.051a30.956,30.956,0,0,1,1.183,8.118" transform="translate(-136.256 -54.27)"/><path d="M91.549,149.352c0-2.309.012-4.617-.011-6.926,0-.438.11-.554.549-.551,1.614.01,1.614-.007,1.614,1.627,0,4.281-.009,8.562.013,12.843,0,.5-.114.631-.618.62-1.546-.031-1.547-.006-1.547-1.562v-6.052" transform="translate(-63.463 -98.362)"/><path d="M12.5,15.344c-1-1.013-1.893-1.93-2.808-2.822-.255-.248-.236-.393.013-.615.417-.371.8-1.063,1.213-1.076.39-.013.807.672,1.2,1.059.513.5,1,1.032,1.53,1.512.3.267.256.416-.009.672-.4.388-.75.828-1.143,1.269" transform="translate(-6.592 -7.509)" fill="#010101"/><path d="M57.033,10.478c.532.514,1.317.934,1.434,1.495.094.448-.795.906-1.226,1.379-.151.165-.316.318-.474.476C55.493,15.1,55.5,15.1,54.3,13.75c-.194-.217-.194-.32.012-.524.925-.912,1.831-1.843,2.724-2.748" transform="translate(-37.545 -7.264)" fill="#010101"/><path d="M8.959,58.332c.987-.973,1.918-1.879,2.832-2.8.2-.2.3-.211.524-.015,1.352,1.205,1.357,1.2.082,2.472-.523.523-1.055,1.037-1.563,1.575-.214.227-.351.24-.574.007-.4-.419-.841-.8-1.3-1.238" transform="translate(-6.211 -38.39)" fill="#010101"/><path d="M53.563,56.729c.471-.426.935-.814,1.36-1.243.23-.232.344-.144.525.04.816.831,1.635,1.661,2.476,2.468.267.256.218.4-.026.623-.416.372-.776,1.018-1.223,1.078-.33.044-.765-.655-1.147-1.029-.624-.611-1.245-1.226-1.965-1.938" transform="translate(-37.135 -38.372)" fill="#010101"/><path d="M35.411,3.589c0-.582.016-1.166-.007-1.748-.012-.3.1-.359.382-.374,1.777-.092,1.777-.1,1.777,1.662,0,.739-.021,1.48.009,2.218.015.364-.111.435-.451.442-1.71.035-1.71.046-1.71-1.663V3.589" transform="translate(-24.545 -0.996)"/><path d="M2.2,38.789H1.661c-1.7,0-1.8-.14-1.566-1.874.034-.25.132-.281.336-.28,1.21.005,2.42.013,3.63,0,.326,0,.341.143.353.4.083,1.759.088,1.758-1.678,1.758Z" transform="translate(0 -25.395)"/><path d="M65.627,36.636c.56,0,1.121.017,1.68-.006.333-.014.452.062.46.433.04,1.726.054,1.725-1.649,1.725-.739,0-1.48-.015-2.218.007-.332.01-.452-.062-.46-.433-.04-1.726-.054-1.726,1.649-1.726h.538" transform="translate(-43.976 -25.394)"/><path d="M37.569,66.808v.538c0,1.778,0,1.771-1.814,1.625-.255-.021-.346-.078-.344-.343q.018-1.815,0-3.63c0-.259.074-.378.34-.34a.378.378,0,0,0,.067,0c1.751-.087,1.751-.088,1.751,1.68Z" transform="translate(-24.55 -44.807)"/><path d="M63.484,157.97c0-.582.016-1.166-.007-1.748-.012-.3.1-.359.382-.374,1.777-.092,1.777-.1,1.777,1.662,0,.739-.021,1.48.009,2.218.015.364-.111.435-.451.442-1.71.035-1.71.046-1.71-1.663v-.538" transform="translate(-44.008 -108.028)"/><path d="M119.629,164.987c0-.582.016-1.166-.007-1.748-.012-.3.1-.359.382-.374,1.777-.092,1.777-.1,1.777,1.662,0,.739-.021,1.48.009,2.218.014.364-.111.435-.452.442-1.71.035-1.71.046-1.71-1.663v-.538" transform="translate(-82.933 -112.893)"/><path d="M67.705,81.911c-4.977,0-9.953.009-14.93,0a3.222,3.222,0,1,1,.1-6.437c.593.017.854-.053.963-.766A6.438,6.438,0,0,1,63.681,70c.374.231.748.734,1.122.615.284-.091.406-.691.6-1.066a8.6,8.6,0,0,1,16.282,4.775c0,.022-.008.044-.011.066-.147,1.068-.147,1.068.929,1.066a3.231,3.231,0,1,1,.037,6.45q-7.465.008-14.93,0" transform="translate(-34.288 -44.843)" fill="#e5e8ec"/><path d="M177.945,178.095a1.073,1.073,0,1,1-1.043-1.085,1.084,1.084,0,0,1,1.043,1.085" transform="translate(-121.882 -122.721)" fill="#f8d46e"/><path d="M24.573,173.5c1.034,1.828,2.038,3.493,2.93,5.216a3.046,3.046,0,0,1-.936,3.792,3.261,3.261,0,0,1-3.989,0,3.048,3.048,0,0,1-.935-3.793c.893-1.722,1.9-3.388,2.931-5.215" transform="translate(-14.784 -120.285)" fill="#ec5565"/><path d="M9.664,173.11c.513.684.955,1.3,1.429,1.892.2.247.049.407-.055.6a17.314,17.314,0,0,0-1.228,2.308,5.237,5.237,0,0,0,.22,4.174c.092.2.278.355.256.6a4.016,4.016,0,0,1-2.747-5.149,44.437,44.437,0,0,1,2.126-4.426" transform="translate(-5.073 -120.017)" fill="#ee7284"/><path d="M45.04,182.655a5.5,5.5,0,0,0-.335-6.361,1.343,1.343,0,0,1,.122-2.006,10.476,10.476,0,0,0,.9-1.152c.756,1.739,1.886,3.219,2.263,5.028a3.942,3.942,0,0,1-2.946,4.491" transform="translate(-30.724 -120.035)" fill="#ee7284"/><path d="M186.562,22.081a5.385,5.385,0,1,1-10.681-.95,13.083,13.083,0,0,1,.916-3.073,33.119,33.119,0,0,1,4.094-6.749c.135-.179.238-.482.516-.1,2.075,2.842,4.068,5.729,4.937,9.215a6.427,6.427,0,0,1,.217,1.658" transform="translate(-121.886 -7.643)" fill="#69d5f3"/><path d="M34.87,32.856a3.227,3.227,0,1,1-3.206-3.213,3.242,3.242,0,0,1,3.206,3.213" transform="translate(-19.701 -20.551)" fill="#fbd670"/></g></g></g></svg>