<svg xmlns="http://www.w3.org/2000/svg" xmlns:xlink="http://www.w3.org/1999/xlink" width="128" height="128.018" viewBox="0 0 128 128.018"><defs><clipPath id="a"><rect width="128" height="128.018" fill="none"/></clipPath></defs><g clip-path="url(#a)"><path d="M68.578,0h.749c1.841.276,3.707.229,5.552.424A49.8,49.8,0,0,1,88.3,4.116a63.6,63.6,0,0,1,20.26,13.16,66.352,66.352,0,0,1,13.193,17.691,50.162,50.162,0,0,1,2.283,5.122c.188.492.472,1,.133,1.549-.791.556-1.23-.106-1.673-.54-2.633-2.588-5.261-5.184-7.835-7.831a55.8,55.8,0,0,1-5.163-5.376c-.258-.348-.72-.4-1.042-.663a4.508,4.508,0,0,0-4.056-1.933c-2.31-.011-4.624.112-6.932-.088a5.855,5.855,0,0,1-1.62-1.309q-4.184-4-8.193-8.184A5.758,5.758,0,0,0,85.826,14.1a2.74,2.74,0,0,1-.247-.279c-1.705-2.079-3.746-2.064-5.394.079-1.317,1.712-2.512,3.514-3.791,5.254a32.383,32.383,0,0,1-2.349,3.057,10.664,10.664,0,0,1-4.971,2.938c-.917.268-1.821.584-2.724.895-3.2,1.1-6.462.841-9.732.53-.46-.087-.642-.445-.853-.813-1.108-1.924-2.048-2.319-4.177-1.774a1.8,1.8,0,0,1-.97.07c-.908-.29-1.183-1.383-2.109-1.652a4.91,4.91,0,0,0-3.723-1.957c-1.3-.955-2.143-2.4-3.506-3.292A4.238,4.238,0,0,0,38.7,15.448,3.224,3.224,0,0,0,35.191,18.8c-.057.683.063,1.486-.938,1.64-.47-.011-.727-.364-1.02-.65a3.15,3.15,0,0,0-3.562-.722c-1.36.523-1.706,1.685-1.707,3.031q-.006,8.593,0,17.186a16.8,16.8,0,0,1-.052,1.991,2.625,2.625,0,0,1-4.139,2.035c-.86-.5-1.645-1.126-2.519-1.606a4.444,4.444,0,0,0-5.045.237,2.95,2.95,0,0,0-.361,4.807c.205.205.43.391.625.606.437.5.6,1.214,1.184,1.608,2.109,2.106,4.329,4.1,6.428,6.213a34.584,34.584,0,0,0,3.669,3.672,19.907,19.907,0,0,1,1.713,9.386,4.079,4.079,0,0,1-.32,1.683,2.195,2.195,0,0,1-1.213.742,2.745,2.745,0,0,0-2.625,1.9,3.061,3.061,0,0,0,.805,3.4c.313.3.732.576.628,1.127a2.681,2.681,0,0,1-1.836.851,3,3,0,0,0-1.852,5.212,1.03,1.03,0,0,1,.392,1.309A17.715,17.715,0,0,1,20,85.168c-1.873.205-2.613.781-3.1,2.419a3.223,3.223,0,0,0,3.178,3.72c.763.063,1.719-.323,2.181.714a1.047,1.047,0,0,1-.486.807c-2.173,1.933-2.158,3.679.045,5.655.27.862,1.093,1.212,1.669,1.788,1.644,1.65,3.31,3.28,4.931,4.952,6.254,6.45,12.921,12.481,19.169,18.936.477.493,1.3.929.724,1.865a1.483,1.483,0,0,1-1.432.064A65.189,65.189,0,0,1,27.013,116.7a67.778,67.778,0,0,1-11.13-9.947A59.856,59.856,0,0,1,7.836,95.522,63.711,63.711,0,0,1,.733,76.17,37.3,37.3,0,0,1,.2,70.725,101.837,101.837,0,0,1,.624,52.563,55.525,55.525,0,0,1,5.131,37.686,62.745,62.745,0,0,1,15.517,21.471,64.388,64.388,0,0,1,30.835,8.631,62.184,62.184,0,0,1,51.559.654,59.449,59.449,0,0,1,58,.123c.281-.021.584.091.838-.123h1a.328.328,0,0,0,.5,0h1.249a2.624,2.624,0,0,0,1.747,0h1.5A2.624,2.624,0,0,0,66.58,0h1.249a.58.58,0,0,0,.749,0" transform="translate(0)" fill="#25e0ac"/><path d="M60.927,141.664c-3.311-3.448-6.656-6.861-10.161-10.115-1.188-1.1-2.323-2.263-3.471-3.409q-6.14-6.126-12.267-12.262c-.379-.38-.707-.81-1.059-1.217.262-.36.642-.308,1.018-.3,6.316.054,12.632,0,18.948.031a4.812,4.812,0,0,1,2.316.336,2.632,2.632,0,0,1,1.142,3.7c-.489.87-1.111,1.657-1.613,2.519a4.56,4.56,0,0,0,.355,5.459,2.815,2.815,0,0,0,4.455.154,44.709,44.709,0,0,0,3.5-4.685c.714-.969,1.355-2,2.089-2.947a11,11,0,0,1,5.507-4.081c3.493-1.076,6.929-2.365,10.691-1.962a5.423,5.423,0,0,1,1.71.261c.612.292.662.919.834,1.457.823,2.581,3.207,3.224,5.239,1.407.329-.293.584-.734,1.134-.66.671.433.739,1.154.884,1.839a3.01,3.01,0,0,0,2.293,2.773,3.063,3.063,0,0,0,3.179-1.195c.389-.425.741-.954,1.446-.54.426.439.33,1,.352,1.531.04.952-.049,1.911.055,2.859A2.844,2.844,0,0,0,103,125.169c1.875-.589,2.428-1.374,2.56-3.451.045-.71-.274-1.664.892-1.871.4.1.578.443.814.73a3.065,3.065,0,0,0,3.643,1.125c1.249-.443,1.856-1.39,1.865-3.057.031-6.067,0-12.135.017-18.2a3.358,3.358,0,0,1,.756-2.549,2.518,2.518,0,0,1,3.156-.631,26.312,26.312,0,0,1,2.642,1.646,4.672,4.672,0,0,0,4.3.428c2.641-.994,3.126-3.844.927-5.6-2.013-1.606-4.132-3.081-6.267-4.514a13.416,13.416,0,0,1-5.569-7.67,26.149,26.149,0,0,1-1.455-9.778,4.944,4.944,0,0,1,.267-1.709,1.6,1.6,0,0,1,1.525-.861c1.786-.182,2.712-.923,3.072-2.392.322-1.317-.212-2.407-1.7-3.395-.35-.233-.745-.4-.665-.926.292-.531.817-.484,1.3-.517s.994.016,1.482-.059A2.882,2.882,0,0,0,119.1,59.7a2.978,2.978,0,0,0-.97-3.127c-.377-.357-1.006-.45-1.131-1.074.132-.707.7-.719,1.235-.754.862-.058,1.727-.018,2.59-.037,2.253-.049,3.174-.773,3.766-2.955a3.293,3.293,0,0,0-3.244-3.174,2.443,2.443,0,0,1-1.856-.869c-.084-.492.278-.758.564-1.041a3.356,3.356,0,0,0,1.139-2.893.953.953,0,0,1,.372-.986c.4.352.833.681,1.212,1.06q6.349,6.331,12.687,12.674c.351.351.732.673,1.1,1.008.665.011.914.482,1.092,1.011a43.911,43.911,0,0,1,2.691,12.919,18.024,18.024,0,0,0,.231,3.306v1.747a1.966,1.966,0,0,0,0,1.5v3.995a1.966,1.966,0,0,0,0,1.5V85c-.259,1.843-.248,3.705-.413,5.555a44.582,44.582,0,0,1-2.545,10.511,62.364,62.364,0,0,1-9.395,17.5,64.928,64.928,0,0,1-20.026,17.5,57.881,57.881,0,0,1-20.462,7.2,87.5,87.5,0,0,1-15.911.421,51.519,51.519,0,0,1-8.3-.715,13.562,13.562,0,0,1-1.689-.434c-.442-.153-.875-.315-.913-.885" transform="translate(-12.578 -15.844)" fill="#029f81"/><path d="M104.7,0a1.577,1.577,0,0,1-1.747,0Z" transform="translate(-38.123)" fill="#29c9a9"/><path d="M99.549,0A1.577,1.577,0,0,1,97.8,0Z" transform="translate(-36.214)" fill="#29c8a9"/><path d="M203.118,97.842a1.24,1.24,0,0,1,0-1.5Z" transform="translate(-75.118 -35.675)" fill="#11aa8d"/><path d="M203.117,106.565a1.237,1.237,0,0,1,0-1.5Z" transform="translate(-75.117 -38.905)" fill="#1caf93"/><path d="M108.463,0c-.249.369-.5.286-.749,0Z" transform="translate(-39.885)" fill="#92e3d3"/><path d="M95.525,0c-.166.242-.333.285-.5,0Z" transform="translate(-35.187)" fill="#89e1d0"/><path d="M67.086,31.786a3.913,3.913,0,0,1,3.953,1.875c1.174,1.082.6,2.472.658,3.749-.021,3.009-.016,6.019,0,9.029a6.238,6.238,0,0,0,.707,3.21,2.123,2.123,0,0,0,1.535.392c1.164.018,2.329,0,3.494.024a2.139,2.139,0,0,1,1.674.688.994.994,0,0,1,.208.576c.011,3.63.519,7.29-.628,10.853-.712,3.116-1.374,6.249-2.237,9.327a31.6,31.6,0,0,0-.815,9.018c.008.772.134,1.6-.523,2.231a2.055,2.055,0,0,1-1.574.011,23.114,23.114,0,0,0-6.774-.583c-1.572.04-3.142-.025-4.71-.1a2.772,2.772,0,0,1-1.657-.4,2.9,2.9,0,0,1-.4-1.79q-.032-13.868-.005-27.736a13.07,13.07,0,0,1,.113-1.361.768.768,0,0,1,.251-.374,4,4,0,0,1,1.771-.371,1.438,1.438,0,0,0,1.208-.456,8.42,8.42,0,0,0,.615-3.283q-.006-4.177,0-8.354c.06-.911-.308-1.769-.331-2.67a10.326,10.326,0,0,1,.2-1.107,8.023,8.023,0,0,1,1.369-2.045,1.464,1.464,0,0,1,1.9-.347" transform="translate(-22.21 -11.689)" fill="#fecf96"/><path d="M141.912,33.745c.44,2.615-.008,3.75-1.892,4.8a1.141,1.141,0,0,1-1.189.577c-2.2.011-4.4,0-6.6.005-3.06.037-6.132-.193-9.162.429-.936-.011-1.293.492-1.274,1.383a2.5,2.5,0,0,1-.438,1.737,1.2,1.2,0,0,1-.4.2,5.657,5.657,0,0,1-2.1.207q-13.471.013-26.942,0a4.438,4.438,0,0,1-2.546-.415,1.437,1.437,0,0,1-.4-1.131c-.079-2.432-.065-4.864-.011-7.3a1.4,1.4,0,0,1,.474-1.22c.5.006,1-.025,1.5.024a26.314,26.314,0,0,0,11.693-1.9,10.017,10.017,0,0,0,4.9-3.683q2.382-3.358,4.781-6.7,3.347-4.684,6.926-.248c1.562,1.855,1.368,3.8.265,5.769-.385.688-.875,1.313-1.278,1.991-.943,1.586-.427,2.585,1.411,2.629,2.7.064,5.4.023,8.1.017a4.523,4.523,0,0,1,2.508.584c2.516.022,5.033.089,7.547.051a4.3,4.3,0,0,1,4.135,2.181" transform="translate(-32.924 -6.8)" fill="#90410a"/><path d="M83.108,149.172a6.223,6.223,0,0,1-.872.023c-4.078-.455-7.9.621-11.686,1.931a9.619,9.619,0,0,0-4.822,3.581q-2.425,3.4-4.853,6.8c-1.613,2.258-3.181,2.883-5.008,2a5.06,5.06,0,0,1-2.38-5.661,11.618,11.618,0,0,1,1.951-3.451c.545-.835,1-1.649.457-2.651a2.413,2.413,0,0,0-2.465-1.094c-5.988.009-11.976,0-17.964.009a6.985,6.985,0,0,1-2.572-.366,3.772,3.772,0,0,1-1.744-4.032,3.227,3.227,0,0,1,2.417-2.666,1.12,1.12,0,0,1,.653-.584,1.862,1.862,0,0,1,1.1,0c1.611.509,3.174-.05,4.756-.182a4.26,4.26,0,0,1,.44,0,34.708,34.708,0,0,0,7.281.4,6.42,6.42,0,0,0,3.106-.669,2.145,2.145,0,0,0,.4-1.516,2.06,2.06,0,0,1,.48-1.488,2.249,2.249,0,0,1,1.739-.52q14.059-.043,28.119.006c.657,0,1.355-.019,1.767.669a4.756,4.756,0,0,1,.263,2.195c.018,1.9.037,3.809-.016,5.712-.015.564.06,1.187-.539,1.561" transform="translate(-11.503 -51.472)" fill="#f3a260"/><path d="M46.393,49.633a3.367,3.367,0,0,1,.26,1.707q0,14.6,0,29.208c-.268.418-.7.4-1.113.4q-3.672.023-7.344,0c-.411,0-.844.017-1.118-.395-.007-1.111-.1-2.229-.005-3.332.229-2.722-.751-5.162-1.639-7.631a1.638,1.638,0,0,1-.288-.4,15.07,15.07,0,0,0-6.131-6.815,35.261,35.261,0,0,1-3.167-2.6c-.438-.465-1.04-.754-1.4-1.3-2.142-1.768-2.619-3.586-1.4-5.341a5.184,5.184,0,0,1,6.594-1.384,28.528,28.528,0,0,1,2.394,1.567,2.13,2.13,0,0,0,3.577-1.928c-.006-6.186-.016-12.371,0-18.556.009-2.739,1.841-4.348,4.376-3.926a4.063,4.063,0,0,1,2.67,2.049c.671.181.773.7.774,1.288a13.462,13.462,0,0,0-.048,4.645c-.276,3.7-.094,7.4-.1,11.094,0,.863.523,1.23,1.36,1.3.589.048,1.27-.259,1.747.357" transform="translate(-8.288 -10.677)" fill="#fedaa8"/><path d="M45.022,110.964l9.575-.007c2.326.018,4.655.118,6.977.031a23.938,23.938,0,0,1,7.5.94c.493-.489,1.07-.32,1.64-.213,2.324.439,4.636.975,6.895,1.64,3.015.887,6.063.782,9.126.8a3.035,3.035,0,0,1,2.248.491,1.184,1.184,0,0,1,.162,1.064c-.737,2.886-.432,5.829-.489,8.752a20.711,20.711,0,0,1-.1,2.1c0,.155,0,.309,0,.463a7.536,7.536,0,0,1,.031,1.464c-.063.448-.111.915-.729.935a2.89,2.89,0,0,0-1.465-.2q-14.1,0-28.2,0a3.042,3.042,0,0,0-1.579.264.775.775,0,0,1-.315-.329,6.265,6.265,0,0,1-.106-3.407,24.21,24.21,0,0,0-.068-7.294c0-.149,0-.3-.009-.448-.183-1.485-.06-2.976-.111-4.463-.047-1.353-.351-1.678-1.718-1.7-2.9-.043-5.792.016-8.687-.035-.626-.012-1.367.161-1.749-.611l1.174-.239" transform="translate(-16.236 -41.086)" fill="#ee9443"/><path d="M35.992,129.181a3.549,3.549,0,0,1-1.786-3.991,3.42,3.42,0,0,1,3.064-2.8c.831-.22,1.753.154,2.532-.393a3.779,3.779,0,0,1,1.51-.325,4.329,4.329,0,0,1,.452,0,25.439,25.439,0,0,0,9.226-.031c.71.02,1.464-.123,1.994.547l.013.02c.263,2.234.068,4.477.109,6.715.017.934-.732.873-1.343.877-3.077.022-6.155.008-9.233.01H41.409a21.94,21.94,0,0,0-4.157.261,1.323,1.323,0,0,1-.46-.093,1.361,1.361,0,0,1-.8-.788" transform="translate(-12.626 -45.039)" fill="#ee9443"/><path d="M85.437,39.815q.042,4.738.086,9.476a2.762,2.762,0,0,1-.055,3.487c-1.5-.5-3.049-.144-4.573-.23-.87-.05-1.744-.014-2.616-.017a11.979,11.979,0,0,1-.113-3.072c-.026-3.262-.01-6.525-.01-9.786.253-.9-.185-2.23,1.411-2.322,2.838-1.4,4.9-.539,5.87,2.465" transform="translate(-28.928 -13.587)" fill="#fec373"/><path d="M54.759,118.371l-2,.017a80.713,80.713,0,0,1-9.465,0l-.258-.005c-.373.225-.784.069-1.174.115a.942.942,0,0,1-.889-.343c-1.672-1.02-2.333-2.345-2-4a3.421,3.421,0,0,1,3.037-2.809c3.731.015,7.462.068,11.191.022,1.162-.014,1.646.3,1.585,1.531-.09,1.82-.027,3.647-.029,5.471" transform="translate(-14.4 -41.23)" fill="#e78623"/><path d="M58.314,47.71c-3.482.8-3.731.6-3.73-2.892q0-4.922,0-9.844a20.569,20.569,0,0,0,.125-3.421,2.934,2.934,0,0,1,.119-1.329,2.045,2.045,0,0,0-.252-1.2c.482-.576.2-1.259.241-1.889a3.637,3.637,0,0,1,4.309-3.452c.092,7.44.035,14.881.026,22.321a1.881,1.881,0,0,1-.583,1.7l-.256.006" transform="translate(-20.209 -8.754)" fill="#fecf96"/><path d="M49.931,139.523c0,.091.007.182.011.273q0,1.741-.011,3.48a26.1,26.1,0,0,1-4.684.1,60.79,60.79,0,0,1-6.791-.1l-.262,0a30.9,30.9,0,0,1-5.984,0l-.578.235c-.7-.506-1.5-.173-2.248-.222a3.644,3.644,0,0,1-3.434-4.5c2.734.268,5.475.116,8.213.133,4.565.028,9.132-.006,13.7.019.731,0,1.52-.111,2.072.577" transform="translate(-9.567 -51.393)" fill="#ee9443"/><path d="M60.9,47.731q0-11.194.007-22.389c0-.584-.227-1.288.55-1.628a3.637,3.637,0,0,1,2.678,1.814c1.176,1.342.906,2.921.709,4.475a6.044,6.044,0,0,0-.211,1.209l.015,1.036a14.575,14.575,0,0,0-.121,2.926q0,5.668-.006,11.334a2.21,2.21,0,0,1-.122,1.219l-3.5,0" transform="translate(-22.543 -8.781)" fill="#fec373"/><path d="M50,137.753q-11.329,0-22.659.007c-.565,0-1.226.125-1.323-.737a3.36,3.36,0,0,1,3.274-2.81c1.479-.214,2.98.072,4.457-.186l.267-.013a32.083,32.083,0,0,0,4.366.122c3.468,0,6.936,0,10.4.006a2,2,0,0,1,1.206.13q0,1.74.008,3.48" transform="translate(-9.633 -49.623)" fill="#e78523"/><path d="M146.763,32.781c-3.766.017-7.533.078-11.3.031a1.909,1.909,0,0,1-1.619-2.952,11.6,11.6,0,0,1,1.09-1.658,5.961,5.961,0,0,0,.824-6.411c3.773,3.559,7.424,7.237,11,10.99" transform="translate(-49.456 -8.069)" fill="#029f81"/><path d="M27.909,77.653c2.055,1.453,4.152,2.851,6.151,4.376a8.815,8.815,0,0,1,3.3,5.63c-3.353-3.145-6.589-6.405-9.752-9.74-.025-.227.038-.355.3-.266" transform="translate(-10.222 -28.743)" fill="#03a082"/><path d="M66.553,32.278a10.15,10.15,0,0,1-.16-3.146,8.8,8.8,0,0,0-.339-2.538,18.084,18.084,0,0,1,3.28,3.351,4.21,4.21,0,0,0-2.781,2.334" transform="translate(-24.459 -9.847)" fill="#0aa182"/><path d="M79.352,36.683a5.709,5.709,0,0,0-1.316,1.972l-.161.043a10.026,10.026,0,0,0-.333-3.8,7.57,7.57,0,0,1,1.81,1.789" transform="translate(-28.713 -12.921)" fill="#20a584"/><path d="M35.671,133.881c-1.468.491-2.97.168-4.458.186a7.1,7.1,0,0,1,2.43-.185c.436-.041.914.122,1.28-.263l.747.261" transform="translate(-11.558 -49.477)" fill="#5b9864"/><path d="M41.063,122.165l.787.245.181.094-.178.1-2.72-.023c.584-.413,1.365.081,1.929-.418" transform="translate(-14.491 -45.236)" fill="#77985d"/><path d="M27.185,77.013l-.3.266A3.006,3.006,0,0,1,25.654,75.9a6,6,0,0,1,1.531,1.117" transform="translate(-9.499 -28.103)" fill="#1bac8b"/><path d="M89.42,60.185l.055-3.487,31.711,0c.567.324.518.9.576,1.427.157,1.446.4,1.7,1.878,1.71,3.946.033,7.894-.01,11.841.025.773.007,1.621-.108,2.064.792a3.52,3.52,0,0,1,2.6,3.832,3.631,3.631,0,0,1-3.411,3.2c-.824.043-1.653.017-2.479.022-.343.641-.952.558-1.527.56-2.982.011-5.963-.01-8.944.009-1.753.012-1.958.26-2.016,2.036-.051,1.564.219,3.15-.275,4.69-.336.779-1.063.776-1.7.722-3.9-.333-7.888.219-11.681-1.166a62.31,62.31,0,0,1-7.391-1.747c-3.273-.952-6.577-.753-9.89-.814-.719-.013-1.533.184-2.035-.606,1.1-3.687.571-7.465.625-11.211" transform="translate(-32.879 -20.994)" fill="#773600"/><path d="M152.121,85.743a13.288,13.288,0,0,1,0,1.372c-.421,4.114.582,7.987,1.945,11.808a9.873,9.873,0,0,0,3.71,4.874c2.377,1.677,4.733,3.385,7.11,5.062a3.623,3.623,0,0,1,1.824,3.8,4.015,4.015,0,0,1-3.047,3.141,5.108,5.108,0,0,1-4.429-.535c-.841-.536-1.644-1.135-2.5-1.641a1.987,1.987,0,0,0-3.129,1.548,10.133,10.133,0,0,0-.027,1.246c0,6.028.018,12.057-.012,18.085-.013,2.645-1.915,4.248-4.392,3.76a3.269,3.269,0,0,1-2.683-2.467,1.042,1.042,0,0,1-.272-.371c-.165-4.465-.03-8.931-.07-13.4a8.09,8.09,0,0,0-.669-3.491c-.44-.475-1.031-.411-1.592-.458-.525-.045-1.074-.037-1.372-.6a5.08,5.08,0,0,1-.111-1.608q-.007-14.192,0-28.385a3.373,3.373,0,0,1,.192-1.71,1.2,1.2,0,0,1,1.026-.334c2.7.018,5.4-.082,8.092.052a.873.873,0,0,1,.407.247" transform="translate(-52.723 -31.631)" fill="#c06629"/><path d="M132.535,152.7c-.3.109-.4.4-.56.635a3.61,3.61,0,0,1-6.679-1.427c-.1-1.03-.151-2.063-.336-3.083q-.01-5.6,0-11.206a2.41,2.41,0,0,1,.254-1.565,1.527,1.527,0,0,1,1.172-.266c2,.1,4.016-.268,6,.218.423.45.3,1.017.3,1.543.014,2.577.031,5.155,0,7.731a35.233,35.233,0,0,0,.382,6.329,1.17,1.17,0,0,1-.535,1.091" transform="translate(-46.266 -50.264)" fill="#b1540f"/><path d="M140.212,81.39c0-1.946.05-3.894-.015-5.837-.036-1.078.328-1.456,1.423-1.44,3.889.059,7.778.037,11.667.045,2.4,1,3.412,2.81,2.669,4.839a3.471,3.471,0,0,1-3.167,2.419c-.493.045-.986.093-1.479.139l-.172.005c-2.929-.145-5.86-.03-8.79-.06-.714-.008-1.47.834-2.136-.11" transform="translate(-51.912 -27.443)" fill="#5e2d00"/><path d="M113.723,138.621c.327-.8.042-1.652.2-2.467a1.148,1.148,0,0,1,.773-.34c1.894-.034,3.788-.057,5.682.013a.843.843,0,0,1,.552.247,40.333,40.333,0,0,1,.1,5.22c.032,2.453.008,4.907.008,7.359-.022.454.113.95-.345,1.288a3.626,3.626,0,0,1-3.853,2.1c-1.9-.364-2.86-1.608-3.137-4.064q.008-4.678.015-9.356" transform="translate(-42.104 -50.278)" fill="#984405"/><path d="M156.567,60.3a6.584,6.584,0,0,0-1.969-.219c-4.271.005-8.543-.043-12.813.029-1.287.021-1.725-.418-1.592-1.651a20.218,20.218,0,0,0,.016-2.114h0a1.744,1.744,0,0,1,1.568-.576q10.517-.056,21.034,0a1.658,1.658,0,0,1,1.562.573,3.556,3.556,0,0,1-3.543,3.749c-1.421.072-2.863-.258-4.264.208" transform="translate(-51.903 -20.641)" fill="#5e2d00"/><path d="M146.247,154.351c-.009.1-.02.2-.029.293-.447.727-.151,1.525-.2,2.286a3.53,3.53,0,0,1-2.969,3.439c-.873.255-1.238-.178-1.327-.982a8.023,8.023,0,0,1-.05-.87q-.027-10.147,0-20.293a2.578,2.578,0,0,1,.391-1.784.4.4,0,0,1,.455-.088l3.48.011a2.636,2.636,0,0,1,.118,1.343c.009,5.1,0,10.2.012,15.3a2.636,2.636,0,0,0,.118,1.343" transform="translate(-52.453 -50.476)" fill="#b1540f"/><path d="M140.4,136.132q0,11.227.015,22.454c0,.624-.225,1.412.781,1.551a3.38,3.38,0,0,1-4.276-2.97c-.113-1.489-.04-2.992-.05-4.489q-.1-.408-.211-.815a2.677,2.677,0,0,0,.116-1.344c.01-4.358,0-8.717.009-13.075a4.241,4.241,0,0,1,.077-1.36,3.977,3.977,0,0,1,3.538.05" transform="translate(-50.603 -50.245)" fill="#984405"/><path d="M164.374,54.558l-24.165,0a19.013,19.013,0,0,0-.018-1.969c-.127-1.179.338-1.7,1.523-1.539,2.438-.259,4.883-.052,7.324-.114.705-.018,1.411,0,2.116,0h6.726a19.143,19.143,0,0,1,3.075.088,3.486,3.486,0,0,1,3.418,3.535" transform="translate(-51.903 -18.854)" fill="#773600"/><path d="M171.327,50.84l-3.016.018q-.266-.109,0-.212l1.057-.227c.567.538,1.355.047,1.957.421" transform="translate(-62.274 -18.669)" fill="#566133"/><path d="M124.81,157.561q.124-.512.248-1.025l.093-.179.1.178q0,1.5,0,3c-.408-.6.1-1.4-.435-1.977" transform="translate(-46.215 -57.896)" fill="#686b36"/><path d="M86.908,79.971a1.927,1.927,0,0,0,.248.009c6.275-.535,12.312.746,18.3,2.4.278.077.567.113.85.168a2.947,2.947,0,0,1,.592,1.727c.594,6.184-1.079,12.036-2.593,17.912-.111.434-.254.9-.792,1.028-2.452,0-4.911.118-7.354-.022-2.484-.142-4.837-1.06-7.264-1.57-1.7-.358-3.38-.8-5.069-1.21-.675-7.07,1.452-13.718,3.081-20.441" transform="translate(-30.992 -29.57)" fill="#029f81"/><path d="M78.038,40.907a.18.18,0,0,1,.161-.043q.013,6.605.028,13.21a1.09,1.09,0,0,1-.246-.814q.026-6.177.057-12.353" transform="translate(-28.875 -15.13)" fill="#e6ab63"/><path d="M66.476,54.286q.006-6.369.011-12.738c.083-.164.161-.161.233.008q0,5.709.008,11.419a1.937,1.937,0,0,1-.251,1.311" transform="translate(-24.615 -15.34)" fill="#efbd83"/><path d="M66.709,40.015c-.077,0-.155,0-.233-.008.083-.914-.237-1.862.237-2.742q0,1.374,0,2.749" transform="translate(-24.604 -13.799)" fill="#dec892"/><path d="M152.127,50.979l-9.5.008a2.271,2.271,0,0,1,1.441-.238q4.036,0,8.071.013c.086.051.113.1.082.147s-.06.069-.09.069" transform="translate(-52.811 -18.788)" fill="#984810"/><path d="M157.715,50.992a1.557,1.557,0,0,1,.008-.217l6.715,0c0,.071-.005.141,0,.212l-6.72,0" transform="translate(-58.399 -18.801)" fill="#6b5525"/><path d="M45.876,145.914l11.476,0a1.323,1.323,0,0,1-.452.191q-5.286.017-10.572,0a1.333,1.333,0,0,1-.452-.19" transform="translate(-16.987 -54.028)" fill="#f4a564"/><path d="M35.957,145.915h5.984a15.146,15.146,0,0,1-5.984,0" transform="translate(-13.314 -54.03)" fill="#e4a262"/><path d="M54.813,34.1c-.129,1.581.29,3.19-.244,4.749.131-1.581-.29-3.19.244-4.749" transform="translate(-20.193 -12.625)" fill="#ecd6a5"/><path d="M114.716,104.8c.724-3.1,1.363-6.222,2.2-9.29a23.024,23.024,0,0,0,.6-6.4c-.018-1.66-.006-3.32-.008-4.979a21.567,21.567,0,0,0,7.332,1c1.437-.065,2.885.121,4.328.176A2.12,2.12,0,0,0,130.5,85.1c3.156,0,6.312-.009,9.467,0a2.572,2.572,0,0,1,1.459.171l-9.171.067a2.532,2.532,0,0,0-.124,1.344c-.008,9.65-.021,19.3.017,28.949,0,1.033-.276,1.317-1.311,1.307-5.239-.051-10.48-.022-15.72-.029a1.917,1.917,0,0,1-1.1-.122c.052-4.008-.44-8.047.7-11.992" transform="translate(-42.195 -31.152)" fill="#b1540f"/><path d="M114.046,117.5h16.089c1.888,0,1.889,0,1.889-1.946q0-13.906.006-27.813a2.6,2.6,0,0,1,.251-1.691q.006,15.845.011,31.69l-.268.011-3.489.005q-.129.246-.25,0l-7.006,0c-.073.164-.15.166-.233.007l-7-.021a.661.661,0,0,1,0-.241" transform="translate(-42.226 -31.862)" fill="#b45714"/><path d="M57.118,130.021,45.4,129.993q-.269-.11-.006-.233c3.433,0,6.867-.031,10.3.018,1.063.015,1.488-.307,1.45-1.414-.068-1.941-.016-3.888-.014-5.832.542,2,.109,4.035.236,6.05a2.03,2.03,0,0,1-.251,1.44" transform="translate(-16.762 -45.372)" fill="#f09b4d"/><path d="M45.883,122.532l9.465,0a2.541,2.541,0,0,1-1.567.236c-2.193.009-4.386.006-6.579,0a2.113,2.113,0,0,1-1.319-.234" transform="translate(-16.99 -45.37)" fill="#ed9a45"/><path d="M42.972,134.01c0,.077,0,.156.006.233-1.419-.1-2.865.292-4.262-.23l4.256,0" transform="translate(-14.336 -49.622)" fill="#ce954a"/><path d="M43.451,122.74a.886.886,0,0,0,0-.2l1.276-.017a1.729,1.729,0,0,1-1.272.213" transform="translate(-16.088 -45.37)" fill="#b08f41"/><path d="M148.792,154.378a2.358,2.358,0,0,1-.244-1.564q-.01-8.213,0-16.425a2.454,2.454,0,0,1,.246,1.566q.009,8.211,0,16.422" transform="translate(-54.998 -50.503)" fill="#b16b30"/><path d="M136.662,136.392l.25,0q0,7.081-.008,14.162a2.412,2.412,0,0,1-.244,1.563q0-7.865,0-15.73" transform="translate(-50.603 -50.504)" fill="#9a5d1d"/><path d="M125.167,136.4a2.217,2.217,0,0,1,.233-.007q-.01,6.373-.02,12.747l-.1,0-.1,0q-.011-6.371-.023-12.742" transform="translate(-46.347 -50.505)" fill="#7d5a20"/></g></svg>