<svg xmlns="http://www.w3.org/2000/svg" xmlns:xlink="http://www.w3.org/1999/xlink" width="181" height="195" viewBox="0 0 181 195"><defs><filter id="a" x="0" y="0" width="181" height="195" filterUnits="userSpaceOnUse"><feOffset input="SourceAlpha"/><feGaussianBlur stdDeviation="5.5" result="b"/><feFlood flood-opacity="0.161"/><feComposite operator="in" in2="b"/><feComposite in="SourceGraphic"/></filter></defs><g transform="translate(-259.5 -6048.68)"><g transform="matrix(1, 0, 0, 1, 259.5, 6048.68)" filter="url(#a)"><rect width="148" height="162" rx="19" transform="translate(16.5 16.5)" fill="#25e0ac"/></g><g transform="translate(337.737 6054.18) rotate(30)"><path d="M2.229,11.757,0,17.307l29.4,29.4a4.19,4.19,0,0,0,5.926,0c5.664-4.742,6.607-18.759,2.229-23.138L13.986,0Z" transform="translate(31.652 97.538)" fill="#1e009b"/><path d="M35.327,41.159h0a4.191,4.191,0,0,1-5.926,0L0,11.757,11.757,0l23.57,23.571a12.436,12.436,0,0,1,0,17.588" transform="translate(31.652 103.088)" fill="#4631c8"/><path d="M15.787,4.031,11.757,0,0,11.757l3.2,3.2C4.64,9.485,10.065,5.894,15.787,4.031" transform="translate(31.652 103.088)" fill="#1e009b"/><path d="M31.145,25.892h0a17.935,17.935,0,0,1-25.363,0l-.529-.529A17.935,17.935,0,0,1,5.253,0Z" transform="translate(1.306 85.596)" fill="#f1f1f1"/><path d="M1.052,85.414a3.609,3.609,0,0,0-.975,3.268c.6,2.786,2.6,8.221,9.259,14.885s12.1,8.662,14.885,9.259a3.61,3.61,0,0,0,3.268-.975C60.845,79.334,112.9,61.294,112.9,61.294L82.256,30.647,51.608,0S33.568,52.057,1.052,85.414" transform="translate(2.242 2.901)" fill="#fff"/><path d="M3.339,42.982C.78,49.973-1.812,59.124,1.728,66.315c4.66,9.468,18.128,7.074,26.052,4.37,27.65-9.44,47.849-9.39,47.849-9.39L14.334,0s.092,12.689-11,42.982" transform="translate(39.517 2.9)" fill="#fbfbfb"/><path d="M2.8,1.158C-1.27,3.991-.335,11.369,2.02,15.871A119.325,119.325,0,0,0,23.8,44.775C32.113,53.092,41.6,61.252,52.378,66.2c3.019,1.384,6.681,2.9,10.088,2.5,10.118-1.2,5.288-13.6,2.47-18.937C59.828,40.075,52.506,31.476,44.8,23.771a118.408,118.408,0,0,0-23.412-18.7C17.313,2.684,12.541.332,7.752.025A7.6,7.6,0,0,0,2.8,1.158" transform="translate(49.473 0)" fill="#1e009b"/><path d="M39.826,22C56.168,38.341,65.426,55.58,60.5,60.5S38.341,56.168,22,39.826-3.6,6.244,1.321,1.322,23.483,5.656,39.826,22" transform="translate(53.898 2.323)" fill="#fff"/><path d="M0,0C2.676,7.754,10.307,18.77,20.947,29.41S42.6,47.681,50.357,50.357C47.681,42.6,40.05,31.587,29.41,20.947S7.753,2.676,0,0" transform="translate(54.949 12.74)" fill="#f0f0f0"/><path d="M48.42,33.3C44.1,31.967,37.536,27.431,31.149,21.044S20.232,8.1,18.895,3.782A5.05,5.05,0,0,1,18.819,0,170.068,170.068,0,0,1,1.689,20.9,5.839,5.839,0,0,0,.127,26.2c.625,2.916,2.737,8.872,9.866,16s13.084,9.241,16,9.866a5.84,5.84,0,0,0,5.3-1.562A170.143,170.143,0,0,1,52.236,33.352c-.859.5-2.173.456-3.817-.051" transform="translate(0 65.848)" fill="#4e35e7"/><path d="M.01,0,0,.014A.138.138,0,0,1,.011,0Z" transform="translate(19.122 65.407)" fill="#4e35e7"/><path d="M.121.006.115,0C.08.034.038.061,0,.092L.121.006" transform="translate(52.517 98.908)" fill="#4e35e7"/><path d="M0,.426C.1.284.2.142.3,0A2,2,0,0,0,0,.426" transform="translate(18.819 65.421)"/><path d="M.28,0C.186.066.093.134,0,.2A2.02,2.02,0,0,0,.28,0" transform="translate(52.236 99)"/><path d="M34.71,31.06q-1.072.734-2.14,1.485c0,.007,0,.019,0,.025s-.026,0-.038.006h0c-1.492.424-8.651-2.357-18.283-11.988C4.64,10.985,1.848,3.842,2.252,2.321a.173.173,0,0,0,0-.019.213.213,0,0,1,.006-.038c.009,0,.025,0,.035-.006Q3.045,1.193,3.779.122A3.388,3.388,0,0,0,.661.665C.654.672.649.682.642.689S.635.7.631.7c-.1.142-.2.284-.3.426A5.05,5.05,0,0,0,.4,4.911c1.337,4.319,5.871,10.88,12.254,17.262S25.611,33.1,29.929,34.429c1.644.507,2.958.546,3.817.051.094-.066.187-.134.28-.2.038-.031.08-.058.115-.092.008-.007.017-.012.025-.02a3.381,3.381,0,0,0,.544-3.109" transform="translate(18.491 64.719)" fill="#1e009b"/><path d="M.041.025c0-.006,0-.018,0-.025L0,.031c.012,0,.03,0,.041-.006" transform="translate(51.016 97.263)"/><path d="M0,.062.043,0C.034,0,.018,0,.009.005S0,.046,0,.062" transform="translate(20.743 66.978)"/><path d="M31.246,15.987c-.384-1.793-1.683-5.456-6.068-9.841S17.131.463,15.338.078a3.592,3.592,0,0,0-3.262.96A103.346,103.346,0,0,1,0,11.02,132.613,132.613,0,0,0,9.1,21.086a130.978,130.978,0,0,0,11.3,10.1,103.072,103.072,0,0,1,9.879-11.934,3.591,3.591,0,0,0,.961-3.261" transform="translate(66.792 21.063)" fill="#4e35e7"/><path d="M10.054,5.653c4.162,4.162,6.552,8.522,5.337,9.738s-5.575-1.174-9.738-5.337S-.9,1.532.317.317s5.575,1.174,9.738,5.337" transform="translate(81.207 22.22)" fill="#1e009b"/><path d="M8.055,8.055h0a3.006,3.006,0,0,1-4.251,0L.881,5.131A3.006,3.006,0,0,1,5.131.88L8.055,3.8a3.006,3.006,0,0,1,0,4.251" transform="translate(43.728 115.568)" fill="#f1f1f1"/><path d="M3.786.626A1.951,1.951,0,0,0,.975.572L.631.9A2.007,2.007,0,0,0,.585,3.773L3.693,6.9A2.273,2.273,0,0,0,7,6.8l.177-.2a1.731,1.731,0,0,0-.021-2.325Z" transform="translate(44.261 116.136)" fill="#1e009b"/><path d="M6.444,6.692h0a1.961,1.961,0,0,1-2.825-.055L.522,3.292A1.96,1.96,0,0,1,3.4.628L6.5,3.974a1.96,1.96,0,0,1-.052,2.718" transform="translate(44.655 116.14)" fill="#4631c8"/><path d="M0,1.734A3.359,3.359,0,0,1,.8.7,3.328,3.328,0,0,1,1.908,0a3.33,3.33,0,0,1-.8,1.038A3.36,3.36,0,0,1,0,1.734" transform="translate(47.181 118.979)" fill="#1e009b"/></g></g></svg>