<svg xmlns="http://www.w3.org/2000/svg" xmlns:xlink="http://www.w3.org/1999/xlink" width="144" height="144" viewBox="0 0 144 144"><defs><clipPath id="a"><rect width="105" height="106.628" fill="none"/></clipPath></defs><g transform="translate(-571 -1367)"><g transform="translate(591 1386)"><g clip-path="url(#a)"><path d="M119.879,138.67c-1.009-.5-2.153-.616-3.162-1.149a11.254,11.254,0,0,1-6.4-9.649,1.907,1.907,0,0,0-.635-1.357c-.969-.893-1.955-1.769-2.9-2.689a9.148,9.148,0,0,1-1.272-1.5,3.044,3.044,0,0,1,2.319-4.959c1.833-.211,3.566.4,5.321.771a2.685,2.685,0,0,0,2.322-.416,10.014,10.014,0,0,1,5.545-1.827,3.925,3.925,0,0,0,2.548-1c1.306-1.141,2.587-2.309,3.876-3.468a9.505,9.505,0,0,1,2.525-1.807,2.675,2.675,0,0,1,3.89,1.992,9.053,9.053,0,0,1-.339,4.1c-.4,1.825-.98,3.607-1.251,5.464a5.092,5.092,0,0,0,.173,2.355,11.335,11.335,0,0,1-9.012,14.973c-.082.015-.149.112-.223.17Z" transform="translate(-30.734 -32.042)"/><path d="M85.4,17.362,83.9,19.593c-1.5-.114-2.295.79-2.975,1.965a40.35,40.35,0,0,0-1.936,3.564,5.1,5.1,0,0,0,.708,5.888A29.009,29.009,0,0,1,85.3,41.38a6,6,0,0,0,3.78,3.986A52.283,52.283,0,0,0,97.4,47.649a37.172,37.172,0,0,1,3.9,1.112,5.38,5.38,0,0,1,1.3.646c.744.519.768,1.005.082,1.58a5.224,5.224,0,0,1-1.451.8c-2.324.929-4.743,1.559-7.141,2.254a23.881,23.881,0,0,0-4.727,1.883c-3.421,1.849-4.079,4.965-1.728,8.079a43.912,43.912,0,0,0,3.839,4.1,4.783,4.783,0,0,1,1.312,1.972c.447,1.544-.4,2.472-1.957,2.135-1.523-.332-2.97-.941-4.537-1.127a7.5,7.5,0,0,0-7.121,2.981,32.592,32.592,0,0,1-11.06,8.81A33.435,33.435,0,0,1,54.72,86.334a39.178,39.178,0,0,1-9.385-.749A6.84,6.84,0,0,0,39.1,87.422a25.038,25.038,0,0,0-3.493,4.117,18.861,18.861,0,0,1-2.541,3.155,2.446,2.446,0,0,1-1.665.746,1.81,1.81,0,0,1-1.813-2.664c.741-1.644,1.6-3.233,2.394-4.853a12.2,12.2,0,0,0,1.1-3.239,6.586,6.586,0,0,0-1.868-5.907c-1.274-1.368-2.757-2.512-3.99-3.942a33.688,33.688,0,0,1-6.673-11.543A5.623,5.623,0,0,0,16.887,59.5a39.266,39.266,0,0,0-6.621-1.313A15.133,15.133,0,0,1,5.945,57.1c-.707-.359-1.374-.809-1.267-1.714.109-.921.824-1.308,1.648-1.511a35.825,35.825,0,0,1,6.3-.587,15.964,15.964,0,0,0,3.586-.556,3.242,3.242,0,0,0,2.209-4.593A9.6,9.6,0,0,0,16.28,45.1c-2.332-2.432-4.976-4.521-7.484-6.76a23.63,23.63,0,0,1-3.99-4.225c-1.12-1.651-.63-2.789,1.354-3.057a13.175,13.175,0,0,1,4.343.253c1.633.324,3.265.649,4.9.966a24.881,24.881,0,0,0,4.965.394,8.707,8.707,0,0,0,6.522-2.726,37.775,37.775,0,0,1,8.592-7.176,29.469,29.469,0,0,1,4-2,5.68,5.68,0,0,0,3.25-3.3A38.666,38.666,0,0,0,44.5,11.7,39.325,39.325,0,0,1,46.26,6.151c.359-.829.714-1.832,1.75-1.851.991-.019,1.363.954,1.732,1.734.773,1.636,1.226,3.391,1.848,5.083a14.63,14.63,0,0,0,3.074,5.608,5.272,5.272,0,0,0,2.883,1.547c1.949.339,3.87.787,5.783,1.3,1.783.474,3.345-.327,4.82-1.181a38.467,38.467,0,0,0,5.165-3.852,90.015,90.015,0,0,1,8.548-6.79,10,10,0,0,1,2.888-1.407c2.016-.515,3.151.4,3.2,2.477a8.243,8.243,0,0,1-1.1,3.648,9.686,9.686,0,0,1-1,1.7,2.946,2.946,0,0,0-.456,3.2" transform="translate(-1.236 -1.26)" fill="#25e0ac"/><path d="M84.16,16.1a1.754,1.754,0,0,1-.257-2.509,19.862,19.862,0,0,0,2.2-4.23c.435-1.265.857-2.642-.3-3.692s-2.447-.362-3.581.213a39.346,39.346,0,0,0-7.2,5.269c-2.155,1.8-4.25,3.676-6.554,5.293A15.946,15.946,0,0,1,65.4,18.187a5.631,5.631,0,0,1-4.147.212A22.432,22.432,0,0,0,56.7,17.382a6.219,6.219,0,0,1-4.542-2.964,22.1,22.1,0,0,1-2.343-5.306A31.971,31.971,0,0,0,48.1,4.55c-.3-.575-.6-1.321-1.34-1.316s-1.03.759-1.3,1.346a46.176,46.176,0,0,0-2.314,7.426,26.924,26.924,0,0,1-1.669,4.907,5.372,5.372,0,0,1-2.864,2.717,29.976,29.976,0,0,0-11.658,8.152c-3.008,3.549-6.727,4.413-11.023,3.773-2.67-.4-5.31-.993-7.972-1.44a7.341,7.341,0,0,0-3.6.084c-1.265.426-1.465.953-.816,2.105a12.068,12.068,0,0,0,2.474,2.931c2.741,2.5,5.525,4.954,8.269,7.452a14.749,14.749,0,0,1,2.715,3.139c1.7,2.771.711,5.264-2.423,6.051a36.992,36.992,0,0,1-6.615.607,14.106,14.106,0,0,0-2.874.416c-.642.18-1.341.373-1.408,1.179-.073.866.541,1.285,1.252,1.586a23.156,23.156,0,0,0,5.566,1.2,27.187,27.187,0,0,1,5.471,1.183,5.531,5.531,0,0,1,3.517,3.663,33.293,33.293,0,0,0,9.7,14.654c3.224,2.856,3.894,5.684,2.161,9.683-.838,1.935-1.874,3.783-2.787,5.686-.276.577-.415,1.212.224,1.692a1.929,1.929,0,0,0,2.128.351,3.465,3.465,0,0,0,1.186-1c.8-1,1.572-2.025,2.338-3.054a29.676,29.676,0,0,1,2.7-3.3,7.934,7.934,0,0,1,7.577-2.3c13.3,2.443,24.42-1.461,33.241-11.738a7.677,7.677,0,0,1,8-2.7c1.249.271,2.47.674,3.708,1,.491.13,1.048.379,1.436-.145a1.723,1.723,0,0,0,.236-1.679,5.657,5.657,0,0,0-1.346-1.955c-1.153-1.2-2.346-2.363-3.467-3.593a6.263,6.263,0,0,1-1.721-3.379,4.887,4.887,0,0,1,2.332-4.977,23.008,23.008,0,0,1,6.5-2.681,54.467,54.467,0,0,0,6.516-2.106c.638-.286,1.635-.51,1.591-1.273-.037-.651-1.014-.843-1.649-1.083a81.817,81.817,0,0,0-8.331-2.189,23.19,23.19,0,0,1-4.895-1.7,5.59,5.59,0,0,1-2.929-3.457,31.5,31.5,0,0,0-5.988-10.968,4.548,4.548,0,0,1-.891-4.473,21.708,21.708,0,0,1,3.464-6.357c.548-.775,1.365-.691,2.16-.344a1.8,1.8,0,0,1,.117,2.6,23.162,23.162,0,0,0-2.569,4.5,2.022,2.022,0,0,0,.336,2.286,34.477,34.477,0,0,1,6.347,11.7,2.774,2.774,0,0,0,1.675,1.834c2.881,1.249,5.974,1.722,8.983,2.5a21.722,21.722,0,0,1,4.9,1.668c1.365.73,2.486,1.661,2.543,3.388a3.943,3.943,0,0,1-2.359,3.632c-2.391,1.39-5.085,1.965-7.7,2.751A36.594,36.594,0,0,0,90.05,56.9c-2.557,1.184-2.838,2.509-.923,4.618,1,1.1,2.119,2.1,3.134,3.193,1.266,1.362,2.359,2.825,2.329,4.829-.049,3.173-2.33,5-5.419,4.289-1.246-.288-2.466-.684-3.706-1a4.67,4.67,0,0,0-5.176,1.687,36.5,36.5,0,0,1-24.467,13.32,34.556,34.556,0,0,1-11.995-.617,4.334,4.334,0,0,0-4.184,1.189,29.476,29.476,0,0,0-3.506,4.377,15.566,15.566,0,0,1-2.813,3.186,5.143,5.143,0,0,1-7.053-.525,4.125,4.125,0,0,1-.936-4.061A15.622,15.622,0,0,1,26.983,87.7a22.835,22.835,0,0,0,1.842-3.94,4.028,4.028,0,0,0-1.269-4.6A36.98,36.98,0,0,1,16.37,62.448a2.539,2.539,0,0,0-2-1.6A42.386,42.386,0,0,0,8.45,59.776a14.877,14.877,0,0,1-5.909-1.815A4.232,4.232,0,0,1,.5,53.906a4.128,4.128,0,0,1,2.645-3.677,9.5,9.5,0,0,1,2.391-.669c2.438-.4,4.918-.24,7.359-.576.608-.083,1.427-.026,1.663-.618s-.391-1.128-.787-1.6a52.23,52.23,0,0,0-5.819-5.5,69.2,69.2,0,0,1-5.113-4.736A12.791,12.791,0,0,1,.522,33.351a4.1,4.1,0,0,1,2.023-5.839,9.387,9.387,0,0,1,5.809-.53c2.736.424,5.449,1,8.18,1.455a10.786,10.786,0,0,0,3.828-.04,6.072,6.072,0,0,0,3.519-2.039A35.881,35.881,0,0,1,36.9,16.925a3.467,3.467,0,0,0,2.066-2.135c.966-2.6,1.5-5.326,2.292-7.975a18.64,18.64,0,0,1,1.733-4.323c1.99-3.306,5.55-3.328,7.565-.027a33.74,33.74,0,0,1,2.58,6.55,16.326,16.326,0,0,0,1.681,3.668,3.288,3.288,0,0,0,2.429,1.583A24.914,24.914,0,0,1,62,15.324,3.144,3.144,0,0,0,64.6,15.1a29.45,29.45,0,0,0,5-3.528c2.738-2.238,5.339-4.647,8.225-6.7a13.572,13.572,0,0,1,5.849-2.786,5.121,5.121,0,0,1,6,5.449c-.169,3.138-1.726,5.73-3.442,8.226-.508.739-1.309.657-2.073.341" transform="translate(0 0)"/><path d="M132.086,114.284a8.69,8.69,0,0,1-.481,3.08c-.35,1.552-.814,3.077-1.046,4.659a8.779,8.779,0,0,0,.283,4,7.872,7.872,0,0,1-2.223,8.735,7.707,7.707,0,0,1-8.69,1.541,7.92,7.92,0,0,1-5.083-7.453,4.859,4.859,0,0,0-1.727-3.315c-.767-.753-1.593-1.444-2.383-2.174a3.825,3.825,0,0,1-1.115-1.29,5.119,5.119,0,0,1,2.435.206c.749.126,1.48.366,2.23.493a4.814,4.814,0,0,0,4.131-.812,6,6,0,0,1,3.742-1.393,7.99,7.99,0,0,0,5.434-2.259c1.009-.9,1.992-1.83,3-2.736.455-.411.931-.8,1.5-1.279" transform="translate(-32.129 -33.495)" fill="#43b49e"/><path d="M45.8,85.6l-3.191-2.1c.308-1.359-.416-2.225-1.318-3.125a27.541,27.541,0,0,1-8.151-16.9,27.556,27.556,0,0,1,6.579-21.545,27.261,27.261,0,0,1,18.444-9.854A28.386,28.386,0,0,1,89.546,56.564,27.083,27.083,0,0,1,89.7,60.3a2.685,2.685,0,0,1-3.277,2.809,11.5,11.5,0,0,0-3.508-.158,8.016,8.016,0,0,0-6.5,6.7,7.776,7.776,0,0,0,4.894,8.221c1.826.728,1.89.9.439,2.334a28.461,28.461,0,0,1-16.835,8.338A27.286,27.286,0,0,1,48.4,85.565a3.427,3.427,0,0,0-2.6.037" transform="translate(-9.658 -9.348)" fill="#43b49e"/><path d="M44.62,84.384c.822-.941,1.7-.741,2.709-.261q16.149,7.686,30.478-3.049a20.921,20.921,0,0,0,3.046-2.827c.226-.251.423-.527.677-.845-3.3-.821-5.522-2.732-6.366-5.968a8.085,8.085,0,0,1,9.6-9.908c2.343.484,3.6-.563,3.552-2.947a28.142,28.142,0,0,0-56-3.437c-1.244,9.449,1.666,17.571,8.442,24.287,1.257,1.246,1.356,1.6.677,2.852a1.747,1.747,0,0,1-2.507-.206,30.588,30.588,0,0,1-9.8-19.223A31.2,31.2,0,0,1,50.71,29.225c17.757-5.765,37.068,5.848,40.278,24.207a35.528,35.528,0,0,1,.534,5.27,5.743,5.743,0,0,1-7.213,5.972,4.924,4.924,0,1,0-.04,9.478,1.622,1.622,0,0,1,2.01.643,1.677,1.677,0,0,1-.24,2.018,31.313,31.313,0,0,1-40.3,10.066c-1.283-.651-1.483-1.121-1.121-2.5" transform="translate(-8.473 -8.129)"/><path d="M132.472,138.906a1.638,1.638,0,0,1-1.588-1.6,1.58,1.58,0,0,1,1.632-1.534,1.488,1.488,0,0,1,1.5,1.523,1.556,1.556,0,0,1-1.544,1.61" transform="translate(-38.36 -39.793)" fill="#010201"/><path d="M124.6,131.528a1.489,1.489,0,0,1-1.564,1.559,1.608,1.608,0,0,1-1.576-1.6,1.676,1.676,0,0,1,1.555-1.535,1.588,1.588,0,0,1,1.586,1.574" transform="translate(-35.596 -38.087)" fill="#010202"/><path d="M62,63.016a8.921,8.921,0,1,1,8.935-8.93A8.969,8.969,0,0,1,62,63.016" transform="translate(-15.56 -13.24)"/><path d="M65.272,88.995a5.714,5.714,0,1,1-5.732,5.649,5.764,5.764,0,0,1,5.732-5.649" transform="translate(-17.45 -26.083)"/><path d="M52.364,80.037a1.568,1.568,0,0,1-3.131.095,1.634,1.634,0,0,1,1.523-1.658,1.609,1.609,0,0,1,1.608,1.564" transform="translate(-14.429 -22.999)" fill="#010202"/><path d="M96.4,54.348a1.581,1.581,0,1,1-.151,3.158,1.582,1.582,0,0,1,.151-3.158" transform="translate(-27.784 -15.928)" fill="#000101"/><path d="M63.269,49.713a5.669,5.669,0,0,1,5.763,5.7A5.761,5.761,0,0,1,63.3,61.188,5.828,5.828,0,0,1,57.559,55.4a5.754,5.754,0,0,1,5.71-5.686" transform="translate(-16.87 -14.57)" fill="#30cdb2"/><path d="M69.075,96.044a2.539,2.539,0,1,1-2.454-2.58,2.593,2.593,0,0,1,2.454,2.58" transform="translate(-18.756 -27.392)" fill="#30cdb2"/></g></g><rect width="144" height="144" transform="translate(571 1367)" fill="none"/></g></svg>