<svg xmlns="http://www.w3.org/2000/svg" xmlns:xlink="http://www.w3.org/1999/xlink" width="144" height="144" viewBox="0 0 144 144"><defs><clipPath id="a"><rect width="124.232" height="77.654" fill="none"/></clipPath></defs><g transform="translate(-886 -1367)"><g transform="translate(895.448 1400.405)"><g transform="translate(0 0)" clip-path="url(#a)"><path d="M64.112,20.607c-.133-1.938.277-2.6,2.1-3.291,5.276-2,10.559-3.979,15.83-5.993,3.855-1.472,7.126-3.929,10.4-6.347,2.57-1.9,5.06-3.841,8.294-4.574a15.807,15.807,0,0,1,19.346,14.319,1.851,1.851,0,0,0,.788,1.482,8.365,8.365,0,0,1,3.235,4.692c.415,1.851-.244,3.277-1.7,3.6-1.6.356-2.661-.543-3.045-2.567a2.509,2.509,0,0,0-.244-.466,19.484,19.484,0,0,1-2.851,4.646c-.325.379-.113.86-.105,1.294.129,7.605-1.463,14.767-5.64,21.211-4.641,7.159-11.388,11.394-19.453,13.718a53.7,53.7,0,0,1-11.933,1.937,3.747,3.747,0,0,0-2.841,1c1.819,1.482,3.829,2.87,5.532,4.565a9.568,9.568,0,0,0,8.454,3,42.808,42.808,0,0,1,5.7-.038,2.435,2.435,0,1,1-.005,4.844q-9.647.019-19.293,0a2.431,2.431,0,1,1-.068-4.846c.311-.011.622,0,1.318,0-3.309-2.385-5.879-5.133-9.206-6.929-6.814-3.679-13.606-7.4-20.407-11.1a1.881,1.881,0,0,0-1.348-.409c-3.331.725-6.741.755-10.109,1.139-6.674.761-13.164,2.469-19.67,4.062-4.464,1.093-8.9,2.318-13.342,3.491-2.046.54-2.685.313-3.849-1.417V53.623a4.077,4.077,0,0,1,2.617-1.936Q16.5,46.722,30.2,41.26c.315-.126.621-.278,1.217-.547L23.673,39.3c-.517-.094-1.035-.176-1.548-.285a2.529,2.529,0,0,1-2.215-2.233A2.447,2.447,0,0,1,21.7,34.217c3.5-1.34,7.008-2.659,10.512-3.99Q38.427,27.865,44.64,25.5c1.78-.673,2.645-.387,3.7,1.182.746,1.193.333,2.508-1.089,3.288a24.214,24.214,0,0,1-3.246,1.348c-3.784,1.415-7.563,2.847-11.37,4.3Q44.045,37.585,55.5,38.68a135.743,135.743,0,0,0,18.509.751c5.811-.239,11.415-1.329,16.192-4.983,2.584-1.976,4.83-4.35,5.792-7.467,1.744-5.651.083-10.78-7.435-11.351a12.352,12.352,0,0,0-5.679.887c-4.836,1.949-9.751,3.7-14.611,5.588A7.235,7.235,0,0,1,67,22.5a2.407,2.407,0,0,1-2.887-1.894" transform="translate(0 0)"/><path d="M81.216,28.735c1.041,1.673,1.886,1.971,3.738,1.272,5.507-2.079,10.954-4.339,16.535-6.193A10.631,10.631,0,0,1,111.87,25.75c1.923,1.554,2.192,3.847,2.2,6.175.006,3.246-1.582,5.8-3.583,8.127-3.8,4.419-8.829,6.541-14.46,7.364-6.038.883-12.1.555-18.157.146-9.724-.657-19.365-2-29-3.61.174-.531.7-.488,1.071-.631,4.518-1.73,9.046-3.433,13.567-5.153,1.749-.666,2.246-1.551,1.937-3.356,1.856-.723,3.775-1.284,5.562-2.181.4-.069.558.268.774.486a1.93,1.93,0,0,0,2.155.713,2.23,2.23,0,0,0,1.569-2.1c.017-.271-.1-.57.143-.8a59.538,59.538,0,0,0,5.569-2.2" transform="translate(-17.103 -8.128)" fill="#20bdfc"/><path d="M87.559,34.27c.288,1.522-.194,2.637-1.349,3.122-1.253.525-2.344.053-3.29-1.424-.135-2.146.828-3.327,2.59-3.192a2.5,2.5,0,0,1,2.05,1.493" transform="translate(-29.016 -11.468)" fill="#010101"/><path d="M111.987,67.29c.265-.777.511-1.373.671-1.992a2.4,2.4,0,0,0-1.535-2.917,2.2,2.2,0,0,0-2.971,1.345c-.913,3.491-3.811,4.822-6.54,6.388a.91.91,0,0,1-1-.045c-5.594-3.06-11.193-6.111-16.96-9.257,1.552-.568,2.958-1.065,4.351-1.6a76.536,76.536,0,0,0,11.888-5.692,4.347,4.347,0,0,1,2.28-.62c6.258-.077,12.321-1.039,17.81-4.282,5.04-2.976,8.871-7.023,10.521-12.77a13.973,13.973,0,0,0-1.063-10.925c-.324-.591-.179-.739.38-.891a10.294,10.294,0,0,1,8.164,1.155,17.672,17.672,0,0,1,4.489,3.849c.361.419.619.826.111,1.227-2.321,1.829-2.1,4.356-2.139,6.93a31.451,31.451,0,0,1-5.206,17.76c-4.217,6.151-10.337,9.468-17.389,11.29a31.373,31.373,0,0,1-5.859,1.044" transform="translate(-29.276 -8.278)" fill="#25e0ac"/><path d="M64.177,67.238A72.04,72.04,0,0,1,49.111,72.3a92.918,92.918,0,0,1-9.741,1.117A141.739,141.739,0,0,0,21.208,77c-4.2,1-8.363,2.146-12.555,3.177-.348.086-.944.708-1.166-.039a1.113,1.113,0,0,1,.742-1.594c5.013-1.8,10-3.657,14.982-5.543,6.112-2.315,12.207-4.677,18.215-7.252a7.475,7.475,0,0,1,4.21-.536c5.678.818,11.378,1.471,17.108,1.825.36.022.718.1,1.433.2" transform="translate(-2.585 -22.79)" fill="#88a6bb"/><path d="M164.964,18.4a20.848,20.848,0,0,0-6.018-4.071,14.705,14.705,0,0,0-12,.094,2.8,2.8,0,0,1-2.7.01,22.288,22.288,0,0,0-2.172-.861c3.573-2.072,6.131-5.408,10.415-6.056A11.022,11.022,0,0,1,164.964,18.4" transform="translate(-49.725 -2.589)" fill="#88a6bb"/></g></g><rect width="144" height="144" transform="translate(886 1367)" fill="none"/></g></svg>