<svg xmlns="http://www.w3.org/2000/svg" xmlns:xlink="http://www.w3.org/1999/xlink" width="144" height="144" viewBox="0 0 144 144"><defs><clipPath id="a"><rect width="94.945" height="94.874" fill="none"/></clipPath></defs><g transform="translate(-1201 -1367)"><g transform="translate(1225.383 1391.385)"><g clip-path="url(#a)"><path d="M0,29.762c.251-1.919.385-3.864.789-5.75A18.924,18.924,0,0,1,2.3,19.588c1.58-3.184,4.3-4.332,7.767-3.453a20.162,20.162,0,0,1,8.168,4.68c1.444,1.25,2.739,2.671,4.145,3.966a2.266,2.266,0,0,0,1.271.582c1.2.079,2.411.027,3.871.027-.325-.494-.448-.7-.586-.889a8.111,8.111,0,0,1-.418-9.114,8.364,8.364,0,0,1,8.58-4.2,18.419,18.419,0,0,1,8.6,4,1.252,1.252,0,0,0,1.661.124c.691-.422,1.455-.724,2.206-1.087-.017-.1,0-.2-.05-.263C44.29,9.595,46.024,4.042,50.666,1.34,53.8-.485,57.126-.255,60.4.891A26.862,26.862,0,0,1,74.58,12.118a2.834,2.834,0,0,0,1.31,1.06,41.514,41.514,0,0,1,15.356,9.405,22.93,22.93,0,0,1,2.108,2.524,8.543,8.543,0,0,1,1.59,5.2c.1,7.838-3.871,13.392-9.946,17.67a38.1,38.1,0,0,1-23.541,7.367A44.831,44.831,0,0,1,47.294,52.63a1.419,1.419,0,0,0-1.594.245A18,18,0,0,1,37.78,56.8a7.7,7.7,0,0,1-9.243-6.3A6.869,6.869,0,0,1,30,45.31c-1.243-.229-2.386-.479-3.541-.642-1.054-.148-2.278-.566-3.138-.195-.831.359-1.3,1.569-1.913,2.413a19.431,19.431,0,0,1-5.864,5.626C11.974,54.576,8.59,54.15,5.7,51.223A19.855,19.855,0,0,1,.775,41.439C.441,40.013.254,38.553,0,37.108V29.762M68.62,51.69C75.945,50,82.4,47.084,87.466,41.6a15.76,15.76,0,0,0,3.992-7.561c.824-3.942.125-7.285-3.138-10.052A42.026,42.026,0,0,0,73.2,15.65c-1.844-.559-3.757-.891-5.911-1.39,3.03,6.3,2.674,12.437.762,18.92.809-.436,1.389-.7,1.92-1.045,1-.643,1.817-.606,2.41.17s.386,1.675-.59,2.411a8.708,8.708,0,0,1-6.87,1.541c-2.044-.315-4.072-.754-6.125-.98-1.667-.184-2.032.288-1.862,1.929.036.343.075.687.139,1.025a10.785,10.785,0,0,0,3.492,6.6c1.963,1.636,3.977,1.4,5.415-.662.766-1.1,1.371-2.316,2.029-3.491.566-1.011,1.376-1.369,2.227-.945a1.549,1.549,0,0,1,.607,2.322c-.889,1.578-1.919,3.075-2.859,4.625a1.751,1.751,0,0,0-.341,1.076c.256,1.283.62,2.543.976,3.938M17.9,31.191c-1.162-.429-2.23-.878-3.333-1.216-1.766-.541-3.556-1-5.332-1.508a1.568,1.568,0,1,1,.65-3.063,3.24,3.24,0,0,1,.554.1q3.987,1.245,7.971,2.5c.258.081.513.169.782.257.3-.476.566-.891.843-1.329a32.211,32.211,0,0,0-6.714-5.814,20.592,20.592,0,0,0-4.429-1.969,2.777,2.777,0,0,0-3.578,1.5,10.7,10.7,0,0,0-1.15,2.759A43.278,43.278,0,0,0,3.472,38.65a18.208,18.208,0,0,0,4.023,9.879c2.04,2.415,4.117,2.731,6.8,1.043a18.29,18.29,0,0,0,5.7-6.29c.455-.747-.4-1.08-.636-1.6-.061-.13-.59-.145-.855-.059-.953.308-1.869.732-2.827,1.018-1.89.565-3.789,1.1-5.7,1.582A1.568,1.568,0,0,1,7.94,43.049a1.6,1.6,0,0,1,1.288-1.882c.42-.122.859-.185,1.278-.313,2.473-.757,4.941-1.525,7.431-2.295-.187-.86-.323-1.491-.471-2.171-3.1,0-6.137.005-9.178,0-1.254,0-1.923-.551-1.936-1.546s.662-1.591,1.894-1.6c2.385-.016,4.769-.005,7.155-.005h2.069c.15-.706.279-1.312.434-2.044M44.912,48.429c2.222.753,4.373,1.5,6.545,2.186a1.072,1.072,0,0,0,.884-.4A14.258,14.258,0,0,0,54.829,44.4a6.669,6.669,0,0,0-.214-3.306,27.6,27.6,0,0,1-.855-4.691,3.234,3.234,0,0,1,1.118-2.971,3.529,3.529,0,0,0,1.209-2.209c1.07-4.727,1.394-9.445-.474-14.051-1.024-2.526-.508-2.015-2.886-1.441-.152.036-.3.082-.451.129a35.561,35.561,0,0,0-8.783,4.108,25.891,25.891,0,0,0,1.654,3.284c1.008,1.466,2.183,2.817,3.317,4.194a10.62,10.62,0,0,1,2.562,9,14.586,14.586,0,0,1-3.376,6.93,13.609,13.609,0,0,0-2.738,5.06M36.221,24.6a3.8,3.8,0,0,0,.109.39,23.811,23.811,0,0,1,1.352,12.206c-.28,2.111-.718,4.2-1.046,6.306-.043.277.052.759.236.858,1.675.9,3.384,1.729,5.172,2.624a22.715,22.715,0,0,1,4.013-6.745,9.732,9.732,0,0,0,1.961-5.118c.247-2.71-1.08-4.76-2.843-6.6a19.842,19.842,0,0,1-3.752-5.487c-.2-.444-.4-.891-.614-1.368L36.221,24.6M33.462,42.873c1.18-5.5,2.25-11.05-.1-16.666a16.787,16.787,0,0,1-9.992,2.331,1.254,1.254,0,0,0-.887.495,9.805,9.805,0,0,0,0,11.578,1.769,1.769,0,0,0,1.068.583c1.175.177,2.378.182,3.547.389,2.12.376,4.222.852,6.359,1.29M70.312,11.636c-.232-.313-.35-.495-.49-.658A23.852,23.852,0,0,0,59.369,3.866,9.847,9.847,0,0,0,54,3.385c-4.431.953-6.329,5.689-3.654,9.108a.8.8,0,0,0,1.012.354,42.973,42.973,0,0,1,18.952-1.21M57.956,14.562c2.725,5.844,2.508,11.65,1.215,17.483l5.534.92a24.606,24.606,0,0,0,1.6-10.78,16.865,16.865,0,0,0-2.3-7.29c-.139-.24-.429-.568-.643-.563-1.746.034-3.491.138-5.411.229M41.6,17.541a16.562,16.562,0,0,0-6.292-3.1,5.307,5.307,0,0,0-6.228,2.832A5.249,5.249,0,0,0,30.31,23.6a.85.85,0,0,0,.766.171c3.477-2.032,6.934-4.1,10.523-6.233M43.02,50.947c-.954-.454-1.775-.837-2.589-1.234-2.137-1.043-4.276-2.08-6.4-3.143a.867.867,0,0,0-1.254.326c-1.02,1.332-1.547,2.724-.738,4.351A4.38,4.38,0,0,0,36.4,53.768a13.515,13.515,0,0,0,6.624-2.821m14.673-4.421-2.126,5.015a40.864,40.864,0,0,0,9.89.561l-.871-3.172a7.728,7.728,0,0,1-6.893-2.4" transform="translate(0 0)"/><path d="M33.451,119.585c-.236-.038-.39-.058-.543-.089-2.208-.441-3.91-.1-5.252,2.109a10.883,10.883,0,0,1-3.866,3.321c-2.608,1.525-5.147,1.033-7.281-1.111a13.951,13.951,0,0,1-3.664-7.291,26.848,26.848,0,0,1,.107-10.929,8.409,8.409,0,0,1,.454-1.431,5.346,5.346,0,0,1,6.9-3.406,17.426,17.426,0,0,1,7.076,4.488,5.237,5.237,0,0,1,.794.8c.655.947,1.45.736,2.352.38A5.852,5.852,0,0,1,31.008,100a6.208,6.208,0,0,1,6.824-2.434,35.4,35.4,0,0,1,4.029,1.474,1.853,1.853,0,0,0,1.168.02,5.227,5.227,0,0,0,2.3-1.178c.43-.564.227-1.6.345-2.415a7.154,7.154,0,0,1,8.947-5.831A17.824,17.824,0,0,1,64.364,96a3.007,3.007,0,0,0,1.334.892,31.994,31.994,0,0,1,10.992,5.592c3.85,3.183,4.6,5.36,2.922,10.836-1.069,3.485-3.629,5.978-6.52,8.063-5.154,3.717-10.831,6.042-17.292,5.953a23.992,23.992,0,0,1-9.658-2.164,1.316,1.316,0,0,0-1.449.139,10.076,10.076,0,0,1-7.089,1.916c-2.92-.425-5.772-3.862-4.206-7.294a1.586,1.586,0,0,0,.052-.349M60.284,123.8A27.605,27.605,0,0,0,72,118.232c2.02-1.637,3.911-3.469,4.65-6.021,1.133-3.917.869-5.068-1.841-7.221a29.689,29.689,0,0,0-11.557-5.447.772.772,0,0,0-.347.017c0,1.58.093,3.086-.026,4.575-.118,1.473-.449,2.928-.688,4.4,1.213-.264,1.943.056,2.252.966.287.843-.1,1.554-1.149,2.072a9.378,9.378,0,0,1-5.215.871c-1.029-.1-2.063-.195-3.1-.212-1.566-.027-1.645.087-1.356,1.585a6.746,6.746,0,0,0,.337,1.17c1.176,3.024,3.525,3.661,6.045,1.648a1.832,1.832,0,0,1,.224-.17,1.535,1.535,0,0,1,1.983.2,1.488,1.488,0,0,1,.123,2.048,2.829,2.829,0,0,1-1.039.932c-1.5.552-1.378,1.7-1.2,2.9.06.4.116.8.181,1.251M43.1,102.4c.97,2.189,1.733,4.145,2.684,6.006a9.878,9.878,0,0,1,.1,9.217c-.494,1.04-1.068,2.041-1.678,3.2l5.69,2.489c.1-1.18.169-2.111.263-3.039.224-2.209.941-4.354.28-6.654a3.256,3.256,0,0,1,1.933-4.122.67.67,0,0,0,.315-.488,19.979,19.979,0,0,0-2.214-9.659L43.1,102.4m-16.955,6.081a19.564,19.564,0,0,0-5.451-4.236c-2.7-1.292-4.288-.581-4.69,2.368a40.278,40.278,0,0,0-.317,7.58,11.3,11.3,0,0,0,3,7.337c1.161,1.227,2.307,1.489,3.706.564a17.751,17.751,0,0,0,3.181-2.867c.989-1.078.915-1.145.035-2.376-.141.024-.294.045-.446.075-1.537.3-3.067.637-4.613.877a1.469,1.469,0,0,1-1.8-1.238,1.542,1.542,0,0,1,1.238-1.816c.241-.067.488-.113.733-.163l4.254-.848v-1.207c-1.57-.32-3.129-.633-4.687-.958-1.18-.246-1.72-.953-1.518-1.957.185-.919,1-1.357,2.121-1.136q2.388.469,4.766.94a4.32,4.32,0,0,0,.241-.371c.083-.166.15-.339.247-.566m9.372,8.034c.538-2.9,1.071-5.845-.3-8.851a13.731,13.731,0,0,1-5.977,2.261c-.181.02-.394.294-.485.5a6.423,6.423,0,0,0-.027,5.29.945.945,0,0,0,.66.494c2,.13,4,.208,6.132.308m2.473-10.614c.274.777.552,1.47.762,2.183.858,2.917.439,5.829-.055,8.741-.05.294-.05.8.111.894.846.505,1.751.91,2.729,1.4.549-1.056,1.108-2.032,1.573-3.051a5.757,5.757,0,0,0,.476-4.469c-.921-2.44-2.03-4.809-3.1-7.294l-2.5,1.6m17.929,3.16,2.647.23c.28-1.051.576-2.068.818-3.1a12.685,12.685,0,0,0,.041-6.51c-.076-.266-.293-.7-.455-.7-1.673-.052-3.347-.032-5.18-.032a24.206,24.206,0,0,1,2.129,10.109M48.831,96.4l10.608-.858A12.964,12.964,0,0,0,53.4,92.619c-2.526-.383-4.783,1.582-4.571,3.781m-15.336,8.607,5.762-3.661c-2.211-1.215-4.269-1.1-5.441.2a2.545,2.545,0,0,0-.32,3.459m19.88,14.766c-.1,1.342-.208,2.713-.321,4.194l4.027.272q-.165-1.779-.283-3.047l-3.424-1.418m-16.442.531c-1.115,1.345-1.04,2.369.1,3.3s3.678.664,4.95-.561l-5.055-2.74" transform="translate(-4.478 -32.465)"/><path d="M135.384,94.587a6.316,6.316,0,0,1,0-12.632,6.316,6.316,0,1,1,0,12.632m.041-9.455a3.154,3.154,0,1,0,3.127,3.218,3.186,3.186,0,0,0-3.127-3.218" transform="translate(-46.859 -29.754)"/><path d="M133.584,4.779A4.728,4.728,0,1,1,128.851.052a4.746,4.746,0,0,1,4.733,4.727m-4.777-1.548a1.573,1.573,0,0,0-1.524,1.59,1.592,1.592,0,0,0,1.56,1.564A1.576,1.576,0,0,0,130.4,4.737a1.549,1.549,0,0,0-1.595-1.506" transform="translate(-45.066 -0.019)"/><path d="M136.038,111.533a4.734,4.734,0,0,1-9.467.025,4.734,4.734,0,1,1,9.467-.025m-4.682,1.573a1.617,1.617,0,0,0,1.534-1.6,1.584,1.584,0,0,0-1.665-1.545,1.548,1.548,0,0,0-1.471,1.627,1.588,1.588,0,0,0,1.6,1.517" transform="translate(-45.952 -38.766)"/><path d="M123.21,102.51a1.627,1.627,0,0,1-1.6-1.538,1.6,1.6,0,0,1,1.514-1.61,1.571,1.571,0,0,1,1.636,1.569,1.606,1.606,0,0,1-1.55,1.579" transform="translate(-44.151 -36.073)"/><path d="M142.148,16.552a1.57,1.57,0,0,1-1.558,1.555,1.554,1.554,0,1,1,1.558-1.555" transform="translate(-50.461 -5.445)"/><path d="M101.051,59.819c-.356-1.394-.72-2.655-.976-3.937a1.757,1.757,0,0,1,.341-1.076c.94-1.55,1.971-3.048,2.859-4.626a1.548,1.548,0,0,0-.607-2.322c-.852-.424-1.661-.067-2.228.945-.657,1.175-1.262,2.39-2.029,3.49-1.438,2.066-3.452,2.3-5.415.663a10.787,10.787,0,0,1-3.491-6.6c-.066-.339-.1-.683-.139-1.026-.169-1.641.2-2.113,1.862-1.929,2.052.227,4.081.665,6.125.981a8.711,8.711,0,0,0,6.87-1.541c.976-.736,1.188-1.628.59-2.411s-1.414-.813-2.41-.169c-.531.343-1.111.608-1.92,1.044,1.912-6.483,2.269-12.621-.761-18.92,2.154.5,4.067.831,5.911,1.39a42.012,42.012,0,0,1,15.12,8.34c3.262,2.768,3.962,6.11,3.138,10.052a15.764,15.764,0,0,1-3.992,7.56c-5.066,5.482-11.522,8.395-18.847,10.088m13.478-18.47a4.738,4.738,0,0,0,4.853-4.694,4.751,4.751,0,1,0-4.853,4.694" transform="translate(-32.431 -8.128)" fill="#25e0ac"/><path d="M19.677,42l-.434,2.043H17.174c-2.385,0-4.769-.01-7.154.006-1.232.008-1.908.6-1.895,1.6S8.808,47.2,10.062,47.2c3.041.008,6.082,0,9.178,0,.147.68.284,1.311.471,2.171-2.49.77-4.959,1.538-7.432,2.3-.418.127-.857.189-1.277.312a1.6,1.6,0,0,0-1.289,1.882,1.569,1.569,0,0,0,2.032,1.177c1.913-.478,3.813-1.017,5.7-1.582.959-.286,1.875-.71,2.828-1.018.264-.087.795-.071.855.059.24.517,1.092.851.636,1.6a18.274,18.274,0,0,1-5.7,6.289c-2.686,1.689-4.762,1.373-6.8-1.043a18.2,18.2,0,0,1-4.023-9.879,43.274,43.274,0,0,1,.694-15.241,10.719,10.719,0,0,1,1.15-2.759,2.776,2.776,0,0,1,3.578-1.5A20.609,20.609,0,0,1,15.1,31.936a32.234,32.234,0,0,1,6.715,5.815l-.843,1.329c-.268-.089-.524-.176-.782-.258q-3.984-1.253-7.971-2.5a3.375,3.375,0,0,0-.554-.1,1.568,1.568,0,1,0-.649,3.064c1.776.508,3.566.966,5.332,1.507,1.1.337,2.171.788,3.333,1.216" transform="translate(-1.773 -10.813)" fill="#b1dbea"/><path d="M69.7,57.128a13.612,13.612,0,0,1,2.738-5.061,14.581,14.581,0,0,0,3.376-6.929,10.621,10.621,0,0,0-2.562-9c-1.133-1.376-2.309-2.727-3.317-4.193a25.934,25.934,0,0,1-1.654-3.284,35.538,35.538,0,0,1,8.783-4.108c.149-.048.3-.093.451-.13,2.378-.574,1.862-1.085,2.886,1.441,1.868,4.606,1.544,9.324.474,14.051a3.529,3.529,0,0,1-1.209,2.21,3.233,3.233,0,0,0-1.118,2.97,27.6,27.6,0,0,0,.855,4.692,6.666,6.666,0,0,1,.214,3.305,14.26,14.26,0,0,1-2.489,5.823,1.072,1.072,0,0,1-.884.4c-2.172-.682-4.323-1.432-6.545-2.185" transform="translate(-24.791 -8.698)" fill="#25e0ac"/><path d="M56.867,36.941,61.456,34c.214.477.411.924.614,1.368a19.844,19.844,0,0,0,3.753,5.487c1.762,1.843,3.089,3.892,2.842,6.6A9.722,9.722,0,0,1,66.7,52.58a22.707,22.707,0,0,0-4.013,6.745c-1.787-.9-3.5-1.728-5.171-2.624-.185-.1-.28-.582-.237-.858.328-2.105.766-4.195,1.046-6.306a23.8,23.8,0,0,0-1.352-12.206c-.045-.113-.066-.235-.109-.39" transform="translate(-20.646 -12.345)" fill="#b1dbea"/><path d="M45.2,57.811c-2.137-.439-4.239-.914-6.359-1.29-1.168-.207-2.371-.212-3.547-.389a1.77,1.77,0,0,1-1.068-.583,9.8,9.8,0,0,1,0-11.578,1.251,1.251,0,0,1,.887-.495,16.786,16.786,0,0,0,9.992-2.331c2.347,5.615,1.277,11.162.1,16.666" transform="translate(-11.74 -14.938)" fill="#25e0ac"/><path d="M98.308,13.46a42.973,42.973,0,0,0-18.952,1.21.8.8,0,0,1-1.012-.353C75.668,10.9,77.565,6.162,82,5.209a9.842,9.842,0,0,1,5.368.481A23.851,23.851,0,0,1,97.817,12.8c.14.164.259.346.49.659" transform="translate(-27.996 -1.824)" fill="#d3f9ee"/><path d="M90.99,22.732c1.92-.091,3.665-.194,5.411-.229.214,0,.5.323.643.563a16.873,16.873,0,0,1,2.3,7.29,24.6,24.6,0,0,1-1.6,10.78l-5.533-.921c1.293-5.833,1.51-11.639-1.215-17.483" transform="translate(-33.034 -8.17)" fill="#b1dbea"/><path d="M57.84,25.677c-3.589,2.134-7.046,4.2-10.524,6.232a.851.851,0,0,1-.766-.171,5.249,5.249,0,0,1-1.231-6.333,5.306,5.306,0,0,1,6.227-2.832,16.555,16.555,0,0,1,6.293,3.1" transform="translate(-16.241 -8.136)" fill="#d3f9ee"/><path d="M61.056,77.411a13.516,13.516,0,0,1-6.624,2.821,4.381,4.381,0,0,1-4.359-2.521c-.808-1.627-.282-3.019.739-4.352a.866.866,0,0,1,1.253-.325c2.127,1.062,4.266,2.1,6.4,3.143.814.4,1.634.78,2.588,1.234" transform="translate(-18.036 -26.463)" fill="#b1dbea"/><path d="M89.367,73.046a7.728,7.728,0,0,0,6.893,2.4l.871,3.172a40.864,40.864,0,0,1-9.89-.561l2.126-5.015" transform="translate(-31.673 -26.52)" fill="#b1dbea"/><path d="M83.745,129.559c-.064-.449-.12-.85-.18-1.251-.18-1.2-.3-2.348,1.2-2.9a2.823,2.823,0,0,0,1.038-.932,1.487,1.487,0,0,0-.122-2.048,1.535,1.535,0,0,0-1.983-.2,1.884,1.884,0,0,0-.224.17c-2.519,2.013-4.868,1.376-6.045-1.648a6.747,6.747,0,0,1-.337-1.17c-.289-1.5-.21-1.612,1.356-1.585,1.033.018,2.068.11,3.1.213a9.378,9.378,0,0,0,5.215-.871c1.047-.518,1.436-1.229,1.149-2.072-.31-.91-1.04-1.23-2.252-.966.239-1.474.57-2.929.688-4.4.119-1.49.026-3,.026-4.575a.77.77,0,0,1,.346-.017,29.679,29.679,0,0,1,11.558,5.447c2.711,2.154,2.975,3.3,1.842,7.221-.739,2.552-2.631,4.384-4.65,6.021a27.6,27.6,0,0,1-11.718,5.566m12.166-15.45a1.579,1.579,0,1,0-1.518,1.592,1.559,1.559,0,0,0,1.518-1.592" transform="translate(-27.94 -38.226)" fill="#25e0ac"/><path d="M60.641,108.064l7.376-3.053a19.972,19.972,0,0,1,2.215,9.659.669.669,0,0,1-.315.488,3.256,3.256,0,0,0-1.934,4.122c.662,2.3-.056,4.445-.28,6.654-.094.929-.162,1.859-.263,3.04l-5.69-2.489c.61-1.157,1.183-2.159,1.678-3.2a9.881,9.881,0,0,0-.1-9.217c-.951-1.861-1.714-3.817-2.684-6.006" transform="translate(-22.016 -38.125)" fill="#25e0ac"/><path d="M28.027,116.585c-.1.226-.164.4-.247.566a4.12,4.12,0,0,1-.241.371q-2.374-.468-4.766-.94c-1.122-.22-1.936.217-2.121,1.136-.2,1.005.338,1.711,1.518,1.957,1.557.325,3.117.638,4.687.958v1.208l-4.253.848c-.246.049-.493.1-.734.163a1.541,1.541,0,0,0-1.238,1.816,1.469,1.469,0,0,0,1.8,1.238c1.546-.241,3.076-.58,4.613-.877.152-.029.305-.051.446-.075.88,1.231.954,1.3-.034,2.376a17.778,17.778,0,0,1-3.182,2.867c-1.4.925-2.545.662-3.706-.564a11.294,11.294,0,0,1-3-7.337,40.278,40.278,0,0,1,.317-7.58c.4-2.949,1.994-3.661,4.69-2.368a19.552,19.552,0,0,1,5.451,4.236" transform="translate(-6.358 -40.565)" fill="#25e0ac"/><path d="M44.545,126.919c-2.136-.1-4.136-.178-6.132-.308a.947.947,0,0,1-.66-.494,6.425,6.425,0,0,1,.027-5.29c.09-.2.3-.478.485-.5a13.72,13.72,0,0,0,5.977-2.261c1.374,3.006.841,5.952.3,8.851" transform="translate(-13.505 -42.865)" fill="#25e0ac"/><path d="M52.618,114.388l2.5-1.6c1.066,2.485,2.175,4.854,3.1,7.294a5.756,5.756,0,0,1-.476,4.469c-.466,1.019-1.025,2-1.573,3.052-.978-.486-1.883-.891-2.729-1.4-.162-.1-.161-.6-.111-.894.494-2.913.913-5.824.055-8.741-.21-.713-.489-1.406-.762-2.183" transform="translate(-19.103 -40.948)" fill="#d3f9ee"/><path d="M79.552,114.5a24.2,24.2,0,0,0-2.128-10.109c1.832,0,3.506-.02,5.179.032.162.005.379.435.455.7a12.678,12.678,0,0,1-.041,6.51c-.241,1.029-.538,2.045-.818,3.1l-2.647-.23" transform="translate(-28.109 -37.898)" fill="#d3f9ee"/><path d="M69.625,98.193c-.211-2.2,2.046-4.164,4.571-3.781a12.963,12.963,0,0,1,6.038,2.923l-10.609.858" transform="translate(-25.273 -34.26)" fill="#b1dbea"/><path d="M45.253,111.321a2.544,2.544,0,0,1,.32-3.459c1.171-1.3,3.231-1.417,5.441-.2l-5.762,3.661" transform="translate(-16.235 -38.779)" fill="#b1dbea"/><path d="M76.585,137.072l3.424,1.418q.118,1.27.283,3.048l-4.027-.273c.113-1.48.218-2.852.321-4.194" transform="translate(-27.688 -49.765)" fill="#d3f9ee"/><path d="M50.5,137.906l5.055,2.74c-1.272,1.225-3.819,1.482-4.95.561s-1.219-1.956-.1-3.3" transform="translate(-18.045 -50.068)" fill="#b1dbea"/><path d="M137.218,86.943a3.154,3.154,0,1,1-3.211,3.135,3.186,3.186,0,0,1,3.211-3.135" transform="translate(-48.652 -31.565)" fill="#20bdfc"/><path d="M130.6,5.043A1.549,1.549,0,0,1,132.2,6.549,1.576,1.576,0,0,1,130.641,8.2a1.592,1.592,0,0,1-1.56-1.564,1.573,1.573,0,0,1,1.524-1.59" transform="translate(-46.864 -1.831)" fill="#20bdfc"/><path d="M133.171,114.92a1.588,1.588,0,0,1-1.6-1.517,1.548,1.548,0,0,1,1.471-1.627,1.584,1.584,0,0,1,1.665,1.545,1.617,1.617,0,0,1-1.534,1.6" transform="translate(-47.767 -40.58)" fill="#20bdfc"/><path d="M126.244,46.758a4.736,4.736,0,1,1,4.853-4.694,4.74,4.74,0,0,1-4.853,4.694m1.685-4.734A1.58,1.58,0,0,0,124.77,42a1.58,1.58,0,1,0,3.159.027" transform="translate(-44.146 -13.537)"/><path d="M104.915,118.272a1.58,1.58,0,1,1-1.592-1.515,1.561,1.561,0,0,1,1.592,1.515" transform="translate(-36.943 -42.389)"/><path d="M129.738,43.838a1.58,1.58,0,1,1-3.159-.027,1.58,1.58,0,0,1,3.159.027" transform="translate(-45.955 -15.351)" fill="#fff"/></g></g><rect width="144" height="144" transform="translate(1201 1367)" fill="none"/></g></svg>