<svg xmlns="http://www.w3.org/2000/svg" xmlns:xlink="http://www.w3.org/1999/xlink" width="86" height="86" viewBox="0 0 86 86"><defs><clipPath id="a"><rect width="71.846" height="71.848" fill="none"/></clipPath></defs><g transform="translate(-287 -4382)"><g transform="translate(294 4389)"><g clip-path="url(#a)"><path d="M36.338,0a2.955,2.955,0,0,1,1.075,1.144q1.1,1.908,2.255,3.787a6.065,6.065,0,0,0,8.479,2.288c1.371-.749,2.725-1.528,4.092-2.282,1.31-.722,2.318-.118,2.345,1.387.032,1.753.026,3.508.12,5.258a5.94,5.94,0,0,0,5.521,5.545c1.773.1,3.551.088,5.327.124,1.456.029,2.055,1.042,1.354,2.32-.74,1.35-1.5,2.688-2.245,4.034A6.076,6.076,0,0,0,67,32.229c1.3.778,2.61,1.543,3.908,2.326,1.264.763,1.254,1.974-.02,2.74-1.3.781-2.607,1.547-3.908,2.325a6.081,6.081,0,0,0-2.3,8.634c.747,1.345,1.506,2.683,2.245,4.033a1.424,1.424,0,0,1-1.32,2.3c-1.776.038-3.554.029-5.327.122a5.94,5.94,0,0,0-5.567,5.572c-.092,1.75-.087,3.5-.119,5.258-.028,1.492-1.048,2.082-2.367,1.354-1.347-.744-2.683-1.507-4.032-2.247a6.051,6.051,0,0,0-8.529,2.281c-.811,1.336-1.6,2.686-2.411,4.021a1.427,1.427,0,0,1-2.65.014c-.824-1.355-1.624-2.725-2.449-4.08A6.062,6.062,0,0,0,23.66,64.63c-1.366.758-2.724,1.529-4.094,2.28-1.276.7-2.291.1-2.319-1.358-.033-1.753-.026-3.508-.119-5.258A5.93,5.93,0,0,0,11.51,54.7c-1.75-.09-3.5-.082-5.257-.118-1.411-.029-2.021-1.047-1.348-2.279.761-1.391,1.553-2.764,2.313-4.156a6.066,6.066,0,0,0-2.287-8.48c-1.255-.764-2.515-1.52-3.786-2.256A2.946,2.946,0,0,1,0,36.338V35.5a1.7,1.7,0,0,1,.978-1.191c1.252-.73,2.485-1.491,3.733-2.23a6.039,6.039,0,0,0,3.17-4.769,5.5,5.5,0,0,0-.593-3.053c-.6-1.214-1.3-2.376-1.955-3.565-.225-.41-.455-.818-.65-1.242a1.569,1.569,0,0,1,1.438-2.366c.77-.04,1.544-.038,2.313,0a30.276,30.276,0,0,0,3.5-.18A5.845,5.845,0,0,0,16.95,11.51c.082-1.775.088-3.548.131-5.322a1.573,1.573,0,0,1,2.428-1.474c1.322.649,2.6,1.385,3.869,2.128a6.081,6.081,0,0,0,5.757.575,5.82,5.82,0,0,0,2.632-2.239c.888-1.375,1.7-2.795,2.538-4.2A1.716,1.716,0,0,1,35.5,0Z"/><path d="M69.843,58.178c-1.087,0-2.044-.059-2.993.01a8.9,8.9,0,0,0-8.606,9.028c-.021.793,0,1.586,0,2.441A4.8,4.8,0,0,1,56.894,69a10.761,10.761,0,0,0-4.555-1.682,8.733,8.733,0,0,0-8.189,3.748c-.523.713-.941,1.5-1.4,2.261-.41.674-.4.672-.829-.028a24.012,24.012,0,0,0-1.777-2.767,8.9,8.9,0,0,0-10.964-2.284c-.849.44-1.678.918-2.518,1.375-.035.019-.089,0-.268,0,0-1,.068-2.007-.011-3a8.872,8.872,0,0,0-9-8.475c-.793-.021-1.587,0-2.53,0,.429-.781.787-1.467,1.176-2.136a8.967,8.967,0,0,0-2.837-12.2,21.531,21.531,0,0,0-1.985-1.182c-.617-.32-.454-.494.026-.777a16.669,16.669,0,0,0,3.46-2.364,8.912,8.912,0,0,0,1.729-10.218c-.463-.939-.988-1.846-1.567-2.92.848,0,1.6.007,2.35,0a9.174,9.174,0,0,0,4.7-1.193,8.9,8.9,0,0,0,4.535-7.946c.017-.769,0-1.54,0-2.47.831.464,1.547.869,2.268,1.266a8.915,8.915,0,0,0,10.387-.954,10.117,10.117,0,0,0,1.953-2.37,10.571,10.571,0,0,1,1.31-2.028,14.629,14.629,0,0,1,1.3,2.054,9.078,9.078,0,0,0,2.74,2.957,8.776,8.776,0,0,0,9.236.517c.848-.423,1.667-.9,2.612-1.421,0,.891-.015,1.658,0,2.425a8.978,8.978,0,0,0,9.208,9.164c.747.013,1.493,0,2.393,0L68.58,28.626a8.968,8.968,0,0,0,3.159,12.22c.6.363,1.192.737,1.8,1.076.41.227.547.369.026.652-.758.412-1.5.865-2.215,1.343a8.874,8.874,0,0,0-3.042,11.438c.455.911.97,1.792,1.531,2.822" transform="translate(-6.424 -6.336)" fill="#fe8649"/><path d="M32.444,55.165A22.755,22.755,0,1,1,55.267,77.954,22.73,22.73,0,0,1,32.444,55.165" transform="translate(-19.287 -19.285)"/><path d="M59.384,39.4A19.936,19.936,0,1,1,39.4,59.2a19.943,19.943,0,0,1,19.98-19.8" transform="translate(-23.425 -23.422)" fill="#fec265"/><path d="M122.3,72.571a13.491,13.491,0,0,1-.156,2.312,1.457,1.457,0,0,1-1.547,1.463,1.4,1.4,0,0,1-1.25-1.759A14.629,14.629,0,0,0,117.071,64.5c-.164-.255-.355-.492-.516-.749a1.406,1.406,0,1,1,2.3-1.617,17.113,17.113,0,0,1,3.159,7.24,15.161,15.161,0,0,1,.283,3.194" transform="translate(-69.126 -36.565)"/><path d="M108.29,56.186a1.374,1.374,0,0,1-1.4-1.361,1.419,1.419,0,0,1,1.4-1.446,1.434,1.434,0,0,1,1.4,1.381,1.388,1.388,0,0,1-1.41,1.426" transform="translate(-63.545 -31.733)" fill="#010100"/></g></g><rect width="86" height="86" transform="translate(287 4382)" fill="none"/></g></svg>