<svg xmlns="http://www.w3.org/2000/svg" xmlns:xlink="http://www.w3.org/1999/xlink" width="86" height="86" viewBox="0 0 86 86"><defs><clipPath id="a"><rect width="42.198" height="74.969" fill="none"/></clipPath></defs><g transform="translate(-601 -4381)"><g transform="translate(623.089 4386.605)"><g clip-path="url(#a)"><path d="M10.693,20.229c-1.119-.224-1.478-.65-1.48-1.791q-.007-3.981,0-7.962A10.177,10.177,0,0,1,18.006.116c.058-.01.107-.076.161-.115h2.489c.509.125,1.023.235,1.527.378a10.253,10.253,0,0,1,7.524,10.059q.018,13.869-.008,27.738a1.219,1.219,0,0,0,.613,1.178A19.46,19.46,0,1,1,.216,58.389c-1.072-8,1.863-14.412,8.463-19.1a1.055,1.055,0,0,0,.545-.99c-.028-2.513-.016-5.025-.012-7.538,0-1.147.361-1.573,1.48-1.8a1.3,1.3,0,0,1,1.446.8,2.593,2.593,0,0,1,.227,1.211c0,2.757-.01,5.515.007,8.272a2.346,2.346,0,0,1-1.22,2.169A15.977,15.977,0,0,0,3.219,53.768,15.672,15.672,0,0,0,7.472,66.549a15.99,15.99,0,0,0,10.65,5.233,15.6,15.6,0,0,0,9.42-2.123A15.56,15.56,0,0,0,35.6,57.728c.846-6.882-1.79-12.3-7.589-16.119a2.771,2.771,0,0,1-1.43-2.569q.056-14.2.015-28.4a7.065,7.065,0,0,0-2.928-6.088,6.722,6.722,0,0,0-7.267-.7,6.788,6.788,0,0,0-4.03,6.384c-.019,2.66,0,5.319,0,7.979a2.092,2.092,0,0,1-.743,1.822c-.275.209-.563.41-.931.192" transform="translate(0 -0.001)"/><path d="M16.729,26.3a1.579,1.579,0,0,0,1.446-1.856c.005-2.733-.031-5.465.012-8.2a7.313,7.313,0,1,1,14.625.18c.029,2.122.006,4.245.006,6.367,0,7.49.016,14.98-.019,22.469a2.23,2.23,0,0,0,1.249,2.166A16.528,16.528,0,1,1,9.013,60.2a15.955,15.955,0,0,1,7.816-12.7A2.483,2.483,0,0,0,18.2,45.089c-.068-2.731-.019-5.464-.023-8.2a1.577,1.577,0,0,0-1.446-1.855V32.155c.1-.19.309-.223.47-.325a1.26,1.26,0,0,0,0-2.324c-.161-.1-.369-.136-.47-.325V26.3" transform="translate(-6.036 -6.07)" fill="#25e0ac"/><path d="M108.129,34.389c-.876,0-1.753.013-2.629,0a1.458,1.458,0,1,1-.044-2.914c1.8-.025,3.6-.028,5.4,0a1.455,1.455,0,0,1-.029,2.909c-.9.021-1.8,0-2.7,0" transform="translate(-70.101 -21.208)"/><path d="M108.182,56.644c.852,0,1.7-.014,2.556,0a1.447,1.447,0,0,1,1.562,1.466,1.426,1.426,0,0,1-1.563,1.454q-2.592.018-5.184,0a1.486,1.486,0,0,1-1.584-1.456,1.507,1.507,0,0,1,1.586-1.465c.876-.017,1.752,0,2.629,0" transform="translate(-70.103 -38.19)"/><path d="M108.106,84.739c-.852,0-1.7.01-2.556,0a1.465,1.465,0,1,1,.006-2.92q2.592-.024,5.184,0a1.463,1.463,0,1,1-.005,2.92c-.877.012-1.753,0-2.629,0" transform="translate(-70.103 -55.158)"/><path d="M108.12,109.907c-.876,0-1.753.013-2.629,0a1.458,1.458,0,1,1-.023-2.914q2.664-.037,5.33,0a1.46,1.46,0,1,1-.049,2.917c-.876.013-1.752,0-2.629,0" transform="translate(-70.102 -72.128)"/><path d="M29.772,70.95c.95.237,1.438.741,1.437,1.487s-.486,1.249-1.437,1.488c-1.011-.2-1.475-.67-1.476-1.488s.466-1.286,1.476-1.487" transform="translate(-19.079 -47.84)" fill="#010101"/><path d="M35.927,48.207c0,5,.007,10.005-.011,15.007a.749.749,0,0,0,.574.836,13.629,13.629,0,1,1-9.945.019.838.838,0,0,0,.6-.964q-.016-14.787-.008-29.576c0-1.624.42-2.05,2.019-2.051,1.659,0,3.319,0,4.978,0,1.235,0,1.784.55,1.786,1.792q.007,7.467,0,14.934" transform="translate(-12.074 -21.224)"/><path d="M39.078,55.834q0,7.284,0,14.568c0,1.314.252,1.645,1.525,2.021a10.677,10.677,0,1,1-6.081.017c1.4-.418,1.628-.725,1.628-2.174q0-14.531-.012-29.062c0-.624.093-.938.812-.852.672.08,1.581-.21,1.977.134.462.4.142,1.33.144,2.027.015,4.441.007,8.882.007,13.323" transform="translate(-18.153 -27.181)" fill="#fe6371"/><path d="M49.419,175.095A7.524,7.524,0,0,1,45.788,174a1.464,1.464,0,0,1-.658-2.049,1.438,1.438,0,0,1,2.092-.485A4.865,4.865,0,0,0,54.59,167.4a1.436,1.436,0,0,1,1.506-1.526,1.516,1.516,0,0,1,1.407,1.713,7.861,7.861,0,0,1-8.084,7.5" transform="translate(-30.296 -111.846)"/><path d="M35.944,167.362a1.437,1.437,0,0,1,1.449-1.492,1.462,1.462,0,1,1-.01,2.925,1.441,1.441,0,0,1-1.439-1.432" transform="translate(-24.236 -111.841)" fill="#010001"/></g></g><rect width="86" height="86" transform="translate(601 4381)" fill="none"/></g></svg>